G04*
G04 #@! TF.GenerationSoftware,Altium Limited,Altium Designer,19.1.5 (86)*
G04*
G04 Layer_Color=32896*
%FSLAX25Y25*%
%MOIN*%
G70*
G01*
G75*
%ADD10C,0.01000*%
%ADD11C,0.00984*%
%ADD12C,0.02362*%
%ADD13C,0.00394*%
%ADD15C,0.00500*%
%ADD16C,0.00787*%
D10*
X116821Y-6765D02*
G03*
X116821Y-6765I-500J0D01*
G01*
X-81821Y-92369D02*
Y-97367D01*
X-80821Y-98367D01*
X-78822D01*
X-77822Y-97367D01*
Y-92369D01*
X-123585Y6109D02*
Y2111D01*
X-121586Y111D01*
X-119586Y2111D01*
Y6109D01*
X-55200Y114198D02*
Y108200D01*
X-53201Y110199D01*
X-51201Y108200D01*
Y114198D01*
X11896Y98611D02*
Y92613D01*
X14895D01*
X15894Y93612D01*
Y94612D01*
X14895Y95612D01*
X11896D01*
X14895D01*
X15894Y96611D01*
Y97611D01*
X14895Y98611D01*
X11896D01*
X3445Y84500D02*
Y88499D01*
X5444Y90498D01*
X7444Y88499D01*
Y84500D01*
Y87499D01*
X3445D01*
X-3027Y97523D02*
X-2027Y98522D01*
Y100522D01*
X-3027Y101521D01*
X-7025D01*
X-8025Y100522D01*
Y98522D01*
X-7025Y97523D01*
X-5026D01*
Y99522D01*
X-8025Y95523D02*
X-2027D01*
X-8025Y91524D01*
X-2027D01*
Y89525D02*
X-8025D01*
Y86526D01*
X-7025Y85526D01*
X-3027D01*
X-2027Y86526D01*
Y89525D01*
X-12854Y104200D02*
X-16853D01*
X-18852Y102201D01*
X-16853Y100201D01*
X-12854D01*
X-13854Y94203D02*
X-12854Y95203D01*
Y97202D01*
X-13854Y98202D01*
X-17852D01*
X-18852Y97202D01*
Y95203D01*
X-17852Y94203D01*
X-13854Y88205D02*
X-12854Y89205D01*
Y91204D01*
X-13854Y92204D01*
X-17852D01*
X-18852Y91204D01*
Y89205D01*
X-17852Y88205D01*
D11*
X-1409Y-75528D02*
G03*
X-1409Y-75528I-492J0D01*
G01*
D12*
X7114Y-69977D02*
G03*
X7114Y-69977I-1181J0D01*
G01*
D13*
X107800Y-48240D02*
X112400D01*
X107800Y-47846D02*
X112400D01*
X109059Y-54635D02*
X110104Y-53590D01*
X111149Y-54635D01*
X107800Y-59600D02*
X112400D01*
Y-47846D01*
X107800Y-59600D02*
Y-47846D01*
X109059Y-54635D02*
X111149D01*
X109595Y-54300D02*
X110605D01*
X109815Y-53995D02*
X110418D01*
X-102392Y-33818D02*
X-101347Y-34863D01*
X-102392Y-35907D02*
X-101347Y-34863D01*
X-102392Y-35907D02*
Y-33818D01*
X-102057Y-35363D02*
Y-34354D01*
X-101752Y-35177D02*
Y-34573D01*
X-89404Y-31710D02*
X-88359Y-30665D01*
X-90449D02*
X-89404Y-31710D01*
X-90449Y-30665D02*
X-88359D01*
X-89905Y-31000D02*
X-88895D01*
X-89718Y-31305D02*
X-89115D01*
X-81404Y-31710D02*
X-80359Y-30665D01*
X-82449D02*
X-81404Y-31710D01*
X-82449Y-30665D02*
X-80359D01*
X-81905Y-31000D02*
X-80895D01*
X-81718Y-31305D02*
X-81115D01*
D15*
X-14207Y-109157D02*
G03*
X-14585Y-96424I14207J6795D01*
G01*
Y-96424D02*
G03*
X-14207Y-109157I-7311J-6590D01*
G01*
X101636Y42275D02*
G03*
X90798Y35581I-12988J8906D01*
G01*
D02*
G03*
X101636Y42275I9363J-3036D01*
G01*
X-76213Y60843D02*
G03*
X-87430Y66882I-2052J9626D01*
G01*
Y66882D02*
G03*
X-76213Y60843I-1219J-15701D01*
G01*
X113721Y-22465D02*
Y-14665D01*
X109921Y-22465D02*
X113721D01*
X109921Y-14665D02*
X113721D01*
X109921Y-22465D02*
Y-14665D01*
X122700Y3200D02*
Y11000D01*
X118900D02*
X122700D01*
X118900Y3200D02*
X122700D01*
X118900D02*
Y11000D01*
X109421Y-22465D02*
Y-14665D01*
X105621Y-22465D02*
X109421D01*
X105621Y-14665D02*
X109421D01*
X105621Y-22465D02*
Y-14665D01*
X118020Y-22465D02*
Y-14665D01*
X114220Y-22465D02*
X118020D01*
X114220Y-14665D02*
X118020D01*
X114220Y-22465D02*
Y-14665D01*
X-103500Y-41200D02*
X-95700D01*
Y-37400D01*
X-103500Y-41200D02*
Y-37400D01*
X-95700D01*
X-87200Y-41200D02*
X-79400D01*
Y-37400D01*
X-87200Y-41200D02*
Y-37400D01*
X-79400D01*
X-95300Y-41200D02*
X-87500D01*
Y-37400D01*
X-95300Y-41200D02*
Y-37400D01*
X-87500D01*
X-106957Y-32958D02*
X-96357D01*
X-106957Y-36858D02*
Y-32958D01*
Y-36858D02*
X-96357D01*
Y-32958D01*
X-96857Y-36858D02*
Y-33059D01*
X-87500Y-36700D02*
Y-26100D01*
X-91400D02*
X-87500D01*
X-91400Y-36700D02*
Y-26100D01*
Y-36700D02*
X-87500D01*
X-91400Y-36200D02*
X-87600D01*
X-79500Y-36700D02*
Y-26100D01*
X-83400D02*
X-79500D01*
X-83400Y-36700D02*
Y-26100D01*
Y-36700D02*
X-79500D01*
X-83400Y-36200D02*
X-79600D01*
X209Y-50700D02*
X8009D01*
Y-54500D02*
Y-50700D01*
X209Y-54500D02*
Y-50700D01*
Y-54500D02*
X8009D01*
X11909Y-54400D02*
X19709D01*
X11909D02*
Y-50600D01*
X19709Y-54400D02*
Y-50600D01*
X11909D02*
X19709D01*
X209Y-75100D02*
X8009D01*
Y-78900D02*
Y-75100D01*
X209Y-78900D02*
Y-75100D01*
Y-78900D02*
X8009D01*
X19609Y-75100D02*
X27409D01*
X19609Y-78900D02*
Y-75100D01*
X27409Y-78900D02*
Y-75100D01*
X19609Y-78900D02*
X27409D01*
X40709Y-76700D02*
Y-68900D01*
X36909D02*
X40709D01*
X36909Y-76700D02*
X40709D01*
X36909D02*
Y-68900D01*
X28709Y-68800D02*
X36509D01*
X28709D02*
Y-65000D01*
X36509Y-68800D02*
Y-65000D01*
X28709D02*
X36509D01*
X28709Y-68900D02*
X36509D01*
X28709Y-72700D02*
Y-68900D01*
X36509Y-72700D02*
Y-68900D01*
X28709Y-72700D02*
X36509D01*
X28709Y-72800D02*
X36509D01*
Y-76600D02*
Y-72800D01*
X28709Y-76600D02*
Y-72800D01*
Y-76600D02*
X36509D01*
X28709Y-61104D02*
X36509D01*
Y-64904D02*
Y-61104D01*
X28709Y-64904D02*
Y-61104D01*
Y-64904D02*
X36509D01*
X28709Y-61004D02*
X36509D01*
X28709D02*
Y-57204D01*
X36509Y-61004D02*
Y-57204D01*
X28709D02*
X36509D01*
X20309Y-54400D02*
X28109D01*
X20309D02*
Y-50600D01*
X28109Y-54400D02*
Y-50600D01*
X20309D02*
X28109D01*
X28709Y-57104D02*
X36509D01*
X28709D02*
Y-53304D01*
X36509Y-57104D02*
Y-53304D01*
X28709D02*
X36509D01*
X-8191Y-50700D02*
X-391D01*
Y-54500D02*
Y-50700D01*
X-8191Y-54500D02*
Y-50700D01*
Y-54500D02*
X-391D01*
X-16591Y-53050D02*
X-8791D01*
Y-56850D02*
Y-53050D01*
X-16591Y-56850D02*
Y-53050D01*
Y-56850D02*
X-8791D01*
X-16591Y-56923D02*
X-8791D01*
Y-60723D02*
Y-56923D01*
X-16591Y-60723D02*
Y-56923D01*
Y-60723D02*
X-8791D01*
X-16591Y-64650D02*
X-8791D01*
X-16591D02*
Y-60850D01*
X-8791Y-64650D02*
Y-60850D01*
X-16591D02*
X-8791D01*
X-8191Y-75100D02*
X-391D01*
Y-78900D02*
Y-75100D01*
X-8191Y-78900D02*
Y-75100D01*
Y-78900D02*
X-391D01*
X-16591Y-68591D02*
X-8791D01*
X-16591D02*
Y-64791D01*
X-8791Y-68591D02*
Y-64791D01*
X-16591D02*
X-8791D01*
X-16591Y-68700D02*
X-8791D01*
Y-72500D02*
Y-68700D01*
X-16591Y-72500D02*
Y-68700D01*
Y-72500D02*
X-8791D01*
X-16591Y-72450D02*
X-8791D01*
Y-76250D02*
Y-72450D01*
X-16591Y-76250D02*
Y-72450D01*
Y-76250D02*
X-8791D01*
X43200Y-30000D02*
Y-22200D01*
X47000D01*
X43200Y-30000D02*
X47000D01*
Y-22200D01*
X51794Y-34900D02*
Y-27100D01*
X55594D01*
X51794Y-34900D02*
X55594D01*
Y-27100D01*
X76869Y-41118D02*
Y-32918D01*
Y-41118D02*
X80869D01*
X76869Y-32918D02*
X80869D01*
Y-41118D02*
Y-32918D01*
X80800Y-30300D02*
Y-22500D01*
X77000D02*
X80800D01*
X77000Y-30300D02*
X80800D01*
X77000D02*
Y-22500D01*
X113900Y-43601D02*
Y-46600D01*
X112400D01*
X111901Y-46100D01*
Y-44101D01*
X112400Y-43601D01*
X113900D01*
X110901Y-46600D02*
X109901D01*
X110401D01*
Y-43601D01*
X110901Y-44101D01*
X106402Y-46600D02*
X108402D01*
X106402Y-44601D01*
Y-44101D01*
X106902Y-43601D01*
X107902D01*
X108402Y-44101D01*
X40110Y-77901D02*
X40610Y-77401D01*
X41610D01*
X42109Y-77901D01*
Y-79900D01*
X41610Y-80400D01*
X40610D01*
X40110Y-79900D01*
X37111Y-80400D02*
X39110D01*
X37111Y-78401D01*
Y-77901D01*
X37611Y-77401D01*
X38611D01*
X39110Y-77901D01*
X115059Y8246D02*
Y5747D01*
X114559Y5247D01*
X113559D01*
X113060Y5747D01*
Y8246D01*
X112060Y5747D02*
X111560Y5247D01*
X110561D01*
X110061Y5747D01*
Y7747D01*
X110561Y8246D01*
X111560D01*
X112060Y7747D01*
Y7247D01*
X111560Y6747D01*
X110061D01*
X-103900Y-57470D02*
Y-59969D01*
X-104400Y-60469D01*
X-105400D01*
X-105899Y-59969D01*
Y-57470D01*
X-106899Y-57970D02*
X-107399Y-57470D01*
X-108399D01*
X-108898Y-57970D01*
Y-58470D01*
X-108399Y-58969D01*
X-107899D01*
X-108399D01*
X-108898Y-59469D01*
Y-59969D01*
X-108399Y-60469D01*
X-107399D01*
X-106899Y-59969D01*
X15509Y-75401D02*
Y-77900D01*
X15010Y-78400D01*
X14010D01*
X13510Y-77900D01*
Y-75401D01*
X10511Y-78400D02*
X12510D01*
X10511Y-76401D01*
Y-75901D01*
X11011Y-75401D01*
X12010D01*
X12510Y-75901D01*
X42612Y-22200D02*
X39613D01*
Y-23699D01*
X40113Y-24199D01*
X41112D01*
X41612Y-23699D01*
Y-22200D01*
Y-23200D02*
X42612Y-24199D01*
Y-26699D02*
X39613D01*
X41112Y-25199D01*
Y-27198D01*
X40113Y-28198D02*
X39613Y-28698D01*
Y-29698D01*
X40113Y-30197D01*
X40613D01*
X41112Y-29698D01*
Y-29198D01*
Y-29698D01*
X41612Y-30197D01*
X42112D01*
X42612Y-29698D01*
Y-28698D01*
X42112Y-28198D01*
X48379Y-34100D02*
X51378D01*
Y-32601D01*
X50878Y-32101D01*
X49878D01*
X49378Y-32601D01*
Y-34100D01*
Y-33100D02*
X48379Y-32101D01*
Y-29601D02*
X51378D01*
X49878Y-31101D01*
Y-29102D01*
X50878Y-28102D02*
X51378Y-27602D01*
Y-26602D01*
X50878Y-26103D01*
X48878D01*
X48379Y-26602D01*
Y-27602D01*
X48878Y-28102D01*
X50878D01*
X104600Y-14300D02*
X101601D01*
Y-15800D01*
X102101Y-16299D01*
X103101D01*
X103600Y-15800D01*
Y-14300D01*
Y-15300D02*
X104600Y-16299D01*
X102101Y-17299D02*
X101601Y-17799D01*
Y-18799D01*
X102101Y-19298D01*
X102601D01*
X103101Y-18799D01*
Y-18299D01*
Y-18799D01*
X103600Y-19298D01*
X104100D01*
X104600Y-18799D01*
Y-17799D01*
X104100Y-17299D01*
X101601Y-22297D02*
X102101Y-21298D01*
X103101Y-20298D01*
X104100D01*
X104600Y-20798D01*
Y-21798D01*
X104100Y-22297D01*
X103600D01*
X103101Y-21798D01*
Y-20298D01*
X113300Y-28500D02*
X110301D01*
Y-30000D01*
X110801Y-30499D01*
X111801D01*
X112300Y-30000D01*
Y-28500D01*
Y-29500D02*
X113300Y-30499D01*
X110801Y-31499D02*
X110301Y-31999D01*
Y-32999D01*
X110801Y-33498D01*
X111301D01*
X111801Y-32999D01*
Y-32499D01*
Y-32999D01*
X112300Y-33498D01*
X112800D01*
X113300Y-32999D01*
Y-31999D01*
X112800Y-31499D01*
X110301Y-36497D02*
Y-34498D01*
X111801D01*
X111301Y-35498D01*
Y-35998D01*
X111801Y-36497D01*
X112800D01*
X113300Y-35998D01*
Y-34998D01*
X112800Y-34498D01*
X122700Y-14665D02*
X119701D01*
Y-16165D01*
X120201Y-16665D01*
X121201D01*
X121700Y-16165D01*
Y-14665D01*
Y-15665D02*
X122700Y-16665D01*
X120201Y-17664D02*
X119701Y-18164D01*
Y-19164D01*
X120201Y-19664D01*
X120701D01*
X121201Y-19164D01*
Y-18664D01*
Y-19164D01*
X121700Y-19664D01*
X122200D01*
X122700Y-19164D01*
Y-18164D01*
X122200Y-17664D01*
X120201Y-20663D02*
X119701Y-21163D01*
Y-22163D01*
X120201Y-22663D01*
X120701D01*
X121201Y-22163D01*
Y-21663D01*
Y-22163D01*
X121700Y-22663D01*
X122200D01*
X122700Y-22163D01*
Y-21163D01*
X122200Y-20663D01*
X-391Y-82600D02*
Y-79601D01*
X-1890D01*
X-2390Y-80101D01*
Y-81100D01*
X-1890Y-81600D01*
X-391D01*
X-1390D02*
X-2390Y-82600D01*
X-3390Y-80101D02*
X-3889Y-79601D01*
X-4889D01*
X-5389Y-80101D01*
Y-80601D01*
X-4889Y-81100D01*
X-4389D01*
X-4889D01*
X-5389Y-81600D01*
Y-82100D01*
X-4889Y-82600D01*
X-3889D01*
X-3390Y-82100D01*
X-8388Y-82600D02*
X-6389D01*
X-8388Y-80601D01*
Y-80101D01*
X-7888Y-79601D01*
X-6888D01*
X-6389Y-80101D01*
X-17391Y-75700D02*
Y-72701D01*
X-18890D01*
X-19390Y-73201D01*
Y-74200D01*
X-18890Y-74700D01*
X-17391D01*
X-18390D02*
X-19390Y-75700D01*
X-20390Y-73201D02*
X-20889Y-72701D01*
X-21889D01*
X-22389Y-73201D01*
Y-73701D01*
X-21889Y-74200D01*
X-21389D01*
X-21889D01*
X-22389Y-74700D01*
Y-75200D01*
X-21889Y-75700D01*
X-20889D01*
X-20390Y-75200D01*
X-23389Y-75700D02*
X-24388D01*
X-23889D01*
Y-72701D01*
X-23389Y-73201D01*
X8209Y-82500D02*
Y-79501D01*
X6710D01*
X6210Y-80001D01*
Y-81001D01*
X6710Y-81500D01*
X8209D01*
X7210D02*
X6210Y-82500D01*
X3211D02*
X5210D01*
X3211Y-80501D01*
Y-80001D01*
X3711Y-79501D01*
X4710D01*
X5210Y-80001D01*
X2211Y-82000D02*
X1712Y-82500D01*
X712D01*
X212Y-82000D01*
Y-80001D01*
X712Y-79501D01*
X1712D01*
X2211Y-80001D01*
Y-80501D01*
X1712Y-81001D01*
X212D01*
X27100Y-49700D02*
Y-46701D01*
X25600D01*
X25101Y-47201D01*
Y-48201D01*
X25600Y-48700D01*
X27100D01*
X26100D02*
X25101Y-49700D01*
X22102D02*
X24101D01*
X22102Y-47701D01*
Y-47201D01*
X22601Y-46701D01*
X23601D01*
X24101Y-47201D01*
X21102D02*
X20602Y-46701D01*
X19602D01*
X19103Y-47201D01*
Y-47701D01*
X19602Y-48201D01*
X19103Y-48700D01*
Y-49200D01*
X19602Y-49700D01*
X20602D01*
X21102Y-49200D01*
Y-48700D01*
X20602Y-48201D01*
X21102Y-47701D01*
Y-47201D01*
X20602Y-48201D02*
X19602D01*
X-17391Y-72050D02*
Y-69051D01*
X-18890D01*
X-19390Y-69551D01*
Y-70551D01*
X-18890Y-71050D01*
X-17391D01*
X-18390D02*
X-19390Y-72050D01*
X-22389D02*
X-20390D01*
X-22389Y-70051D01*
Y-69551D01*
X-21889Y-69051D01*
X-20889D01*
X-20390Y-69551D01*
X-23389Y-69051D02*
X-25388D01*
Y-69551D01*
X-23389Y-71550D01*
Y-72050D01*
X-20900Y-68200D02*
Y-65201D01*
X-22400D01*
X-22899Y-65701D01*
Y-66701D01*
X-22400Y-67200D01*
X-20900D01*
X-21900D02*
X-22899Y-68200D01*
X-25898D02*
X-23899D01*
X-25898Y-66201D01*
Y-65701D01*
X-25399Y-65201D01*
X-24399D01*
X-23899Y-65701D01*
X-28897Y-65201D02*
X-27898Y-65701D01*
X-26898Y-66701D01*
Y-67700D01*
X-27398Y-68200D01*
X-28398D01*
X-28897Y-67700D01*
Y-67200D01*
X-28398Y-66701D01*
X-26898D01*
X49500Y-56400D02*
Y-53401D01*
X48000D01*
X47501Y-53901D01*
Y-54900D01*
X48000Y-55400D01*
X49500D01*
X48500D02*
X47501Y-56400D01*
X44502D02*
X46501D01*
X44502Y-54401D01*
Y-53901D01*
X45001Y-53401D01*
X46001D01*
X46501Y-53901D01*
X42002Y-56400D02*
Y-53401D01*
X43502Y-54900D01*
X41503D01*
X17100Y-49800D02*
Y-46801D01*
X15600D01*
X15101Y-47301D01*
Y-48300D01*
X15600Y-48800D01*
X17100D01*
X16100D02*
X15101Y-49800D01*
X12102D02*
X14101D01*
X12102Y-47801D01*
Y-47301D01*
X12601Y-46801D01*
X13601D01*
X14101Y-47301D01*
X9103Y-49800D02*
X11102D01*
X9103Y-47801D01*
Y-47301D01*
X9602Y-46801D01*
X10602D01*
X11102Y-47301D01*
X49700Y-60500D02*
Y-57501D01*
X48201D01*
X47701Y-58001D01*
Y-59000D01*
X48201Y-59500D01*
X49700D01*
X48700D02*
X47701Y-60500D01*
X44702D02*
X46701D01*
X44702Y-58501D01*
Y-58001D01*
X45201Y-57501D01*
X46201D01*
X46701Y-58001D01*
X43702D02*
X43202Y-57501D01*
X42202D01*
X41703Y-58001D01*
Y-60000D01*
X42202Y-60500D01*
X43202D01*
X43702Y-60000D01*
Y-58001D01*
X49600Y-64500D02*
Y-61501D01*
X48101D01*
X47601Y-62001D01*
Y-63001D01*
X48101Y-63500D01*
X49600D01*
X48600D02*
X47601Y-64500D01*
X46601D02*
X45601D01*
X46101D01*
Y-61501D01*
X46601Y-62001D01*
X44102Y-64000D02*
X43602Y-64500D01*
X42602D01*
X42102Y-64000D01*
Y-62001D01*
X42602Y-61501D01*
X43602D01*
X44102Y-62001D01*
Y-62501D01*
X43602Y-63001D01*
X42102D01*
X-791Y-49800D02*
Y-46801D01*
X-2290D01*
X-2790Y-47301D01*
Y-48300D01*
X-2290Y-48800D01*
X-791D01*
X-1790D02*
X-2790Y-49800D01*
X-3790D02*
X-4789D01*
X-4290D01*
Y-46801D01*
X-3790Y-47301D01*
X-8288Y-49800D02*
X-6289D01*
X-8288Y-47801D01*
Y-47301D01*
X-7788Y-46801D01*
X-6789D01*
X-6289Y-47301D01*
X-17391Y-56450D02*
Y-53451D01*
X-18890D01*
X-19390Y-53951D01*
Y-54950D01*
X-18890Y-55450D01*
X-17391D01*
X-18390D02*
X-19390Y-56450D01*
X-20390D02*
X-21389D01*
X-20889D01*
Y-53451D01*
X-20390Y-53951D01*
X-22889Y-56450D02*
X-23889D01*
X-23389D01*
Y-53451D01*
X-22889Y-53951D01*
X7609Y-50100D02*
Y-47101D01*
X6110D01*
X5610Y-47601D01*
Y-48601D01*
X6110Y-49100D01*
X7609D01*
X6610D02*
X5610Y-50100D01*
X4610Y-49600D02*
X4110Y-50100D01*
X3111D01*
X2611Y-49600D01*
Y-47601D01*
X3111Y-47101D01*
X4110D01*
X4610Y-47601D01*
Y-48101D01*
X4110Y-48601D01*
X2611D01*
X-17491Y-60150D02*
Y-57151D01*
X-18990D01*
X-19490Y-57651D01*
Y-58650D01*
X-18990Y-59150D01*
X-17491D01*
X-18490D02*
X-19490Y-60150D01*
X-20490Y-57651D02*
X-20989Y-57151D01*
X-21989D01*
X-22489Y-57651D01*
Y-58151D01*
X-21989Y-58650D01*
X-22489Y-59150D01*
Y-59650D01*
X-21989Y-60150D01*
X-20989D01*
X-20490Y-59650D01*
Y-59150D01*
X-20989Y-58650D01*
X-20490Y-58151D01*
Y-57651D01*
X-20989Y-58650D02*
X-21989D01*
X-20900Y-63900D02*
Y-60901D01*
X-22400D01*
X-22899Y-61401D01*
Y-62401D01*
X-22400Y-62900D01*
X-20900D01*
X-21900D02*
X-22899Y-63900D01*
X-23899Y-60901D02*
X-25898D01*
Y-61401D01*
X-23899Y-63400D01*
Y-63900D01*
X42309Y-68377D02*
Y-65378D01*
X40810D01*
X40310Y-65878D01*
Y-66878D01*
X40810Y-67378D01*
X42309D01*
X41310D02*
X40310Y-68377D01*
X39310Y-65878D02*
X38811Y-65378D01*
X37811D01*
X37311Y-65878D01*
Y-66378D01*
X37811Y-66878D01*
X38311D01*
X37811D01*
X37311Y-67378D01*
Y-67877D01*
X37811Y-68377D01*
X38811D01*
X39310Y-67877D01*
X34709Y-80300D02*
Y-77301D01*
X33210D01*
X32710Y-77801D01*
Y-78800D01*
X33210Y-79300D01*
X34709D01*
X33710D02*
X32710Y-80300D01*
X29711D02*
X31710D01*
X29711Y-78301D01*
Y-77801D01*
X30211Y-77301D01*
X31211D01*
X31710Y-77801D01*
X80700Y-42201D02*
Y-45200D01*
X78701D01*
X77701D02*
X76701D01*
X77201D01*
Y-42201D01*
X77701Y-42701D01*
X-83500Y-25299D02*
Y-22300D01*
X-82000D01*
X-81501Y-22800D01*
Y-24799D01*
X-82000Y-25299D01*
X-83500D01*
X-79001Y-22300D02*
Y-25299D01*
X-80501Y-23799D01*
X-78502D01*
X-91700Y-25399D02*
Y-22400D01*
X-90201D01*
X-89701Y-22900D01*
Y-24899D01*
X-90201Y-25399D01*
X-91700D01*
X-88701Y-24899D02*
X-88201Y-25399D01*
X-87201D01*
X-86702Y-24899D01*
Y-24399D01*
X-87201Y-23900D01*
X-87701D01*
X-87201D01*
X-86702Y-23400D01*
Y-22900D01*
X-87201Y-22400D01*
X-88201D01*
X-88701Y-22900D01*
X-102392Y-28901D02*
Y-31900D01*
X-103891D01*
X-104391Y-31400D01*
Y-29401D01*
X-103891Y-28901D01*
X-102392D01*
X-105391Y-31900D02*
X-106391D01*
X-105891D01*
Y-28901D01*
X-105391Y-29401D01*
X81851Y-24499D02*
X81351Y-24000D01*
Y-23000D01*
X81851Y-22500D01*
X83850D01*
X84350Y-23000D01*
Y-24000D01*
X83850Y-24499D01*
X81851Y-25499D02*
X81351Y-25999D01*
Y-26998D01*
X81851Y-27498D01*
X82351D01*
X82850Y-26998D01*
Y-26499D01*
Y-26998D01*
X83350Y-27498D01*
X83850D01*
X84350Y-26998D01*
Y-25999D01*
X83850Y-25499D01*
X81851Y-28498D02*
X81351Y-28998D01*
Y-29998D01*
X81851Y-30497D01*
X82351D01*
X82850Y-29998D01*
Y-29498D01*
Y-29998D01*
X83350Y-30497D01*
X83850D01*
X84350Y-29998D01*
Y-28998D01*
X83850Y-28498D01*
X126199Y5199D02*
X126699Y4699D01*
Y3700D01*
X126199Y3200D01*
X124200D01*
X123700Y3700D01*
Y4699D01*
X124200Y5199D01*
X123700Y8198D02*
Y6199D01*
X125699Y8198D01*
X126199D01*
X126699Y7699D01*
Y6699D01*
X126199Y6199D01*
X123700Y9198D02*
Y10198D01*
Y9698D01*
X126699D01*
X126199Y9198D01*
X-74799Y-42701D02*
X-74300Y-42201D01*
X-73300D01*
X-72800Y-42701D01*
Y-44700D01*
X-73300Y-45200D01*
X-74300D01*
X-74799Y-44700D01*
X-75799Y-42201D02*
X-77798D01*
Y-42701D01*
X-75799Y-44700D01*
Y-45200D01*
X-92801Y-33908D02*
X-92301Y-34408D01*
Y-35408D01*
X-92801Y-35907D01*
X-94800D01*
X-95300Y-35408D01*
Y-34408D01*
X-94800Y-33908D01*
X-92301Y-30909D02*
Y-32908D01*
X-93800D01*
X-93301Y-31909D01*
Y-31409D01*
X-93800Y-30909D01*
X-94800D01*
X-95300Y-31409D01*
Y-32409D01*
X-94800Y-32908D01*
X24201Y-80101D02*
X24701Y-79601D01*
X25700D01*
X26200Y-80101D01*
Y-82100D01*
X25700Y-82600D01*
X24701D01*
X24201Y-82100D01*
X21701Y-82600D02*
Y-79601D01*
X23201Y-81100D01*
X21202D01*
X44701Y-73301D02*
X45200Y-72801D01*
X46200D01*
X46700Y-73301D01*
Y-75300D01*
X46200Y-75800D01*
X45200D01*
X44701Y-75300D01*
X43701Y-73301D02*
X43201Y-72801D01*
X42201D01*
X41702Y-73301D01*
Y-73801D01*
X42201Y-74300D01*
X42701D01*
X42201D01*
X41702Y-74800D01*
Y-75300D01*
X42201Y-75800D01*
X43201D01*
X43701Y-75300D01*
X-107280Y-39667D02*
X-106781Y-39167D01*
X-105781D01*
X-105281Y-39667D01*
Y-41666D01*
X-105781Y-42166D01*
X-106781D01*
X-107280Y-41666D01*
X-108280Y-42166D02*
X-109280D01*
X-108780D01*
Y-39167D01*
X-108280Y-39667D01*
D16*
X-86600Y-60863D02*
X-85126D01*
X-84437Y-60174D02*
Y-58700D01*
Y-45800D02*
Y-43737D01*
X-101563D02*
X-99500D01*
X-101563Y-45800D02*
Y-43737D01*
Y-60863D02*
Y-58700D01*
Y-60863D02*
X-99400D01*
X-85126D02*
X-84437Y-60174D01*
X-86500Y-43737D02*
X-84437D01*
X106115Y-8371D02*
X117926D01*
X106115Y3440D02*
X117926D01*
Y-8371D02*
Y3440D01*
X106115Y-8371D02*
Y3440D01*
X17114Y-74300D02*
Y-55300D01*
X2614Y-74300D02*
X17114D01*
X2614Y-55300D02*
X17114D01*
X2614Y-74300D02*
Y-55300D01*
M02*
