M48
;Layer_Color=9474304
;FILE_FORMAT=2:5
INCH,TZ
;TYPE=PLATED
T1F00S00C0.01181
T2F00S00C0.01968
T3F00S00C0.03500
T4F00S00C0.03543
T5F00S00C0.08268
%
T01
X-26800Y-65600
X-25600Y-60600
X-17800Y-64600
X-21278Y-48000
X-12000Y-50100
X7009Y-58823
X14110Y-58004
X12709Y-68968
X18200Y-75700
X27368Y-91032
X29184Y-89216
X31000Y-87400
X42200Y-86500
Y-89069
Y-91637
X38400Y-103100
X29149
X49400Y-102600
X59252
X60809Y-82400
X52500Y-84000
X46700Y-79300
X43200Y-70300
X52500Y-68300
X52318Y-61904
X60153Y-62758
X59900Y-53400
X53800Y-47100
X50079Y-48388
X45100Y-45229
X35300Y-49000
X30000Y-47100
X29509Y-51750
X38100Y-54800
X37709Y-63200
X57200Y-72800
X65483Y-76410
X71100Y-59412
X79657Y-58821
X88712Y-58850
X89499Y-51538
X81231Y-49569
X95208Y-43861
X105900Y-45000
X112800Y-45632
X110500Y-60500
X106900Y-66200
X92058Y-65317
X94600Y-76300
X88000Y-82800
X94100Y-30800
X105800Y-33231
X118300Y-29200
X78600Y-31300
X76000Y-31400
X73400Y-31600
X70300Y-31900
X63100Y-29500
Y-40500
X4109Y-64691
X-34722Y-53850
X-60499Y-57713
X-66011
X-69241Y-49347
X-59600Y-47700
X-77900Y-38800
X-86375Y-42525
X-84800Y-45200
X-90512Y-49335
X-93377
X-96260Y-49288
X-96368Y-52288
X-93412
X-96457Y-55241
X-97900Y-63500
X-100600Y-60900
X-90000Y-63100
X-87100Y-62900
X-83989Y-61166
X-82100Y-56100
X-81500Y-53400
X-92000Y-42200
X-100200Y-44100
X-103900Y-49300
X-112716Y-34354
X-119100Y-38200
X-92016Y-66000
X-87100Y-73620
X-98900Y-80400
X-94900Y-85500
X-75341Y-93795
X-69400Y-104000
X-47400Y-113300
X-39900Y-109100
X-37500Y-102715
X-37400Y-85700
X-48800Y-72100
X-49300Y-69300
X-53900Y-5300
X-52100Y17900
X-69738Y19800
X-73500Y4800
X-86800Y10900
X-92000Y11600
X-121482Y12700
Y23580
X-118200Y37100
X-122700Y39300
X-121800Y-2259
X-118400Y-26385
X-107000Y-23700
X-40800Y35268
X-52300Y49800
X-44600Y58068
X-43500Y78600
X-35700Y77941
X-35600Y71800
X-31200Y82200
X-39300Y84400
X-59600Y109400
X-71100Y105700
X-81000Y90800
X-27700Y82200
X-24000Y71800
X-5232Y72200
X2445Y72692
X4300Y61800
X15100Y62900
X17313Y86130
Y91713
Y98513
X35653Y97592
Y94763
X40053Y82607
Y78688
X42800Y65991
X50200Y67343
X38400Y59200
X40200Y51200
X39559Y29800
X58000Y27600
X56700Y39800
X60400Y7900
X48600Y100
X45100Y-20500
X48575Y-24800
X53747Y-25744
X69200Y-20267
X73600Y-7000
X86153Y-3900
X92058Y-22465
X99862Y-21665
X101762Y-14828
X111700Y-25200
X116100Y-24900
X120800Y-2465
Y13200
X104700Y7900
X77700Y82600
X76700Y92100
X61737Y96513
X-20400Y48300
T02
X-68400Y-99800
X-60700Y-100100
X-59400Y-96900
X-56000Y-96100
X-57600Y-89500
X-57100Y-85700
X-62300Y-89400
X-68600
X-50900Y-81800
Y-78200
X-115700Y-33000
X-107100Y-20100
X-112500Y-9500
Y-5800
X-115500Y-7700
X-115400Y10800
X-112300Y12700
Y8700
X-91800Y-2700
X-85900Y1900
X-81200Y10200
X-77373Y10570
X-73500Y10200
X-81880Y15074
X-59200Y96700
Y100200
Y103800
X-48400Y103700
Y100200
Y96600
X-25000Y95300
X-21500Y102900
X-8000Y104200
X3331Y101521
Y96592
Y91713
X8400
Y96592
Y101592
X45500Y105900
Y110900
X63800Y84600
X39300Y63600
X30100Y58100
X23413Y63100
X-7800Y60600
Y66500
X-23806Y77941
X-21300Y81500
X62220Y-8331
T03
X69112Y-105341
X74679Y-99773
X80247Y-94205
X85815Y-88638
T04
X-15000Y110900
X-5000
X5000
X15000
T05
X-21896Y-103014
X-78264Y70469
X100161Y32544
M30
