G04*
G04 #@! TF.GenerationSoftware,Altium Limited,Altium Designer,19.1.5 (86)*
G04*
G04 Layer_Physical_Order=2*
G04 Layer_Color=36540*
%FSLAX25Y25*%
%MOIN*%
G70*
G01*
G75*
%ADD127C,0.05906*%
G04:AMPARAMS|DCode=129|XSize=55mil|YSize=60mil|CornerRadius=0mil|HoleSize=0mil|Usage=FLASHONLY|Rotation=45.000|XOffset=0mil|YOffset=0mil|HoleType=Round|Shape=Round|*
%AMOVALD129*
21,1,0.00500,0.05500,0.00000,0.00000,135.0*
1,1,0.05500,0.00177,-0.00177*
1,1,0.05500,-0.00177,0.00177*
%
%ADD129OVALD129*%

%ADD132C,0.01968*%
%ADD133C,0.03150*%
%ADD134R,0.09252X0.11700*%
G36*
X59125Y116040D02*
X65117Y112786D01*
X70931Y109224D01*
X76550Y105362D01*
X81959Y101211D01*
X87144Y96783D01*
X92090Y92090D01*
X96783Y87144D01*
X97225Y86627D01*
Y86627D01*
X97220Y86622D01*
X97640Y85992D01*
X97814Y85119D01*
X97673Y84411D01*
X97673Y84411D01*
X97673Y84411D01*
X97673Y84410D01*
X96462Y80753D01*
X96459Y80755D01*
X96429Y80682D01*
X96332Y80281D01*
X95934Y78622D01*
X95768Y76510D01*
X95934Y74398D01*
X96429Y72337D01*
X97240Y70380D01*
X97410Y70101D01*
X97429Y70040D01*
X109104Y48673D01*
X109173Y48591D01*
X110021Y47206D01*
X111397Y45595D01*
X113008Y44219D01*
X114815Y43112D01*
X116772Y42301D01*
X118833Y41807D01*
X120945Y41640D01*
Y41640D01*
X121253Y41688D01*
X121737Y41650D01*
X121737D01*
X122207Y41582D01*
X122610Y41502D01*
X123350Y41008D01*
X123844Y40268D01*
X123880Y40088D01*
X124046Y39617D01*
X125797Y33707D01*
X127389Y27077D01*
X128631Y20373D01*
X129521Y13613D01*
X130056Y6816D01*
X130234Y0D01*
X130056Y-6816D01*
X129521Y-13613D01*
X128631Y-20373D01*
X127389Y-27077D01*
X125797Y-33707D01*
X123860Y-40245D01*
X121584Y-46672D01*
X118975Y-52971D01*
X116040Y-59125D01*
X112786Y-65117D01*
X109224Y-70931D01*
X105362Y-76550D01*
X101211Y-81959D01*
X96783Y-87144D01*
X92090Y-92090D01*
X87144Y-96783D01*
X81959Y-101211D01*
X76550Y-105362D01*
X74463Y-106796D01*
X74101Y-106438D01*
X74172Y-106332D01*
X74334Y-105518D01*
X74172Y-104703D01*
X74059Y-104535D01*
X74349Y-104069D01*
X74856Y-104136D01*
X75940Y-103993D01*
X76949Y-103575D01*
X77816Y-102910D01*
X78481Y-102043D01*
X78899Y-101033D01*
X79042Y-99950D01*
X78899Y-98867D01*
X78838Y-98717D01*
X79191Y-98364D01*
X79341Y-98426D01*
X80424Y-98568D01*
X81507Y-98426D01*
X82517Y-98007D01*
X83384Y-97342D01*
X84049Y-96475D01*
X84467Y-95466D01*
X84610Y-94382D01*
X84467Y-93299D01*
X84209Y-92676D01*
X84592Y-92294D01*
X85013Y-92468D01*
X85992Y-92597D01*
X86971Y-92468D01*
X87883Y-92090D01*
X88346Y-91735D01*
X85532Y-88921D01*
X82718Y-86106D01*
X82363Y-86570D01*
X81985Y-87482D01*
X81856Y-88461D01*
X81985Y-89440D01*
X82159Y-89861D01*
X81776Y-90243D01*
X81154Y-89986D01*
X80071Y-89843D01*
X78987Y-89986D01*
X77978Y-90404D01*
X77111Y-91069D01*
X76446Y-91936D01*
X76027Y-92945D01*
X75885Y-94029D01*
X76027Y-95112D01*
X76089Y-95262D01*
X75736Y-95615D01*
X75586Y-95553D01*
X74503Y-95411D01*
X73419Y-95553D01*
X72410Y-95972D01*
X71543Y-96637D01*
X70878Y-97504D01*
X70460Y-98513D01*
X70317Y-99597D01*
X70384Y-100103D01*
X69918Y-100393D01*
X69749Y-100281D01*
X68935Y-100119D01*
X68120Y-100281D01*
X67430Y-100742D01*
X64513Y-103659D01*
X64052Y-104350D01*
X63890Y-105164D01*
X64052Y-105979D01*
X64513Y-106669D01*
X67783Y-109940D01*
X68272Y-110266D01*
X68298Y-110837D01*
X65117Y-112786D01*
X59125Y-116040D01*
X58897Y-116148D01*
X11722D01*
Y-102362D01*
X11726D01*
X11581Y-100528D01*
X11152Y-98739D01*
X10447Y-97039D01*
X9486Y-95470D01*
X8291Y-94071D01*
X6892Y-92876D01*
X5323Y-91915D01*
X3623Y-91211D01*
X1834Y-90781D01*
X0Y-90637D01*
X-1834Y-90781D01*
X-3623Y-91211D01*
X-5323Y-91915D01*
X-6892Y-92876D01*
X-8291Y-94071D01*
X-9486Y-95470D01*
X-10447Y-97039D01*
X-11152Y-98739D01*
X-11581Y-100528D01*
X-11726Y-102362D01*
X-11722D01*
Y-116148D01*
X-58897D01*
X-59125Y-116040D01*
X-65117Y-112786D01*
X-70931Y-109224D01*
X-76550Y-105362D01*
X-81959Y-101211D01*
X-87144Y-96783D01*
X-92090Y-92090D01*
X-95704Y-88281D01*
X-95451Y-87821D01*
X-94900Y-87931D01*
X-93970Y-87746D01*
X-93181Y-87219D01*
X-92654Y-86430D01*
X-92469Y-85500D01*
X-92654Y-84570D01*
X-93181Y-83781D01*
X-93970Y-83254D01*
X-94900Y-83069D01*
X-95830Y-83254D01*
X-96619Y-83781D01*
X-97146Y-84570D01*
X-97331Y-85500D01*
X-97271Y-85803D01*
X-97736Y-86028D01*
X-100484Y-82810D01*
X-100149Y-82433D01*
X-99830Y-82646D01*
X-98900Y-82831D01*
X-97970Y-82646D01*
X-97181Y-82119D01*
X-96654Y-81330D01*
X-96469Y-80400D01*
X-96654Y-79470D01*
X-97181Y-78681D01*
X-97970Y-78154D01*
X-98900Y-77969D01*
X-99830Y-78154D01*
X-100619Y-78681D01*
X-101146Y-79470D01*
X-101331Y-80400D01*
X-101175Y-81185D01*
X-101642Y-81397D01*
X-105362Y-76550D01*
X-109224Y-70931D01*
X-112786Y-65117D01*
X-116040Y-59125D01*
X-118975Y-52971D01*
X-121584Y-46672D01*
X-123860Y-40245D01*
X-125797Y-33707D01*
X-127389Y-27077D01*
X-128631Y-20373D01*
X-129521Y-13613D01*
X-130056Y-6816D01*
X-130234Y0D01*
X-130056Y6816D01*
X-129521Y13613D01*
X-128631Y20373D01*
X-127389Y27077D01*
X-125797Y33707D01*
X-124749Y37244D01*
X-124176Y37419D01*
X-123630Y37054D01*
X-122700Y36869D01*
X-121770Y37054D01*
X-121055Y37532D01*
X-120774Y37422D01*
X-120594Y37284D01*
X-120631Y37100D01*
X-120446Y36170D01*
X-119919Y35381D01*
X-119130Y34854D01*
X-118200Y34669D01*
X-117270Y34854D01*
X-116481Y35381D01*
X-115954Y36170D01*
X-115769Y37100D01*
X-115954Y38030D01*
X-116481Y38819D01*
X-117270Y39346D01*
X-118200Y39531D01*
X-119130Y39346D01*
X-119845Y38868D01*
X-120125Y38978D01*
X-120306Y39116D01*
X-120269Y39300D01*
X-120454Y40230D01*
X-120981Y41019D01*
X-121770Y41546D01*
X-122376Y41666D01*
X-122481Y42197D01*
X-122411Y42244D01*
X-121935Y42365D01*
D01*
X-121456Y42482D01*
X-118165Y43162D01*
X-118022Y43222D01*
X-116722Y43534D01*
X-114765Y44345D01*
X-112958Y45452D01*
X-111347Y46828D01*
X-109971Y48439D01*
X-109485Y49233D01*
X-109371Y49356D01*
X-96704Y70150D01*
X-96648Y70303D01*
X-96197Y71040D01*
X-95386Y72997D01*
X-94891Y75058D01*
X-94725Y77170D01*
X-94891Y79282D01*
X-95386Y81342D01*
X-96197Y83300D01*
X-96502Y83798D01*
X-96542Y83917D01*
X-96688Y84170D01*
X-96927Y84609D01*
X-97131Y85048D01*
X-97267Y85730D01*
X-97093Y86603D01*
X-96664Y87245D01*
X-96332Y87619D01*
X-92090Y92090D01*
X-87144Y96783D01*
X-81959Y101211D01*
X-76550Y105362D01*
X-73304Y107592D01*
X-72942Y107235D01*
X-73346Y106630D01*
X-73531Y105700D01*
X-73346Y104770D01*
X-72819Y103981D01*
X-72030Y103454D01*
X-71100Y103269D01*
X-70170Y103454D01*
X-69381Y103981D01*
X-68854Y104770D01*
X-68669Y105700D01*
X-68854Y106630D01*
X-69381Y107419D01*
X-70170Y107946D01*
X-71100Y108131D01*
X-71857Y107980D01*
X-72056Y108451D01*
X-70931Y109224D01*
X-65117Y112786D01*
X-59125Y116040D01*
X-56660Y117215D01*
X56660D01*
X59125Y116040D01*
D02*
G37*
%LPC*%
G36*
X-4600Y114834D02*
Y111300D01*
X-1066D01*
X-1149Y111932D01*
X-1547Y112893D01*
X-2181Y113719D01*
X-3007Y114353D01*
X-3968Y114751D01*
X-4600Y114834D01*
D02*
G37*
G36*
X-5400D02*
X-6032Y114751D01*
X-6993Y114353D01*
X-7819Y113719D01*
X-8453Y112893D01*
X-8851Y111932D01*
X-8934Y111300D01*
X-5400D01*
Y114834D01*
D02*
G37*
G36*
X-1066Y110500D02*
X-4600D01*
Y106966D01*
X-3968Y107049D01*
X-3007Y107447D01*
X-2181Y108081D01*
X-1547Y108907D01*
X-1149Y109868D01*
X-1066Y110500D01*
D02*
G37*
G36*
X-5400D02*
X-8934D01*
X-8851Y109868D01*
X-8453Y108907D01*
X-7819Y108081D01*
X-6993Y107447D01*
X-6032Y107049D01*
X-5400Y106966D01*
Y110500D01*
D02*
G37*
G36*
X-10647Y115253D02*
X-19353D01*
Y106547D01*
X-10647D01*
Y115253D01*
D02*
G37*
G36*
X15000Y115290D02*
X13864Y115141D01*
X12805Y114702D01*
X11896Y114004D01*
X11198Y113095D01*
X10759Y112036D01*
X10610Y110900D01*
X10759Y109764D01*
X11198Y108705D01*
X11896Y107796D01*
X12805Y107098D01*
X13864Y106659D01*
X15000Y106510D01*
X16136Y106659D01*
X17195Y107098D01*
X18104Y107796D01*
X18802Y108705D01*
X19241Y109764D01*
X19390Y110900D01*
X19241Y112036D01*
X18802Y113095D01*
X18104Y114004D01*
X17195Y114702D01*
X16136Y115141D01*
X15000Y115290D01*
D02*
G37*
G36*
X5000D02*
X3864Y115141D01*
X2805Y114702D01*
X1896Y114004D01*
X1198Y113095D01*
X759Y112036D01*
X610Y110900D01*
X759Y109764D01*
X1198Y108705D01*
X1896Y107796D01*
X2805Y107098D01*
X3864Y106659D01*
X5000Y106510D01*
X6136Y106659D01*
X7195Y107098D01*
X8104Y107796D01*
X8802Y108705D01*
X9241Y109764D01*
X9390Y110900D01*
X9241Y112036D01*
X8802Y113095D01*
X8104Y114004D01*
X7195Y114702D01*
X6136Y115141D01*
X5000Y115290D01*
D02*
G37*
G36*
X45500Y113900D02*
X44723Y113798D01*
X44000Y113498D01*
X43378Y113022D01*
X42902Y112400D01*
X42602Y111677D01*
X42500Y110900D01*
X42602Y110123D01*
X42902Y109400D01*
X43378Y108778D01*
X43546Y108650D01*
Y108150D01*
X43378Y108022D01*
X42902Y107400D01*
X42602Y106677D01*
X42500Y105900D01*
X42602Y105123D01*
X42902Y104400D01*
X43378Y103778D01*
X44000Y103302D01*
X44723Y103002D01*
X45500Y102900D01*
X46277Y103002D01*
X47000Y103302D01*
X47622Y103778D01*
X48098Y104400D01*
X48398Y105123D01*
X48500Y105900D01*
X48398Y106677D01*
X48098Y107400D01*
X47622Y108022D01*
X47454Y108150D01*
Y108650D01*
X47622Y108778D01*
X48098Y109400D01*
X48398Y110123D01*
X48500Y110900D01*
X48398Y111677D01*
X48098Y112400D01*
X47622Y113022D01*
X47000Y113498D01*
X46277Y113798D01*
X45500Y113900D01*
D02*
G37*
G36*
X-59200Y106800D02*
X-59977Y106698D01*
X-60700Y106398D01*
X-61322Y105922D01*
X-61799Y105300D01*
X-62098Y104577D01*
X-62200Y103800D01*
X-62098Y103023D01*
X-61799Y102300D01*
X-61568Y102000D01*
X-61799Y101700D01*
X-62098Y100977D01*
X-62200Y100200D01*
X-62098Y99423D01*
X-61799Y98700D01*
X-61607Y98450D01*
X-61799Y98200D01*
X-62098Y97477D01*
X-62200Y96700D01*
X-62098Y95923D01*
X-61799Y95200D01*
X-61322Y94578D01*
X-60700Y94102D01*
X-59977Y93802D01*
X-59200Y93700D01*
X-58423Y93802D01*
X-57700Y94102D01*
X-57078Y94578D01*
X-56602Y95200D01*
X-56302Y95923D01*
X-56200Y96700D01*
X-56302Y97477D01*
X-56602Y98200D01*
X-56793Y98450D01*
X-56602Y98700D01*
X-56302Y99423D01*
X-56200Y100200D01*
X-56302Y100977D01*
X-56602Y101700D01*
X-56832Y102000D01*
X-56602Y102300D01*
X-56302Y103023D01*
X-56200Y103800D01*
X-56302Y104577D01*
X-56602Y105300D01*
X-57078Y105922D01*
X-57700Y106398D01*
X-58423Y106698D01*
X-59200Y106800D01*
D02*
G37*
G36*
X-48400Y106701D02*
X-49177Y106598D01*
X-49900Y106298D01*
X-50522Y105822D01*
X-50999Y105200D01*
X-51298Y104477D01*
X-51401Y103700D01*
X-51298Y102923D01*
X-50999Y102200D01*
X-50807Y101950D01*
X-50999Y101700D01*
X-51298Y100977D01*
X-51401Y100200D01*
X-51298Y99423D01*
X-50999Y98700D01*
X-50769Y98400D01*
X-50999Y98100D01*
X-51298Y97377D01*
X-51401Y96600D01*
X-51298Y95823D01*
X-50999Y95100D01*
X-50522Y94478D01*
X-49900Y94002D01*
X-49697Y93917D01*
X-49869Y93455D01*
X-50554Y93592D01*
X-50694D01*
X-50832Y93619D01*
X-51530D01*
X-51668Y93592D01*
X-51809D01*
X-52493Y93455D01*
X-52623Y93402D01*
X-52761Y93374D01*
X-53406Y93107D01*
X-53523Y93029D01*
X-53653Y92975D01*
X-54233Y92587D01*
X-54332Y92488D01*
X-54449Y92410D01*
X-54943Y91916D01*
X-55021Y91799D01*
X-55120Y91700D01*
X-55508Y91120D01*
X-55562Y90990D01*
X-55640Y90873D01*
X-55907Y90228D01*
X-55935Y90090D01*
X-55988Y89960D01*
X-56124Y89276D01*
Y89135D01*
X-56152Y88997D01*
Y88299D01*
X-56124Y88161D01*
Y88021D01*
X-55988Y87336D01*
X-55935Y87206D01*
X-55907Y87068D01*
X-55640Y86424D01*
X-55562Y86307D01*
X-55508Y86177D01*
X-55120Y85597D01*
X-55021Y85497D01*
X-54943Y85380D01*
X-54449Y84887D01*
X-54332Y84808D01*
X-54233Y84709D01*
X-53653Y84321D01*
X-53523Y84268D01*
X-53406Y84189D01*
X-52761Y83922D01*
X-52623Y83895D01*
X-52493Y83841D01*
X-51809Y83705D01*
X-51668D01*
X-51530Y83678D01*
X-50832D01*
X-50694Y83705D01*
X-50554D01*
X-49869Y83841D01*
X-49739Y83895D01*
X-49601Y83922D01*
X-48957Y84189D01*
X-48840Y84268D01*
X-48710Y84321D01*
X-48129Y84709D01*
X-48030Y84809D01*
X-47913Y84887D01*
X-47420Y85380D01*
X-47341Y85497D01*
X-47242Y85597D01*
X-46854Y86177D01*
X-46800Y86307D01*
X-46722Y86424D01*
X-46455Y87068D01*
X-46428Y87206D01*
X-46374Y87336D01*
X-46238Y88021D01*
Y88161D01*
X-46210Y88299D01*
Y88997D01*
X-46238Y89135D01*
Y89276D01*
X-46374Y89960D01*
X-46428Y90090D01*
X-46455Y90228D01*
X-46722Y90873D01*
X-46800Y90990D01*
X-46854Y91120D01*
X-47242Y91700D01*
X-47341Y91799D01*
X-47420Y91916D01*
X-47913Y92410D01*
X-48030Y92488D01*
X-48129Y92587D01*
X-48710Y92975D01*
X-48840Y93029D01*
X-48957Y93107D01*
X-49174Y93197D01*
X-49043Y93684D01*
X-48400Y93599D01*
X-47623Y93702D01*
X-46900Y94002D01*
X-46278Y94478D01*
X-45801Y95100D01*
X-45502Y95823D01*
X-45399Y96600D01*
X-45502Y97377D01*
X-45801Y98100D01*
X-46031Y98400D01*
X-45801Y98700D01*
X-45502Y99423D01*
X-45399Y100200D01*
X-45502Y100977D01*
X-45801Y101700D01*
X-45993Y101950D01*
X-45801Y102200D01*
X-45502Y102923D01*
X-45399Y103700D01*
X-45502Y104477D01*
X-45801Y105200D01*
X-46278Y105822D01*
X-46900Y106298D01*
X-47623Y106598D01*
X-48400Y106701D01*
D02*
G37*
G36*
X-81000Y93231D02*
X-81930Y93046D01*
X-82719Y92519D01*
X-83246Y91730D01*
X-83431Y90800D01*
X-83246Y89870D01*
X-82719Y89081D01*
X-81930Y88554D01*
X-81000Y88369D01*
X-80070Y88554D01*
X-79281Y89081D01*
X-78754Y89870D01*
X-78569Y90800D01*
X-78754Y91730D01*
X-79281Y92519D01*
X-80070Y93046D01*
X-81000Y93231D01*
D02*
G37*
G36*
X-27700Y85541D02*
X-28565Y85427D01*
X-29371Y85094D01*
X-30063Y84563D01*
X-30192Y84394D01*
X-30270Y84446D01*
X-31200Y84631D01*
X-32130Y84446D01*
X-32919Y83919D01*
X-33446Y83130D01*
X-33631Y82200D01*
X-33446Y81270D01*
X-32919Y80481D01*
X-32130Y79954D01*
X-31200Y79769D01*
X-30270Y79954D01*
X-30192Y80006D01*
X-30063Y79837D01*
X-29371Y79306D01*
X-28565Y78973D01*
X-27700Y78859D01*
X-26835Y78973D01*
X-26029Y79306D01*
X-25337Y79837D01*
X-24806Y80529D01*
X-24473Y81335D01*
X-24359Y82200D01*
X-24473Y83065D01*
X-24806Y83871D01*
X-25337Y84563D01*
X-26029Y85094D01*
X-26835Y85427D01*
X-27700Y85541D01*
D02*
G37*
G36*
X-78264Y77810D02*
X-79696Y77669D01*
X-81073Y77251D01*
X-82343Y76573D01*
X-83455Y75660D01*
X-84368Y74548D01*
X-85046Y73279D01*
X-85464Y71902D01*
X-85605Y70469D01*
X-85464Y69037D01*
X-85046Y67660D01*
X-84368Y66391D01*
X-83455Y65279D01*
X-82343Y64366D01*
X-81073Y63687D01*
X-79696Y63270D01*
X-78264Y63129D01*
X-76832Y63270D01*
X-75455Y63687D01*
X-74186Y64366D01*
X-73074Y65279D01*
X-72161Y66391D01*
X-71482Y67660D01*
X-71065Y69037D01*
X-70923Y70469D01*
X-71065Y71902D01*
X-71482Y73279D01*
X-72161Y74548D01*
X-73074Y75660D01*
X-74186Y76573D01*
X-75455Y77251D01*
X-76832Y77669D01*
X-78264Y77810D01*
D02*
G37*
G36*
X15100Y65331D02*
X14170Y65146D01*
X13381Y64619D01*
X12854Y63830D01*
X12669Y62900D01*
X12854Y61970D01*
X13381Y61181D01*
X14170Y60654D01*
X15100Y60469D01*
X16030Y60654D01*
X16819Y61181D01*
X17346Y61970D01*
X17531Y62900D01*
X17346Y63830D01*
X16819Y64619D01*
X16030Y65146D01*
X15100Y65331D01*
D02*
G37*
G36*
X87664Y63206D02*
X85783Y63058D01*
X83948Y62618D01*
X82205Y61896D01*
X80596Y60910D01*
X79161Y59684D01*
X77936Y58249D01*
X76950Y56640D01*
X76227Y54897D01*
X75787Y53062D01*
X75639Y51181D01*
X75787Y49300D01*
X76227Y47465D01*
X76950Y45722D01*
X77936Y44113D01*
X79161Y42678D01*
X80596Y41453D01*
X82205Y40467D01*
X83948Y39745D01*
X85783Y39304D01*
X87664Y39156D01*
X88958Y39258D01*
X89632Y39205D01*
X91506Y39352D01*
X93333Y39791D01*
X95070Y40510D01*
X96672Y41492D01*
X98101Y42713D01*
X99322Y44142D01*
X100303Y45744D01*
X101023Y47480D01*
X101461Y49308D01*
X101609Y51181D01*
X101461Y53055D01*
X101023Y54882D01*
X100303Y56618D01*
X99322Y58221D01*
X98101Y59650D01*
X96672Y60870D01*
X95070Y61852D01*
X93333Y62571D01*
X91506Y63010D01*
X89632Y63157D01*
X88958Y63104D01*
X87664Y63206D01*
D02*
G37*
G36*
X-88648D02*
X-90529Y63058D01*
X-92364Y62618D01*
X-94108Y61896D01*
X-95716Y60910D01*
X-97151Y59684D01*
X-98377Y58249D01*
X-99363Y56640D01*
X-100085Y54897D01*
X-100525Y53062D01*
X-100673Y51181D01*
X-100525Y49300D01*
X-100085Y47465D01*
X-99363Y45722D01*
X-98377Y44113D01*
X-97151Y42678D01*
X-95716Y41453D01*
X-94108Y40467D01*
X-92364Y39745D01*
X-90529Y39304D01*
X-88648Y39156D01*
X-86767Y39304D01*
X-84932Y39745D01*
X-83189Y40467D01*
X-81580Y41453D01*
X-80145Y42678D01*
X-78920Y44113D01*
X-77934Y45722D01*
X-77212Y47465D01*
X-76771Y49300D01*
X-76623Y51181D01*
X-76771Y53062D01*
X-77212Y54897D01*
X-77934Y56640D01*
X-78920Y58249D01*
X-80145Y59684D01*
X-81580Y60910D01*
X-83189Y61896D01*
X-84932Y62618D01*
X-86767Y63058D01*
X-88648Y63206D01*
D02*
G37*
G36*
X100161Y39885D02*
X98728Y39744D01*
X97351Y39326D01*
X96082Y38648D01*
X94970Y37735D01*
X94057Y36623D01*
X93378Y35353D01*
X92961Y33976D01*
X92820Y32544D01*
X92961Y31112D01*
X93378Y29735D01*
X94057Y28466D01*
X94970Y27353D01*
X96082Y26440D01*
X97351Y25762D01*
X98728Y25344D01*
X100161Y25203D01*
X101593Y25344D01*
X102970Y25762D01*
X104239Y26440D01*
X105351Y27353D01*
X106264Y28466D01*
X106943Y29735D01*
X107360Y31112D01*
X107501Y32544D01*
X107360Y33976D01*
X106943Y35353D01*
X106264Y36623D01*
X105351Y37735D01*
X104239Y38648D01*
X102970Y39326D01*
X101593Y39744D01*
X100161Y39885D01*
D02*
G37*
G36*
X-121482Y26011D02*
X-122413Y25826D01*
X-123201Y25299D01*
X-123728Y24510D01*
X-123913Y23580D01*
X-123728Y22649D01*
X-123201Y21861D01*
X-122413Y21334D01*
X-121482Y21149D01*
X-120552Y21334D01*
X-119763Y21861D01*
X-119236Y22649D01*
X-119051Y23580D01*
X-119236Y24510D01*
X-119763Y25299D01*
X-120552Y25826D01*
X-121482Y26011D01*
D02*
G37*
G36*
X-112300Y15700D02*
X-113077Y15598D01*
X-113800Y15299D01*
X-114422Y14822D01*
X-114899Y14200D01*
X-115081Y13758D01*
X-115400Y13801D01*
X-116177Y13698D01*
X-116900Y13398D01*
X-117522Y12922D01*
X-117999Y12300D01*
X-118298Y11577D01*
X-118401Y10800D01*
X-118298Y10023D01*
X-117999Y9300D01*
X-117522Y8678D01*
X-116900Y8202D01*
X-116177Y7902D01*
X-115400Y7800D01*
X-115160Y7831D01*
X-114899Y7200D01*
X-114422Y6578D01*
X-113800Y6101D01*
X-113077Y5802D01*
X-112300Y5700D01*
X-111523Y5802D01*
X-110800Y6101D01*
X-110178Y6578D01*
X-109702Y7200D01*
X-109402Y7923D01*
X-109300Y8700D01*
X-109402Y9477D01*
X-109702Y10200D01*
X-110085Y10700D01*
X-109702Y11200D01*
X-109402Y11923D01*
X-109300Y12700D01*
X-109402Y13477D01*
X-109702Y14200D01*
X-110178Y14822D01*
X-110800Y15299D01*
X-111523Y15598D01*
X-112300Y15700D01*
D02*
G37*
G36*
X-92000Y14031D02*
X-92930Y13846D01*
X-93719Y13319D01*
X-94246Y12530D01*
X-94431Y11600D01*
X-94246Y10670D01*
X-93719Y9881D01*
X-92930Y9354D01*
X-92000Y9169D01*
X-91070Y9354D01*
X-90281Y9881D01*
X-90084Y10176D01*
X-89799Y10165D01*
X-89546Y10081D01*
X-89289Y9463D01*
X-88833Y8867D01*
X-88237Y8410D01*
X-87544Y8123D01*
X-86800Y8025D01*
X-86056Y8123D01*
X-85363Y8410D01*
X-84767Y8867D01*
X-84311Y9463D01*
X-84023Y10156D01*
X-83925Y10900D01*
X-84023Y11644D01*
X-84311Y12337D01*
X-84767Y12933D01*
X-85363Y13389D01*
X-86056Y13677D01*
X-86800Y13775D01*
X-87544Y13677D01*
X-88237Y13389D01*
X-88833Y12933D01*
X-89223Y12424D01*
X-89541Y12439D01*
X-89753Y12525D01*
X-89754Y12530D01*
X-90281Y13319D01*
X-91070Y13846D01*
X-92000Y14031D01*
D02*
G37*
G36*
X48600Y2531D02*
X47670Y2346D01*
X46881Y1819D01*
X46354Y1030D01*
X46169Y100D01*
X46354Y-830D01*
X46881Y-1619D01*
X47670Y-2146D01*
X48600Y-2331D01*
X49530Y-2146D01*
X50319Y-1619D01*
X50846Y-830D01*
X51031Y100D01*
X50846Y1030D01*
X50319Y1819D01*
X49530Y2346D01*
X48600Y2531D01*
D02*
G37*
G36*
X-112500Y-2799D02*
X-113277Y-2902D01*
X-114000Y-3201D01*
X-114622Y-3678D01*
X-115099Y-4300D01*
X-115276Y-4729D01*
X-115500Y-4699D01*
X-116277Y-4802D01*
X-117000Y-5102D01*
X-117622Y-5578D01*
X-118098Y-6200D01*
X-118398Y-6923D01*
X-118500Y-7700D01*
X-118398Y-8477D01*
X-118098Y-9200D01*
X-117622Y-9822D01*
X-117000Y-10299D01*
X-116277Y-10598D01*
X-115500Y-10701D01*
X-115237Y-10666D01*
X-115099Y-11000D01*
X-114622Y-11622D01*
X-114000Y-12099D01*
X-113277Y-12398D01*
X-112500Y-12501D01*
X-111723Y-12398D01*
X-111000Y-12099D01*
X-110378Y-11622D01*
X-109901Y-11000D01*
X-109602Y-10277D01*
X-109500Y-9500D01*
X-109602Y-8723D01*
X-109901Y-8000D01*
X-110170Y-7650D01*
X-109901Y-7300D01*
X-109602Y-6577D01*
X-109500Y-5800D01*
X-109602Y-5023D01*
X-109901Y-4300D01*
X-110378Y-3678D01*
X-111000Y-3201D01*
X-111723Y-2902D01*
X-112500Y-2799D01*
D02*
G37*
G36*
X-102013Y4971D02*
X-102711D01*
X-102849Y4943D01*
X-102990D01*
X-103674Y4807D01*
X-103804Y4753D01*
X-103942Y4726D01*
X-104587Y4459D01*
X-104704Y4381D01*
X-104834Y4327D01*
X-105414Y3939D01*
X-105513Y3840D01*
X-105630Y3762D01*
X-106124Y3268D01*
X-106202Y3151D01*
X-106301Y3052D01*
X-106689Y2471D01*
X-106743Y2341D01*
X-106821Y2225D01*
X-107088Y1580D01*
X-107116Y1442D01*
X-107169Y1312D01*
X-107306Y627D01*
Y487D01*
X-107333Y349D01*
Y-349D01*
X-107306Y-487D01*
Y-627D01*
X-107169Y-1312D01*
X-107116Y-1442D01*
X-107088Y-1580D01*
X-106821Y-2225D01*
X-106743Y-2342D01*
X-106689Y-2471D01*
X-106301Y-3052D01*
X-106202Y-3151D01*
X-106124Y-3268D01*
X-105630Y-3762D01*
X-105513Y-3840D01*
X-105414Y-3939D01*
X-104834Y-4327D01*
X-104704Y-4381D01*
X-104587Y-4459D01*
X-103942Y-4726D01*
X-103804Y-4753D01*
X-103674Y-4807D01*
X-102990Y-4943D01*
X-102849D01*
X-102711Y-4971D01*
X-102013D01*
X-101875Y-4943D01*
X-101735D01*
X-101050Y-4807D01*
X-100920Y-4753D01*
X-100782Y-4726D01*
X-100138Y-4459D01*
X-100021Y-4381D01*
X-99891Y-4327D01*
X-99310Y-3939D01*
X-99211Y-3840D01*
X-99094Y-3762D01*
X-98601Y-3268D01*
X-98523Y-3151D01*
X-98423Y-3052D01*
X-98035Y-2471D01*
X-97982Y-2341D01*
X-97903Y-2225D01*
X-97636Y-1580D01*
X-97609Y-1442D01*
X-97555Y-1312D01*
X-97419Y-628D01*
Y-487D01*
X-97391Y-349D01*
Y349D01*
X-97419Y487D01*
Y628D01*
X-97555Y1312D01*
X-97609Y1442D01*
X-97636Y1580D01*
X-97903Y2225D01*
X-97982Y2341D01*
X-98035Y2471D01*
X-98423Y3052D01*
X-98523Y3151D01*
X-98601Y3268D01*
X-99094Y3762D01*
X-99211Y3840D01*
X-99310Y3939D01*
X-99891Y4327D01*
X-100021Y4381D01*
X-100138Y4459D01*
X-100782Y4726D01*
X-100920Y4753D01*
X-101050Y4807D01*
X-101735Y4943D01*
X-101875D01*
X-102013Y4971D01*
D02*
G37*
G36*
X62220Y-5331D02*
X61443Y-5433D01*
X60720Y-5733D01*
X60098Y-6210D01*
X59621Y-6831D01*
X59321Y-7555D01*
X59219Y-8331D01*
X59321Y-9108D01*
X59621Y-9832D01*
X60098Y-10453D01*
X60720Y-10930D01*
X61443Y-11230D01*
X62220Y-11332D01*
X62996Y-11230D01*
X63720Y-10930D01*
X64341Y-10453D01*
X64818Y-9832D01*
X65118Y-9108D01*
X65220Y-8331D01*
X65118Y-7555D01*
X64818Y-6831D01*
X64341Y-6210D01*
X63720Y-5733D01*
X62996Y-5433D01*
X62220Y-5331D01*
D02*
G37*
G36*
X45100Y-18069D02*
X44170Y-18254D01*
X43381Y-18781D01*
X42854Y-19570D01*
X42669Y-20500D01*
X42854Y-21430D01*
X43381Y-22219D01*
X44170Y-22746D01*
X45100Y-22931D01*
X46030Y-22746D01*
X46819Y-22219D01*
X47346Y-21430D01*
X47531Y-20500D01*
X47346Y-19570D01*
X46819Y-18781D01*
X46030Y-18254D01*
X45100Y-18069D01*
D02*
G37*
G36*
X116100Y-22469D02*
X115170Y-22654D01*
X114381Y-23181D01*
X114101Y-23601D01*
X113499D01*
X113419Y-23481D01*
X112630Y-22954D01*
X111700Y-22769D01*
X110770Y-22954D01*
X109981Y-23481D01*
X109454Y-24270D01*
X109269Y-25200D01*
X109454Y-26130D01*
X109981Y-26919D01*
X110770Y-27446D01*
X111700Y-27631D01*
X112630Y-27446D01*
X113419Y-26919D01*
X113699Y-26499D01*
X114301D01*
X114381Y-26619D01*
X115170Y-27146D01*
X116100Y-27331D01*
X116378Y-27786D01*
X116054Y-28270D01*
X115869Y-29200D01*
X116054Y-30130D01*
X116581Y-30919D01*
X117370Y-31446D01*
X118300Y-31631D01*
X119230Y-31446D01*
X120019Y-30919D01*
X120546Y-30130D01*
X120731Y-29200D01*
X120546Y-28270D01*
X120019Y-27481D01*
X119230Y-26954D01*
X118300Y-26769D01*
X118022Y-26314D01*
X118346Y-25830D01*
X118531Y-24900D01*
X118346Y-23970D01*
X117819Y-23181D01*
X117030Y-22654D01*
X116100Y-22469D01*
D02*
G37*
G36*
X-107000Y-21269D02*
X-107930Y-21454D01*
X-108719Y-21981D01*
X-109246Y-22770D01*
X-109431Y-23700D01*
X-109246Y-24630D01*
X-108719Y-25419D01*
X-107930Y-25946D01*
X-107000Y-26131D01*
X-106070Y-25946D01*
X-105281Y-25419D01*
X-104754Y-24630D01*
X-104569Y-23700D01*
X-104754Y-22770D01*
X-105281Y-21981D01*
X-106070Y-21454D01*
X-107000Y-21269D01*
D02*
G37*
G36*
X53747Y-23313D02*
X52816Y-23498D01*
X52028Y-24025D01*
X51501Y-24814D01*
X51316Y-25744D01*
X51501Y-26675D01*
X52028Y-27463D01*
X52816Y-27990D01*
X53747Y-28175D01*
X54677Y-27990D01*
X55466Y-27463D01*
X55993Y-26675D01*
X56178Y-25744D01*
X55993Y-24814D01*
X55466Y-24025D01*
X54677Y-23498D01*
X53747Y-23313D01*
D02*
G37*
G36*
X-118400Y-23954D02*
X-119330Y-24139D01*
X-120119Y-24666D01*
X-120646Y-25455D01*
X-120831Y-26385D01*
X-120646Y-27315D01*
X-120119Y-28104D01*
X-119330Y-28631D01*
X-118400Y-28816D01*
X-117470Y-28631D01*
X-116681Y-28104D01*
X-116154Y-27315D01*
X-115969Y-26385D01*
X-116154Y-25455D01*
X-116681Y-24666D01*
X-117470Y-24139D01*
X-118400Y-23954D01*
D02*
G37*
G36*
X78600Y-28869D02*
X77670Y-29054D01*
X77225Y-29351D01*
X76930Y-29154D01*
X76000Y-28969D01*
X75070Y-29154D01*
X74550Y-29501D01*
X74330Y-29354D01*
X73400Y-29169D01*
X72470Y-29354D01*
X71681Y-29881D01*
X71647Y-29932D01*
X71230Y-29654D01*
X70300Y-29469D01*
X69370Y-29654D01*
X68581Y-30181D01*
X68054Y-30970D01*
X67869Y-31900D01*
X68054Y-32830D01*
X68581Y-33619D01*
X69370Y-34146D01*
X70300Y-34331D01*
X71230Y-34146D01*
X72019Y-33619D01*
X72053Y-33568D01*
X72470Y-33846D01*
X73400Y-34031D01*
X74330Y-33846D01*
X74850Y-33499D01*
X75070Y-33646D01*
X76000Y-33831D01*
X76930Y-33646D01*
X77375Y-33349D01*
X77670Y-33546D01*
X78600Y-33731D01*
X79530Y-33546D01*
X80319Y-33019D01*
X80846Y-32230D01*
X81031Y-31300D01*
X80846Y-30370D01*
X80319Y-29581D01*
X79530Y-29054D01*
X78600Y-28869D01*
D02*
G37*
G36*
X94100Y-28369D02*
X93170Y-28554D01*
X92381Y-29081D01*
X91854Y-29870D01*
X91669Y-30800D01*
X91854Y-31730D01*
X92381Y-32519D01*
X93170Y-33046D01*
X94100Y-33231D01*
X95030Y-33046D01*
X95819Y-32519D01*
X96346Y-31730D01*
X96531Y-30800D01*
X96346Y-29870D01*
X95819Y-29081D01*
X95030Y-28554D01*
X94100Y-28369D01*
D02*
G37*
G36*
X-112716Y-31923D02*
X-113646Y-32108D01*
X-114435Y-32635D01*
X-114962Y-33423D01*
X-115147Y-34354D01*
X-114962Y-35284D01*
X-114435Y-36073D01*
X-113646Y-36599D01*
X-112716Y-36785D01*
X-111785Y-36599D01*
X-110997Y-36073D01*
X-110470Y-35284D01*
X-110285Y-34354D01*
X-110470Y-33423D01*
X-110997Y-32635D01*
X-111785Y-32108D01*
X-112716Y-31923D01*
D02*
G37*
G36*
X-119100Y-35769D02*
X-120030Y-35954D01*
X-120819Y-36481D01*
X-121346Y-37270D01*
X-121531Y-38200D01*
X-121346Y-39130D01*
X-120819Y-39919D01*
X-120030Y-40446D01*
X-119100Y-40631D01*
X-118170Y-40446D01*
X-117381Y-39919D01*
X-116854Y-39130D01*
X-116669Y-38200D01*
X-116854Y-37270D01*
X-117381Y-36481D01*
X-118170Y-35954D01*
X-119100Y-35769D01*
D02*
G37*
G36*
X-77900Y-36369D02*
X-78830Y-36554D01*
X-79619Y-37081D01*
X-80146Y-37870D01*
X-80331Y-38800D01*
X-80146Y-39730D01*
X-79619Y-40519D01*
X-78830Y-41046D01*
X-77900Y-41231D01*
X-76970Y-41046D01*
X-76181Y-40519D01*
X-75654Y-39730D01*
X-75469Y-38800D01*
X-75654Y-37870D01*
X-76181Y-37081D01*
X-76970Y-36554D01*
X-77900Y-36369D01*
D02*
G37*
G36*
X63100Y-38069D02*
X62170Y-38254D01*
X61381Y-38781D01*
X60854Y-39570D01*
X60669Y-40500D01*
X60854Y-41430D01*
X61381Y-42219D01*
X62170Y-42746D01*
X63100Y-42931D01*
X64030Y-42746D01*
X64819Y-42219D01*
X65346Y-41430D01*
X65531Y-40500D01*
X65346Y-39570D01*
X64819Y-38781D01*
X64030Y-38254D01*
X63100Y-38069D01*
D02*
G37*
G36*
X0Y43029D02*
X-3750Y42866D01*
X-7472Y42376D01*
X-11137Y41563D01*
X-14717Y40435D01*
X-18185Y38998D01*
X-21515Y37265D01*
X-24681Y35248D01*
X-27659Y32963D01*
X-30426Y30426D01*
X-32963Y27659D01*
X-35248Y24681D01*
X-37265Y21515D01*
X-38998Y18185D01*
X-40435Y14717D01*
X-41563Y11137D01*
X-42376Y7472D01*
X-42866Y3750D01*
X-43029Y0D01*
X-42866Y-3750D01*
X-42376Y-7472D01*
X-41563Y-11137D01*
X-40435Y-14717D01*
X-38998Y-18185D01*
X-37265Y-21515D01*
X-35248Y-24681D01*
X-32963Y-27659D01*
X-30426Y-30426D01*
X-27659Y-32963D01*
X-24681Y-35248D01*
X-21515Y-37265D01*
X-18185Y-38998D01*
X-14717Y-40435D01*
X-11137Y-41563D01*
X-7472Y-42376D01*
X-3750Y-42866D01*
X0Y-43029D01*
X3750Y-42866D01*
X7472Y-42376D01*
X11137Y-41563D01*
X14717Y-40435D01*
X18185Y-38998D01*
X21515Y-37265D01*
X24681Y-35248D01*
X27659Y-32963D01*
X30426Y-30426D01*
X32963Y-27659D01*
X35248Y-24681D01*
X37265Y-21515D01*
X38998Y-18185D01*
X40435Y-14717D01*
X41563Y-11137D01*
X42376Y-7472D01*
X42866Y-3750D01*
X43029Y0D01*
X42866Y3750D01*
X42376Y7472D01*
X41563Y11137D01*
X40435Y14717D01*
X38998Y18185D01*
X37265Y21515D01*
X35248Y24681D01*
X32963Y27659D01*
X30426Y30426D01*
X27659Y32963D01*
X24681Y35248D01*
X21515Y37265D01*
X18185Y38998D01*
X14717Y40435D01*
X11137Y41563D01*
X7472Y42376D01*
X3750Y42866D01*
X0Y43029D01*
D02*
G37*
G36*
X-92000Y-39769D02*
X-92930Y-39954D01*
X-93719Y-40481D01*
X-94246Y-41270D01*
X-94431Y-42200D01*
X-94246Y-43130D01*
X-93719Y-43919D01*
X-92930Y-44446D01*
X-92000Y-44631D01*
X-91070Y-44446D01*
X-90281Y-43919D01*
X-89754Y-43130D01*
X-89569Y-42200D01*
X-89754Y-41270D01*
X-90281Y-40481D01*
X-91070Y-39954D01*
X-92000Y-39769D01*
D02*
G37*
G36*
X53800Y-44669D02*
X52870Y-44854D01*
X52081Y-45381D01*
X51676Y-45987D01*
X51079Y-46189D01*
X51009Y-46142D01*
X50079Y-45957D01*
X49148Y-46142D01*
X48360Y-46669D01*
X47833Y-47458D01*
X47648Y-48388D01*
X47833Y-49319D01*
X48360Y-50107D01*
X49148Y-50634D01*
X50079Y-50819D01*
X51009Y-50634D01*
X51797Y-50107D01*
X52202Y-49501D01*
X52799Y-49299D01*
X52870Y-49346D01*
X53800Y-49531D01*
X54730Y-49346D01*
X55519Y-48819D01*
X56046Y-48030D01*
X56231Y-47100D01*
X56046Y-46170D01*
X55519Y-45381D01*
X54730Y-44854D01*
X53800Y-44669D01*
D02*
G37*
G36*
X-100200Y-41669D02*
X-101130Y-41854D01*
X-101919Y-42381D01*
X-102446Y-43170D01*
X-102631Y-44100D01*
X-102446Y-45030D01*
X-101919Y-45819D01*
X-101130Y-46346D01*
X-100200Y-46531D01*
X-99270Y-46346D01*
X-98481Y-45819D01*
X-97954Y-45030D01*
X-97769Y-44100D01*
X-97954Y-43170D01*
X-98481Y-42381D01*
X-99270Y-41854D01*
X-100200Y-41669D01*
D02*
G37*
G36*
X-86375Y-40094D02*
X-87305Y-40279D01*
X-88094Y-40806D01*
X-88621Y-41595D01*
X-88806Y-42525D01*
X-88621Y-43455D01*
X-88094Y-44244D01*
X-87305Y-44771D01*
X-87152Y-44802D01*
X-87231Y-45200D01*
X-87046Y-46130D01*
X-86519Y-46919D01*
X-85730Y-47446D01*
X-84800Y-47631D01*
X-83870Y-47446D01*
X-83081Y-46919D01*
X-82554Y-46130D01*
X-82369Y-45200D01*
X-82554Y-44270D01*
X-83081Y-43481D01*
X-83870Y-42954D01*
X-84023Y-42924D01*
X-83944Y-42525D01*
X-84129Y-41595D01*
X-84656Y-40806D01*
X-85445Y-40279D01*
X-86375Y-40094D01*
D02*
G37*
G36*
X35300Y-46569D02*
X34370Y-46754D01*
X33581Y-47281D01*
X33054Y-48070D01*
X32869Y-49000D01*
X33054Y-49930D01*
X33581Y-50719D01*
X34370Y-51246D01*
X35300Y-51431D01*
X36230Y-51246D01*
X37019Y-50719D01*
X37546Y-49930D01*
X37731Y-49000D01*
X37546Y-48070D01*
X37019Y-47281D01*
X36230Y-46754D01*
X35300Y-46569D01*
D02*
G37*
G36*
X-103900Y-46869D02*
X-104830Y-47054D01*
X-105619Y-47581D01*
X-106146Y-48370D01*
X-106331Y-49300D01*
X-106146Y-50230D01*
X-105619Y-51019D01*
X-104830Y-51546D01*
X-103900Y-51731D01*
X-102970Y-51546D01*
X-102181Y-51019D01*
X-101654Y-50230D01*
X-101469Y-49300D01*
X-101654Y-48370D01*
X-102181Y-47581D01*
X-102970Y-47054D01*
X-103900Y-46869D01*
D02*
G37*
G36*
X-96260Y-46857D02*
X-97191Y-47042D01*
X-97979Y-47569D01*
X-98506Y-48358D01*
X-98691Y-49288D01*
X-98506Y-50218D01*
X-98180Y-50707D01*
X-98614Y-51358D01*
X-98800Y-52288D01*
X-98614Y-53219D01*
X-98294Y-53699D01*
X-98703Y-54311D01*
X-98888Y-55241D01*
X-98703Y-56171D01*
X-98176Y-56960D01*
X-97387Y-57487D01*
X-96457Y-57672D01*
X-95526Y-57487D01*
X-94738Y-56960D01*
X-94211Y-56171D01*
X-94026Y-55241D01*
X-94071Y-55012D01*
X-93718Y-54658D01*
X-93412Y-54719D01*
X-92481Y-54534D01*
X-91693Y-54007D01*
X-91166Y-53219D01*
X-90981Y-52288D01*
X-91021Y-52089D01*
X-90667Y-51736D01*
X-90512Y-51766D01*
X-89582Y-51581D01*
X-88793Y-51054D01*
X-88266Y-50266D01*
X-88081Y-49335D01*
X-88266Y-48405D01*
X-88793Y-47616D01*
X-89582Y-47089D01*
X-90512Y-46905D01*
X-91442Y-47089D01*
X-91944Y-47425D01*
X-92447Y-47089D01*
X-93377Y-46905D01*
X-94307Y-47089D01*
X-94783Y-47408D01*
X-95330Y-47042D01*
X-96260Y-46857D01*
D02*
G37*
G36*
X30000Y-44669D02*
X29070Y-44854D01*
X28281Y-45381D01*
X27754Y-46170D01*
X27569Y-47100D01*
X27754Y-48030D01*
X28184Y-48673D01*
X28096Y-49251D01*
X28072Y-49261D01*
X27477Y-49717D01*
X27020Y-50313D01*
X26733Y-51006D01*
X26635Y-51750D01*
X26733Y-52494D01*
X27020Y-53187D01*
X27477Y-53783D01*
X28072Y-54239D01*
X28765Y-54527D01*
X29509Y-54625D01*
X30253Y-54527D01*
X30947Y-54239D01*
X31542Y-53783D01*
X31999Y-53187D01*
X32286Y-52494D01*
X32384Y-51750D01*
X32286Y-51006D01*
X31999Y-50313D01*
X31542Y-49717D01*
X31339Y-49562D01*
X31355Y-49062D01*
X31719Y-48819D01*
X32246Y-48030D01*
X32431Y-47100D01*
X32246Y-46170D01*
X31719Y-45381D01*
X30930Y-44854D01*
X30000Y-44669D01*
D02*
G37*
G36*
X59900Y-50969D02*
X58970Y-51154D01*
X58181Y-51681D01*
X57654Y-52470D01*
X57469Y-53400D01*
X57654Y-54330D01*
X58181Y-55119D01*
X58970Y-55646D01*
X59900Y-55831D01*
X60830Y-55646D01*
X61619Y-55119D01*
X62146Y-54330D01*
X62331Y-53400D01*
X62146Y-52470D01*
X61619Y-51681D01*
X60830Y-51154D01*
X59900Y-50969D01*
D02*
G37*
G36*
X38100Y-52369D02*
X37170Y-52554D01*
X36381Y-53081D01*
X35854Y-53870D01*
X35669Y-54800D01*
X35854Y-55730D01*
X36381Y-56519D01*
X37170Y-57046D01*
X38100Y-57231D01*
X39030Y-57046D01*
X39819Y-56519D01*
X40346Y-55730D01*
X40531Y-54800D01*
X40346Y-53870D01*
X39819Y-53081D01*
X39030Y-52554D01*
X38100Y-52369D01*
D02*
G37*
G36*
X-81500Y-50969D02*
X-82430Y-51154D01*
X-83219Y-51681D01*
X-83746Y-52470D01*
X-83931Y-53400D01*
X-83746Y-54330D01*
X-83745Y-54332D01*
X-83819Y-54381D01*
X-84346Y-55170D01*
X-84531Y-56100D01*
X-84346Y-57030D01*
X-83819Y-57819D01*
X-83030Y-58346D01*
X-82100Y-58531D01*
X-81170Y-58346D01*
X-80381Y-57819D01*
X-79854Y-57030D01*
X-79669Y-56100D01*
X-79854Y-55170D01*
X-79855Y-55168D01*
X-79781Y-55119D01*
X-79254Y-54330D01*
X-79069Y-53400D01*
X-79254Y-52470D01*
X-79781Y-51681D01*
X-80570Y-51154D01*
X-81500Y-50969D01*
D02*
G37*
G36*
X-83989Y-58735D02*
X-84919Y-58920D01*
X-85708Y-59447D01*
X-86234Y-60236D01*
X-86312Y-60626D01*
X-87100Y-60469D01*
X-88030Y-60654D01*
X-88700Y-61101D01*
X-89070Y-60854D01*
X-90000Y-60669D01*
X-90930Y-60854D01*
X-91719Y-61381D01*
X-92246Y-62170D01*
X-92431Y-63100D01*
X-92325Y-63631D01*
X-92946Y-63754D01*
X-93735Y-64281D01*
X-94262Y-65070D01*
X-94447Y-66000D01*
X-94262Y-66930D01*
X-93735Y-67719D01*
X-92946Y-68246D01*
X-92016Y-68431D01*
X-91085Y-68246D01*
X-90297Y-67719D01*
X-89770Y-66930D01*
X-89585Y-66000D01*
X-89690Y-65469D01*
X-89070Y-65346D01*
X-88400Y-64899D01*
X-88030Y-65146D01*
X-87100Y-65331D01*
X-86170Y-65146D01*
X-85381Y-64619D01*
X-84854Y-63830D01*
X-84777Y-63440D01*
X-83989Y-63597D01*
X-83058Y-63412D01*
X-82270Y-62885D01*
X-81743Y-62097D01*
X-81558Y-61166D01*
X-81743Y-60236D01*
X-82270Y-59447D01*
X-83058Y-58920D01*
X-83989Y-58735D01*
D02*
G37*
G36*
X110500Y-58069D02*
X109570Y-58254D01*
X108781Y-58781D01*
X108254Y-59570D01*
X108069Y-60500D01*
X108254Y-61430D01*
X108781Y-62219D01*
X109570Y-62746D01*
X110500Y-62931D01*
X111430Y-62746D01*
X112219Y-62219D01*
X112746Y-61430D01*
X112931Y-60500D01*
X112746Y-59570D01*
X112219Y-58781D01*
X111430Y-58254D01*
X110500Y-58069D01*
D02*
G37*
G36*
X37709Y-60769D02*
X36779Y-60954D01*
X35991Y-61481D01*
X35464Y-62270D01*
X35278Y-63200D01*
X35464Y-64130D01*
X35991Y-64919D01*
X36779Y-65446D01*
X37709Y-65631D01*
X38640Y-65446D01*
X39428Y-64919D01*
X39955Y-64130D01*
X40140Y-63200D01*
X39955Y-62270D01*
X39428Y-61481D01*
X38640Y-60954D01*
X37709Y-60769D01*
D02*
G37*
G36*
X-97900Y-61069D02*
X-98830Y-61254D01*
X-99619Y-61781D01*
X-100146Y-62570D01*
X-100331Y-63500D01*
X-100146Y-64430D01*
X-99619Y-65219D01*
X-98830Y-65746D01*
X-97900Y-65931D01*
X-96970Y-65746D01*
X-96181Y-65219D01*
X-95654Y-64430D01*
X-95469Y-63500D01*
X-95654Y-62570D01*
X-96181Y-61781D01*
X-96970Y-61254D01*
X-97900Y-61069D01*
D02*
G37*
G36*
X-17800Y-62169D02*
X-18730Y-62354D01*
X-19519Y-62881D01*
X-20046Y-63670D01*
X-20231Y-64600D01*
X-20046Y-65530D01*
X-19519Y-66319D01*
X-18730Y-66846D01*
X-17800Y-67031D01*
X-16870Y-66846D01*
X-16081Y-66319D01*
X-15554Y-65530D01*
X-15369Y-64600D01*
X-15554Y-63670D01*
X-16081Y-62881D01*
X-16870Y-62354D01*
X-17800Y-62169D01*
D02*
G37*
G36*
X4109Y-62260D02*
X3179Y-62445D01*
X2390Y-62972D01*
X1863Y-63761D01*
X1678Y-64691D01*
X1863Y-65621D01*
X2390Y-66410D01*
X3179Y-66937D01*
X4109Y-67122D01*
X5040Y-66937D01*
X5828Y-66410D01*
X6355Y-65621D01*
X6540Y-64691D01*
X6355Y-63761D01*
X5828Y-62972D01*
X5040Y-62445D01*
X4109Y-62260D01*
D02*
G37*
G36*
X52500Y-65869D02*
X51570Y-66054D01*
X50781Y-66581D01*
X50254Y-67370D01*
X50069Y-68300D01*
X50254Y-69230D01*
X50781Y-70019D01*
X51570Y-70546D01*
X52500Y-70731D01*
X53430Y-70546D01*
X54219Y-70019D01*
X54746Y-69230D01*
X54931Y-68300D01*
X54746Y-67370D01*
X54219Y-66581D01*
X53430Y-66054D01*
X52500Y-65869D01*
D02*
G37*
G36*
X-49300Y-66869D02*
X-50230Y-67054D01*
X-51019Y-67581D01*
X-51546Y-68370D01*
X-51731Y-69300D01*
X-51546Y-70230D01*
X-51272Y-70640D01*
X-51289Y-70663D01*
X-51577Y-71356D01*
X-51675Y-72100D01*
X-51577Y-72844D01*
X-51289Y-73537D01*
X-50833Y-74133D01*
X-50237Y-74590D01*
X-49544Y-74877D01*
X-48800Y-74975D01*
X-48056Y-74877D01*
X-47363Y-74590D01*
X-46767Y-74133D01*
X-46310Y-73537D01*
X-46023Y-72844D01*
X-45925Y-72100D01*
X-46023Y-71356D01*
X-46310Y-70663D01*
X-46767Y-70067D01*
X-46988Y-69898D01*
X-46869Y-69300D01*
X-47054Y-68370D01*
X-47581Y-67581D01*
X-48370Y-67054D01*
X-49300Y-66869D01*
D02*
G37*
G36*
X57200Y-70369D02*
X56270Y-70554D01*
X55481Y-71081D01*
X54954Y-71870D01*
X54769Y-72800D01*
X54954Y-73730D01*
X55481Y-74519D01*
X56270Y-75046D01*
X57200Y-75231D01*
X58130Y-75046D01*
X58919Y-74519D01*
X59446Y-73730D01*
X59631Y-72800D01*
X59446Y-71870D01*
X58919Y-71081D01*
X58130Y-70554D01*
X57200Y-70369D01*
D02*
G37*
G36*
X18200Y-73269D02*
X17270Y-73454D01*
X16481Y-73981D01*
X15954Y-74770D01*
X15769Y-75700D01*
X15954Y-76630D01*
X16481Y-77419D01*
X17270Y-77946D01*
X18200Y-78131D01*
X19130Y-77946D01*
X19919Y-77419D01*
X20446Y-76630D01*
X20631Y-75700D01*
X20446Y-74770D01*
X19919Y-73981D01*
X19130Y-73454D01*
X18200Y-73269D01*
D02*
G37*
G36*
X94600Y-73869D02*
X93670Y-74054D01*
X92881Y-74581D01*
X92354Y-75370D01*
X92169Y-76300D01*
X92354Y-77230D01*
X92881Y-78019D01*
X93670Y-78546D01*
X94600Y-78731D01*
X95530Y-78546D01*
X96319Y-78019D01*
X96846Y-77230D01*
X97031Y-76300D01*
X96846Y-75370D01*
X96319Y-74581D01*
X95530Y-74054D01*
X94600Y-73869D01*
D02*
G37*
G36*
X65483Y-73979D02*
X64553Y-74164D01*
X63765Y-74691D01*
X63238Y-75479D01*
X63052Y-76410D01*
X63238Y-77340D01*
X63765Y-78128D01*
X64553Y-78655D01*
X65483Y-78840D01*
X66414Y-78655D01*
X67202Y-78128D01*
X67729Y-77340D01*
X67914Y-76410D01*
X67729Y-75479D01*
X67202Y-74691D01*
X66414Y-74164D01*
X65483Y-73979D01*
D02*
G37*
G36*
X52500Y-81569D02*
X51570Y-81754D01*
X50781Y-82281D01*
X50254Y-83070D01*
X50069Y-84000D01*
X50254Y-84930D01*
X50781Y-85719D01*
X51570Y-86246D01*
X52500Y-86431D01*
X53430Y-86246D01*
X54219Y-85719D01*
X54746Y-84930D01*
X54931Y-84000D01*
X54746Y-83070D01*
X54219Y-82281D01*
X53430Y-81754D01*
X52500Y-81569D01*
D02*
G37*
G36*
X85638Y-84679D02*
X84659Y-84807D01*
X83747Y-85185D01*
X83284Y-85541D01*
X85815Y-88072D01*
X88193Y-85694D01*
X87529Y-85185D01*
X86617Y-84807D01*
X85638Y-84679D01*
D02*
G37*
G36*
X-62300Y-86400D02*
X-63077Y-86502D01*
X-63800Y-86801D01*
X-64422Y-87278D01*
X-64899Y-87900D01*
X-65198Y-88623D01*
X-65702D01*
X-66001Y-87900D01*
X-66478Y-87278D01*
X-67100Y-86801D01*
X-67823Y-86502D01*
X-68600Y-86400D01*
X-69377Y-86502D01*
X-70100Y-86801D01*
X-70722Y-87278D01*
X-71198Y-87900D01*
X-71498Y-88623D01*
X-71601Y-89400D01*
X-71498Y-90177D01*
X-71198Y-90900D01*
X-70722Y-91522D01*
X-70100Y-91998D01*
X-69377Y-92298D01*
X-68600Y-92400D01*
X-67823Y-92298D01*
X-67100Y-91998D01*
X-66478Y-91522D01*
X-66001Y-90900D01*
X-65702Y-90177D01*
X-65198D01*
X-64899Y-90900D01*
X-64422Y-91522D01*
X-63800Y-91998D01*
X-63077Y-92298D01*
X-62300Y-92400D01*
X-61523Y-92298D01*
X-60800Y-91998D01*
X-60178Y-91522D01*
X-59702Y-90900D01*
X-59402Y-90177D01*
X-59299Y-89400D01*
X-59402Y-88623D01*
X-59702Y-87900D01*
X-60178Y-87278D01*
X-60800Y-86801D01*
X-61523Y-86502D01*
X-62300Y-86400D01*
D02*
G37*
G36*
X88758Y-86260D02*
X86381Y-88638D01*
X88912Y-91169D01*
X89267Y-90706D01*
X89645Y-89793D01*
X89774Y-88815D01*
X89645Y-87836D01*
X89267Y-86923D01*
X88758Y-86260D01*
D02*
G37*
G36*
X31000Y-84969D02*
X30070Y-85154D01*
X29281Y-85681D01*
X28754Y-86470D01*
X28671Y-86887D01*
X28253Y-86970D01*
X27465Y-87497D01*
X26938Y-88286D01*
X26855Y-88703D01*
X26437Y-88787D01*
X25649Y-89314D01*
X25122Y-90102D01*
X24937Y-91032D01*
X25122Y-91963D01*
X25649Y-92751D01*
X26437Y-93278D01*
X27368Y-93463D01*
X28298Y-93278D01*
X29087Y-92751D01*
X29614Y-91963D01*
X29697Y-91545D01*
X30114Y-91462D01*
X30903Y-90935D01*
X31430Y-90146D01*
X31513Y-89729D01*
X31930Y-89646D01*
X32719Y-89119D01*
X33246Y-88330D01*
X33431Y-87400D01*
X33246Y-86470D01*
X32719Y-85681D01*
X31930Y-85154D01*
X31000Y-84969D01*
D02*
G37*
G36*
X-50832Y-83678D02*
X-51530D01*
X-51668Y-83705D01*
X-51809D01*
X-52493Y-83841D01*
X-52623Y-83895D01*
X-52761Y-83922D01*
X-53406Y-84189D01*
X-53523Y-84268D01*
X-53653Y-84321D01*
X-54233Y-84709D01*
X-54332Y-84809D01*
X-54449Y-84887D01*
X-54943Y-85380D01*
X-55021Y-85497D01*
X-55120Y-85597D01*
X-55508Y-86177D01*
X-55562Y-86307D01*
X-55640Y-86424D01*
X-55907Y-87068D01*
X-55935Y-87206D01*
X-55988Y-87336D01*
X-56124Y-88021D01*
Y-88161D01*
X-56152Y-88299D01*
Y-88997D01*
X-56124Y-89135D01*
Y-89276D01*
X-55988Y-89960D01*
X-55935Y-90090D01*
X-55907Y-90228D01*
X-55640Y-90873D01*
X-55562Y-90990D01*
X-55508Y-91120D01*
X-55120Y-91700D01*
X-55021Y-91799D01*
X-54943Y-91916D01*
X-54449Y-92410D01*
X-54332Y-92488D01*
X-54233Y-92587D01*
X-53653Y-92975D01*
X-53523Y-93029D01*
X-53406Y-93107D01*
X-52761Y-93374D01*
X-52623Y-93402D01*
X-52493Y-93455D01*
X-51809Y-93592D01*
X-51668D01*
X-51530Y-93619D01*
X-50832D01*
X-50694Y-93592D01*
X-50554D01*
X-49869Y-93455D01*
X-49739Y-93402D01*
X-49601Y-93374D01*
X-48957Y-93107D01*
X-48840Y-93029D01*
X-48710Y-92975D01*
X-48129Y-92587D01*
X-48030Y-92488D01*
X-47913Y-92410D01*
X-47420Y-91916D01*
X-47341Y-91799D01*
X-47242Y-91700D01*
X-46854Y-91120D01*
X-46800Y-90990D01*
X-46722Y-90873D01*
X-46455Y-90228D01*
X-46428Y-90090D01*
X-46374Y-89960D01*
X-46238Y-89276D01*
Y-89135D01*
X-46210Y-88997D01*
Y-88299D01*
X-46238Y-88161D01*
Y-88021D01*
X-46374Y-87336D01*
X-46428Y-87206D01*
X-46455Y-87068D01*
X-46722Y-86424D01*
X-46800Y-86307D01*
X-46854Y-86177D01*
X-47242Y-85597D01*
X-47341Y-85497D01*
X-47420Y-85380D01*
X-47913Y-84887D01*
X-48030Y-84809D01*
X-48129Y-84709D01*
X-48710Y-84321D01*
X-48840Y-84268D01*
X-48957Y-84189D01*
X-49601Y-83922D01*
X-49739Y-83895D01*
X-49869Y-83841D01*
X-50554Y-83705D01*
X-50694D01*
X-50832Y-83678D01*
D02*
G37*
G36*
X42200Y-84069D02*
X41270Y-84254D01*
X40481Y-84781D01*
X39954Y-85570D01*
X39769Y-86500D01*
X39954Y-87430D01*
X40191Y-87784D01*
X39954Y-88138D01*
X39769Y-89069D01*
X39954Y-89999D01*
X40191Y-90353D01*
X39954Y-90707D01*
X39769Y-91637D01*
X39954Y-92567D01*
X40481Y-93356D01*
X41270Y-93883D01*
X42200Y-94068D01*
X43130Y-93883D01*
X43919Y-93356D01*
X44446Y-92567D01*
X44631Y-91637D01*
X44446Y-90707D01*
X44209Y-90353D01*
X44446Y-89999D01*
X44631Y-89069D01*
X44446Y-88138D01*
X44209Y-87784D01*
X44446Y-87430D01*
X44631Y-86500D01*
X44446Y-85570D01*
X43919Y-84781D01*
X43130Y-84254D01*
X42200Y-84069D01*
D02*
G37*
G36*
X-56000Y-93099D02*
X-56777Y-93202D01*
X-57500Y-93502D01*
X-58122Y-93978D01*
X-58256Y-94154D01*
X-58623Y-94002D01*
X-59400Y-93900D01*
X-60177Y-94002D01*
X-60900Y-94301D01*
X-61522Y-94778D01*
X-61998Y-95400D01*
X-62298Y-96123D01*
X-62401Y-96900D01*
X-62310Y-97586D01*
X-62822Y-97978D01*
X-63298Y-98600D01*
X-63598Y-99323D01*
X-63700Y-100100D01*
X-63598Y-100877D01*
X-63298Y-101600D01*
X-62822Y-102222D01*
X-62200Y-102699D01*
X-61477Y-102998D01*
X-60700Y-103101D01*
X-59923Y-102998D01*
X-59200Y-102699D01*
X-58578Y-102222D01*
X-58101Y-101600D01*
X-57802Y-100877D01*
X-57700Y-100100D01*
X-57790Y-99414D01*
X-57278Y-99022D01*
X-57144Y-98846D01*
X-56777Y-98998D01*
X-56000Y-99101D01*
X-55223Y-98998D01*
X-54500Y-98699D01*
X-53878Y-98222D01*
X-53401Y-97600D01*
X-53102Y-96877D01*
X-53000Y-96100D01*
X-53102Y-95323D01*
X-53401Y-94600D01*
X-53878Y-93978D01*
X-54500Y-93502D01*
X-55223Y-93202D01*
X-56000Y-93099D01*
D02*
G37*
G36*
X-68400Y-96799D02*
X-69177Y-96902D01*
X-69900Y-97202D01*
X-70522Y-97678D01*
X-70999Y-98300D01*
X-71298Y-99023D01*
X-71400Y-99800D01*
X-71298Y-100577D01*
X-70999Y-101300D01*
X-70764Y-101605D01*
X-70846Y-102099D01*
X-71119Y-102281D01*
X-71646Y-103070D01*
X-71831Y-104000D01*
X-71646Y-104930D01*
X-71119Y-105719D01*
X-70330Y-106246D01*
X-69400Y-106431D01*
X-68470Y-106246D01*
X-67681Y-105719D01*
X-67154Y-104930D01*
X-66969Y-104000D01*
X-67154Y-103070D01*
X-67231Y-102954D01*
X-67086Y-102476D01*
X-66900Y-102399D01*
X-66278Y-101922D01*
X-65802Y-101300D01*
X-65502Y-100577D01*
X-65399Y-99800D01*
X-65502Y-99023D01*
X-65802Y-98300D01*
X-66278Y-97678D01*
X-66900Y-97202D01*
X-67623Y-96902D01*
X-68400Y-96799D01*
D02*
G37*
G36*
X-21896Y-95673D02*
X-23328Y-95814D01*
X-24705Y-96232D01*
X-25975Y-96910D01*
X-27087Y-97823D01*
X-28000Y-98935D01*
X-28678Y-100204D01*
X-29096Y-101581D01*
X-29237Y-103014D01*
X-29096Y-104446D01*
X-28678Y-105823D01*
X-28000Y-107092D01*
X-27087Y-108204D01*
X-25975Y-109117D01*
X-24705Y-109796D01*
X-23328Y-110213D01*
X-21896Y-110354D01*
X-20464Y-110213D01*
X-19087Y-109796D01*
X-17818Y-109117D01*
X-16705Y-108204D01*
X-15792Y-107092D01*
X-15114Y-105823D01*
X-14696Y-104446D01*
X-14555Y-103014D01*
X-14696Y-101581D01*
X-15114Y-100204D01*
X-15792Y-98935D01*
X-16705Y-97823D01*
X-17818Y-96910D01*
X-19087Y-96232D01*
X-20464Y-95814D01*
X-21896Y-95673D01*
D02*
G37*
G36*
X-39900Y-106669D02*
X-40830Y-106854D01*
X-41619Y-107381D01*
X-42146Y-108170D01*
X-42331Y-109100D01*
X-42146Y-110030D01*
X-41619Y-110819D01*
X-40830Y-111346D01*
X-39900Y-111531D01*
X-38970Y-111346D01*
X-38181Y-110819D01*
X-37654Y-110030D01*
X-37469Y-109100D01*
X-37654Y-108170D01*
X-38181Y-107381D01*
X-38970Y-106854D01*
X-39900Y-106669D01*
D02*
G37*
%LPD*%
D127*
X-5000Y110900D02*
D03*
D129*
X85815Y-88638D02*
D03*
D132*
X48575Y-24800D02*
D03*
X-20400Y48300D02*
D03*
X56700Y39800D02*
D03*
X40200Y51200D02*
D03*
X77700Y82600D02*
D03*
X76700Y92100D02*
D03*
X61737Y96513D02*
D03*
X106900Y-66200D02*
D03*
X-87100Y-73620D02*
D03*
X-75341Y-93795D02*
D03*
X-37500Y-102715D02*
D03*
X-37400Y-85700D02*
D03*
X-69738Y19800D02*
D03*
X-52300Y49800D02*
D03*
X-53900Y-5300D02*
D03*
X-52100Y17900D02*
D03*
X-40800Y35268D02*
D03*
X-34722Y-53850D02*
D03*
X99862Y-21665D02*
D03*
X92058Y-22465D02*
D03*
X120800Y-2465D02*
D03*
Y13200D02*
D03*
X58000Y27600D02*
D03*
X39559Y29800D02*
D03*
X60400Y7900D02*
D03*
X35653Y97592D02*
D03*
Y94763D02*
D03*
X42800Y65991D02*
D03*
X40053Y82607D02*
D03*
Y78688D02*
D03*
X50200Y67343D02*
D03*
X38400Y59200D02*
D03*
X-5232Y72200D02*
D03*
X2445Y72692D02*
D03*
X4300Y61800D02*
D03*
X17313Y98513D02*
D03*
Y91713D02*
D03*
Y86130D02*
D03*
X-59600Y109400D02*
D03*
X-39300Y84400D02*
D03*
X-43500Y78600D02*
D03*
X-24000Y71800D02*
D03*
X-35700Y77941D02*
D03*
X-35600Y71800D02*
D03*
X-44600Y58068D02*
D03*
X-73500Y4800D02*
D03*
X-121800Y-2259D02*
D03*
X-121482Y12700D02*
D03*
X-69241Y-49347D02*
D03*
X-59600Y-47700D02*
D03*
X-60499Y-57713D02*
D03*
X-66011D02*
D03*
X-26800Y-65600D02*
D03*
X-25600Y-60600D02*
D03*
X-21278Y-48000D02*
D03*
X-12000Y-50100D02*
D03*
X14110Y-58004D02*
D03*
X7009Y-58823D02*
D03*
X46700Y-79300D02*
D03*
X43200Y-70300D02*
D03*
X60809Y-82400D02*
D03*
X29149Y-103100D02*
D03*
X59252Y-102600D02*
D03*
X49400D02*
D03*
X38400Y-103100D02*
D03*
X-47400Y-113300D02*
D03*
X105900Y-45000D02*
D03*
X95208Y-43861D02*
D03*
X112800Y-45632D02*
D03*
X105800Y-33231D02*
D03*
X73600Y-7000D02*
D03*
X101762Y-14828D02*
D03*
X86153Y-3900D02*
D03*
X104700Y7900D02*
D03*
X45100Y-45229D02*
D03*
X69200Y-20267D02*
D03*
X63100Y-29500D02*
D03*
X81231Y-49569D02*
D03*
X89499Y-51538D02*
D03*
X88712Y-58850D02*
D03*
X79657Y-58821D02*
D03*
X71100Y-59412D02*
D03*
X60153Y-62758D02*
D03*
X52318Y-61904D02*
D03*
X88000Y-82800D02*
D03*
X92058Y-65317D02*
D03*
X12709Y-68968D02*
D03*
X-100600Y-60900D02*
D03*
D133*
X-73500Y10200D02*
D03*
X63800Y84600D02*
D03*
X-8000Y104200D02*
D03*
X23413Y63100D02*
D03*
X30100Y58100D02*
D03*
X39300Y63600D02*
D03*
X-7800Y66500D02*
D03*
Y60600D02*
D03*
X-21500Y102900D02*
D03*
X-25000Y95300D02*
D03*
X-23806Y77941D02*
D03*
X-21300Y81500D02*
D03*
X8400Y91713D02*
D03*
Y96592D02*
D03*
Y101592D02*
D03*
X3331Y91713D02*
D03*
Y96592D02*
D03*
Y101521D02*
D03*
X-107100Y-20100D02*
D03*
X-115700Y-33000D02*
D03*
X-77373Y10570D02*
D03*
X-91800Y-2700D02*
D03*
X-85900Y1900D02*
D03*
X-81200Y10200D02*
D03*
X-81880Y15074D02*
D03*
X-57600Y-89500D02*
D03*
X-50900Y-81800D02*
D03*
Y-78200D02*
D03*
X-57100Y-85700D02*
D03*
D134*
X-4974Y110050D02*
D03*
M02*
