G04*
G04 #@! TF.GenerationSoftware,Altium Limited,Altium Designer,19.1.5 (86)*
G04*
G04 Layer_Physical_Order=1*
G04 Layer_Color=255*
%FSLAX25Y25*%
%MOIN*%
G70*
G01*
G75*
%ADD10C,0.01000*%
%ADD22R,0.02200X0.02200*%
%ADD23R,0.03200X0.03200*%
%ADD24R,0.02200X0.02200*%
%ADD25R,0.03600X0.05800*%
%ADD26R,0.03000X0.02000*%
%ADD27R,0.02000X0.03000*%
%ADD28R,0.02165X0.01378*%
%ADD29R,0.03800X0.05600*%
%ADD30R,0.01378X0.02165*%
%ADD31R,0.05800X0.03600*%
%ADD32R,0.01181X0.05906*%
%ADD33R,0.05906X0.01181*%
%ADD34R,0.07874X0.04331*%
%ADD35R,0.03150X0.03150*%
%ADD36R,0.03937X0.10630*%
%ADD37R,0.03500X0.03000*%
%ADD38R,0.02600X0.04200*%
%ADD39R,0.05600X0.03800*%
%ADD40R,0.04331X0.07874*%
%ADD41R,0.03150X0.03150*%
%ADD42R,0.05118X0.10630*%
%ADD43R,0.04724X0.03937*%
%ADD44R,0.06890X0.06000*%
%ADD45R,0.03000X0.03500*%
%ADD46R,0.02400X0.04000*%
%ADD47R,0.02800X0.03800*%
%ADD48R,0.06299X0.05118*%
G04:AMPARAMS|DCode=49|XSize=23.62mil|YSize=78.74mil|CornerRadius=0mil|HoleSize=0mil|Usage=FLASHONLY|Rotation=330.000|XOffset=0mil|YOffset=0mil|HoleType=Round|Shape=Round|*
%AMOVALD49*
21,1,0.05512,0.02362,0.00000,0.00000,60.0*
1,1,0.02362,-0.01378,-0.02387*
1,1,0.02362,0.01378,0.02387*
%
%ADD49OVALD49*%

G04:AMPARAMS|DCode=50|XSize=23.62mil|YSize=78.74mil|CornerRadius=0mil|HoleSize=0mil|Usage=FLASHONLY|Rotation=330.000|XOffset=0mil|YOffset=0mil|HoleType=Round|Shape=Round|*
%AMOVALD50*
21,1,0.05512,0.02362,0.00000,0.00000,60.0*
1,1,0.02362,-0.01378,-0.02387*
1,1,0.02362,0.01378,0.02387*
%
%ADD50OVALD50*%

%ADD84C,0.06000*%
%ADD85C,0.00700*%
%ADD86C,0.00800*%
%ADD87C,0.02500*%
%ADD88C,0.03000*%
%ADD89C,0.02000*%
%ADD90C,0.01500*%
%ADD91C,0.03500*%
%ADD92R,0.01650X0.00473*%
%ADD93R,0.03744X0.01323*%
%ADD94R,0.02810X0.02820*%
%ADD95R,0.03126X0.19182*%
%ADD96R,0.06500X0.10000*%
%ADD97R,0.08563X0.11186*%
%ADD98R,0.09252X0.24615*%
%ADD99R,0.05450X0.18150*%
%ADD100R,0.05300X0.03950*%
%ADD101R,0.07950X0.04018*%
%ADD102R,0.06200X0.07180*%
%ADD103R,0.13630X0.11800*%
%ADD104R,0.13930X0.05720*%
%ADD105R,0.06890X0.13483*%
%ADD106R,0.09842X0.13966*%
%ADD107R,0.19164X0.08109*%
%ADD108R,0.01436X0.04331*%
%ADD109R,0.09347X0.05315*%
%ADD110R,0.06600X0.16100*%
%ADD111R,0.11060X0.04321*%
%ADD112R,0.03084X0.02953*%
%ADD113R,0.21057X0.07017*%
%ADD114R,0.14069X0.07200*%
%ADD115R,0.04700X0.26174*%
%ADD116R,0.09428X0.04703*%
%ADD117R,0.06506X0.28521*%
%ADD118R,0.08401X0.03676*%
%ADD119R,0.05601X0.10583*%
%ADD120R,0.07800X0.08107*%
%ADD121R,0.20010X0.11300*%
%ADD122R,0.06890X0.12410*%
%ADD123R,0.05984X0.07855*%
%ADD124R,0.06490X0.04172*%
%ADD125R,0.07598X0.09843*%
%ADD126R,0.09843X0.07598*%
%ADD127C,0.05906*%
%ADD128R,0.05906X0.05906*%
G04:AMPARAMS|DCode=129|XSize=55mil|YSize=60mil|CornerRadius=0mil|HoleSize=0mil|Usage=FLASHONLY|Rotation=45.000|XOffset=0mil|YOffset=0mil|HoleType=Round|Shape=Round|*
%AMOVALD129*
21,1,0.00500,0.05500,0.00000,0.00000,135.0*
1,1,0.05500,0.00177,-0.00177*
1,1,0.05500,-0.00177,0.00177*
%
%ADD129OVALD129*%

G04:AMPARAMS|DCode=130|XSize=55mil|YSize=60mil|CornerRadius=6.88mil|HoleSize=0mil|Usage=FLASHONLY|Rotation=45.000|XOffset=0mil|YOffset=0mil|HoleType=Round|Shape=RoundedRectangle|*
%AMROUNDEDRECTD130*
21,1,0.05500,0.04625,0,0,45.0*
21,1,0.04125,0.06000,0,0,45.0*
1,1,0.01375,0.03094,-0.00177*
1,1,0.01375,0.00177,-0.03094*
1,1,0.01375,-0.03094,0.00177*
1,1,0.01375,-0.00177,0.03094*
%
%ADD130ROUNDEDRECTD130*%
%ADD131C,0.11811*%
%ADD132C,0.01968*%
%ADD133C,0.03150*%
G36*
X39400Y116900D02*
Y115200D01*
X41500D01*
Y114800D01*
X41900D01*
Y112700D01*
X42504D01*
X42579Y112644D01*
X42819Y112200D01*
X42602Y111677D01*
X42500Y110900D01*
X42602Y110123D01*
X42902Y109400D01*
X43378Y108778D01*
X43417Y108748D01*
X43248Y108248D01*
X33900D01*
Y109300D01*
X28900D01*
Y105192D01*
X20413D01*
Y100191D01*
Y96192D01*
Y92191D01*
X20472D01*
Y86113D01*
X25872D01*
Y86513D01*
X26513D01*
Y89613D01*
X27312D01*
Y86513D01*
X27953D01*
Y86113D01*
X32663D01*
Y83298D01*
X30523D01*
X30386Y83270D01*
X29612D01*
Y83270D01*
X24213D01*
Y83270D01*
X20472D01*
Y82191D01*
X15913D01*
Y80331D01*
X15413Y80124D01*
X10468Y85068D01*
X9862Y85533D01*
X9157Y85825D01*
X8400Y85925D01*
X3845D01*
Y88900D01*
X-712D01*
X-1000Y88938D01*
X-8762D01*
X-10562Y90738D01*
Y96291D01*
X-10603Y96600D01*
X-10562Y96909D01*
Y110900D01*
X-10647Y111547D01*
Y115253D01*
X-14353D01*
X-15000Y115338D01*
X-15647Y115253D01*
X-19353D01*
Y111547D01*
X-19438Y110900D01*
Y96909D01*
X-19397Y96600D01*
X-19438Y96291D01*
Y88900D01*
Y71634D01*
X-26364Y64708D01*
X-29044Y63598D01*
X-31037Y62600D01*
X-51624Y83188D01*
X-51588Y83378D01*
X-51407Y83678D01*
X-50832D01*
X-50694Y83705D01*
X-50554D01*
X-49869Y83841D01*
X-49739Y83895D01*
X-49601Y83922D01*
X-48957Y84189D01*
X-48840Y84268D01*
X-48710Y84321D01*
X-48129Y84709D01*
X-48030Y84809D01*
X-47913Y84887D01*
X-47420Y85380D01*
X-47341Y85497D01*
X-47242Y85597D01*
X-46854Y86177D01*
X-46800Y86307D01*
X-46722Y86424D01*
X-46455Y87068D01*
X-46428Y87206D01*
X-46374Y87336D01*
X-46238Y88021D01*
Y88161D01*
X-46210Y88299D01*
Y88997D01*
X-46238Y89135D01*
Y89276D01*
X-46374Y89960D01*
X-46428Y90090D01*
X-46455Y90228D01*
X-46722Y90873D01*
X-46800Y90990D01*
X-46854Y91120D01*
X-47242Y91700D01*
X-47341Y91799D01*
X-47420Y91916D01*
X-47876Y92373D01*
X-47859Y92530D01*
X-47706Y92873D01*
X-45130D01*
X-45125Y92872D01*
X-37527D01*
X-37102Y92956D01*
X-37019Y92536D01*
X-36709Y92072D01*
X-36246Y91763D01*
X-35700Y91654D01*
X-34929D01*
Y84799D01*
X-34820Y84253D01*
X-34511Y83790D01*
X-34048Y83481D01*
X-33841Y83439D01*
X-33500Y83172D01*
X-33497Y82872D01*
X-33631Y82200D01*
X-33446Y81270D01*
X-32919Y80481D01*
X-32130Y79954D01*
X-31200Y79769D01*
X-30270Y79954D01*
X-30192Y80006D01*
X-30063Y79837D01*
X-29371Y79306D01*
X-28565Y78973D01*
X-27700Y78859D01*
X-26835Y78973D01*
X-26029Y79306D01*
X-25337Y79837D01*
X-24806Y80529D01*
X-24777Y80600D01*
X-24739Y80611D01*
X-24193Y81042D01*
X-22742Y82742D01*
X-22660Y82890D01*
X-22549Y83018D01*
X-22492Y83191D01*
X-22403Y83350D01*
X-22383Y83518D01*
X-22330Y83679D01*
X-22230Y84479D01*
X-22024Y84700D01*
X-21100D01*
Y88100D01*
X-24000D01*
Y88500D01*
X-24400D01*
Y92300D01*
X-26473D01*
Y95382D01*
Y101189D01*
X-26581Y101735D01*
X-26891Y102198D01*
X-27200Y102405D01*
Y106600D01*
Y110600D01*
Y115600D01*
X-32200D01*
Y115400D01*
X-43000D01*
Y114834D01*
X-60330D01*
X-60453Y115319D01*
X-59125Y116040D01*
X-56660Y117215D01*
X39031D01*
X39400Y116900D01*
D02*
G37*
G36*
X-43000Y110600D02*
X-41934D01*
Y110450D01*
X-41798Y109767D01*
X-41412Y109188D01*
X-40600Y108377D01*
Y105900D01*
X-40963Y105569D01*
X-42910D01*
Y105600D01*
X-43019Y106146D01*
X-43328Y106609D01*
X-43791Y106919D01*
X-44338Y107027D01*
X-64242D01*
X-64408Y107282D01*
X-64462Y107515D01*
X-60711Y111266D01*
X-43000D01*
Y110600D01*
D02*
G37*
G36*
X42453Y89013D02*
X42505Y88535D01*
Y76906D01*
X42400Y76450D01*
X42068Y76450D01*
X40300D01*
Y73700D01*
Y70950D01*
X42400D01*
X42800Y70709D01*
Y70550D01*
X43763D01*
Y100D01*
Y-9103D01*
X39128Y-21379D01*
X39094Y-21583D01*
X39024Y-21779D01*
X39033Y-21953D01*
X39004Y-22125D01*
X39051Y-22327D01*
X39061Y-22534D01*
X40827Y-29588D01*
X40384Y-29879D01*
X40123Y-29678D01*
X39495Y-29418D01*
X38821Y-29329D01*
X38147Y-29418D01*
X37519Y-29678D01*
X36980Y-30092D01*
X36567Y-30631D01*
X33811Y-35405D01*
X33551Y-36033D01*
X33462Y-36706D01*
X33551Y-37380D01*
X33811Y-38008D01*
X34225Y-38547D01*
X34764Y-38961D01*
X35392Y-39221D01*
X36065Y-39310D01*
X36739Y-39221D01*
X37072Y-39083D01*
X37355Y-39507D01*
X36042Y-40820D01*
X35622Y-41449D01*
X35475Y-42190D01*
Y-43486D01*
X34912D01*
Y-46646D01*
X34370Y-46754D01*
X33581Y-47281D01*
X33054Y-48070D01*
X32869Y-49000D01*
X33054Y-49930D01*
X33581Y-50719D01*
X34370Y-51246D01*
X35300Y-51431D01*
X36230Y-51246D01*
X37019Y-50719D01*
X37546Y-49930D01*
X37731Y-49000D01*
X37706Y-48872D01*
X38023Y-48486D01*
X39912D01*
Y-48086D01*
X41012D01*
Y-45986D01*
X41412D01*
Y-45586D01*
X43512D01*
Y-44126D01*
X43955Y-43748D01*
X44435Y-43911D01*
X45301Y-43854D01*
X46042Y-43489D01*
X46213Y-43551D01*
X46515Y-43733D01*
X46452Y-44206D01*
X46541Y-44880D01*
X46801Y-45508D01*
X47215Y-46047D01*
X47746Y-46454D01*
X47769Y-46533D01*
X47756Y-47003D01*
X47291Y-47314D01*
X46405Y-48200D01*
X44000D01*
Y-53200D01*
Y-57200D01*
X49000D01*
Y-54795D01*
X49718Y-54077D01*
X50218Y-54284D01*
Y-54484D01*
X52318D01*
Y-54884D01*
X52718D01*
Y-56984D01*
X53818D01*
Y-57384D01*
X58818D01*
Y-56100D01*
X59318Y-55715D01*
X59900Y-55831D01*
X60631Y-55686D01*
X61131Y-56001D01*
Y-58843D01*
Y-62942D01*
X59300D01*
Y-62500D01*
X57200D01*
X55100D01*
Y-63600D01*
X54700D01*
Y-64265D01*
X51088D01*
Y-63500D01*
X46088D01*
Y-64265D01*
X45072D01*
X40613Y-59806D01*
X40018Y-59408D01*
X39316Y-59269D01*
X12496D01*
X11794Y-59408D01*
X11199Y-59806D01*
X8814Y-62191D01*
X6409D01*
Y-62856D01*
X5654D01*
X5040Y-62445D01*
X4109Y-62260D01*
X3179Y-62445D01*
X2390Y-62972D01*
X1863Y-63761D01*
X1678Y-64691D01*
X1863Y-65621D01*
X2390Y-66410D01*
X3179Y-66937D01*
X4109Y-67122D01*
X5040Y-66937D01*
X5654Y-66526D01*
X6409D01*
Y-67191D01*
X6809D01*
Y-68291D01*
X8909D01*
X11009D01*
Y-67191D01*
X11409D01*
Y-64786D01*
X13257Y-62939D01*
X34668D01*
X34875Y-63439D01*
X28270Y-70044D01*
X11009D01*
Y-69091D01*
X8909D01*
X6809D01*
Y-70044D01*
X-8743D01*
X-11486Y-67300D01*
X-11345Y-66800D01*
X-10400D01*
Y-64700D01*
Y-62600D01*
X-11500D01*
Y-62200D01*
X-16500D01*
X-16500Y-62200D01*
X-17000Y-62328D01*
X-17800Y-62169D01*
X-18730Y-62354D01*
X-19519Y-62881D01*
X-20046Y-63670D01*
X-20231Y-64600D01*
X-20046Y-65530D01*
X-19519Y-66319D01*
X-18730Y-66846D01*
X-17800Y-67031D01*
X-17000Y-66872D01*
X-16500Y-67154D01*
Y-67200D01*
X-15835D01*
Y-67382D01*
X-15696Y-68084D01*
X-15298Y-68679D01*
X-12076Y-71902D01*
X-12267Y-72364D01*
X-34190Y-72364D01*
X-34702Y-72263D01*
X-35444Y-72411D01*
X-36072Y-72832D01*
X-36491Y-73461D01*
X-36637Y-74202D01*
X-36585Y-115795D01*
X-36939Y-116148D01*
X-58897D01*
X-59125Y-116040D01*
X-65117Y-112786D01*
X-67410Y-111381D01*
X-67274Y-110900D01*
X-59400D01*
Y-111600D01*
X-50600D01*
Y-111800D01*
X-48400D01*
Y-109200D01*
X-47600D01*
Y-111800D01*
X-46000D01*
Y-112200D01*
X-40000D01*
Y-111613D01*
X-39900Y-111531D01*
X-38970Y-111346D01*
X-38181Y-110819D01*
X-37654Y-110030D01*
X-37469Y-109100D01*
X-37654Y-108170D01*
X-38181Y-107381D01*
X-38970Y-106854D01*
X-39586Y-106731D01*
Y-106222D01*
X-39354Y-106175D01*
X-38891Y-105866D01*
X-38889Y-105863D01*
X-38558D01*
Y-105285D01*
X-38473Y-104857D01*
Y-101780D01*
X-38462Y-101700D01*
Y-96097D01*
Y-49590D01*
X-38613Y-48441D01*
X-39057Y-47371D01*
X-39762Y-46452D01*
X-40599Y-45615D01*
X-40750Y-45464D01*
X-41091Y-45115D01*
X-41091Y-45114D01*
X-41091D01*
X-41450Y-44783D01*
X-43182Y-43182D01*
X-46437Y-39661D01*
X-49405Y-35895D01*
X-52069Y-31908D01*
X-54412Y-27724D01*
X-56420Y-23370D01*
X-58079Y-18871D01*
X-59381Y-14256D01*
X-59784Y-12231D01*
X-60317Y-9553D01*
X-60880Y-4791D01*
X-61068Y0D01*
X-60880Y4791D01*
X-60317Y9553D01*
X-59381Y14256D01*
X-58079Y18871D01*
X-56420Y23370D01*
X-54412Y27724D01*
X-52069Y31908D01*
X-49405Y35895D01*
X-46437Y39661D01*
X-43182Y43182D01*
X-39661Y46437D01*
X-35895Y49405D01*
X-31908Y52069D01*
X-30555Y52827D01*
X-27724Y54412D01*
X-23370Y56420D01*
X-22192Y56855D01*
X-22206Y56890D01*
X-21587Y57147D01*
X-20668Y57852D01*
X-11862Y66658D01*
X-11157Y67577D01*
X-10713Y68647D01*
X-10562Y69796D01*
Y80062D01*
X-1000D01*
X-712Y80100D01*
X310D01*
X500Y80075D01*
X7188D01*
X10395Y76868D01*
X10110Y76441D01*
X9963Y75700D01*
Y72800D01*
X9400D01*
Y72400D01*
X7900D01*
Y70300D01*
X7500D01*
Y69900D01*
X5400D01*
Y68800D01*
X5000D01*
Y63800D01*
X11877D01*
X12687Y62990D01*
X12669Y62900D01*
X12854Y61970D01*
X13381Y61181D01*
X14170Y60654D01*
X15100Y60469D01*
X16030Y60654D01*
X16819Y61181D01*
X17346Y61970D01*
X17531Y62900D01*
X17346Y63830D01*
X16819Y64619D01*
X16030Y65146D01*
X15465Y65258D01*
X14400Y66323D01*
Y67800D01*
Y72156D01*
X14900Y72363D01*
X15653Y71610D01*
X16259Y71146D01*
X16964Y70853D01*
X17721Y70754D01*
X18478Y70853D01*
X19184Y71146D01*
X19341Y71267D01*
X20361D01*
X20663Y70891D01*
Y68792D01*
X23413D01*
Y68392D01*
X23813D01*
Y65891D01*
X26163D01*
Y68591D01*
X27812D01*
Y70692D01*
X28613D01*
Y68591D01*
X30312D01*
X30335Y68101D01*
Y65943D01*
X31325D01*
Y64200D01*
X33900D01*
X36475D01*
Y65943D01*
X37465D01*
Y69968D01*
X37530Y69981D01*
X37994Y70291D01*
X38303Y70754D01*
X38342Y70950D01*
X39500D01*
Y73700D01*
Y76450D01*
X39400D01*
Y85996D01*
X39609Y86038D01*
X40238Y86458D01*
X41323Y87543D01*
X41743Y88171D01*
X41890Y88913D01*
Y89013D01*
X42453D01*
D02*
G37*
G36*
X59125Y116040D02*
X65117Y112786D01*
X70931Y109224D01*
X76550Y105362D01*
X81959Y101211D01*
X87144Y96783D01*
X92090Y92090D01*
X96783Y87144D01*
X97225Y86627D01*
Y86627D01*
X97220Y86622D01*
X97486Y86224D01*
X97381Y85610D01*
X60923Y64561D01*
X60619Y64958D01*
X65218Y69557D01*
X65748Y70351D01*
X65869Y70961D01*
X66637D01*
Y76761D01*
X66479D01*
X66237Y77161D01*
Y79261D01*
X63487D01*
Y79661D01*
X63087D01*
Y82161D01*
X60980D01*
Y82841D01*
X61053Y83395D01*
X61003Y83774D01*
Y86509D01*
X60980Y86683D01*
Y86795D01*
X60966D01*
X60912Y87201D01*
X60645Y87845D01*
X60220Y88399D01*
X58756Y89863D01*
X58202Y90288D01*
X57558Y90555D01*
X56866Y90646D01*
X52490D01*
X51798Y90555D01*
X51154Y90288D01*
X50600Y89863D01*
X49705Y88968D01*
X49242Y89159D01*
Y89728D01*
X49051D01*
Y93780D01*
X49077Y93842D01*
X49168Y94534D01*
X49077Y95226D01*
X49051Y95288D01*
Y96491D01*
X49051Y96491D01*
X48943Y97314D01*
X48753Y97773D01*
Y98242D01*
X55762D01*
Y104980D01*
X50977D01*
X49098Y106859D01*
X48470Y107279D01*
X48120Y107348D01*
X48098Y107400D01*
X47622Y108022D01*
X47454Y108150D01*
Y108650D01*
X47622Y108778D01*
X48098Y109400D01*
X48398Y110123D01*
X48500Y110900D01*
X48480Y111056D01*
X48810Y111432D01*
X55762D01*
Y117215D01*
X56660D01*
X59125Y116040D01*
D02*
G37*
G36*
X55040Y80395D02*
X55780D01*
Y79995D01*
X60737D01*
Y77161D01*
X60365Y76852D01*
X55580D01*
Y70252D01*
X58338D01*
X58530Y69790D01*
X55013Y66273D01*
X50796Y63839D01*
X50555Y63628D01*
X50289Y63450D01*
X48099Y61260D01*
X47637Y61451D01*
Y70162D01*
X48100Y70252D01*
Y70252D01*
X53700D01*
Y76852D01*
X49242D01*
Y79995D01*
X53500D01*
Y80395D01*
X54240D01*
Y83395D01*
X55040D01*
Y80395D01*
D02*
G37*
G36*
X-107352Y34483D02*
X-107481Y34000D01*
X-117000D01*
Y31723D01*
X-118412Y30312D01*
X-118798Y29733D01*
X-118825Y29600D01*
X-120400D01*
Y27145D01*
X-121572Y25993D01*
X-122413Y25826D01*
X-123201Y25299D01*
X-123728Y24510D01*
X-123913Y23580D01*
X-123728Y22649D01*
X-123201Y21861D01*
X-122413Y21334D01*
X-121482Y21149D01*
X-120552Y21334D01*
X-119763Y21861D01*
X-119236Y22649D01*
X-119079Y23440D01*
X-117898Y24600D01*
X-112121D01*
Y19980D01*
X-111365D01*
X-111270Y19499D01*
X-110883Y18921D01*
X-109928Y17966D01*
Y16501D01*
X-117300D01*
X-117846Y16392D01*
X-118309Y16083D01*
X-118619Y15620D01*
X-118727Y15074D01*
Y-11100D01*
X-119900D01*
Y-11200D01*
X-124200D01*
Y-17000D01*
Y-22400D01*
X-121533D01*
X-120672Y-23262D01*
X-120184Y-23587D01*
Y-24764D01*
X-120646Y-25455D01*
X-120831Y-26385D01*
X-120646Y-27315D01*
X-120119Y-28104D01*
X-119330Y-28631D01*
X-118400Y-28816D01*
X-117900Y-28717D01*
X-117400Y-29127D01*
Y-31700D01*
X-114900D01*
Y-27900D01*
X-114100D01*
Y-31700D01*
X-113953D01*
X-113762Y-32162D01*
X-113832Y-32232D01*
X-114435Y-32635D01*
X-114962Y-33423D01*
X-115147Y-34354D01*
X-114962Y-35284D01*
X-114908Y-35364D01*
Y-53534D01*
X-114741Y-54373D01*
X-114266Y-55084D01*
X-101480Y-67870D01*
X-100768Y-68346D01*
X-100421Y-68415D01*
Y-68821D01*
X-100021D01*
Y-69920D01*
X-97921D01*
X-95821D01*
Y-68821D01*
X-95421D01*
Y-63820D01*
X-95421Y-63820D01*
X-95469Y-63500D01*
X-95498Y-63353D01*
X-95498Y-63352D01*
X-95502Y-63335D01*
X-95654Y-62570D01*
X-96181Y-61781D01*
X-96970Y-61254D01*
X-97900Y-61069D01*
X-98830Y-61254D01*
X-99619Y-61781D01*
X-100037Y-62406D01*
X-100611Y-62539D01*
X-110524Y-52626D01*
Y-35364D01*
X-110470Y-35284D01*
X-110417Y-35017D01*
X-108437Y-33037D01*
X-107975Y-33228D01*
Y-34400D01*
X-105400D01*
Y-34800D01*
X-105000D01*
Y-37375D01*
X-103257D01*
Y-38365D01*
X-96812D01*
X-96500Y-38427D01*
X-89900D01*
X-89354Y-38319D01*
X-89026Y-38100D01*
X-84000D01*
Y-37700D01*
X-82800D01*
Y-35600D01*
X-82000D01*
Y-37700D01*
X-80900D01*
Y-38100D01*
X-80628D01*
X-80291Y-38600D01*
X-80331Y-38800D01*
X-80146Y-39730D01*
X-79619Y-40519D01*
X-78830Y-41046D01*
X-77900Y-41231D01*
X-76970Y-41046D01*
X-76181Y-40519D01*
X-75654Y-39730D01*
X-75469Y-38800D01*
X-75640Y-37938D01*
X-75642Y-37849D01*
X-75375Y-37387D01*
X-74811Y-37275D01*
X-74100Y-36800D01*
X-73700Y-36400D01*
X-67700D01*
Y-32400D01*
Y-27400D01*
X-67800D01*
Y-23100D01*
X-71900D01*
Y-17885D01*
X-67546D01*
X-67084Y-19698D01*
X-65508Y-24433D01*
X-63598Y-29044D01*
X-61364Y-33507D01*
X-58817Y-37799D01*
X-55971Y-41899D01*
X-52839Y-45785D01*
X-49438Y-49438D01*
X-47340Y-51392D01*
X-47338Y-51394D01*
Y-67142D01*
X-47838Y-67409D01*
X-48370Y-67054D01*
X-49300Y-66869D01*
X-49473Y-66426D01*
Y-62600D01*
X-49581Y-62054D01*
X-49891Y-61591D01*
X-50354Y-61281D01*
X-50900Y-61173D01*
X-67389D01*
X-67935Y-61281D01*
X-68398Y-61591D01*
X-68708Y-62054D01*
X-68816Y-62600D01*
Y-67721D01*
X-81141D01*
Y-72720D01*
X-81041D01*
Y-78616D01*
X-97279D01*
X-97970Y-78154D01*
X-98900Y-77969D01*
X-99830Y-78154D01*
X-100619Y-78681D01*
X-101146Y-79470D01*
X-101331Y-80400D01*
X-101175Y-81185D01*
X-101642Y-81397D01*
X-105362Y-76550D01*
X-109224Y-70931D01*
X-112786Y-65117D01*
X-116040Y-59125D01*
X-118975Y-52971D01*
X-121584Y-46672D01*
X-123860Y-40245D01*
X-125797Y-33707D01*
X-127389Y-27077D01*
X-128631Y-20373D01*
X-129521Y-13613D01*
X-130056Y-6816D01*
X-130234Y0D01*
X-130056Y6816D01*
X-129521Y13613D01*
X-128631Y20373D01*
X-127389Y27077D01*
X-125797Y33707D01*
X-124749Y37244D01*
X-124176Y37419D01*
X-123630Y37054D01*
X-122700Y36869D01*
X-121770Y37054D01*
X-121055Y37532D01*
X-120774Y37422D01*
X-120594Y37284D01*
X-120631Y37100D01*
X-120446Y36170D01*
X-119919Y35381D01*
X-119130Y34854D01*
X-118200Y34669D01*
X-117270Y34854D01*
X-116481Y35381D01*
X-115954Y36170D01*
X-115769Y37100D01*
X-115954Y38030D01*
X-116481Y38819D01*
X-117270Y39346D01*
X-118200Y39531D01*
X-119130Y39346D01*
X-119845Y38868D01*
X-120125Y38978D01*
X-120306Y39116D01*
X-120269Y39300D01*
X-120454Y40230D01*
X-120981Y41019D01*
X-121770Y41546D01*
X-121932Y41578D01*
X-121949Y42091D01*
X-120979Y42351D01*
X-107352Y34483D01*
D02*
G37*
G36*
X-39259Y58271D02*
X-39304Y57772D01*
X-41899Y55971D01*
X-45785Y52839D01*
X-49438Y49438D01*
X-52839Y45785D01*
X-55971Y41899D01*
X-58817Y37799D01*
X-61364Y33507D01*
X-63598Y29044D01*
X-65508Y24433D01*
X-67084Y19698D01*
X-68318Y14862D01*
X-69204Y9950D01*
X-69738Y4988D01*
X-69916Y0D01*
X-69738Y-4988D01*
X-69345Y-8637D01*
X-69679Y-9009D01*
X-77373D01*
Y-8300D01*
X-77400Y-8162D01*
Y-6900D01*
X-77800D01*
Y-5800D01*
X-79900D01*
Y-5400D01*
X-80300D01*
Y-3300D01*
X-82000D01*
X-82250Y-2904D01*
Y-600D01*
X-84600D01*
Y-3100D01*
X-85000D01*
Y-3500D01*
X-87750D01*
Y-5204D01*
X-87750Y-5400D01*
X-87917Y-5400D01*
X-95739D01*
X-95980Y-5239D01*
X-96526Y-5130D01*
X-100452D01*
X-100551Y-4630D01*
X-100138Y-4459D01*
X-100021Y-4381D01*
X-99891Y-4327D01*
X-99310Y-3939D01*
X-99211Y-3840D01*
X-99094Y-3762D01*
X-98601Y-3268D01*
X-98523Y-3151D01*
X-98423Y-3052D01*
X-98035Y-2471D01*
X-97982Y-2341D01*
X-97903Y-2225D01*
X-97636Y-1580D01*
X-97609Y-1442D01*
X-97555Y-1312D01*
X-97419Y-628D01*
Y-487D01*
X-97391Y-349D01*
Y349D01*
X-97419Y487D01*
Y628D01*
X-97555Y1312D01*
X-97609Y1442D01*
X-97636Y1580D01*
X-97903Y2225D01*
X-97982Y2341D01*
X-98035Y2471D01*
X-98423Y3052D01*
X-98523Y3151D01*
X-98601Y3268D01*
X-99094Y3762D01*
X-99211Y3840D01*
X-99310Y3939D01*
X-99655Y4170D01*
X-99504Y4670D01*
X-99100D01*
X-98962Y4697D01*
X-98073D01*
Y5114D01*
X-97781Y5551D01*
X-97673Y6097D01*
Y7372D01*
X-97652Y7475D01*
Y11746D01*
X-97300Y12100D01*
X-94726D01*
X-94408Y11714D01*
X-94431Y11600D01*
X-94246Y10670D01*
X-93719Y9881D01*
X-92930Y9354D01*
X-92000Y9169D01*
X-91070Y9354D01*
X-90281Y9881D01*
X-90084Y10176D01*
X-89799Y10165D01*
X-89546Y10081D01*
X-89289Y9463D01*
X-88833Y8867D01*
X-88237Y8410D01*
X-87544Y8123D01*
X-86800Y8025D01*
X-86056Y8123D01*
X-85363Y8410D01*
X-84767Y8867D01*
X-84311Y9463D01*
X-84023Y10156D01*
X-83925Y10900D01*
X-84023Y11644D01*
X-84171Y12000D01*
X-83900Y12500D01*
X-83900D01*
Y15900D01*
X-86800D01*
X-89700D01*
Y13955D01*
X-90200Y13704D01*
X-90216Y13715D01*
Y14300D01*
X-90216Y14300D01*
X-90351Y14983D01*
X-90700Y15504D01*
Y16276D01*
X-90581Y16454D01*
X-90473Y17000D01*
Y24161D01*
X-90375Y24259D01*
X-90017Y24475D01*
X-75454Y16067D01*
X-74739Y15824D01*
X-73984Y15874D01*
X-73306Y16208D01*
X-72808Y16776D01*
X-45599Y63903D01*
X-45043Y64054D01*
X-39259Y58271D01*
D02*
G37*
G36*
X79231Y5651D02*
X79729Y5083D01*
X80407Y4748D01*
X81162Y4699D01*
X81877Y4942D01*
X126154Y30505D01*
X126613Y30307D01*
X127389Y27077D01*
X128631Y20373D01*
X129521Y13613D01*
X130056Y6816D01*
X130234Y0D01*
X130056Y-6816D01*
X129521Y-13613D01*
X128631Y-20373D01*
X127389Y-27077D01*
X125797Y-33707D01*
X123860Y-40245D01*
X121584Y-46672D01*
X120584Y-49086D01*
X120084Y-48987D01*
Y-30821D01*
X120546Y-30130D01*
X120731Y-29200D01*
X120546Y-28270D01*
X120019Y-27481D01*
X119230Y-26954D01*
X118300Y-26769D01*
X118022Y-26314D01*
X118346Y-25830D01*
X118531Y-24900D01*
X118346Y-23970D01*
X117819Y-23181D01*
X117030Y-22654D01*
X116100Y-22469D01*
X115170Y-22654D01*
X114381Y-23181D01*
X114101Y-23601D01*
X113499D01*
X113419Y-23481D01*
X112630Y-22954D01*
X111700Y-22769D01*
X110770Y-22954D01*
X110079Y-23416D01*
X94439D01*
X93757Y-23551D01*
X93178Y-23938D01*
X88399Y-28717D01*
X87937Y-28526D01*
Y-15011D01*
X90631Y-12317D01*
X91093Y-12508D01*
Y-14427D01*
X95243D01*
X99392D01*
Y-12288D01*
X99662Y-11900D01*
X101362D01*
Y-9800D01*
X101762D01*
Y-9400D01*
X103862D01*
Y-8300D01*
X104262D01*
Y-3300D01*
X99792D01*
Y-1813D01*
X90693D01*
Y-7208D01*
X85331Y-12570D01*
X84832Y-12363D01*
Y-10869D01*
X75862D01*
Y-9900D01*
X74162D01*
Y-12000D01*
X73362D01*
Y-9900D01*
X71662D01*
Y-9900D01*
X71500D01*
Y-9900D01*
X69800D01*
Y-12000D01*
X69000D01*
Y-9900D01*
X68388D01*
Y-9500D01*
X66849D01*
X65150Y-7802D01*
X65118Y-7555D01*
X64818Y-6831D01*
X64341Y-6210D01*
X63720Y-5733D01*
X62996Y-5433D01*
X62750Y-5401D01*
X51347Y6002D01*
Y52982D01*
X51830Y53111D01*
X79231Y5651D01*
D02*
G37*
G36*
X-106512Y-17409D02*
X-106049Y-17719D01*
X-105502Y-17827D01*
X-101805D01*
X-101618Y-17885D01*
X-101693Y-18385D01*
X-105190D01*
Y-21441D01*
X-105690Y-21708D01*
X-106070Y-21454D01*
X-107000Y-21269D01*
X-107930Y-21454D01*
X-108719Y-21981D01*
X-109246Y-22770D01*
X-109431Y-23700D01*
X-110600D01*
X-110800Y-23283D01*
Y-20133D01*
X-110652D01*
Y-18640D01*
X-110106Y-18532D01*
X-109527Y-18145D01*
X-108789Y-17406D01*
X-106514D01*
X-106512Y-17409D01*
D02*
G37*
G36*
X48575Y-20039D02*
X48799Y-20207D01*
X48881Y-20828D01*
X49141Y-21455D01*
X49555Y-21995D01*
X49560Y-21999D01*
Y-29505D01*
X49700Y-30207D01*
X50098Y-30803D01*
X53583Y-34288D01*
Y-36974D01*
X53135Y-37195D01*
X53113Y-37178D01*
X52485Y-36918D01*
X51812Y-36830D01*
X51138Y-36918D01*
X50510Y-37178D01*
X50131Y-37469D01*
X49823Y-37299D01*
X49684Y-37182D01*
X49630Y-36357D01*
X49246Y-35579D01*
X48900Y-35276D01*
X46450Y-39520D01*
X45757Y-39120D01*
X48207Y-34876D01*
X47772Y-34728D01*
X46906Y-34785D01*
X46165Y-35151D01*
X45994Y-35088D01*
X45692Y-34907D01*
X45755Y-34433D01*
X45666Y-33759D01*
X45406Y-33131D01*
X45200Y-32863D01*
Y-31342D01*
X45154Y-31109D01*
X45142Y-30872D01*
X43067Y-22580D01*
X43514Y-22308D01*
X44170Y-22746D01*
X45100Y-22931D01*
X46030Y-22746D01*
X46819Y-22219D01*
X47346Y-21430D01*
X47531Y-20500D01*
X47739Y-20168D01*
X48317Y-19929D01*
X48575Y-20039D01*
D02*
G37*
G36*
X71138Y-20262D02*
X71717Y-20649D01*
X72400Y-20784D01*
X79185D01*
X80201Y-21800D01*
X79994Y-22300D01*
X79300D01*
Y-24400D01*
X78500D01*
Y-22300D01*
X76800D01*
Y-22300D01*
X75400D01*
Y-24400D01*
X74600D01*
Y-22300D01*
X71500D01*
Y-24400D01*
X70700D01*
Y-22300D01*
X67600D01*
Y-24400D01*
X67200D01*
Y-24800D01*
X65100D01*
Y-25900D01*
X64700D01*
Y-30900D01*
X67177D01*
X67278Y-31001D01*
X67291Y-31071D01*
X67678Y-31650D01*
X67879Y-31850D01*
X67869Y-31900D01*
X68054Y-32830D01*
X68581Y-33619D01*
X69370Y-34146D01*
X70300Y-34331D01*
X70383Y-34818D01*
Y-40536D01*
X93494D01*
X96564Y-43606D01*
Y-46988D01*
Y-50969D01*
Y-52938D01*
Y-56875D01*
Y-58843D01*
Y-62780D01*
Y-66717D01*
X99081D01*
Y-79701D01*
X98262Y-80520D01*
X97800Y-80329D01*
Y-76400D01*
X97113D01*
X97031Y-76300D01*
X96846Y-75370D01*
X96334Y-74604D01*
Y-74502D01*
X96198Y-73819D01*
X96017Y-73548D01*
Y-67264D01*
X70383D01*
Y-75969D01*
X71605D01*
X71797Y-76431D01*
X63512Y-84716D01*
X55183D01*
X54865Y-84329D01*
X54931Y-84000D01*
X54746Y-83070D01*
X54335Y-82455D01*
Y-73182D01*
X54835Y-73133D01*
X54954Y-73730D01*
X55481Y-74519D01*
X56270Y-75046D01*
X56815Y-75154D01*
X59440Y-77779D01*
X60068Y-78199D01*
X60809Y-78347D01*
X64091D01*
X64553Y-78655D01*
X65483Y-78840D01*
X66414Y-78655D01*
X67202Y-78128D01*
X67729Y-77340D01*
X67914Y-76410D01*
X67729Y-75479D01*
X67202Y-74691D01*
X66414Y-74164D01*
X65483Y-73979D01*
X64553Y-74164D01*
X64091Y-74472D01*
X61612D01*
X59554Y-72415D01*
X59446Y-71870D01*
X59137Y-71408D01*
Y-68600D01*
X59700D01*
Y-66511D01*
X61131D01*
Y-66717D01*
X69836D01*
Y-62780D01*
Y-60812D01*
Y-56875D01*
Y-52938D01*
Y-50969D01*
Y-47032D01*
Y-45064D01*
Y-41083D01*
X65809D01*
X65492Y-40696D01*
X65531Y-40500D01*
X65346Y-39570D01*
X64906Y-38911D01*
Y-38321D01*
X64906Y-38321D01*
X64770Y-37638D01*
X64600Y-37384D01*
Y-34800D01*
X64200D01*
Y-33700D01*
X62100D01*
X60000D01*
Y-34800D01*
X59600D01*
Y-39800D01*
X60414D01*
X60731Y-40187D01*
X60669Y-40500D01*
X60786Y-41086D01*
X60403Y-41586D01*
X57253D01*
Y-33528D01*
X57114Y-32825D01*
X56716Y-32230D01*
X53388Y-28902D01*
X53401Y-28561D01*
X53747Y-28175D01*
X54677Y-27990D01*
X55466Y-27463D01*
X55993Y-26675D01*
X56178Y-25744D01*
X56136Y-25536D01*
X56399Y-25168D01*
X56978Y-24929D01*
X57235Y-25039D01*
X57459Y-25207D01*
X57541Y-25828D01*
X57801Y-26455D01*
X58215Y-26995D01*
X58754Y-27408D01*
X59382Y-27668D01*
X60056Y-27757D01*
X60729Y-27668D01*
X61357Y-27408D01*
X61897Y-26995D01*
X62310Y-26455D01*
X64600Y-22490D01*
X65100Y-22623D01*
Y-24000D01*
X66800D01*
Y-22300D01*
X65287D01*
X64966Y-21856D01*
X65066Y-21682D01*
X65326Y-21054D01*
X65415Y-20380D01*
X65326Y-19706D01*
X65066Y-19079D01*
X65006Y-19000D01*
X65252Y-18500D01*
X69377D01*
X71138Y-20262D01*
D02*
G37*
G36*
X114316Y-26993D02*
Y-49261D01*
X113462Y-50115D01*
X113000Y-49923D01*
Y-49900D01*
X110900D01*
Y-49100D01*
X113000D01*
Y-47400D01*
X111959D01*
X111500Y-47300D01*
Y-45600D01*
X109400D01*
Y-44800D01*
X111500D01*
Y-43700D01*
X111900D01*
Y-38700D01*
X106900D01*
Y-39416D01*
X105152D01*
X105152Y-39416D01*
X104469Y-39551D01*
X103890Y-39938D01*
X103890Y-39938D01*
X102746Y-41083D01*
X99087D01*
X96052Y-38047D01*
Y-36424D01*
X96052Y-36424D01*
X96017Y-36252D01*
Y-35219D01*
X96581Y-34842D01*
X97823Y-33600D01*
X100300D01*
Y-33200D01*
X101400D01*
Y-31100D01*
Y-29000D01*
X100300D01*
Y-28600D01*
X95300D01*
X95300Y-28600D01*
X94835Y-28515D01*
X94434Y-28436D01*
X94270Y-27893D01*
X95178Y-26984D01*
X110079D01*
X110770Y-27446D01*
X111700Y-27631D01*
X112630Y-27446D01*
X113419Y-26919D01*
X113468Y-26846D01*
X114110Y-26785D01*
X114316Y-26993D01*
D02*
G37*
G36*
X-76560Y-24379D02*
X-76400Y-24813D01*
Y-25200D01*
X-74300D01*
Y-26000D01*
X-76400D01*
Y-26787D01*
X-76560Y-27221D01*
X-81960D01*
Y-27621D01*
X-82600D01*
Y-30721D01*
X-83400D01*
Y-27621D01*
X-84040D01*
Y-27221D01*
X-88473D01*
Y-24527D01*
X-85440D01*
X-84894Y-24419D01*
X-84834Y-24379D01*
X-80300D01*
Y-24379D01*
X-76560D01*
D02*
G37*
G36*
X119340Y-52091D02*
X118975Y-52971D01*
X116040Y-59125D01*
X112786Y-65117D01*
X109224Y-70931D01*
X105362Y-76550D01*
X103225Y-79334D01*
X102752Y-79174D01*
Y-66717D01*
X105269D01*
Y-64749D01*
Y-60000D01*
X107774D01*
X108092Y-60387D01*
X108069Y-60500D01*
X108254Y-61430D01*
X108781Y-62219D01*
X109570Y-62746D01*
X110500Y-62931D01*
X111430Y-62746D01*
X112219Y-62219D01*
X112746Y-61430D01*
X112931Y-60500D01*
X112908Y-60387D01*
X113226Y-60000D01*
X113400D01*
Y-56652D01*
X113999Y-56533D01*
X114577Y-56146D01*
X118916Y-51808D01*
X119340Y-52091D01*
D02*
G37*
G36*
X91700Y-81000D02*
X92800D01*
Y-81400D01*
X96729D01*
X96920Y-81862D01*
X90242Y-88540D01*
X89714Y-88361D01*
X89645Y-87836D01*
X89267Y-86923D01*
X88758Y-86260D01*
X86098Y-88921D01*
X85532Y-88355D01*
X88193Y-85694D01*
X87529Y-85185D01*
X86617Y-84807D01*
X85775Y-84697D01*
X85536Y-84228D01*
X88719Y-81045D01*
X89200Y-81000D01*
X89200Y-81000D01*
X89200Y-81000D01*
X90900D01*
Y-78900D01*
X91700D01*
Y-81000D01*
D02*
G37*
G36*
X43014Y-67398D02*
X43609Y-67796D01*
X44312Y-67935D01*
X46088D01*
Y-72500D01*
X50665D01*
Y-82455D01*
X50254Y-83070D01*
X50069Y-84000D01*
X50134Y-84329D01*
X49817Y-84716D01*
X43821D01*
X43130Y-84254D01*
X42200Y-84069D01*
X41270Y-84254D01*
X40481Y-84781D01*
X39954Y-85570D01*
X39769Y-86500D01*
X39954Y-87430D01*
X40191Y-87784D01*
X39954Y-88138D01*
X39769Y-89069D01*
X39954Y-89999D01*
X40191Y-90353D01*
X39954Y-90707D01*
X39769Y-91637D01*
X39848Y-92035D01*
X39531Y-92421D01*
X38545D01*
X33408Y-87285D01*
X33246Y-86470D01*
X32719Y-85681D01*
X31930Y-85154D01*
X31000Y-84969D01*
X30070Y-85154D01*
X29281Y-85681D01*
X28754Y-86470D01*
X28671Y-86887D01*
X28253Y-86970D01*
X27465Y-87497D01*
X26938Y-88286D01*
X26855Y-88703D01*
X26437Y-88787D01*
X25950Y-89112D01*
X25450Y-88845D01*
Y-78008D01*
X25447Y-77989D01*
Y-75100D01*
X25299Y-74359D01*
X25203Y-74214D01*
X25470Y-73714D01*
X29030D01*
X29733Y-73575D01*
X30328Y-73177D01*
X37915Y-65590D01*
X38640Y-65446D01*
X39428Y-64919D01*
X39653Y-64583D01*
X40150Y-64534D01*
X43014Y-67398D01*
D02*
G37*
G36*
X-58200Y-72000D02*
X-54400D01*
Y-72400D01*
X-54000D01*
Y-75300D01*
X-50600D01*
Y-74880D01*
X-50100Y-74646D01*
X-49544Y-74877D01*
X-48800Y-74975D01*
X-48056Y-74877D01*
X-47838Y-74786D01*
X-47338Y-75120D01*
Y-84755D01*
X-47838Y-84962D01*
X-47913Y-84887D01*
X-48030Y-84809D01*
X-48129Y-84709D01*
X-48710Y-84321D01*
X-48840Y-84268D01*
X-48957Y-84189D01*
X-49601Y-83922D01*
X-49739Y-83895D01*
X-49869Y-83841D01*
X-50554Y-83705D01*
X-50694D01*
X-50832Y-83678D01*
X-51530D01*
X-51668Y-83705D01*
X-51809D01*
X-52237Y-83790D01*
X-52673Y-83445D01*
X-52700Y-83386D01*
Y-80200D01*
X-55100D01*
Y-83700D01*
X-53531D01*
X-53413Y-84161D01*
X-53421Y-84200D01*
X-53523Y-84268D01*
X-53653Y-84321D01*
X-54233Y-84709D01*
X-54332Y-84809D01*
X-54449Y-84887D01*
X-54943Y-85380D01*
X-55021Y-85497D01*
X-55120Y-85597D01*
X-55508Y-86177D01*
X-55562Y-86307D01*
X-55640Y-86424D01*
X-55907Y-87068D01*
X-55935Y-87206D01*
X-55988Y-87336D01*
X-56124Y-88021D01*
Y-88161D01*
X-56152Y-88299D01*
Y-88997D01*
X-56124Y-89135D01*
Y-89276D01*
X-55988Y-89960D01*
X-55935Y-90090D01*
X-55907Y-90228D01*
X-55640Y-90873D01*
X-55562Y-90990D01*
X-55508Y-91120D01*
X-55120Y-91700D01*
X-55021Y-91799D01*
X-54975Y-91868D01*
X-55053Y-92182D01*
X-55130Y-92368D01*
X-59072D01*
Y-82820D01*
Y-78327D01*
X-59180Y-77781D01*
X-59344Y-77535D01*
X-59453Y-77205D01*
X-59344Y-76874D01*
X-59180Y-76629D01*
X-59072Y-76083D01*
Y-69748D01*
X-58200D01*
Y-72000D01*
D02*
G37*
G36*
X-71768Y-93791D02*
X-71769Y-93795D01*
Y-101904D01*
X-71661Y-102450D01*
X-71446Y-102771D01*
X-71646Y-103070D01*
X-71831Y-104000D01*
X-71646Y-104930D01*
X-71119Y-105719D01*
X-70330Y-106246D01*
X-70000Y-106312D01*
Y-109282D01*
X-70436Y-109527D01*
X-70931Y-109224D01*
X-76550Y-105362D01*
X-81959Y-101211D01*
X-87144Y-96783D01*
X-92090Y-92090D01*
X-95704Y-88281D01*
X-95451Y-87821D01*
X-94900Y-87931D01*
X-93970Y-87746D01*
X-93279Y-87284D01*
X-71768D01*
Y-93791D01*
D02*
G37*
G36*
X26437Y-93278D02*
X27252Y-93440D01*
X34416Y-100604D01*
X34416Y-100604D01*
X34995Y-100991D01*
X35678Y-101127D01*
X35678Y-101127D01*
X65328D01*
X66011Y-100991D01*
X66590Y-100604D01*
X72206Y-94989D01*
X72667Y-95180D01*
Y-95865D01*
X72410Y-95972D01*
X71543Y-96637D01*
X70878Y-97504D01*
X70460Y-98513D01*
X70317Y-99597D01*
X70384Y-100103D01*
X69918Y-100393D01*
X69749Y-100281D01*
X68935Y-100119D01*
X68120Y-100281D01*
X67430Y-100742D01*
X64513Y-103659D01*
X64052Y-104350D01*
X63890Y-105164D01*
X64052Y-105979D01*
X64513Y-106669D01*
X67783Y-109940D01*
X68272Y-110266D01*
X68298Y-110837D01*
X65117Y-112786D01*
X59125Y-116040D01*
X58897Y-116148D01*
X25450D01*
Y-93220D01*
X25950Y-92953D01*
X26437Y-93278D01*
D02*
G37*
%LPC*%
G36*
X41100Y114400D02*
X39400D01*
Y112700D01*
X41100D01*
Y114400D01*
D02*
G37*
G36*
X-4600Y114834D02*
Y111300D01*
X-1066D01*
X-1149Y111932D01*
X-1547Y112893D01*
X-2181Y113719D01*
X-3007Y114353D01*
X-3968Y114751D01*
X-4600Y114834D01*
D02*
G37*
G36*
X-5400D02*
X-6032Y114751D01*
X-6993Y114353D01*
X-7819Y113719D01*
X-8453Y112893D01*
X-8851Y111932D01*
X-8934Y111300D01*
X-5400D01*
Y114834D01*
D02*
G37*
G36*
X-1066Y110500D02*
X-4600D01*
Y106966D01*
X-3968Y107049D01*
X-3007Y107447D01*
X-2181Y108081D01*
X-1547Y108907D01*
X-1149Y109868D01*
X-1066Y110500D01*
D02*
G37*
G36*
X-5400D02*
X-8934D01*
X-8851Y109868D01*
X-8453Y108907D01*
X-7819Y108081D01*
X-6993Y107447D01*
X-6032Y107049D01*
X-5400Y106966D01*
Y110500D01*
D02*
G37*
G36*
X15000Y115290D02*
X13864Y115141D01*
X12805Y114702D01*
X11896Y114004D01*
X11198Y113095D01*
X10759Y112036D01*
X10610Y110900D01*
X10759Y109764D01*
X11198Y108705D01*
X11896Y107796D01*
X12805Y107098D01*
X13864Y106659D01*
X15000Y106510D01*
X16136Y106659D01*
X17195Y107098D01*
X18104Y107796D01*
X18802Y108705D01*
X19241Y109764D01*
X19390Y110900D01*
X19241Y112036D01*
X18802Y113095D01*
X18104Y114004D01*
X17195Y114702D01*
X16136Y115141D01*
X15000Y115290D01*
D02*
G37*
G36*
X5000D02*
X3864Y115141D01*
X2805Y114702D01*
X1896Y114004D01*
X1198Y113095D01*
X759Y112036D01*
X610Y110900D01*
X759Y109764D01*
X1198Y108705D01*
X1896Y107796D01*
X2805Y107098D01*
X3864Y106659D01*
X5000Y106510D01*
X6136Y106659D01*
X7195Y107098D01*
X8104Y107796D01*
X8802Y108705D01*
X9241Y109764D01*
X9390Y110900D01*
X9241Y112036D01*
X8802Y113095D01*
X8104Y114004D01*
X7195Y114702D01*
X6136Y115141D01*
X5000Y115290D01*
D02*
G37*
G36*
X-332Y102915D02*
X-3491D01*
Y97000D01*
X-332D01*
Y102915D01*
D02*
G37*
G36*
X-4291D02*
X-7450D01*
Y97000D01*
X-4291D01*
Y102915D01*
D02*
G37*
G36*
X-332Y96200D02*
X-3491D01*
Y90285D01*
X-332D01*
Y96200D01*
D02*
G37*
G36*
X-4291D02*
X-7450D01*
Y90285D01*
X-4291D01*
Y96200D01*
D02*
G37*
G36*
X-21100Y92300D02*
X-23600D01*
Y88900D01*
X-21100D01*
Y92300D01*
D02*
G37*
G36*
X7100Y72400D02*
X5400D01*
Y70700D01*
X7100D01*
Y72400D01*
D02*
G37*
G36*
X3445Y70500D02*
X-600D01*
Y66900D01*
X3445D01*
Y70500D01*
D02*
G37*
G36*
X-1400D02*
X-5445D01*
Y66900D01*
X-1400D01*
Y70500D01*
D02*
G37*
G36*
X23013Y67992D02*
X20663D01*
Y65891D01*
X23013D01*
Y67992D01*
D02*
G37*
G36*
X3445Y66100D02*
X-600D01*
Y62500D01*
X3445D01*
Y66100D01*
D02*
G37*
G36*
X-1400D02*
X-5445D01*
Y62500D01*
X-1400D01*
Y66100D01*
D02*
G37*
G36*
X36475Y63400D02*
X34300D01*
Y61225D01*
X36475D01*
Y63400D01*
D02*
G37*
G36*
X33500D02*
X31325D01*
Y61225D01*
X33500D01*
Y63400D01*
D02*
G37*
G36*
X0Y43029D02*
X-3750Y42866D01*
X-7472Y42376D01*
X-11137Y41563D01*
X-14717Y40435D01*
X-18185Y38998D01*
X-21515Y37265D01*
X-24681Y35248D01*
X-27659Y32963D01*
X-30426Y30426D01*
X-32963Y27659D01*
X-35248Y24681D01*
X-37265Y21515D01*
X-38998Y18185D01*
X-40435Y14717D01*
X-41563Y11137D01*
X-42376Y7472D01*
X-42866Y3750D01*
X-43029Y0D01*
X-42866Y-3750D01*
X-42376Y-7472D01*
X-41563Y-11137D01*
X-40435Y-14717D01*
X-38998Y-18185D01*
X-37265Y-21515D01*
X-35248Y-24681D01*
X-32963Y-27659D01*
X-30426Y-30426D01*
X-27659Y-32963D01*
X-24681Y-35248D01*
X-21515Y-37265D01*
X-18185Y-38998D01*
X-14717Y-40435D01*
X-11137Y-41563D01*
X-7472Y-42376D01*
X-3750Y-42866D01*
X0Y-43029D01*
X3750Y-42866D01*
X7472Y-42376D01*
X11137Y-41563D01*
X14717Y-40435D01*
X18185Y-38998D01*
X21515Y-37265D01*
X24681Y-35248D01*
X27659Y-32963D01*
X30426Y-30426D01*
X32963Y-27659D01*
X35248Y-24681D01*
X37265Y-21515D01*
X38998Y-18185D01*
X40435Y-14717D01*
X41563Y-11137D01*
X42376Y-7472D01*
X42866Y-3750D01*
X43029Y0D01*
X42866Y3750D01*
X42376Y7472D01*
X41563Y11137D01*
X40435Y14717D01*
X38998Y18185D01*
X37265Y21515D01*
X35248Y24681D01*
X32963Y27659D01*
X30426Y30426D01*
X27659Y32963D01*
X24681Y35248D01*
X21515Y37265D01*
X18185Y38998D01*
X14717Y40435D01*
X11137Y41563D01*
X7472Y42376D01*
X3750Y42866D01*
X0Y43029D01*
D02*
G37*
G36*
X43512Y-46386D02*
X41812D01*
Y-48086D01*
X43512D01*
Y-46386D01*
D02*
G37*
G36*
X30000Y-44669D02*
X29070Y-44854D01*
X28281Y-45381D01*
X27754Y-46170D01*
X27569Y-47100D01*
X27754Y-48030D01*
X28184Y-48673D01*
X28096Y-49251D01*
X28072Y-49261D01*
X27477Y-49717D01*
X27020Y-50313D01*
X26733Y-51006D01*
X26635Y-51750D01*
X26733Y-52494D01*
X27020Y-53187D01*
X27477Y-53783D01*
X28072Y-54239D01*
X28765Y-54527D01*
X29509Y-54625D01*
X30253Y-54527D01*
X30947Y-54239D01*
X31542Y-53783D01*
X31999Y-53187D01*
X32286Y-52494D01*
X32384Y-51750D01*
X32286Y-51006D01*
X31999Y-50313D01*
X31542Y-49717D01*
X31339Y-49562D01*
X31355Y-49062D01*
X31719Y-48819D01*
X32246Y-48030D01*
X32431Y-47100D01*
X32246Y-46170D01*
X31719Y-45381D01*
X30930Y-44854D01*
X30000Y-44669D01*
D02*
G37*
G36*
X51918Y-55284D02*
X50218D01*
Y-56984D01*
X51918D01*
Y-55284D01*
D02*
G37*
G36*
X38100Y-52369D02*
X37170Y-52554D01*
X36381Y-53081D01*
X35854Y-53870D01*
X35669Y-54800D01*
X35854Y-55730D01*
X36381Y-56519D01*
X37170Y-57046D01*
X38100Y-57231D01*
X39030Y-57046D01*
X39819Y-56519D01*
X40346Y-55730D01*
X40531Y-54800D01*
X40346Y-53870D01*
X39819Y-53081D01*
X39030Y-52554D01*
X38100Y-52369D01*
D02*
G37*
G36*
X59300Y-60000D02*
X57600D01*
Y-61700D01*
X59300D01*
Y-60000D01*
D02*
G37*
G36*
X56800D02*
X55100D01*
Y-61700D01*
X56800D01*
Y-60000D01*
D02*
G37*
G36*
X-7900Y-62600D02*
X-9600D01*
Y-64300D01*
X-7900D01*
Y-62600D01*
D02*
G37*
G36*
Y-65100D02*
X-9600D01*
Y-66800D01*
X-7900D01*
Y-65100D01*
D02*
G37*
G36*
X66237Y82161D02*
X63887D01*
Y80061D01*
X66237D01*
Y82161D01*
D02*
G37*
G36*
X-105800Y-35200D02*
X-107975D01*
Y-37375D01*
X-105800D01*
Y-35200D01*
D02*
G37*
G36*
X-119100Y-35769D02*
X-120030Y-35954D01*
X-120819Y-36481D01*
X-121346Y-37270D01*
X-121531Y-38200D01*
X-121346Y-39130D01*
X-120819Y-39919D01*
X-120030Y-40446D01*
X-119100Y-40631D01*
X-118170Y-40446D01*
X-117381Y-39919D01*
X-116854Y-39130D01*
X-116669Y-38200D01*
X-116854Y-37270D01*
X-117381Y-36481D01*
X-118170Y-35954D01*
X-119100Y-35769D01*
D02*
G37*
G36*
X-92000Y-39769D02*
X-92930Y-39954D01*
X-93719Y-40481D01*
X-94246Y-41270D01*
X-94431Y-42200D01*
X-94246Y-43130D01*
X-93719Y-43919D01*
X-92930Y-44446D01*
X-92000Y-44631D01*
X-91070Y-44446D01*
X-90281Y-43919D01*
X-89754Y-43130D01*
X-89569Y-42200D01*
X-89754Y-41270D01*
X-90281Y-40481D01*
X-91070Y-39954D01*
X-92000Y-39769D01*
D02*
G37*
G36*
X-100200Y-41669D02*
X-101130Y-41854D01*
X-101919Y-42381D01*
X-102446Y-43170D01*
X-102631Y-44100D01*
X-102446Y-45030D01*
X-101919Y-45819D01*
X-101130Y-46346D01*
X-100200Y-46531D01*
X-99270Y-46346D01*
X-98481Y-45819D01*
X-97954Y-45030D01*
X-97769Y-44100D01*
X-97954Y-43170D01*
X-98481Y-42381D01*
X-99270Y-41854D01*
X-100200Y-41669D01*
D02*
G37*
G36*
X-86375Y-40094D02*
X-87305Y-40279D01*
X-88094Y-40806D01*
X-88621Y-41595D01*
X-88806Y-42525D01*
X-88621Y-43455D01*
X-88094Y-44244D01*
X-87305Y-44771D01*
X-87152Y-44802D01*
X-87231Y-45200D01*
X-87046Y-46130D01*
X-86519Y-46919D01*
X-85730Y-47446D01*
X-84800Y-47631D01*
X-83870Y-47446D01*
X-83081Y-46919D01*
X-82554Y-46130D01*
X-82369Y-45200D01*
X-82554Y-44270D01*
X-83081Y-43481D01*
X-83870Y-42954D01*
X-84023Y-42924D01*
X-83944Y-42525D01*
X-84129Y-41595D01*
X-84656Y-40806D01*
X-85445Y-40279D01*
X-86375Y-40094D01*
D02*
G37*
G36*
X-103900Y-46869D02*
X-104830Y-47054D01*
X-105619Y-47581D01*
X-106146Y-48370D01*
X-106331Y-49300D01*
X-106146Y-50230D01*
X-105619Y-51019D01*
X-104830Y-51546D01*
X-103900Y-51731D01*
X-102970Y-51546D01*
X-102181Y-51019D01*
X-101654Y-50230D01*
X-101469Y-49300D01*
X-101654Y-48370D01*
X-102181Y-47581D01*
X-102970Y-47054D01*
X-103900Y-46869D01*
D02*
G37*
G36*
X-96260Y-46857D02*
X-97191Y-47042D01*
X-97979Y-47569D01*
X-98506Y-48358D01*
X-98691Y-49288D01*
X-98506Y-50218D01*
X-98180Y-50707D01*
X-98614Y-51358D01*
X-98800Y-52288D01*
X-98614Y-53219D01*
X-98294Y-53699D01*
X-98703Y-54311D01*
X-98888Y-55241D01*
X-98703Y-56171D01*
X-98176Y-56960D01*
X-97387Y-57487D01*
X-96457Y-57672D01*
X-95526Y-57487D01*
X-94738Y-56960D01*
X-94211Y-56171D01*
X-94026Y-55241D01*
X-94071Y-55012D01*
X-93718Y-54658D01*
X-93412Y-54719D01*
X-92481Y-54534D01*
X-91693Y-54007D01*
X-91166Y-53219D01*
X-90981Y-52288D01*
X-91021Y-52089D01*
X-90667Y-51736D01*
X-90512Y-51766D01*
X-89582Y-51581D01*
X-88793Y-51054D01*
X-88266Y-50266D01*
X-88081Y-49335D01*
X-88266Y-48405D01*
X-88793Y-47616D01*
X-89582Y-47089D01*
X-90512Y-46905D01*
X-91442Y-47089D01*
X-91944Y-47425D01*
X-92447Y-47089D01*
X-93377Y-46905D01*
X-94307Y-47089D01*
X-94783Y-47408D01*
X-95330Y-47042D01*
X-96260Y-46857D01*
D02*
G37*
G36*
X-81500Y-50969D02*
X-82430Y-51154D01*
X-83219Y-51681D01*
X-83746Y-52470D01*
X-83931Y-53400D01*
X-83746Y-54330D01*
X-83745Y-54332D01*
X-83819Y-54381D01*
X-84346Y-55170D01*
X-84531Y-56100D01*
X-84346Y-57030D01*
X-83819Y-57819D01*
X-83030Y-58346D01*
X-82100Y-58531D01*
X-81170Y-58346D01*
X-80381Y-57819D01*
X-79854Y-57030D01*
X-79669Y-56100D01*
X-79854Y-55170D01*
X-79855Y-55168D01*
X-79781Y-55119D01*
X-79254Y-54330D01*
X-79069Y-53400D01*
X-79254Y-52470D01*
X-79781Y-51681D01*
X-80570Y-51154D01*
X-81500Y-50969D01*
D02*
G37*
G36*
X-83989Y-58735D02*
X-84919Y-58920D01*
X-85708Y-59447D01*
X-86234Y-60236D01*
X-86312Y-60626D01*
X-87100Y-60469D01*
X-88030Y-60654D01*
X-88700Y-61101D01*
X-89070Y-60854D01*
X-90000Y-60669D01*
X-90930Y-60854D01*
X-91719Y-61381D01*
X-92246Y-62170D01*
X-92431Y-63100D01*
X-92325Y-63631D01*
X-92946Y-63754D01*
X-93735Y-64281D01*
X-94262Y-65070D01*
X-94447Y-66000D01*
X-94262Y-66930D01*
X-93735Y-67719D01*
X-92946Y-68246D01*
X-92016Y-68431D01*
X-91085Y-68246D01*
X-90297Y-67719D01*
X-89770Y-66930D01*
X-89585Y-66000D01*
X-89690Y-65469D01*
X-89070Y-65346D01*
X-88400Y-64899D01*
X-88030Y-65146D01*
X-87100Y-65331D01*
X-86170Y-65146D01*
X-85381Y-64619D01*
X-84854Y-63830D01*
X-84777Y-63440D01*
X-83989Y-63597D01*
X-83058Y-63412D01*
X-82270Y-62885D01*
X-81743Y-62097D01*
X-81558Y-61166D01*
X-81743Y-60236D01*
X-82270Y-59447D01*
X-83058Y-58920D01*
X-83989Y-58735D01*
D02*
G37*
G36*
X-95821Y-70720D02*
X-97521D01*
Y-72421D01*
X-95821D01*
Y-70720D01*
D02*
G37*
G36*
X-98321D02*
X-100021D01*
Y-72421D01*
X-98321D01*
Y-70720D01*
D02*
G37*
G36*
X-83900Y20100D02*
X-86400D01*
Y16700D01*
X-83900D01*
Y20100D01*
D02*
G37*
G36*
X-87200D02*
X-89700D01*
Y16700D01*
X-87200D01*
Y20100D01*
D02*
G37*
G36*
X-87900Y6000D02*
X-91400D01*
Y3600D01*
X-87900D01*
Y6000D01*
D02*
G37*
G36*
X-92200D02*
X-95700D01*
Y3600D01*
X-92200D01*
Y6000D01*
D02*
G37*
G36*
X-87900Y2800D02*
X-91400D01*
Y400D01*
X-87900D01*
Y2800D01*
D02*
G37*
G36*
X-92200D02*
X-95700D01*
Y400D01*
X-92200D01*
Y2800D01*
D02*
G37*
G36*
X-85400Y-600D02*
X-87750D01*
Y-2700D01*
X-85400D01*
Y-600D01*
D02*
G37*
G36*
X-79500Y-3300D02*
Y-5000D01*
X-77800D01*
Y-3300D01*
X-79500D01*
D02*
G37*
G36*
X84431Y-2213D02*
X80682D01*
Y-5372D01*
X84431D01*
Y-2213D01*
D02*
G37*
G36*
X79882D02*
X76132D01*
Y-5372D01*
X79882D01*
Y-2213D01*
D02*
G37*
G36*
X84431Y-6172D02*
X80682D01*
Y-9331D01*
X84431D01*
Y-6172D01*
D02*
G37*
G36*
X79882D02*
X76132D01*
Y-9331D01*
X79882D01*
Y-6172D01*
D02*
G37*
G36*
X103862Y-10200D02*
X102162D01*
Y-11900D01*
X103862D01*
Y-10200D01*
D02*
G37*
G36*
X99392Y-15227D02*
X95643D01*
Y-18387D01*
X99392D01*
Y-15227D01*
D02*
G37*
G36*
X94842D02*
X91093D01*
Y-18387D01*
X94842D01*
Y-15227D01*
D02*
G37*
G36*
X64200Y-31200D02*
X62500D01*
Y-32900D01*
X64200D01*
Y-31200D01*
D02*
G37*
G36*
X61700D02*
X60000D01*
Y-32900D01*
X61700D01*
Y-31200D01*
D02*
G37*
G36*
X103900Y-29000D02*
X102200D01*
Y-30700D01*
X103900D01*
Y-29000D01*
D02*
G37*
G36*
Y-31500D02*
X102200D01*
Y-33200D01*
X103900D01*
Y-31500D01*
D02*
G37*
G36*
X-54800Y-72800D02*
X-58200D01*
Y-75300D01*
X-54800D01*
Y-72800D01*
D02*
G37*
G36*
X-52700Y-75900D02*
X-55100D01*
Y-79400D01*
X-52700D01*
Y-75900D01*
D02*
G37*
G36*
X-55900D02*
X-58300D01*
Y-79400D01*
X-55900D01*
Y-75900D01*
D02*
G37*
G36*
Y-80200D02*
X-58300D01*
Y-83700D01*
X-55900D01*
Y-80200D01*
D02*
G37*
%LPD*%
D10*
X44913Y-45042D02*
Y-40510D01*
X110500Y-60500D02*
X110685Y-60315D01*
Y-57715D01*
X110900Y-57500D01*
X106343Y-56943D02*
X106900Y-57500D01*
X101007Y-56943D02*
X106343D01*
X100917Y-56853D02*
X101007Y-56943D01*
X57200Y-72800D02*
Y-66400D01*
Y-72800D02*
X60809Y-76410D01*
X65483D01*
X94100Y-30800D02*
X94250Y-30950D01*
X97650D01*
X97800Y-31100D01*
X45500Y105900D02*
X45911Y105489D01*
X45089Y106311D02*
X45500Y105900D01*
X31889Y106311D02*
X45089D01*
X31400Y106800D02*
X31889Y106311D01*
X45911Y105489D02*
X47729D01*
X51606Y101611D01*
X52000D01*
X45500Y114800D02*
X52000D01*
X45500Y110900D02*
Y114800D01*
X45700Y100D02*
Y73700D01*
Y-9457D02*
Y100D01*
X48600D01*
X31426Y100413D02*
Y102774D01*
Y98665D02*
Y100413D01*
X31605Y100592D01*
X42024D01*
X31363Y98602D02*
X31426Y98665D01*
X31400Y102800D02*
X31426Y102774D01*
X43263Y-35330D02*
Y-31342D01*
X40940Y-22063D02*
X43263Y-31342D01*
X41773Y-36820D02*
X43263Y-35330D01*
X40940Y-22063D02*
X45700Y-9457D01*
X45100Y-20500D02*
X45285Y-20315D01*
Y-19665D01*
X48443Y-16507D01*
Y-15267D01*
X37412Y-45986D02*
Y-42190D01*
X41773Y-37828D01*
Y-36820D01*
X22913Y94691D02*
X23043Y94562D01*
Y89743D02*
Y94562D01*
Y89743D02*
X23172Y89613D01*
X11900Y75700D02*
X13800Y77600D01*
X11900Y70300D02*
Y75700D01*
X38868Y87828D02*
X39953Y88913D01*
X37500Y87828D02*
X38868D01*
X36031Y86359D02*
X37500Y87828D01*
X36031Y83013D02*
Y86359D01*
X39953Y88913D02*
Y91513D01*
X30653Y89613D02*
Y90413D01*
X31453Y91213D01*
X35653D01*
X35953Y91513D01*
X42024Y100592D02*
X45853Y96763D01*
Y96513D02*
Y96763D01*
X26913Y98691D02*
X27002Y98602D01*
X31363D01*
X31453Y98513D01*
X26913Y98691D02*
Y102691D01*
X22913Y98691D02*
Y102691D01*
Y94691D02*
Y98691D01*
X23094Y79691D02*
X23172Y79770D01*
X18413Y79691D02*
X23094D01*
D22*
X48588Y-66000D02*
D03*
Y-70000D02*
D03*
X-97921Y-70320D02*
D03*
Y-66321D02*
D03*
X-29700Y113100D02*
D03*
Y109100D02*
D03*
X-72400Y92400D02*
D03*
Y96400D02*
D03*
X-29700Y100900D02*
D03*
Y104900D02*
D03*
X-117400Y-13600D02*
D03*
Y-17600D02*
D03*
X-113152Y-13633D02*
D03*
Y-17633D02*
D03*
X11900Y66300D02*
D03*
Y70300D02*
D03*
X7500D02*
D03*
Y66300D02*
D03*
X8909Y-64691D02*
D03*
Y-68691D02*
D03*
X46500Y-50700D02*
D03*
Y-54700D02*
D03*
X62100Y-33300D02*
D03*
Y-37300D02*
D03*
X67200Y-24400D02*
D03*
Y-28400D02*
D03*
X71100Y-24400D02*
D03*
Y-28400D02*
D03*
X75000Y-24400D02*
D03*
Y-28400D02*
D03*
X78900Y-28400D02*
D03*
Y-24400D02*
D03*
X57200Y-66100D02*
D03*
Y-62100D02*
D03*
X109400Y-41200D02*
D03*
Y-45200D02*
D03*
X101762Y-5800D02*
D03*
Y-9800D02*
D03*
X-74300Y-33900D02*
D03*
Y-29900D02*
D03*
X-70200Y-33900D02*
D03*
Y-29900D02*
D03*
X-79900Y-9400D02*
D03*
Y-5400D02*
D03*
X-74400Y-16779D02*
D03*
Y-20779D02*
D03*
X-74241Y-78620D02*
D03*
Y-74620D02*
D03*
X-56740Y-100715D02*
D03*
Y-104715D02*
D03*
X73762Y-16000D02*
D03*
Y-12000D02*
D03*
X69400Y-16000D02*
D03*
Y-12000D02*
D03*
X65888Y-16000D02*
D03*
Y-12000D02*
D03*
X31400Y102800D02*
D03*
Y106800D02*
D03*
X31453Y98513D02*
D03*
Y94513D02*
D03*
X28212Y74691D02*
D03*
Y70692D02*
D03*
X18413Y75691D02*
D03*
Y79691D02*
D03*
D23*
X-43000Y-109200D02*
D03*
X-48000D02*
D03*
D24*
X56318Y-54884D02*
D03*
X52318D02*
D03*
X110900Y-57500D02*
D03*
X106900D02*
D03*
X-78400Y-35600D02*
D03*
X-82400D02*
D03*
X-34100Y108400D02*
D03*
X-38100D02*
D03*
X-68100Y100700D02*
D03*
X-72100D02*
D03*
X37412Y-45986D02*
D03*
X41412D02*
D03*
X-64000Y96400D02*
D03*
X-68000D02*
D03*
X-113900Y27100D02*
D03*
X-117900D02*
D03*
X-105621D02*
D03*
X-109621D02*
D03*
X-105621Y22480D02*
D03*
X-109621D02*
D03*
X-113300Y-22000D02*
D03*
X-117300D02*
D03*
X-14000Y-64700D02*
D03*
X-10000D02*
D03*
X55418Y-44086D02*
D03*
X59418D02*
D03*
X97800Y-31100D02*
D03*
X101800D02*
D03*
X95300Y-78900D02*
D03*
X91300D02*
D03*
X-74300Y-25600D02*
D03*
X-70300D02*
D03*
X-90500Y-35600D02*
D03*
X-86500D02*
D03*
X-74641Y-70221D02*
D03*
X-78641D02*
D03*
X-52900Y-109100D02*
D03*
X-56900D02*
D03*
X-65200Y-104200D02*
D03*
X-61200D02*
D03*
X-66341Y-70221D02*
D03*
X-70341D02*
D03*
X110900Y-49500D02*
D03*
X106900D02*
D03*
X45500Y114800D02*
D03*
X41500D02*
D03*
X26913Y102691D02*
D03*
X22913D02*
D03*
X26913Y98691D02*
D03*
X22913D02*
D03*
X26913Y94691D02*
D03*
X22913D02*
D03*
X39953Y91513D02*
D03*
X35953D02*
D03*
D25*
X-55500Y-79800D02*
D03*
X-43700D02*
D03*
D26*
X-40100Y113000D02*
D03*
X-34700D02*
D03*
X-114100Y31600D02*
D03*
X-108700D02*
D03*
X-61700Y-108500D02*
D03*
X-67100D02*
D03*
D27*
X-76700Y95518D02*
D03*
Y90118D02*
D03*
X-121800Y-19500D02*
D03*
Y-14100D02*
D03*
X-78641Y-75121D02*
D03*
Y-80520D02*
D03*
D28*
X-45421Y95382D02*
D03*
Y97941D02*
D03*
Y100500D02*
D03*
Y103059D02*
D03*
X-34200Y95382D02*
D03*
Y97941D02*
D03*
Y100500D02*
D03*
Y103059D02*
D03*
X-97609Y-7640D02*
D03*
Y-10199D02*
D03*
Y-12758D02*
D03*
Y-15317D02*
D03*
X-108829Y-7640D02*
D03*
Y-10199D02*
D03*
Y-12758D02*
D03*
Y-15317D02*
D03*
X-41040Y-96097D02*
D03*
Y-98656D02*
D03*
Y-101215D02*
D03*
Y-103774D02*
D03*
X-52261Y-96097D02*
D03*
Y-98656D02*
D03*
Y-101215D02*
D03*
Y-103774D02*
D03*
D29*
X-24000Y88500D02*
D03*
X-31200D02*
D03*
X-86800Y16300D02*
D03*
X-94000D02*
D03*
X-107300Y-27900D02*
D03*
X-114500D02*
D03*
D30*
X-58541Y81200D02*
D03*
X-61100D02*
D03*
X-63659D02*
D03*
X-66218D02*
D03*
X-58541Y92421D02*
D03*
X-61100D02*
D03*
X-63659D02*
D03*
X-66218D02*
D03*
X-100162Y7180D02*
D03*
X-102721D02*
D03*
X-105280D02*
D03*
X-107839D02*
D03*
X-100162Y18400D02*
D03*
X-102721D02*
D03*
X-105280D02*
D03*
X-107839D02*
D03*
X-61582Y-86221D02*
D03*
X-64141D02*
D03*
X-66700D02*
D03*
X-69259D02*
D03*
X-61582Y-75000D02*
D03*
X-64141D02*
D03*
X-66700D02*
D03*
X-69259D02*
D03*
D31*
X-91800Y3200D02*
D03*
Y-8600D02*
D03*
D32*
X94027Y-36184D02*
D03*
X92058D02*
D03*
X90090D02*
D03*
X88121D02*
D03*
X86153D02*
D03*
X84184D02*
D03*
X82216D02*
D03*
X80247D02*
D03*
X78279D02*
D03*
X76310D02*
D03*
X74342D02*
D03*
X72373D02*
D03*
Y-71617D02*
D03*
X74342D02*
D03*
X76310D02*
D03*
X78279D02*
D03*
X80247D02*
D03*
X82216D02*
D03*
X84184D02*
D03*
X86153D02*
D03*
X88121D02*
D03*
X90090D02*
D03*
X92058D02*
D03*
X94027D02*
D03*
D33*
X65483Y-43073D02*
D03*
Y-45042D02*
D03*
Y-47010D02*
D03*
Y-48979D02*
D03*
Y-50947D02*
D03*
Y-52916D02*
D03*
Y-54884D02*
D03*
Y-56853D02*
D03*
Y-58821D02*
D03*
Y-60790D02*
D03*
Y-62758D02*
D03*
Y-64727D02*
D03*
X100917D02*
D03*
Y-62758D02*
D03*
Y-60790D02*
D03*
Y-58821D02*
D03*
Y-56853D02*
D03*
Y-54884D02*
D03*
Y-52916D02*
D03*
Y-50947D02*
D03*
Y-48979D02*
D03*
Y-47010D02*
D03*
Y-45042D02*
D03*
Y-43073D02*
D03*
D34*
X-97920Y-34800D02*
D03*
D35*
X-105400D02*
D03*
D36*
X-101821Y-25100D02*
D03*
X-91979D02*
D03*
X45874Y83013D02*
D03*
X36031D02*
D03*
D37*
X-85000Y-8900D02*
D03*
Y-3100D02*
D03*
X63487Y73861D02*
D03*
Y79661D02*
D03*
X23413Y74191D02*
D03*
Y68392D02*
D03*
D38*
X-86740Y-20879D02*
D03*
X-83000Y-20879D02*
D03*
X-79260Y-30721D02*
D03*
X-83000D02*
D03*
X-79260Y-20879D02*
D03*
X-86740Y-30721D02*
D03*
X30653Y79770D02*
D03*
X26913Y79770D02*
D03*
X23172Y89613D02*
D03*
X26913D02*
D03*
X23172Y79770D02*
D03*
X30653Y89613D02*
D03*
D39*
X-54400Y-72400D02*
D03*
Y-65200D02*
D03*
D40*
X33900Y71280D02*
D03*
D41*
Y63800D02*
D03*
D42*
X-3891Y96600D02*
D03*
X-15309D02*
D03*
D43*
X52000Y101611D02*
D03*
Y114800D02*
D03*
D44*
X-1000Y84500D02*
D03*
Y66500D02*
D03*
D45*
X45700Y73700D02*
D03*
X39900D02*
D03*
X45853Y96513D02*
D03*
X40053D02*
D03*
D46*
X54640Y83395D02*
D03*
X50900D02*
D03*
X58380D02*
D03*
D47*
Y73552D02*
D03*
X50900D02*
D03*
D48*
X95243Y-14828D02*
D03*
X80282D02*
D03*
Y-5772D02*
D03*
X95243D02*
D03*
D49*
X61434Y-22767D02*
D03*
D50*
X57104Y-20267D02*
D03*
X52773Y-17767D02*
D03*
X37443Y-34320D02*
D03*
X46104Y-39320D02*
D03*
X50434Y-41820D02*
D03*
X41773Y-36820D02*
D03*
X48443Y-15267D02*
D03*
D84*
X-23806Y60990D02*
G03*
X-32780Y56674I23806J-60990D01*
G01*
X-64143Y-13122D02*
G03*
X-44087Y-48403I64143J13122D01*
G01*
X-32780Y56674D02*
G03*
X-64143Y-13122I32780J-56674D01*
G01*
X-42900Y-96097D02*
Y-49590D01*
X-23806Y60990D02*
X-15000Y69796D01*
X-32780Y56674D02*
Y58068D01*
X-59817Y85105D02*
X-58506Y83794D01*
X-32780Y58068D01*
X-61789Y85105D02*
X-59817D01*
X-64468Y-13447D02*
X-64143Y-13122D01*
X-82898Y-13447D02*
X-64468D01*
X-42900Y-101700D02*
Y-96097D01*
X-44087Y-48403D02*
X-42900Y-49590D01*
X-101329Y-13447D02*
X-82898D01*
X-15000Y69796D02*
Y88900D01*
Y96291D01*
Y88900D02*
X-10600Y84500D01*
X-1000D01*
X-15000Y96909D02*
Y110900D01*
D85*
X-76750Y95568D02*
X-76700Y95618D01*
X-76750Y94968D02*
Y95568D01*
X-74615Y100700D02*
X-72100D01*
X-76700Y98615D02*
X-74615Y100700D01*
X-76700Y95618D02*
Y98615D01*
X-68100Y96500D02*
X-68000Y96400D01*
X-68100Y96500D02*
Y100900D01*
X-72400Y96400D02*
X-68000D01*
X-81000Y90800D02*
X-80918D01*
X-76750Y94968D01*
X63121Y-43073D02*
Y-38321D01*
X68940Y-30388D02*
X72373Y-33821D01*
X-86750Y10806D02*
Y16250D01*
X-53500Y-65200D02*
X-49400Y-69300D01*
X-49300D01*
X-53500Y-72100D02*
X-48800D01*
X-53800Y-71800D02*
X-53500Y-72100D01*
X-54100D02*
X-53800Y-71800D01*
X-54400Y-72400D02*
X-54100Y-72100D01*
X-53500D01*
X-92000Y11600D02*
Y14300D01*
X-94000Y16300D02*
X-92000Y14300D01*
X44913Y-45042D02*
X45100Y-45229D01*
X44913Y-40510D02*
X46104Y-39320D01*
X35653Y96513D02*
X40053D01*
X33453D02*
X35653D01*
Y97592D01*
Y94763D02*
Y96513D01*
X31274Y94691D02*
X31631D01*
X33453Y96513D01*
X26913Y94691D02*
X26913Y94691D01*
X26913Y89613D02*
Y94691D01*
X31274Y94691D02*
X31453Y94513D01*
X26913Y94691D02*
X31274D01*
X94550Y-78150D02*
Y-74502D01*
X57200Y-66400D02*
X58873Y-64727D01*
X101075Y-45200D02*
X109400D01*
X110150Y-45950D01*
Y-48750D02*
Y-45950D01*
Y-48750D02*
X110900Y-49500D01*
X100917Y-45042D02*
X101075Y-45200D01*
X67200Y-24400D02*
X78900D01*
X67200Y-24400D02*
X67200Y-24400D01*
X80247Y-42159D02*
Y-36184D01*
X79530Y-42876D02*
X80247Y-42159D01*
X82216Y-36184D02*
Y-21291D01*
X79924Y-19000D02*
X82216Y-21291D01*
X65483Y-62758D02*
X71228D01*
X71616Y-62370D01*
X60153Y-62758D02*
X65483D01*
X92058Y-71617D02*
Y-65317D01*
X91300Y-78900D02*
X92050Y-78150D01*
Y-71625D01*
X92058Y-71617D01*
X-83000Y-30721D02*
X-82400Y-31321D01*
Y-35600D02*
Y-31321D01*
X59340Y78688D02*
X60313Y79661D01*
X63487D01*
X-40150Y110450D02*
Y113050D01*
X-61450D02*
X-40150D01*
X-68800Y105700D02*
X-61450Y113050D01*
X-71100Y105700D02*
X-68800D01*
X88121Y-31518D02*
X94439Y-25200D01*
X111700D01*
X88121Y-36184D02*
Y-31518D01*
X113316Y-54884D02*
X118300Y-49900D01*
Y-29200D01*
X116100Y-50000D02*
Y-24900D01*
X113184Y-52916D02*
X116100Y-50000D01*
X100917Y-54884D02*
X113316D01*
X100917Y-52916D02*
X113184D01*
X105453Y-50947D02*
X106900Y-49500D01*
X100917Y-50947D02*
X105453D01*
X-86800Y16300D02*
X-86750Y16250D01*
X-27700Y82200D02*
X-25550Y84350D01*
Y86950D01*
X-24000Y88500D01*
X-31200Y82200D02*
Y88500D01*
Y89400D01*
X-25500Y90000D02*
X-24000Y88500D01*
X-54400Y-65200D02*
X-53500D01*
X58873Y-64727D02*
X65483D01*
X-67100Y-104000D02*
X-65200D01*
X-69400D02*
X-67100D01*
X-57098Y-104358D02*
X-56706Y-103965D01*
X-56740Y-104715D02*
X-54840Y-106615D01*
Y-107160D02*
Y-106615D01*
Y-107160D02*
X-52900Y-109100D01*
X-57098Y-104358D02*
X-56740Y-104715D01*
X-57456Y-104000D02*
X-57098Y-104358D01*
X-56706Y-103965D02*
X-52452D01*
X-52261Y-103774D01*
X-61200Y-104000D02*
X-57456D01*
X-57650Y-108350D02*
X-56900Y-109100D01*
X-61650Y-108350D02*
X-57650D01*
X-61700Y-108300D02*
X-61650Y-108350D01*
X-67100Y-108300D02*
Y-104000D01*
X-94900Y-85500D02*
X-69798D01*
X-69598D02*
X-69259Y-85839D01*
Y-86221D02*
Y-85839D01*
X-78641Y-80020D02*
X-77241Y-78620D01*
X-78641Y-80520D02*
Y-80020D01*
X-77241Y-78620D02*
X-74241D01*
X-74641Y-70221D02*
X-74241Y-70621D01*
Y-74620D02*
Y-70621D01*
X-70341Y-70221D02*
X-69591Y-70970D01*
Y-74668D02*
Y-70970D01*
Y-74668D02*
X-69259Y-75000D01*
X-74641Y-70221D02*
X-70341D01*
X-78641Y-75121D02*
Y-70221D01*
X-97921Y-66321D02*
X-97900Y-66299D01*
X-98900Y-80400D02*
X-78961D01*
X-78761D02*
X-78641Y-80520D01*
X-74300Y-29900D02*
X-70200D01*
X-75050Y-30650D02*
X-74300Y-29900D01*
X-79189Y-30650D02*
X-75050D01*
X-79260Y-30721D02*
X-79189Y-30650D01*
X-70300Y-25600D02*
X-70200Y-25700D01*
Y-29900D02*
Y-25700D01*
X-86740Y-30721D02*
X-86500Y-30961D01*
Y-35600D02*
Y-30961D01*
X-74500Y-20879D02*
X-74400Y-20779D01*
X-79260Y-20879D02*
X-74500D01*
X-113481Y-17600D02*
X-113300Y-17781D01*
X-113152Y-17633D02*
X-112402Y-16883D01*
X-110789D01*
X-109223Y-15317D01*
X-108829D01*
X-117900Y-14100D02*
X-117400Y-13600D01*
X-121800Y-14100D02*
X-117900D01*
X-119410Y-22000D02*
X-117300D01*
X-121800Y-19610D02*
X-119410Y-22000D01*
X-121800Y-19610D02*
Y-19500D01*
X-117400Y-17600D02*
X-113481D01*
X-113300Y-17781D02*
X-113152Y-17633D01*
X-113300Y-22000D02*
Y-17781D01*
X-118400Y-23100D02*
X-117300Y-22000D01*
X-118400Y-26385D02*
Y-23100D01*
X-106371Y27850D02*
Y29771D01*
X-108200Y31600D02*
X-106371Y29771D01*
X-109621Y20182D02*
X-107839Y18400D01*
X-109621Y20182D02*
Y22480D01*
Y27100D01*
X-106371Y27850D02*
X-105621Y27100D01*
X-108700Y31600D02*
X-108200D01*
X-113900Y27100D02*
X-109621D01*
X-117900D02*
X-117150Y27850D01*
Y29050D01*
X-114600Y31600D01*
X-114100D01*
X-121482Y23580D02*
X-117900Y27100D01*
X-29700Y104900D02*
Y109100D01*
X-31965Y104900D02*
X-29700D01*
X-33806Y103059D02*
X-31965Y104900D01*
X-34200Y103059D02*
X-33806D01*
X-30400Y108400D02*
X-29700Y109100D01*
X-34100Y108400D02*
X-30400D01*
X-29800Y113000D02*
X-29700Y113100D01*
X-34700Y113000D02*
X-29800D01*
X-40150Y110450D02*
X-38100Y108400D01*
X-40150Y113050D02*
X-40100Y113000D01*
X-68000Y94202D02*
X-66218Y92421D01*
X-68000Y94202D02*
Y96400D01*
X-72750Y96750D02*
X-72400Y96400D01*
X-76700Y90118D02*
Y90618D01*
X-75668Y91650D01*
X-73150D01*
X-72400Y92400D01*
X-76750Y95568D02*
X-76700Y95518D01*
X7500Y66300D02*
X11900D01*
X76310Y-36184D02*
Y-29710D01*
X15100Y62900D02*
Y63100D01*
X11900Y66300D02*
X15100Y63100D01*
X78279Y-36184D02*
Y-29021D01*
X84184Y-36184D02*
Y-18139D01*
X71766Y-29966D02*
X73400Y-31600D01*
X74342Y-32542D01*
X68940Y-30388D02*
Y-30140D01*
X67200Y-28400D02*
X68940Y-30140D01*
X72400Y-19000D02*
X79924D01*
X69400Y-16000D02*
X72400Y-19000D01*
X65888Y-16000D02*
X69400D01*
X78279Y-29021D02*
X78900Y-28400D01*
X75000Y-28400D02*
X76310Y-29710D01*
X71100Y-28400D02*
X71766Y-29066D01*
Y-29966D02*
Y-29066D01*
X74342Y-36184D02*
Y-32542D01*
X94027Y-36184D02*
X94267Y-36424D01*
Y-38786D02*
Y-36424D01*
Y-38786D02*
X98554Y-43073D01*
X100917D01*
X94027Y-36184D02*
Y-33821D01*
X94267Y-33581D01*
X95319D01*
X97800Y-31100D01*
X103279Y-43073D02*
X105152Y-41200D01*
X100917Y-43073D02*
X103279D01*
X105152Y-41200D02*
X109400D01*
X94027Y-73979D02*
Y-71617D01*
Y-73979D02*
X94550Y-74502D01*
Y-78150D02*
X95300Y-78900D01*
X62100Y-37300D02*
X63121Y-38321D01*
Y-43073D02*
X65483D01*
X72373Y-36184D02*
Y-33821D01*
X84184Y-80486D02*
Y-71617D01*
X65328Y-99343D02*
X84184Y-80486D01*
X35678Y-99343D02*
X65328D01*
X27368Y-91032D02*
X35678Y-99343D01*
X82216Y-79671D02*
Y-71617D01*
X65113Y-96774D02*
X82216Y-79671D01*
X36742Y-96774D02*
X65113D01*
X29184Y-89216D02*
X36742Y-96774D01*
X80247Y-78856D02*
Y-71617D01*
X64897Y-94205D02*
X80247Y-78856D01*
X37806Y-94205D02*
X64897D01*
X31000Y-87400D02*
X37806Y-94205D01*
X78279Y-78040D02*
Y-71617D01*
X64682Y-91637D02*
X78279Y-78040D01*
X42200Y-91637D02*
X64682D01*
X76310Y-77225D02*
Y-71617D01*
X64467Y-89069D02*
X76310Y-77225D01*
X42200Y-89069D02*
X64467D01*
X74342Y-76410D02*
Y-71617D01*
X64251Y-86500D02*
X74342Y-76410D01*
X42200Y-86500D02*
X64251D01*
X94679Y-5800D02*
X101762D01*
X94652Y-5772D02*
X94679Y-5800D01*
X79110Y-16000D02*
X80282Y-14828D01*
X73762Y-16000D02*
X79110D01*
X80872Y-14828D02*
X84184Y-18139D01*
X86153Y-14272D02*
X94652Y-5772D01*
X86153Y-36184D02*
Y-14272D01*
X94652Y-5772D02*
X95243D01*
X80282Y-14828D02*
X80872D01*
D86*
X-40000Y-109200D02*
X-39900Y-109100D01*
X-42400Y-109200D02*
X-40000D01*
X52500Y-84000D02*
Y-70300D01*
Y-68300D01*
X52200Y-70000D02*
X52500Y-70300D01*
X48588Y-70000D02*
X52200D01*
X58287Y-52916D02*
X65483D01*
X56318Y-54884D02*
X58287Y-52916D01*
X56781Y-50947D02*
X65483D01*
X55828Y-51900D02*
X56781Y-50947D01*
X49300Y-51900D02*
X55828D01*
X46500Y-54700D02*
X49300Y-51900D01*
X49855Y-48612D02*
X50079Y-48388D01*
X48588Y-48612D02*
X49855D01*
X46500Y-50700D02*
X48588Y-48612D01*
X56121Y-48979D02*
X65483D01*
X55258Y-49842D02*
X56121Y-48979D01*
X51533Y-49842D02*
X55258D01*
X50079Y-48388D02*
X51533Y-49842D01*
X-14000Y-67382D02*
X-9503Y-71879D01*
X18200Y-75700D02*
Y-71900D01*
X-9503Y-71879D02*
X29030D01*
X37709Y-63200D01*
X80424Y-94382D02*
X86995D01*
X80247Y-94205D02*
X80424Y-94382D01*
X86995D02*
X100917Y-80461D01*
Y-64727D01*
X90090Y-75591D02*
Y-71617D01*
X87531Y-78150D02*
X90090Y-75591D01*
X74503Y-99597D02*
Y-92666D01*
Y-99597D02*
X74679Y-99773D01*
X74503Y-92666D02*
X87531Y-79638D01*
Y-78150D01*
X44312Y-66100D02*
X57200D01*
X39316Y-61104D02*
X44312Y-66100D01*
X12496Y-61104D02*
X39316D01*
X8909Y-64691D02*
X12496Y-61104D01*
X4109Y-64691D02*
X8909D01*
X-17800Y-64600D02*
X-14100D01*
X-14000Y-64700D01*
Y-67382D02*
Y-64700D01*
X53747Y-25744D02*
X53970Y-25521D01*
Y-24409D01*
X57104Y-21276D01*
Y-20267D01*
X53800Y-47100D02*
X53845Y-47055D01*
X65439D01*
X65483Y-47010D01*
X51395Y-29505D02*
X55418Y-33528D01*
X51395Y-29505D02*
Y-19145D01*
X52773Y-17767D01*
X55418Y-44086D02*
Y-33528D01*
X59418Y-44086D02*
X60374Y-45042D01*
X65483D01*
D87*
X26963Y74941D02*
X27713Y74191D01*
X63333Y73706D02*
X63487Y73861D01*
X58530Y73706D02*
X63333D01*
X58380Y73556D02*
X58530Y73706D01*
X58380Y73552D02*
Y73556D01*
X45874Y83013D02*
X46256Y83395D01*
X50900D01*
X52490Y87973D02*
X56866D01*
X50950Y86433D02*
X52490Y87973D01*
X50950Y83445D02*
Y86433D01*
X50900Y83395D02*
X50950Y83445D01*
X56866Y87973D02*
X58330Y86509D01*
Y83445D02*
Y86509D01*
Y83445D02*
X58380Y83395D01*
X45874Y93913D02*
X46495Y94534D01*
X26963Y74941D02*
Y79720D01*
X26913Y79770D02*
X26963Y79720D01*
D88*
X13800Y77600D02*
X17721Y73679D01*
X18413Y74191D02*
X23413D01*
X8400Y83000D02*
X13800Y77600D01*
X23413Y74191D02*
X27713D01*
X500Y83000D02*
X8400D01*
X-1000Y84500D02*
X500Y83000D01*
D89*
X48900Y58600D02*
X52020Y61720D01*
X48900Y4988D02*
Y58600D01*
Y4988D02*
X62220Y-8331D01*
X52020Y61720D02*
X56515Y64315D01*
X63487Y71287D01*
Y73861D01*
X62220Y-8331D02*
X65888Y-12000D01*
D90*
X-83000Y-13549D02*
X-82898Y-13447D01*
X-83000Y-20879D02*
Y-13549D01*
X-99929Y-66321D02*
X-97921D01*
X-112716Y-53534D02*
X-99929Y-66321D01*
X-97900Y-66299D02*
Y-63500D01*
X-112716Y-53534D02*
Y-34354D01*
X-77900Y-38800D02*
Y-38673D01*
X-78050Y-38523D02*
X-77900Y-38673D01*
X-78050Y-38523D02*
Y-35950D01*
X-78400Y-35600D02*
X-78050Y-35950D01*
X-75650Y-35250D02*
X-74300Y-33900D01*
X-78050Y-35250D02*
X-75650D01*
X-78400Y-35600D02*
X-78050Y-35250D01*
X-74300Y-33900D02*
X-70200D01*
X-112716Y-34354D02*
X-112626Y-34264D01*
Y-34126D01*
X-107300Y-28800D01*
Y-27900D01*
X-107090Y-23790D02*
X-107000Y-23700D01*
X-107090Y-27690D02*
Y-23790D01*
X-107300Y-27900D02*
X-107090Y-27690D01*
D91*
X45700Y79492D02*
X45874Y79666D01*
X45700Y73700D02*
Y79492D01*
X45874Y79666D02*
Y83013D01*
Y93913D02*
Y96491D01*
Y83013D02*
Y93913D01*
X45853Y96513D02*
X45874Y96491D01*
D92*
X-84075Y13264D02*
D03*
D93*
X-50828Y-75238D02*
D03*
D94*
X-25068Y92274D02*
D03*
D95*
X-57837Y-80091D02*
D03*
D96*
X-54850Y-78500D02*
D03*
D97*
X-951Y97306D02*
D03*
D98*
X-4974Y103593D02*
D03*
D99*
X-22825Y94725D02*
D03*
D100*
X-81450Y12775D02*
D03*
D101*
X-82775Y15309D02*
D03*
D102*
X-87200Y16990D02*
D03*
D103*
X-90115Y2800D02*
D03*
D104*
X-57865Y-65460D02*
D03*
D105*
X-63944Y-69341D02*
D03*
D106*
X-65420Y-89803D02*
D03*
D107*
X-60760Y-97850D02*
D03*
D108*
X-40618Y-102691D02*
D03*
D109*
X-104526Y-27757D02*
D03*
D110*
X-93200Y-28950D02*
D03*
D111*
X-90970Y-20939D02*
D03*
D112*
X-98068Y-8034D02*
D03*
D113*
X-89328Y-11809D02*
D03*
D114*
X-98935Y20600D02*
D03*
D115*
X-114950Y1987D02*
D03*
D116*
X-103814Y8449D02*
D03*
D117*
X-110999Y813D02*
D03*
D118*
X-62707Y81955D02*
D03*
D119*
X-30701Y90091D02*
D03*
D120*
X-31800Y97135D02*
D03*
D121*
X-54343Y99950D02*
D03*
D122*
X-60903Y97543D02*
D03*
D123*
X33992Y75228D02*
D03*
D124*
X33768Y79784D02*
D03*
D125*
X-41326Y99221D02*
D03*
X-101703Y-11479D02*
D03*
X-45135Y-99935D02*
D03*
D126*
X-62379Y85295D02*
D03*
X-104001Y11274D02*
D03*
X-65421Y-82126D02*
D03*
D127*
X15000Y110900D02*
D03*
X5000D02*
D03*
X-5000D02*
D03*
D128*
X-15000D02*
D03*
D129*
X85815Y-88638D02*
D03*
X74679Y-99773D02*
D03*
X80247Y-94205D02*
D03*
D130*
X69112Y-105341D02*
D03*
D131*
X100161Y32544D02*
D03*
X-21896Y-103014D02*
D03*
X-78264Y70469D02*
D03*
D132*
X-81000Y90800D02*
D03*
X-39900Y-109100D02*
D03*
X52500Y-84000D02*
D03*
Y-68300D02*
D03*
X59900Y-53400D02*
D03*
X50079Y-48388D02*
D03*
X-86800Y10900D02*
D03*
X-49300Y-69300D02*
D03*
X-48800Y-72100D02*
D03*
X-92000Y11600D02*
D03*
X18200Y-75700D02*
D03*
X48575Y-24800D02*
D03*
X-20400Y48300D02*
D03*
X56700Y39800D02*
D03*
X40200Y51200D02*
D03*
X77700Y82600D02*
D03*
X76700Y92100D02*
D03*
X61737Y96513D02*
D03*
X106900Y-66200D02*
D03*
X-87100Y-73620D02*
D03*
X-75341Y-93795D02*
D03*
X-37500Y-102715D02*
D03*
X-37400Y-85700D02*
D03*
X-69738Y19800D02*
D03*
X-52300Y49800D02*
D03*
X-53900Y-5300D02*
D03*
X-52100Y17900D02*
D03*
X-40800Y35268D02*
D03*
X-34722Y-53850D02*
D03*
X99862Y-21665D02*
D03*
X92058Y-22465D02*
D03*
X120800Y-2465D02*
D03*
Y13200D02*
D03*
X58000Y27600D02*
D03*
X39559Y29800D02*
D03*
X60400Y7900D02*
D03*
X35653Y97592D02*
D03*
Y94763D02*
D03*
X42800Y65991D02*
D03*
X40053Y82607D02*
D03*
Y78688D02*
D03*
X50200Y67343D02*
D03*
X38400Y59200D02*
D03*
X-5232Y72200D02*
D03*
X2445Y72692D02*
D03*
X4300Y61800D02*
D03*
X17313Y98513D02*
D03*
Y91713D02*
D03*
Y86130D02*
D03*
X-59600Y109400D02*
D03*
X-39300Y84400D02*
D03*
X-43500Y78600D02*
D03*
X-24000Y71800D02*
D03*
X-35700Y77941D02*
D03*
X-35600Y71800D02*
D03*
X-44600Y58068D02*
D03*
X-73500Y4800D02*
D03*
X-121800Y-2259D02*
D03*
X-121482Y12700D02*
D03*
X-69241Y-49347D02*
D03*
X-59600Y-47700D02*
D03*
X-60499Y-57713D02*
D03*
X-66011D02*
D03*
X-26800Y-65600D02*
D03*
X-25600Y-60600D02*
D03*
X-21278Y-48000D02*
D03*
X-12000Y-50100D02*
D03*
X14110Y-58004D02*
D03*
X7009Y-58823D02*
D03*
X46700Y-79300D02*
D03*
X43200Y-70300D02*
D03*
X60809Y-82400D02*
D03*
X29149Y-103100D02*
D03*
X59252Y-102600D02*
D03*
X49400D02*
D03*
X38400Y-103100D02*
D03*
X-47400Y-113300D02*
D03*
X105900Y-45000D02*
D03*
X95208Y-43861D02*
D03*
X112800Y-45632D02*
D03*
X105800Y-33231D02*
D03*
X73600Y-7000D02*
D03*
X101762Y-14828D02*
D03*
X86153Y-3900D02*
D03*
X104700Y7900D02*
D03*
X45100Y-45229D02*
D03*
X69200Y-20267D02*
D03*
X63100Y-29500D02*
D03*
X81231Y-49569D02*
D03*
X89499Y-51538D02*
D03*
X88712Y-58850D02*
D03*
X79657Y-58821D02*
D03*
X71100Y-59412D02*
D03*
X60153Y-62758D02*
D03*
X52318Y-61904D02*
D03*
X88000Y-82800D02*
D03*
X92058Y-65317D02*
D03*
X12709Y-68968D02*
D03*
X29509Y-51750D02*
D03*
X30000Y-47100D02*
D03*
X-71100Y105700D02*
D03*
X110500Y-60500D02*
D03*
X4109Y-64691D02*
D03*
X-17800Y-64600D02*
D03*
X37709Y-63200D02*
D03*
X57200Y-72800D02*
D03*
X65483Y-76410D02*
D03*
X94600Y-76300D02*
D03*
X94100Y-30800D02*
D03*
X48600Y100D02*
D03*
X111700Y-25200D02*
D03*
X118300Y-29200D02*
D03*
X116100Y-24900D02*
D03*
X38100Y-54800D02*
D03*
X-27700Y82200D02*
D03*
X-31200D02*
D03*
X-100600Y-60900D02*
D03*
X-96457Y-55241D02*
D03*
X-93412Y-52288D02*
D03*
X-96368D02*
D03*
X-90512Y-49335D02*
D03*
X-93377D02*
D03*
X-96260Y-49288D02*
D03*
X-69400Y-104000D02*
D03*
X-97900Y-63500D02*
D03*
X-92016Y-66000D02*
D03*
X-90000Y-63100D02*
D03*
X-94900Y-85500D02*
D03*
X-86375Y-42525D02*
D03*
X-98900Y-80400D02*
D03*
X-103900Y-49300D02*
D03*
X-87100Y-62900D02*
D03*
X-83989Y-61166D02*
D03*
X-84800Y-45200D02*
D03*
X-82100Y-56100D02*
D03*
X-77900Y-38800D02*
D03*
X-112716Y-34354D02*
D03*
X-107000Y-23700D02*
D03*
X-118400Y-26385D02*
D03*
X-121482Y23580D02*
D03*
X-119100Y-38200D02*
D03*
X-92000Y-42200D02*
D03*
X-118200Y37100D02*
D03*
X-122700Y39300D02*
D03*
X-100200Y-44100D02*
D03*
X-81500Y-53400D02*
D03*
X15100Y62900D02*
D03*
X78600Y-31300D02*
D03*
X76000Y-31400D02*
D03*
X73400Y-31600D02*
D03*
X70300Y-31900D02*
D03*
X35300Y-49000D02*
D03*
X63100Y-40500D02*
D03*
X27368Y-91032D02*
D03*
X29184Y-89216D02*
D03*
X31000Y-87400D02*
D03*
X42200Y-91637D02*
D03*
Y-89069D02*
D03*
Y-86500D02*
D03*
X53747Y-25744D02*
D03*
X53800Y-47100D02*
D03*
X45100Y-20500D02*
D03*
D133*
X-73500Y10200D02*
D03*
X63800Y84600D02*
D03*
X-8000Y104200D02*
D03*
X23413Y63100D02*
D03*
X30100Y58100D02*
D03*
X39300Y63600D02*
D03*
X-7800Y66500D02*
D03*
Y60600D02*
D03*
X-21500Y102900D02*
D03*
X-25000Y95300D02*
D03*
X-23806Y77941D02*
D03*
X-21300Y81500D02*
D03*
X8400Y91713D02*
D03*
Y96592D02*
D03*
Y101592D02*
D03*
X3331Y91713D02*
D03*
Y96592D02*
D03*
Y101521D02*
D03*
X-107100Y-20100D02*
D03*
X-115700Y-33000D02*
D03*
X-77373Y10570D02*
D03*
X-91800Y-2700D02*
D03*
X-85900Y1900D02*
D03*
X-81200Y10200D02*
D03*
X-81880Y15074D02*
D03*
X-57600Y-89500D02*
D03*
X-50900Y-81800D02*
D03*
Y-78200D02*
D03*
X-57100Y-85700D02*
D03*
X62220Y-8331D02*
D03*
X45500Y105900D02*
D03*
Y110900D02*
D03*
X-59400Y-96900D02*
D03*
X-60700Y-100100D02*
D03*
X-62300Y-89400D02*
D03*
X-68400Y-99800D02*
D03*
X-68600Y-89400D02*
D03*
X-56000Y-96100D02*
D03*
X-48400Y96600D02*
D03*
Y100200D02*
D03*
Y103700D02*
D03*
X-59200Y100200D02*
D03*
Y96700D02*
D03*
Y103800D02*
D03*
X-115500Y-7700D02*
D03*
X-115400Y10800D02*
D03*
X-112500Y-5800D02*
D03*
Y-9500D02*
D03*
X-112300Y8700D02*
D03*
Y12700D02*
D03*
M02*
