G04*
G04 #@! TF.GenerationSoftware,Altium Limited,Altium Designer,19.1.5 (86)*
G04*
G04 Layer_Color=8388736*
%FSLAX25Y25*%
%MOIN*%
G70*
G01*
G75*
%ADD47R,0.02800X0.03800*%
%ADD51R,0.03000X0.03000*%
%ADD52R,0.04000X0.04000*%
%ADD53R,0.03000X0.03000*%
%ADD54R,0.04400X0.06600*%
%ADD55R,0.03800X0.02800*%
%ADD56R,0.02965X0.02178*%
%ADD57R,0.04600X0.06400*%
%ADD58R,0.02178X0.02965*%
%ADD59R,0.06600X0.04400*%
%ADD60R,0.01981X0.06706*%
%ADD61R,0.06706X0.01981*%
%ADD62R,0.08674X0.05131*%
%ADD63R,0.03950X0.03950*%
%ADD64R,0.04737X0.11430*%
%ADD65R,0.04300X0.03800*%
%ADD66R,0.03400X0.05000*%
%ADD67R,0.06400X0.04600*%
%ADD68R,0.05131X0.08674*%
%ADD69R,0.03950X0.03950*%
%ADD70R,0.05918X0.11430*%
%ADD71R,0.05524X0.04737*%
%ADD72R,0.07690X0.06800*%
%ADD73R,0.03800X0.04300*%
%ADD74R,0.03200X0.04800*%
%ADD75R,0.03600X0.04600*%
%ADD76R,0.07099X0.05918*%
G04:AMPARAMS|DCode=77|XSize=31.62mil|YSize=86.74mil|CornerRadius=0mil|HoleSize=0mil|Usage=FLASHONLY|Rotation=330.000|XOffset=0mil|YOffset=0mil|HoleType=Round|Shape=Round|*
%AMOVALD77*
21,1,0.05512,0.03162,0.00000,0.00000,60.0*
1,1,0.03162,-0.01378,-0.02387*
1,1,0.03162,0.01378,0.02387*
%
%ADD77OVALD77*%

G04:AMPARAMS|DCode=78|XSize=31.62mil|YSize=86.74mil|CornerRadius=0mil|HoleSize=0mil|Usage=FLASHONLY|Rotation=330.000|XOffset=0mil|YOffset=0mil|HoleType=Round|Shape=Round|*
%AMOVALD78*
21,1,0.05512,0.03162,0.00000,0.00000,60.0*
1,1,0.03162,-0.01378,-0.02387*
1,1,0.03162,0.01378,0.02387*
%
%ADD78OVALD78*%

%ADD79C,0.06706*%
%ADD80R,0.06706X0.06706*%
G04:AMPARAMS|DCode=81|XSize=63mil|YSize=68mil|CornerRadius=0mil|HoleSize=0mil|Usage=FLASHONLY|Rotation=45.000|XOffset=0mil|YOffset=0mil|HoleType=Round|Shape=Round|*
%AMOVALD81*
21,1,0.00500,0.06300,0.00000,0.00000,135.0*
1,1,0.06300,0.00177,-0.00177*
1,1,0.06300,-0.00177,0.00177*
%
%ADD81OVALD81*%

G04:AMPARAMS|DCode=82|XSize=63mil|YSize=68mil|CornerRadius=10.88mil|HoleSize=0mil|Usage=FLASHONLY|Rotation=45.000|XOffset=0mil|YOffset=0mil|HoleType=Round|Shape=RoundedRectangle|*
%AMROUNDEDRECTD82*
21,1,0.06300,0.04625,0,0,45.0*
21,1,0.04125,0.06800,0,0,45.0*
1,1,0.02175,0.03094,-0.00177*
1,1,0.02175,0.00177,-0.03094*
1,1,0.02175,-0.03094,0.00177*
1,1,0.02175,-0.00177,0.03094*
%
%ADD82ROUNDEDRECTD82*%
%ADD83C,0.12611*%
D47*
X-76700Y95518D02*
D03*
Y90118D02*
D03*
X-121800Y-19500D02*
D03*
Y-14100D02*
D03*
X-78641Y-75121D02*
D03*
Y-80520D02*
D03*
D51*
X48588Y-66000D02*
D03*
Y-70000D02*
D03*
X-97921Y-70320D02*
D03*
Y-66321D02*
D03*
X-29700Y113100D02*
D03*
Y109100D02*
D03*
X-72400Y92400D02*
D03*
Y96400D02*
D03*
X-29700Y100900D02*
D03*
Y104900D02*
D03*
X-117400Y-13600D02*
D03*
Y-17600D02*
D03*
X-113152Y-13633D02*
D03*
Y-17633D02*
D03*
X11900Y66300D02*
D03*
Y70300D02*
D03*
X7500D02*
D03*
Y66300D02*
D03*
X8909Y-64691D02*
D03*
Y-68691D02*
D03*
X46500Y-50700D02*
D03*
Y-54700D02*
D03*
X62100Y-33300D02*
D03*
Y-37300D02*
D03*
X67200Y-24400D02*
D03*
Y-28400D02*
D03*
X71100Y-24400D02*
D03*
Y-28400D02*
D03*
X75000Y-24400D02*
D03*
Y-28400D02*
D03*
X78900Y-28400D02*
D03*
Y-24400D02*
D03*
X57200Y-66100D02*
D03*
Y-62100D02*
D03*
X109400Y-41200D02*
D03*
Y-45200D02*
D03*
X101762Y-5800D02*
D03*
Y-9800D02*
D03*
X-74300Y-33900D02*
D03*
Y-29900D02*
D03*
X-70200Y-33900D02*
D03*
Y-29900D02*
D03*
X-79900Y-9400D02*
D03*
Y-5400D02*
D03*
X-74400Y-16779D02*
D03*
Y-20779D02*
D03*
X-74241Y-78620D02*
D03*
Y-74620D02*
D03*
X-56740Y-100715D02*
D03*
Y-104715D02*
D03*
X73762Y-16000D02*
D03*
Y-12000D02*
D03*
X69400Y-16000D02*
D03*
Y-12000D02*
D03*
X65888Y-16000D02*
D03*
Y-12000D02*
D03*
X31400Y102800D02*
D03*
Y106800D02*
D03*
X31453Y98513D02*
D03*
Y94513D02*
D03*
X28212Y74691D02*
D03*
Y70692D02*
D03*
X18413Y75691D02*
D03*
Y79691D02*
D03*
D52*
X-43000Y-109200D02*
D03*
X-48000D02*
D03*
D53*
X56318Y-54884D02*
D03*
X52318D02*
D03*
X110900Y-57500D02*
D03*
X106900D02*
D03*
X-78400Y-35600D02*
D03*
X-82400D02*
D03*
X-34100Y108400D02*
D03*
X-38100D02*
D03*
X-68100Y100700D02*
D03*
X-72100D02*
D03*
X37412Y-45986D02*
D03*
X41412D02*
D03*
X-64000Y96400D02*
D03*
X-68000D02*
D03*
X-113900Y27100D02*
D03*
X-117900D02*
D03*
X-105621D02*
D03*
X-109621D02*
D03*
X-105621Y22480D02*
D03*
X-109621D02*
D03*
X-113300Y-22000D02*
D03*
X-117300D02*
D03*
X-14000Y-64700D02*
D03*
X-10000D02*
D03*
X55418Y-44086D02*
D03*
X59418D02*
D03*
X97800Y-31100D02*
D03*
X101800D02*
D03*
X95300Y-78900D02*
D03*
X91300D02*
D03*
X-74300Y-25600D02*
D03*
X-70300D02*
D03*
X-90500Y-35600D02*
D03*
X-86500D02*
D03*
X-74641Y-70221D02*
D03*
X-78641D02*
D03*
X-52900Y-109100D02*
D03*
X-56900D02*
D03*
X-65200Y-104200D02*
D03*
X-61200D02*
D03*
X-66341Y-70221D02*
D03*
X-70341D02*
D03*
X110900Y-49500D02*
D03*
X106900D02*
D03*
X45500Y114800D02*
D03*
X41500D02*
D03*
X26913Y102691D02*
D03*
X22913D02*
D03*
X26913Y98691D02*
D03*
X22913D02*
D03*
X26913Y94691D02*
D03*
X22913D02*
D03*
X39953Y91513D02*
D03*
X35953D02*
D03*
D54*
X-55500Y-79800D02*
D03*
X-43700D02*
D03*
D55*
X-40100Y113000D02*
D03*
X-34700D02*
D03*
X-114100Y31600D02*
D03*
X-108700D02*
D03*
X-61700Y-108500D02*
D03*
X-67100D02*
D03*
D56*
X-45421Y95382D02*
D03*
Y97941D02*
D03*
Y100500D02*
D03*
Y103059D02*
D03*
X-34200Y95382D02*
D03*
Y97941D02*
D03*
Y100500D02*
D03*
Y103059D02*
D03*
X-97609Y-7640D02*
D03*
Y-10199D02*
D03*
Y-12758D02*
D03*
Y-15317D02*
D03*
X-108829Y-7640D02*
D03*
Y-10199D02*
D03*
Y-12758D02*
D03*
Y-15317D02*
D03*
X-41040Y-96097D02*
D03*
Y-98656D02*
D03*
Y-101215D02*
D03*
Y-103774D02*
D03*
X-52261Y-96097D02*
D03*
Y-98656D02*
D03*
Y-101215D02*
D03*
Y-103774D02*
D03*
D57*
X-24000Y88500D02*
D03*
X-31200D02*
D03*
X-86800Y16300D02*
D03*
X-94000D02*
D03*
X-107300Y-27900D02*
D03*
X-114500D02*
D03*
D58*
X-58541Y81200D02*
D03*
X-61100D02*
D03*
X-63659D02*
D03*
X-66218D02*
D03*
X-58541Y92421D02*
D03*
X-61100D02*
D03*
X-63659D02*
D03*
X-66218D02*
D03*
X-100162Y7180D02*
D03*
X-102721D02*
D03*
X-105280D02*
D03*
X-107839D02*
D03*
X-100162Y18400D02*
D03*
X-102721D02*
D03*
X-105280D02*
D03*
X-107839D02*
D03*
X-61582Y-86221D02*
D03*
X-64141D02*
D03*
X-66700D02*
D03*
X-69259D02*
D03*
X-61582Y-75000D02*
D03*
X-64141D02*
D03*
X-66700D02*
D03*
X-69259D02*
D03*
D59*
X-91800Y3200D02*
D03*
Y-8600D02*
D03*
D60*
X94027Y-36184D02*
D03*
X92058D02*
D03*
X90090D02*
D03*
X88121D02*
D03*
X86153D02*
D03*
X84184D02*
D03*
X82216D02*
D03*
X80247D02*
D03*
X78279D02*
D03*
X76310D02*
D03*
X74342D02*
D03*
X72373D02*
D03*
Y-71617D02*
D03*
X74342D02*
D03*
X76310D02*
D03*
X78279D02*
D03*
X80247D02*
D03*
X82216D02*
D03*
X84184D02*
D03*
X86153D02*
D03*
X88121D02*
D03*
X90090D02*
D03*
X92058D02*
D03*
X94027D02*
D03*
D61*
X65483Y-43073D02*
D03*
Y-45042D02*
D03*
Y-47010D02*
D03*
Y-48979D02*
D03*
Y-50947D02*
D03*
Y-52916D02*
D03*
Y-54884D02*
D03*
Y-56853D02*
D03*
Y-58821D02*
D03*
Y-60790D02*
D03*
Y-62758D02*
D03*
Y-64727D02*
D03*
X100917D02*
D03*
Y-62758D02*
D03*
Y-60790D02*
D03*
Y-58821D02*
D03*
Y-56853D02*
D03*
Y-54884D02*
D03*
Y-52916D02*
D03*
Y-50947D02*
D03*
Y-48979D02*
D03*
Y-47010D02*
D03*
Y-45042D02*
D03*
Y-43073D02*
D03*
D62*
X-97920Y-34800D02*
D03*
D63*
X-105400D02*
D03*
D64*
X-101821Y-25100D02*
D03*
X-91979D02*
D03*
X45874Y83013D02*
D03*
X36031D02*
D03*
D65*
X-85000Y-8900D02*
D03*
Y-3100D02*
D03*
X63487Y73861D02*
D03*
Y79661D02*
D03*
X23413Y74191D02*
D03*
Y68392D02*
D03*
D66*
X-86740Y-20879D02*
D03*
X-83000Y-20879D02*
D03*
X-79260Y-30721D02*
D03*
X-83000D02*
D03*
X-79260Y-20879D02*
D03*
X-86740Y-30721D02*
D03*
X30653Y79770D02*
D03*
X26913Y79770D02*
D03*
X23172Y89613D02*
D03*
X26913D02*
D03*
X23172Y79770D02*
D03*
X30653Y89613D02*
D03*
D67*
X-54400Y-72400D02*
D03*
Y-65200D02*
D03*
D68*
X33900Y71280D02*
D03*
D69*
Y63800D02*
D03*
D70*
X-3891Y96600D02*
D03*
X-15309D02*
D03*
D71*
X52000Y101611D02*
D03*
Y114800D02*
D03*
D72*
X-1000Y84500D02*
D03*
Y66500D02*
D03*
D73*
X45700Y73700D02*
D03*
X39900D02*
D03*
X45853Y96513D02*
D03*
X40053D02*
D03*
D74*
X54640Y83395D02*
D03*
X50900D02*
D03*
X58380D02*
D03*
D75*
Y73552D02*
D03*
X50900D02*
D03*
D76*
X95243Y-14828D02*
D03*
X80282D02*
D03*
Y-5772D02*
D03*
X95243D02*
D03*
D77*
X61434Y-22767D02*
D03*
D78*
X57104Y-20267D02*
D03*
X52773Y-17767D02*
D03*
X37443Y-34320D02*
D03*
X46104Y-39320D02*
D03*
X50434Y-41820D02*
D03*
X41773Y-36820D02*
D03*
X48443Y-15267D02*
D03*
D79*
X15000Y110900D02*
D03*
X5000D02*
D03*
X-5000D02*
D03*
D80*
X-15000D02*
D03*
D81*
X85815Y-88638D02*
D03*
X74679Y-99773D02*
D03*
X80247Y-94205D02*
D03*
D82*
X69112Y-105341D02*
D03*
D83*
X100161Y32544D02*
D03*
X-21896Y-103014D02*
D03*
X-78264Y70469D02*
D03*
M02*
