G04*
G04 #@! TF.GenerationSoftware,Altium Limited,Altium Designer,19.1.5 (86)*
G04*
G04 Layer_Color=255*
%FSLAX25Y25*%
%MOIN*%
G70*
G01*
G75*
%ADD22R,0.02200X0.02200*%
%ADD24R,0.02200X0.02200*%
%ADD26R,0.03000X0.02000*%
%ADD27R,0.02000X0.03000*%
%ADD127C,0.05906*%
%ADD128R,0.05906X0.05906*%
G04:AMPARAMS|DCode=129|XSize=55mil|YSize=60mil|CornerRadius=0mil|HoleSize=0mil|Usage=FLASHONLY|Rotation=45.000|XOffset=0mil|YOffset=0mil|HoleType=Round|Shape=Round|*
%AMOVALD129*
21,1,0.00500,0.05500,0.00000,0.00000,135.0*
1,1,0.05500,0.00177,-0.00177*
1,1,0.05500,-0.00177,0.00177*
%
%ADD129OVALD129*%

G04:AMPARAMS|DCode=130|XSize=55mil|YSize=60mil|CornerRadius=6.88mil|HoleSize=0mil|Usage=FLASHONLY|Rotation=45.000|XOffset=0mil|YOffset=0mil|HoleType=Round|Shape=RoundedRectangle|*
%AMROUNDEDRECTD130*
21,1,0.05500,0.04625,0,0,45.0*
21,1,0.04125,0.06000,0,0,45.0*
1,1,0.01375,0.03094,-0.00177*
1,1,0.01375,0.00177,-0.03094*
1,1,0.01375,-0.03094,0.00177*
1,1,0.01375,-0.00177,0.03094*
%
%ADD130ROUNDEDRECTD130*%
%ADD131C,0.11811*%
%ADD135R,0.03200X0.03500*%
%ADD136O,0.12000X0.08000*%
%ADD137O,0.08000X0.12000*%
%ADD138R,0.02362X0.00984*%
%ADD139R,0.00984X0.02362*%
%ADD140O,0.00984X0.02362*%
%ADD141R,0.01600X0.04331*%
%ADD142O,0.01600X0.04331*%
%ADD143O,0.07000X0.01900*%
G04:AMPARAMS|DCode=144|XSize=19mil|YSize=70mil|CornerRadius=4.75mil|HoleSize=0mil|Usage=FLASHONLY|Rotation=90.000|XOffset=0mil|YOffset=0mil|HoleType=Round|Shape=RoundedRectangle|*
%AMROUNDEDRECTD144*
21,1,0.01900,0.06050,0,0,90.0*
21,1,0.00950,0.07000,0,0,90.0*
1,1,0.00950,0.03025,0.00475*
1,1,0.00950,0.03025,-0.00475*
1,1,0.00950,-0.03025,-0.00475*
1,1,0.00950,-0.03025,0.00475*
%
%ADD144ROUNDEDRECTD144*%
%ADD145R,0.02500X0.02500*%
D22*
X111820Y-20565D02*
D03*
Y-16565D02*
D03*
X120800Y5100D02*
D03*
Y9100D02*
D03*
X107520Y-20565D02*
D03*
Y-16565D02*
D03*
X116121Y-20565D02*
D03*
Y-16565D02*
D03*
X38809Y-74800D02*
D03*
Y-70800D02*
D03*
X45100Y-24100D02*
D03*
Y-28100D02*
D03*
X53694Y-29000D02*
D03*
Y-33000D02*
D03*
X78900Y-28400D02*
D03*
Y-24400D02*
D03*
D24*
X-101600Y-39300D02*
D03*
X-97600D02*
D03*
X-85300D02*
D03*
X-81300D02*
D03*
X-93400D02*
D03*
X-89400D02*
D03*
X6109Y-52600D02*
D03*
X2109D02*
D03*
X13809Y-52500D02*
D03*
X17809D02*
D03*
X6109Y-77000D02*
D03*
X2109D02*
D03*
X25509D02*
D03*
X21509D02*
D03*
X30609Y-66900D02*
D03*
X34609D02*
D03*
Y-70800D02*
D03*
X30609D02*
D03*
X34609Y-74700D02*
D03*
X30609D02*
D03*
X34609Y-63004D02*
D03*
X30609D02*
D03*
Y-59104D02*
D03*
X34609D02*
D03*
X22209Y-52500D02*
D03*
X26209D02*
D03*
X30609Y-55204D02*
D03*
X34609D02*
D03*
X-2291Y-52600D02*
D03*
X-6291D02*
D03*
X-10691Y-54950D02*
D03*
X-14691D02*
D03*
X-10691Y-58823D02*
D03*
X-14691D02*
D03*
Y-62750D02*
D03*
X-10691D02*
D03*
X-2291Y-77000D02*
D03*
X-6291D02*
D03*
X-14691Y-66691D02*
D03*
X-10691D02*
D03*
Y-70600D02*
D03*
X-14691D02*
D03*
X-10691Y-74350D02*
D03*
X-14691D02*
D03*
D26*
X-99157Y-34859D02*
D03*
X-104557D02*
D03*
D27*
X-89400Y-33900D02*
D03*
Y-28500D02*
D03*
X-81400Y-33900D02*
D03*
Y-28500D02*
D03*
D127*
X15000Y110900D02*
D03*
X5000D02*
D03*
X-5000D02*
D03*
D128*
X-15000D02*
D03*
D129*
X85815Y-88638D02*
D03*
X74679Y-99773D02*
D03*
X80247Y-94205D02*
D03*
D130*
X69112Y-105341D02*
D03*
D131*
X100161Y32544D02*
D03*
X-21896Y-103014D02*
D03*
X-78264Y70469D02*
D03*
D135*
X110100Y-51100D02*
D03*
Y-57100D02*
D03*
D136*
X-65700Y-94700D02*
D03*
D137*
X-113600Y1300D02*
D03*
X-53700Y100900D02*
D03*
D138*
X-85520Y-57221D02*
D03*
Y-55253D02*
D03*
Y-53284D02*
D03*
Y-51316D02*
D03*
Y-49347D02*
D03*
Y-47379D02*
D03*
X-100480D02*
D03*
Y-49347D02*
D03*
Y-51316D02*
D03*
Y-53284D02*
D03*
Y-55253D02*
D03*
Y-57221D02*
D03*
D139*
X-88079Y-44820D02*
D03*
X-90047D02*
D03*
X-92016D02*
D03*
X-93984D02*
D03*
X-95953D02*
D03*
X-97921D02*
D03*
Y-59780D02*
D03*
X-95953D02*
D03*
X-93984D02*
D03*
X-92016D02*
D03*
X-90047D02*
D03*
D140*
X-88079D02*
D03*
D141*
X115859Y-11465D02*
D03*
D142*
X113300D02*
D03*
X108182Y6535D02*
D03*
X113300D02*
D03*
X110741D02*
D03*
X115859D02*
D03*
X108182Y-11465D02*
D03*
X110741D02*
D03*
D143*
X21509Y-72477D02*
D03*
Y-62241D02*
D03*
X-1691Y-64800D02*
D03*
X21509Y-69918D02*
D03*
Y-67359D02*
D03*
X-1691Y-69918D02*
D03*
Y-59682D02*
D03*
Y-57123D02*
D03*
Y-67359D02*
D03*
X21509Y-64800D02*
D03*
X-1691Y-62241D02*
D03*
X21509Y-57123D02*
D03*
Y-59682D02*
D03*
D144*
X-1691Y-72477D02*
D03*
D145*
X78869Y-34918D02*
D03*
Y-39118D02*
D03*
M02*
