G04*
G04 #@! TF.GenerationSoftware,Altium Limited,Altium Designer,19.1.5 (86)*
G04*
G04 Layer_Color=2752767*
%FSLAX25Y25*%
%MOIN*%
G70*
G01*
G75*
%ADD10C,0.01000*%
%ADD14C,0.01600*%
%ADD90C,0.01500*%
%ADD161C,0.00200*%
D10*
X157496Y-71317D02*
G03*
X157496Y-71317I-3333J0D01*
G01*
X154163Y-44650D02*
X157496Y-37983D01*
X150829D02*
X157496D01*
X150829D02*
X154163Y-44650D01*
X150829Y-59650D02*
X157496D01*
Y-52983D01*
X150829D02*
X157496D01*
X150829Y-59650D02*
Y-52983D01*
Y-89650D02*
X154163Y-87983D01*
X157496Y-89650D01*
X155829Y-86317D02*
X157496Y-89650D01*
X155829Y-86317D02*
X157496Y-82983D01*
X154163Y-84650D02*
X157496Y-82983D01*
X150829D02*
X154163Y-84650D01*
X150829Y-82983D02*
X152496Y-86317D01*
X150829Y-89650D02*
X152496Y-86317D01*
Y-102983D02*
X154163Y-104650D01*
X150829Y-102983D02*
X152496D01*
X150829D02*
X152496Y-101317D01*
X150829Y-99650D02*
X152496Y-101317D01*
X150829Y-99650D02*
X152496D01*
X154163Y-97983D01*
X155829Y-99650D01*
X157496D01*
X155829Y-101317D02*
X157496Y-99650D01*
X155829Y-101317D02*
X157496Y-102983D01*
X155829D02*
X157496D01*
X154163Y-104650D02*
X155829Y-102983D01*
X1295530Y-41651D02*
X1299529D01*
X1295530Y-56651D02*
X1299529D01*
X1295530Y-71651D02*
X1299529D01*
X1295530Y-86651D02*
X1299529D01*
X1295530Y-101651D02*
X1299529D01*
X1208954Y-41651D02*
X1212953D01*
X1208954Y-56651D02*
X1212953D01*
X1208954Y-71651D02*
X1212953D01*
X1208954Y-86651D02*
X1212953D01*
X1208954Y-101651D02*
X1212953D01*
X785876Y-40651D02*
X782877D01*
X781877Y-41651D01*
Y-43650D01*
X782877Y-44650D01*
X785876D01*
X787875Y-39652D02*
X788875Y-38652D01*
X790874D01*
X791874Y-39652D01*
Y-40651D01*
X790874Y-41651D01*
X789875D01*
X790874D01*
X791874Y-42651D01*
Y-43650D01*
X790874Y-44650D01*
X788875D01*
X787875Y-43650D01*
X793873Y-39652D02*
X794873Y-38652D01*
X796872D01*
X797872Y-39652D01*
Y-43650D01*
X796872Y-44650D01*
X794873D01*
X793873Y-43650D01*
Y-39652D01*
X799871D02*
X800871Y-38652D01*
X802870D01*
X803870Y-39652D01*
Y-43650D01*
X802870Y-44650D01*
X800871D01*
X799871Y-43650D01*
Y-39652D01*
X805869Y-38652D02*
Y-44650D01*
Y-41651D01*
X806869Y-40651D01*
X808869D01*
X809868Y-41651D01*
Y-44650D01*
X815866D02*
X811868D01*
X815866Y-40651D01*
Y-39652D01*
X814867Y-38652D01*
X812867D01*
X811868Y-39652D01*
X817865Y-44650D02*
X819865D01*
X818865D01*
Y-38652D01*
X817865Y-39652D01*
X822864D02*
X823864Y-38652D01*
X825863D01*
X826863Y-39652D01*
Y-43650D01*
X825863Y-44650D01*
X823864D01*
X822864Y-43650D01*
Y-39652D01*
X783877Y-59650D02*
X781877Y-57651D01*
Y-55651D01*
X783877Y-53652D01*
X786876Y-59650D02*
Y-53652D01*
X788875Y-55651D01*
X790874Y-53652D01*
Y-59650D01*
X792874D02*
X794873D01*
X793873D01*
Y-55651D01*
X792874D01*
X797872D02*
X801871Y-59650D01*
X799871Y-57651D01*
X801871Y-55651D01*
X797872Y-59650D01*
X806869D02*
X804870D01*
X803870Y-58650D01*
Y-56651D01*
X804870Y-55651D01*
X806869D01*
X807869Y-56651D01*
Y-57651D01*
X803870D01*
X813867Y-53652D02*
Y-59650D01*
X810868D01*
X809868Y-58650D01*
Y-56651D01*
X810868Y-55651D01*
X813867D01*
X815866Y-59650D02*
X817865Y-57651D01*
Y-55651D01*
X815866Y-53652D01*
X783877Y-74650D02*
X781877Y-72651D01*
Y-70651D01*
X783877Y-68652D01*
X786876Y-74650D02*
Y-68652D01*
X788875Y-70651D01*
X790874Y-68652D01*
Y-74650D01*
X792874D02*
X794873D01*
X793873D01*
Y-70651D01*
X792874D01*
X797872D02*
X801871Y-74650D01*
X799871Y-72651D01*
X801871Y-70651D01*
X797872Y-74650D01*
X806869D02*
X804870D01*
X803870Y-73650D01*
Y-71651D01*
X804870Y-70651D01*
X806869D01*
X807869Y-71651D01*
Y-72651D01*
X803870D01*
X813867Y-68652D02*
Y-74650D01*
X810868D01*
X809868Y-73650D01*
Y-71651D01*
X810868Y-70651D01*
X813867D01*
X815866Y-74650D02*
X817865Y-72651D01*
Y-70651D01*
X815866Y-68652D01*
X781877Y-85651D02*
X783877Y-89650D01*
X785876Y-85651D01*
X787875Y-84652D02*
X788875Y-83652D01*
X790874D01*
X791874Y-84652D01*
Y-85651D01*
X790874Y-86651D01*
X791874Y-87651D01*
Y-88650D01*
X790874Y-89650D01*
X788875D01*
X787875Y-88650D01*
Y-87651D01*
X788875Y-86651D01*
X787875Y-85651D01*
Y-84652D01*
X788875Y-86651D02*
X790874D01*
X793873Y-84652D02*
X794873Y-83652D01*
X796872D01*
X797872Y-84652D01*
Y-88650D01*
X796872Y-89650D01*
X794873D01*
X793873Y-88650D01*
Y-84652D01*
X799871Y-83652D02*
Y-89650D01*
Y-86651D01*
X800871Y-85651D01*
X802870D01*
X803870Y-86651D01*
Y-89650D01*
X809868Y-83652D02*
X805869D01*
Y-86651D01*
X807869Y-85651D01*
X808869D01*
X809868Y-86651D01*
Y-88650D01*
X808869Y-89650D01*
X806869D01*
X805869Y-88650D01*
X811868Y-84652D02*
X812867Y-83652D01*
X814867D01*
X815866Y-84652D01*
Y-88650D01*
X814867Y-89650D01*
X812867D01*
X811868Y-88650D01*
Y-84652D01*
X817865Y-89650D02*
Y-85651D01*
X818865D01*
X819865Y-86651D01*
Y-89650D01*
Y-86651D01*
X820865Y-85651D01*
X821864Y-86651D01*
Y-89650D01*
X823864Y-84652D02*
X824863Y-83652D01*
X826863D01*
X827862Y-84652D01*
Y-88650D01*
X826863Y-89650D01*
X824863D01*
X823864Y-88650D01*
Y-84652D01*
X829862Y-89650D02*
Y-85651D01*
X830861D01*
X831861Y-86651D01*
Y-89650D01*
Y-86651D01*
X832861Y-85651D01*
X833860Y-86651D01*
Y-89650D01*
X835860Y-85651D02*
X839858Y-89650D01*
X837859Y-87651D01*
X839858Y-85651D01*
X835860Y-89650D01*
X841858Y-84652D02*
X842857Y-83652D01*
X844857D01*
X845856Y-84652D01*
Y-88650D01*
X844857Y-89650D01*
X842857D01*
X841858Y-88650D01*
Y-84652D01*
X781877Y-100651D02*
X783877Y-104650D01*
X785876Y-100651D01*
X791874Y-98652D02*
X787875D01*
Y-101651D01*
X789875Y-100651D01*
X790874D01*
X791874Y-101651D01*
Y-103650D01*
X790874Y-104650D01*
X788875D01*
X787875Y-103650D01*
X793873Y-99652D02*
X794873Y-98652D01*
X796872D01*
X797872Y-99652D01*
Y-103650D01*
X796872Y-104650D01*
X794873D01*
X793873Y-103650D01*
Y-99652D01*
X799871Y-98652D02*
Y-104650D01*
Y-101651D01*
X800871Y-100651D01*
X802870D01*
X803870Y-101651D01*
Y-104650D01*
X805869Y-99652D02*
X806869Y-98652D01*
X808869D01*
X809868Y-99652D01*
Y-100651D01*
X808869Y-101651D01*
X807869D01*
X808869D01*
X809868Y-102651D01*
Y-103650D01*
X808869Y-104650D01*
X806869D01*
X805869Y-103650D01*
X811868Y-99652D02*
X812867Y-98652D01*
X814867D01*
X815866Y-99652D01*
Y-103650D01*
X814867Y-104650D01*
X812867D01*
X811868Y-103650D01*
Y-99652D01*
X817865Y-104650D02*
Y-100651D01*
X818865D01*
X819865Y-101651D01*
Y-104650D01*
Y-101651D01*
X820865Y-100651D01*
X821864Y-101651D01*
Y-104650D01*
X823864Y-99652D02*
X824863Y-98652D01*
X826863D01*
X827862Y-99652D01*
Y-103650D01*
X826863Y-104650D01*
X824863D01*
X823864Y-103650D01*
Y-99652D01*
X829862Y-104650D02*
Y-100651D01*
X830861D01*
X831861Y-101651D01*
Y-104650D01*
Y-101651D01*
X832861Y-100651D01*
X833860Y-101651D01*
Y-104650D01*
X835860Y-100651D02*
X839858Y-104650D01*
X837859Y-102651D01*
X839858Y-100651D01*
X835860Y-104650D01*
X841858Y-99652D02*
X842857Y-98652D01*
X844857D01*
X845856Y-99652D01*
Y-103650D01*
X844857Y-104650D01*
X842857D01*
X841858Y-103650D01*
Y-99652D01*
X707297Y-44650D02*
Y-38652D01*
X710296D01*
X711296Y-39652D01*
Y-41651D01*
X710296Y-42651D01*
X707297D01*
X709297D02*
X711296Y-44650D01*
X714295D02*
X716294D01*
X717294Y-43650D01*
Y-41651D01*
X716294Y-40651D01*
X714295D01*
X713295Y-41651D01*
Y-43650D01*
X714295Y-44650D01*
X719293Y-40651D02*
Y-43650D01*
X720293Y-44650D01*
X723292D01*
Y-40651D01*
X725292Y-44650D02*
Y-40651D01*
X728291D01*
X729290Y-41651D01*
Y-44650D01*
X735288Y-38652D02*
Y-44650D01*
X732289D01*
X731290Y-43650D01*
Y-41651D01*
X732289Y-40651D01*
X735288D01*
X740287Y-44650D02*
X738287D01*
X737288Y-43650D01*
Y-41651D01*
X738287Y-40651D01*
X740287D01*
X741286Y-41651D01*
Y-42651D01*
X737288D01*
X747285Y-38652D02*
Y-44650D01*
X744285D01*
X743286Y-43650D01*
Y-41651D01*
X744285Y-40651D01*
X747285D01*
X709297Y-59650D02*
X707297Y-57651D01*
Y-55651D01*
X709297Y-53652D01*
X712296Y-59650D02*
Y-53652D01*
X714295Y-55651D01*
X716294Y-53652D01*
Y-59650D01*
X718294D02*
X720293D01*
X719293D01*
Y-55651D01*
X718294D01*
X723292D02*
X727291Y-59650D01*
X725292Y-57651D01*
X727291Y-55651D01*
X723292Y-59650D01*
X732289D02*
X730290D01*
X729290Y-58650D01*
Y-56651D01*
X730290Y-55651D01*
X732289D01*
X733289Y-56651D01*
Y-57651D01*
X729290D01*
X739287Y-53652D02*
Y-59650D01*
X736288D01*
X735288Y-58650D01*
Y-56651D01*
X736288Y-55651D01*
X739287D01*
X741286Y-59650D02*
X743286Y-57651D01*
Y-55651D01*
X741286Y-53652D01*
X709297Y-74650D02*
X707297Y-72651D01*
Y-70651D01*
X709297Y-68652D01*
X712296Y-74650D02*
Y-68652D01*
X714295Y-70651D01*
X716294Y-68652D01*
Y-74650D01*
X718294D02*
X720293D01*
X719293D01*
Y-70651D01*
X718294D01*
X723292D02*
X727291Y-74650D01*
X725292Y-72651D01*
X727291Y-70651D01*
X723292Y-74650D01*
X732289D02*
X730290D01*
X729290Y-73650D01*
Y-71651D01*
X730290Y-70651D01*
X732289D01*
X733289Y-71651D01*
Y-72651D01*
X729290D01*
X739287Y-68652D02*
Y-74650D01*
X736288D01*
X735288Y-73650D01*
Y-71651D01*
X736288Y-70651D01*
X739287D01*
X741286Y-74650D02*
X743286Y-72651D01*
Y-70651D01*
X741286Y-68652D01*
X707297Y-89650D02*
Y-83652D01*
X710296D01*
X711296Y-84652D01*
Y-86651D01*
X710296Y-87651D01*
X707297D01*
X709297D02*
X711296Y-89650D01*
X714295D02*
X716294D01*
X717294Y-88650D01*
Y-86651D01*
X716294Y-85651D01*
X714295D01*
X713295Y-86651D01*
Y-88650D01*
X714295Y-89650D01*
X719293Y-85651D02*
Y-88650D01*
X720293Y-89650D01*
X723292D01*
Y-85651D01*
X725292Y-89650D02*
Y-85651D01*
X728291D01*
X729290Y-86651D01*
Y-89650D01*
X735288Y-83652D02*
Y-89650D01*
X732289D01*
X731290Y-88650D01*
Y-86651D01*
X732289Y-85651D01*
X735288D01*
X740287Y-89650D02*
X738287D01*
X737288Y-88650D01*
Y-86651D01*
X738287Y-85651D01*
X740287D01*
X741286Y-86651D01*
Y-87651D01*
X737288D01*
X747285Y-83652D02*
Y-89650D01*
X744285D01*
X743286Y-88650D01*
Y-86651D01*
X744285Y-85651D01*
X747285D01*
X707297Y-104650D02*
Y-98652D01*
X710296D01*
X711296Y-99652D01*
Y-101651D01*
X710296Y-102651D01*
X707297D01*
X709297D02*
X711296Y-104650D01*
X714295D02*
X716294D01*
X717294Y-103650D01*
Y-101651D01*
X716294Y-100651D01*
X714295D01*
X713295Y-101651D01*
Y-103650D01*
X714295Y-104650D01*
X719293Y-100651D02*
Y-103650D01*
X720293Y-104650D01*
X723292D01*
Y-100651D01*
X725292Y-104650D02*
Y-100651D01*
X728291D01*
X729290Y-101651D01*
Y-104650D01*
X735288Y-98652D02*
Y-104650D01*
X732289D01*
X731290Y-103650D01*
Y-101651D01*
X732289Y-100651D01*
X735288D01*
X740287Y-104650D02*
X738287D01*
X737288Y-103650D01*
Y-101651D01*
X738287Y-100651D01*
X740287D01*
X741286Y-101651D01*
Y-102651D01*
X737288D01*
X747285Y-98652D02*
Y-104650D01*
X744285D01*
X743286Y-103650D01*
Y-101651D01*
X744285Y-100651D01*
X747285D01*
X648313Y-44650D02*
Y-38652D01*
X651311D01*
X652311Y-39652D01*
Y-41651D01*
X651311Y-42651D01*
X648313D01*
X655310Y-40651D02*
X657310D01*
X658309Y-41651D01*
Y-44650D01*
X655310D01*
X654311Y-43650D01*
X655310Y-42651D01*
X658309D01*
X664307Y-38652D02*
Y-44650D01*
X661308D01*
X660309Y-43650D01*
Y-41651D01*
X661308Y-40651D01*
X664307D01*
X648313Y-59650D02*
Y-53652D01*
X651311D01*
X652311Y-54652D01*
Y-56651D01*
X651311Y-57651D01*
X648313D01*
X655310Y-55651D02*
X657310D01*
X658309Y-56651D01*
Y-59650D01*
X655310D01*
X654311Y-58650D01*
X655310Y-57651D01*
X658309D01*
X664307Y-53652D02*
Y-59650D01*
X661308D01*
X660309Y-58650D01*
Y-56651D01*
X661308Y-55651D01*
X664307D01*
X648313Y-74650D02*
Y-68652D01*
X651311D01*
X652311Y-69652D01*
Y-71651D01*
X651311Y-72651D01*
X648313D01*
X655310Y-70651D02*
X657310D01*
X658309Y-71651D01*
Y-74650D01*
X655310D01*
X654311Y-73650D01*
X655310Y-72651D01*
X658309D01*
X664307Y-68652D02*
Y-74650D01*
X661308D01*
X660309Y-73650D01*
Y-71651D01*
X661308Y-70651D01*
X664307D01*
X648313Y-83652D02*
Y-87651D01*
X650312Y-89650D01*
X652311Y-87651D01*
Y-83652D01*
X654311Y-89650D02*
X656310D01*
X655310D01*
Y-85651D01*
X654311D01*
X660309D02*
X662308D01*
X663308Y-86651D01*
Y-89650D01*
X660309D01*
X659309Y-88650D01*
X660309Y-87651D01*
X663308D01*
X648313Y-98652D02*
Y-102651D01*
X650312Y-104650D01*
X652311Y-102651D01*
Y-98652D01*
X654311Y-104650D02*
X656310D01*
X655310D01*
Y-100651D01*
X654311D01*
X660309D02*
X662308D01*
X663308Y-101651D01*
Y-104650D01*
X660309D01*
X659309Y-103650D01*
X660309Y-102651D01*
X663308D01*
X498357Y-38652D02*
X502356D01*
X500357D01*
Y-44650D01*
X505355D02*
X507355D01*
X508354Y-43650D01*
Y-41651D01*
X507355Y-40651D01*
X505355D01*
X504355Y-41651D01*
Y-43650D01*
X505355Y-44650D01*
X510354Y-46649D02*
Y-40651D01*
X513353D01*
X514352Y-41651D01*
Y-43650D01*
X513353Y-44650D01*
X510354D01*
X522350Y-38652D02*
Y-44650D01*
X526348D01*
X529348Y-40651D02*
X531347D01*
X532346Y-41651D01*
Y-44650D01*
X529348D01*
X528348Y-43650D01*
X529348Y-42651D01*
X532346D01*
X534346Y-40651D02*
Y-43650D01*
X535346Y-44650D01*
X538344D01*
Y-45650D01*
X537345Y-46649D01*
X536345D01*
X538344Y-44650D02*
Y-40651D01*
X543343Y-44650D02*
X541344D01*
X540344Y-43650D01*
Y-41651D01*
X541344Y-40651D01*
X543343D01*
X544343Y-41651D01*
Y-42651D01*
X540344D01*
X546342Y-40651D02*
Y-44650D01*
Y-42651D01*
X547342Y-41651D01*
X548341Y-40651D01*
X549341D01*
X558338Y-41651D02*
X562337D01*
X570334Y-38652D02*
Y-44650D01*
X573333D01*
X574333Y-43650D01*
Y-42651D01*
X573333Y-41651D01*
X570334D01*
X573333D01*
X574333Y-40651D01*
Y-39652D01*
X573333Y-38652D01*
X570334D01*
X577332Y-44650D02*
X579331D01*
X580331Y-43650D01*
Y-41651D01*
X579331Y-40651D01*
X577332D01*
X576332Y-41651D01*
Y-43650D01*
X577332Y-44650D01*
X583330Y-39652D02*
Y-40651D01*
X582330D01*
X584330D01*
X583330D01*
Y-43650D01*
X584330Y-44650D01*
X588328Y-39652D02*
Y-40651D01*
X587329D01*
X589328D01*
X588328D01*
Y-43650D01*
X589328Y-44650D01*
X593327D02*
X595326D01*
X596326Y-43650D01*
Y-41651D01*
X595326Y-40651D01*
X593327D01*
X592327Y-41651D01*
Y-43650D01*
X593327Y-44650D01*
X598325D02*
Y-40651D01*
X599325D01*
X600324Y-41651D01*
Y-44650D01*
Y-41651D01*
X601324Y-40651D01*
X602324Y-41651D01*
Y-44650D01*
X610321Y-38652D02*
Y-44650D01*
X614320D01*
X617319Y-40651D02*
X619318D01*
X620318Y-41651D01*
Y-44650D01*
X617319D01*
X616319Y-43650D01*
X617319Y-42651D01*
X620318D01*
X622317Y-40651D02*
Y-43650D01*
X623317Y-44650D01*
X626316D01*
Y-45650D01*
X625316Y-46649D01*
X624317D01*
X626316Y-44650D02*
Y-40651D01*
X631315Y-44650D02*
X629315D01*
X628315Y-43650D01*
Y-41651D01*
X629315Y-40651D01*
X631315D01*
X632314Y-41651D01*
Y-42651D01*
X628315D01*
X634313Y-40651D02*
Y-44650D01*
Y-42651D01*
X635313Y-41651D01*
X636313Y-40651D01*
X637313D01*
X498357Y-53652D02*
X502356D01*
X500357D01*
Y-59650D01*
X505355D02*
X507355D01*
X508354Y-58650D01*
Y-56651D01*
X507355Y-55651D01*
X505355D01*
X504355Y-56651D01*
Y-58650D01*
X505355Y-59650D01*
X510354Y-61649D02*
Y-55651D01*
X513353D01*
X514352Y-56651D01*
Y-58650D01*
X513353Y-59650D01*
X510354D01*
X522350Y-53652D02*
Y-59650D01*
X526348D01*
X529348Y-55651D02*
X531347D01*
X532346Y-56651D01*
Y-59650D01*
X529348D01*
X528348Y-58650D01*
X529348Y-57651D01*
X532346D01*
X534346Y-55651D02*
Y-58650D01*
X535346Y-59650D01*
X538344D01*
Y-60650D01*
X537345Y-61649D01*
X536345D01*
X538344Y-59650D02*
Y-55651D01*
X543343Y-59650D02*
X541344D01*
X540344Y-58650D01*
Y-56651D01*
X541344Y-55651D01*
X543343D01*
X544343Y-56651D01*
Y-57651D01*
X540344D01*
X546342Y-55651D02*
Y-59650D01*
Y-57651D01*
X547342Y-56651D01*
X548341Y-55651D01*
X549341D01*
X558338Y-56651D02*
X562337D01*
X570334Y-53652D02*
Y-59650D01*
X573333D01*
X574333Y-58650D01*
Y-57651D01*
X573333Y-56651D01*
X570334D01*
X573333D01*
X574333Y-55651D01*
Y-54652D01*
X573333Y-53652D01*
X570334D01*
X577332Y-59650D02*
X579331D01*
X580331Y-58650D01*
Y-56651D01*
X579331Y-55651D01*
X577332D01*
X576332Y-56651D01*
Y-58650D01*
X577332Y-59650D01*
X583330Y-54652D02*
Y-55651D01*
X582330D01*
X584330D01*
X583330D01*
Y-58650D01*
X584330Y-59650D01*
X588328Y-54652D02*
Y-55651D01*
X587329D01*
X589328D01*
X588328D01*
Y-58650D01*
X589328Y-59650D01*
X593327D02*
X595326D01*
X596326Y-58650D01*
Y-56651D01*
X595326Y-55651D01*
X593327D01*
X592327Y-56651D01*
Y-58650D01*
X593327Y-59650D01*
X598325D02*
Y-55651D01*
X599325D01*
X600324Y-56651D01*
Y-59650D01*
Y-56651D01*
X601324Y-55651D01*
X602324Y-56651D01*
Y-59650D01*
X610321Y-53652D02*
Y-59650D01*
X614320D01*
X617319Y-55651D02*
X619318D01*
X620318Y-56651D01*
Y-59650D01*
X617319D01*
X616319Y-58650D01*
X617319Y-57651D01*
X620318D01*
X622317Y-55651D02*
Y-58650D01*
X623317Y-59650D01*
X626316D01*
Y-60650D01*
X625316Y-61649D01*
X624317D01*
X626316Y-59650D02*
Y-55651D01*
X631315Y-59650D02*
X629315D01*
X628315Y-58650D01*
Y-56651D01*
X629315Y-55651D01*
X631315D01*
X632314Y-56651D01*
Y-57651D01*
X628315D01*
X634313Y-55651D02*
Y-59650D01*
Y-57651D01*
X635313Y-56651D01*
X636313Y-55651D01*
X637313D01*
X498357Y-68652D02*
X502356D01*
X500357D01*
Y-74650D01*
X505355D02*
X507355D01*
X508354Y-73650D01*
Y-71651D01*
X507355Y-70651D01*
X505355D01*
X504355Y-71651D01*
Y-73650D01*
X505355Y-74650D01*
X510354Y-76649D02*
Y-70651D01*
X513353D01*
X514352Y-71651D01*
Y-73650D01*
X513353Y-74650D01*
X510354D01*
X522350Y-68652D02*
Y-74650D01*
X526348D01*
X529348Y-70651D02*
X531347D01*
X532346Y-71651D01*
Y-74650D01*
X529348D01*
X528348Y-73650D01*
X529348Y-72651D01*
X532346D01*
X534346Y-70651D02*
Y-73650D01*
X535346Y-74650D01*
X538344D01*
Y-75650D01*
X537345Y-76649D01*
X536345D01*
X538344Y-74650D02*
Y-70651D01*
X543343Y-74650D02*
X541344D01*
X540344Y-73650D01*
Y-71651D01*
X541344Y-70651D01*
X543343D01*
X544343Y-71651D01*
Y-72651D01*
X540344D01*
X546342Y-70651D02*
Y-74650D01*
Y-72651D01*
X547342Y-71651D01*
X548341Y-70651D01*
X549341D01*
X558338Y-71651D02*
X562337D01*
X570334Y-68652D02*
Y-74650D01*
X573333D01*
X574333Y-73650D01*
Y-72651D01*
X573333Y-71651D01*
X570334D01*
X573333D01*
X574333Y-70651D01*
Y-69652D01*
X573333Y-68652D01*
X570334D01*
X577332Y-74650D02*
X579331D01*
X580331Y-73650D01*
Y-71651D01*
X579331Y-70651D01*
X577332D01*
X576332Y-71651D01*
Y-73650D01*
X577332Y-74650D01*
X583330Y-69652D02*
Y-70651D01*
X582330D01*
X584330D01*
X583330D01*
Y-73650D01*
X584330Y-74650D01*
X588328Y-69652D02*
Y-70651D01*
X587329D01*
X589328D01*
X588328D01*
Y-73650D01*
X589328Y-74650D01*
X593327D02*
X595326D01*
X596326Y-73650D01*
Y-71651D01*
X595326Y-70651D01*
X593327D01*
X592327Y-71651D01*
Y-73650D01*
X593327Y-74650D01*
X598325D02*
Y-70651D01*
X599325D01*
X600324Y-71651D01*
Y-74650D01*
Y-71651D01*
X601324Y-70651D01*
X602324Y-71651D01*
Y-74650D01*
X610321Y-68652D02*
Y-74650D01*
X614320D01*
X617319Y-70651D02*
X619318D01*
X620318Y-71651D01*
Y-74650D01*
X617319D01*
X616319Y-73650D01*
X617319Y-72651D01*
X620318D01*
X622317Y-70651D02*
Y-73650D01*
X623317Y-74650D01*
X626316D01*
Y-75650D01*
X625316Y-76649D01*
X624317D01*
X626316Y-74650D02*
Y-70651D01*
X631315Y-74650D02*
X629315D01*
X628315Y-73650D01*
Y-71651D01*
X629315Y-70651D01*
X631315D01*
X632314Y-71651D01*
Y-72651D01*
X628315D01*
X634313Y-70651D02*
Y-74650D01*
Y-72651D01*
X635313Y-71651D01*
X636313Y-70651D01*
X637313D01*
X498357Y-83652D02*
X502356D01*
X500357D01*
Y-89650D01*
X505355D02*
X507355D01*
X508354Y-88650D01*
Y-86651D01*
X507355Y-85651D01*
X505355D01*
X504355Y-86651D01*
Y-88650D01*
X505355Y-89650D01*
X510354Y-91649D02*
Y-85651D01*
X513353D01*
X514352Y-86651D01*
Y-88650D01*
X513353Y-89650D01*
X510354D01*
X522350Y-83652D02*
Y-89650D01*
X526348D01*
X529348Y-85651D02*
X531347D01*
X532346Y-86651D01*
Y-89650D01*
X529348D01*
X528348Y-88650D01*
X529348Y-87651D01*
X532346D01*
X534346Y-85651D02*
Y-88650D01*
X535346Y-89650D01*
X538344D01*
Y-90650D01*
X537345Y-91649D01*
X536345D01*
X538344Y-89650D02*
Y-85651D01*
X543343Y-89650D02*
X541344D01*
X540344Y-88650D01*
Y-86651D01*
X541344Y-85651D01*
X543343D01*
X544343Y-86651D01*
Y-87651D01*
X540344D01*
X546342Y-85651D02*
Y-89650D01*
Y-87651D01*
X547342Y-86651D01*
X548341Y-85651D01*
X549341D01*
X558338Y-86651D02*
X562337D01*
X570334Y-83652D02*
Y-89650D01*
X573333D01*
X574333Y-88650D01*
Y-87651D01*
X573333Y-86651D01*
X570334D01*
X573333D01*
X574333Y-85651D01*
Y-84652D01*
X573333Y-83652D01*
X570334D01*
X577332Y-89650D02*
X579331D01*
X580331Y-88650D01*
Y-86651D01*
X579331Y-85651D01*
X577332D01*
X576332Y-86651D01*
Y-88650D01*
X577332Y-89650D01*
X583330Y-84652D02*
Y-85651D01*
X582330D01*
X584330D01*
X583330D01*
Y-88650D01*
X584330Y-89650D01*
X588328Y-84652D02*
Y-85651D01*
X587329D01*
X589328D01*
X588328D01*
Y-88650D01*
X589328Y-89650D01*
X593327D02*
X595326D01*
X596326Y-88650D01*
Y-86651D01*
X595326Y-85651D01*
X593327D01*
X592327Y-86651D01*
Y-88650D01*
X593327Y-89650D01*
X598325D02*
Y-85651D01*
X599325D01*
X600324Y-86651D01*
Y-89650D01*
Y-86651D01*
X601324Y-85651D01*
X602324Y-86651D01*
Y-89650D01*
X610321Y-83652D02*
Y-89650D01*
X614320D01*
X617319Y-85651D02*
X619318D01*
X620318Y-86651D01*
Y-89650D01*
X617319D01*
X616319Y-88650D01*
X617319Y-87651D01*
X620318D01*
X622317Y-85651D02*
Y-88650D01*
X623317Y-89650D01*
X626316D01*
Y-90650D01*
X625316Y-91649D01*
X624317D01*
X626316Y-89650D02*
Y-85651D01*
X631315Y-89650D02*
X629315D01*
X628315Y-88650D01*
Y-86651D01*
X629315Y-85651D01*
X631315D01*
X632314Y-86651D01*
Y-87651D01*
X628315D01*
X634313Y-85651D02*
Y-89650D01*
Y-87651D01*
X635313Y-86651D01*
X636313Y-85651D01*
X637313D01*
X498357Y-98652D02*
X502356D01*
X500357D01*
Y-104650D01*
X505355D02*
X507355D01*
X508354Y-103650D01*
Y-101651D01*
X507355Y-100651D01*
X505355D01*
X504355Y-101651D01*
Y-103650D01*
X505355Y-104650D01*
X510354Y-106649D02*
Y-100651D01*
X513353D01*
X514352Y-101651D01*
Y-103650D01*
X513353Y-104650D01*
X510354D01*
X522350Y-98652D02*
Y-104650D01*
X526348D01*
X529348Y-100651D02*
X531347D01*
X532346Y-101651D01*
Y-104650D01*
X529348D01*
X528348Y-103650D01*
X529348Y-102651D01*
X532346D01*
X534346Y-100651D02*
Y-103650D01*
X535346Y-104650D01*
X538344D01*
Y-105650D01*
X537345Y-106649D01*
X536345D01*
X538344Y-104650D02*
Y-100651D01*
X543343Y-104650D02*
X541344D01*
X540344Y-103650D01*
Y-101651D01*
X541344Y-100651D01*
X543343D01*
X544343Y-101651D01*
Y-102651D01*
X540344D01*
X546342Y-100651D02*
Y-104650D01*
Y-102651D01*
X547342Y-101651D01*
X548341Y-100651D01*
X549341D01*
X558338Y-101651D02*
X562337D01*
X570334Y-98652D02*
Y-104650D01*
X573333D01*
X574333Y-103650D01*
Y-102651D01*
X573333Y-101651D01*
X570334D01*
X573333D01*
X574333Y-100651D01*
Y-99652D01*
X573333Y-98652D01*
X570334D01*
X577332Y-104650D02*
X579331D01*
X580331Y-103650D01*
Y-101651D01*
X579331Y-100651D01*
X577332D01*
X576332Y-101651D01*
Y-103650D01*
X577332Y-104650D01*
X583330Y-99652D02*
Y-100651D01*
X582330D01*
X584330D01*
X583330D01*
Y-103650D01*
X584330Y-104650D01*
X588328Y-99652D02*
Y-100651D01*
X587329D01*
X589328D01*
X588328D01*
Y-103650D01*
X589328Y-104650D01*
X593327D02*
X595326D01*
X596326Y-103650D01*
Y-101651D01*
X595326Y-100651D01*
X593327D01*
X592327Y-101651D01*
Y-103650D01*
X593327Y-104650D01*
X598325D02*
Y-100651D01*
X599325D01*
X600324Y-101651D01*
Y-104650D01*
Y-101651D01*
X601324Y-100651D01*
X602324Y-101651D01*
Y-104650D01*
X610321Y-98652D02*
Y-104650D01*
X614320D01*
X617319Y-100651D02*
X619318D01*
X620318Y-101651D01*
Y-104650D01*
X617319D01*
X616319Y-103650D01*
X617319Y-102651D01*
X620318D01*
X622317Y-100651D02*
Y-103650D01*
X623317Y-104650D01*
X626316D01*
Y-105650D01*
X625316Y-106649D01*
X624317D01*
X626316Y-104650D02*
Y-100651D01*
X631315Y-104650D02*
X629315D01*
X628315Y-103650D01*
Y-101651D01*
X629315Y-100651D01*
X631315D01*
X632314Y-101651D01*
Y-102651D01*
X628315D01*
X634313Y-100651D02*
Y-104650D01*
Y-102651D01*
X635313Y-101651D01*
X636313Y-100651D01*
X637313D01*
X424977Y-44650D02*
Y-38652D01*
X427976D01*
X428976Y-39652D01*
Y-41651D01*
X427976Y-42651D01*
X424977D01*
X426977D02*
X428976Y-44650D01*
X431975D02*
X433974D01*
X434974Y-43650D01*
Y-41651D01*
X433974Y-40651D01*
X431975D01*
X430975Y-41651D01*
Y-43650D01*
X431975Y-44650D01*
X436973Y-40651D02*
Y-43650D01*
X437973Y-44650D01*
X440972D01*
Y-40651D01*
X442972Y-44650D02*
Y-40651D01*
X445970D01*
X446970Y-41651D01*
Y-44650D01*
X452968Y-38652D02*
Y-44650D01*
X449969D01*
X448970Y-43650D01*
Y-41651D01*
X449969Y-40651D01*
X452968D01*
X424977Y-59650D02*
Y-53652D01*
X427976D01*
X428976Y-54652D01*
Y-56651D01*
X427976Y-57651D01*
X424977D01*
X426977D02*
X428976Y-59650D01*
X431975D02*
X433974D01*
X434974Y-58650D01*
Y-56651D01*
X433974Y-55651D01*
X431975D01*
X430975Y-56651D01*
Y-58650D01*
X431975Y-59650D01*
X436973Y-55651D02*
Y-58650D01*
X437973Y-59650D01*
X440972D01*
Y-55651D01*
X442972Y-59650D02*
Y-55651D01*
X445970D01*
X446970Y-56651D01*
Y-59650D01*
X452968Y-53652D02*
Y-59650D01*
X449969D01*
X448970Y-58650D01*
Y-56651D01*
X449969Y-55651D01*
X452968D01*
X424977Y-74650D02*
Y-68652D01*
X427976D01*
X428976Y-69652D01*
Y-71651D01*
X427976Y-72651D01*
X424977D01*
X426977D02*
X428976Y-74650D01*
X431975D02*
X433974D01*
X434974Y-73650D01*
Y-71651D01*
X433974Y-70651D01*
X431975D01*
X430975Y-71651D01*
Y-73650D01*
X431975Y-74650D01*
X436973Y-70651D02*
Y-73650D01*
X437973Y-74650D01*
X440972D01*
Y-70651D01*
X442972Y-74650D02*
Y-70651D01*
X445970D01*
X446970Y-71651D01*
Y-74650D01*
X452968Y-68652D02*
Y-74650D01*
X449969D01*
X448970Y-73650D01*
Y-71651D01*
X449969Y-70651D01*
X452968D01*
X424977Y-89650D02*
Y-83652D01*
X427976D01*
X428976Y-84652D01*
Y-86651D01*
X427976Y-87651D01*
X424977D01*
X426977D02*
X428976Y-89650D01*
X431975D02*
X433974D01*
X434974Y-88650D01*
Y-86651D01*
X433974Y-85651D01*
X431975D01*
X430975Y-86651D01*
Y-88650D01*
X431975Y-89650D01*
X436973Y-85651D02*
Y-88650D01*
X437973Y-89650D01*
X440972D01*
Y-85651D01*
X442972Y-89650D02*
Y-85651D01*
X445970D01*
X446970Y-86651D01*
Y-89650D01*
X452968Y-83652D02*
Y-89650D01*
X449969D01*
X448970Y-88650D01*
Y-86651D01*
X449969Y-85651D01*
X452968D01*
X424977Y-104650D02*
Y-98652D01*
X427976D01*
X428976Y-99652D01*
Y-101651D01*
X427976Y-102651D01*
X424977D01*
X426977D02*
X428976Y-104650D01*
X431975D02*
X433974D01*
X434974Y-103650D01*
Y-101651D01*
X433974Y-100651D01*
X431975D01*
X430975Y-101651D01*
Y-103650D01*
X431975Y-104650D01*
X436973Y-100651D02*
Y-103650D01*
X437973Y-104650D01*
X440972D01*
Y-100651D01*
X442972Y-104650D02*
Y-100651D01*
X445970D01*
X446970Y-101651D01*
Y-104650D01*
X452968Y-98652D02*
Y-104650D01*
X449969D01*
X448970Y-103650D01*
Y-101651D01*
X449969Y-100651D01*
X452968D01*
X374390Y-44650D02*
Y-38652D01*
X377389D01*
X378388Y-39652D01*
Y-41651D01*
X377389Y-42651D01*
X374390D01*
X380388Y-38652D02*
X384386D01*
X382387D01*
Y-44650D01*
X386386Y-38652D02*
Y-44650D01*
Y-41651D01*
X390385D01*
Y-38652D01*
Y-44650D01*
X374390Y-59650D02*
Y-53652D01*
X377389D01*
X378388Y-54652D01*
Y-56651D01*
X377389Y-57651D01*
X374390D01*
X380388Y-53652D02*
X384386D01*
X382387D01*
Y-59650D01*
X386386Y-53652D02*
Y-59650D01*
Y-56651D01*
X390385D01*
Y-53652D01*
Y-59650D01*
X374390Y-74650D02*
Y-68652D01*
X377389D01*
X378388Y-69652D01*
Y-71651D01*
X377389Y-72651D01*
X374390D01*
X380388Y-68652D02*
X384386D01*
X382387D01*
Y-74650D01*
X386386Y-68652D02*
Y-74650D01*
Y-71651D01*
X390385D01*
Y-68652D01*
Y-74650D01*
X374390Y-89650D02*
Y-83652D01*
X377389D01*
X378388Y-84652D01*
Y-86651D01*
X377389Y-87651D01*
X374390D01*
X380388Y-83652D02*
X384386D01*
X382387D01*
Y-89650D01*
X386386Y-83652D02*
Y-89650D01*
Y-86651D01*
X390385D01*
Y-83652D01*
Y-89650D01*
X374390Y-104650D02*
Y-98652D01*
X377389D01*
X378388Y-99652D01*
Y-101651D01*
X377389Y-102651D01*
X374390D01*
X380388Y-98652D02*
X384386D01*
X382387D01*
Y-104650D01*
X386386Y-98652D02*
Y-104650D01*
Y-101651D01*
X390385D01*
Y-98652D01*
Y-104650D01*
X264422Y-39652D02*
X265421Y-38652D01*
X267421D01*
X268420Y-39652D01*
Y-40651D01*
X267421Y-41651D01*
X268420Y-42651D01*
Y-43650D01*
X267421Y-44650D01*
X265421D01*
X264422Y-43650D01*
Y-42651D01*
X265421Y-41651D01*
X264422Y-40651D01*
Y-39652D01*
X265421Y-41651D02*
X267421D01*
X274418Y-44650D02*
X270420D01*
X274418Y-40651D01*
Y-39652D01*
X273419Y-38652D01*
X271420D01*
X270420Y-39652D01*
X276418Y-44650D02*
Y-43650D01*
X277417D01*
Y-44650D01*
X276418D01*
X285415Y-38652D02*
X283416Y-39652D01*
X281416Y-41651D01*
Y-43650D01*
X282416Y-44650D01*
X284415D01*
X285415Y-43650D01*
Y-42651D01*
X284415Y-41651D01*
X281416D01*
X287414Y-39652D02*
X288414Y-38652D01*
X290413D01*
X291413Y-39652D01*
Y-40651D01*
X290413Y-41651D01*
X291413Y-42651D01*
Y-43650D01*
X290413Y-44650D01*
X288414D01*
X287414Y-43650D01*
Y-42651D01*
X288414Y-41651D01*
X287414Y-40651D01*
Y-39652D01*
X288414Y-41651D02*
X290413D01*
X293412Y-44650D02*
Y-40651D01*
X294412D01*
X295412Y-41651D01*
Y-44650D01*
Y-41651D01*
X296411Y-40651D01*
X297411Y-41651D01*
Y-44650D01*
X299410D02*
X301410D01*
X300410D01*
Y-40651D01*
X299410D01*
X304409Y-44650D02*
X306408D01*
X305409D01*
Y-38652D01*
X304409D01*
X317405Y-44650D02*
X315405Y-42651D01*
Y-40651D01*
X317405Y-38652D01*
X324402Y-44650D02*
X320404D01*
X324402Y-40651D01*
Y-39652D01*
X323403Y-38652D01*
X321403D01*
X320404Y-39652D01*
X326402Y-44650D02*
Y-43650D01*
X327401D01*
Y-44650D01*
X326402D01*
X331400D02*
X333399D01*
X332400D01*
Y-38652D01*
X331400Y-39652D01*
X336398D02*
X337398Y-38652D01*
X339397D01*
X340397Y-39652D01*
Y-43650D01*
X339397Y-44650D01*
X337398D01*
X336398Y-43650D01*
Y-39652D01*
X342396D02*
X343396Y-38652D01*
X345395D01*
X346395Y-39652D01*
Y-43650D01*
X345395Y-44650D01*
X343396D01*
X342396Y-43650D01*
Y-39652D01*
X348394Y-44650D02*
Y-40651D01*
X349394D01*
X350394Y-41651D01*
Y-44650D01*
Y-41651D01*
X351394Y-40651D01*
X352393Y-41651D01*
Y-44650D01*
X354393D02*
Y-40651D01*
X355392D01*
X356392Y-41651D01*
Y-44650D01*
Y-41651D01*
X357392Y-40651D01*
X358391Y-41651D01*
Y-44650D01*
X360391D02*
X362390Y-42651D01*
Y-40651D01*
X360391Y-38652D01*
X264422Y-54652D02*
X265421Y-53652D01*
X267421D01*
X268420Y-54652D01*
Y-55651D01*
X267421Y-56651D01*
X266421D01*
X267421D01*
X268420Y-57651D01*
Y-58650D01*
X267421Y-59650D01*
X265421D01*
X264422Y-58650D01*
X274418Y-53652D02*
X270420D01*
Y-56651D01*
X272419Y-55651D01*
X273419D01*
X274418Y-56651D01*
Y-58650D01*
X273419Y-59650D01*
X271420D01*
X270420Y-58650D01*
X276418Y-59650D02*
Y-58650D01*
X277417D01*
Y-59650D01*
X276418D01*
X281416Y-54652D02*
X282416Y-53652D01*
X284415D01*
X285415Y-54652D01*
Y-58650D01*
X284415Y-59650D01*
X282416D01*
X281416Y-58650D01*
Y-54652D01*
X287414D02*
X288414Y-53652D01*
X290413D01*
X291413Y-54652D01*
Y-58650D01*
X290413Y-59650D01*
X288414D01*
X287414Y-58650D01*
Y-54652D01*
X293412Y-59650D02*
Y-55651D01*
X294412D01*
X295412Y-56651D01*
Y-59650D01*
Y-56651D01*
X296411Y-55651D01*
X297411Y-56651D01*
Y-59650D01*
X299410D02*
X301410D01*
X300410D01*
Y-55651D01*
X299410D01*
X304409Y-59650D02*
X306408D01*
X305409D01*
Y-53652D01*
X304409D01*
X317405Y-59650D02*
X315405Y-57651D01*
Y-55651D01*
X317405Y-53652D01*
X320404Y-54652D02*
X321403Y-53652D01*
X323403D01*
X324402Y-54652D01*
Y-58650D01*
X323403Y-59650D01*
X321403D01*
X320404Y-58650D01*
Y-54652D01*
X326402Y-59650D02*
Y-58650D01*
X327401D01*
Y-59650D01*
X326402D01*
X331400Y-54652D02*
X332400Y-53652D01*
X334399D01*
X335399Y-54652D01*
Y-55651D01*
X334399Y-56651D01*
X335399Y-57651D01*
Y-58650D01*
X334399Y-59650D01*
X332400D01*
X331400Y-58650D01*
Y-57651D01*
X332400Y-56651D01*
X331400Y-55651D01*
Y-54652D01*
X332400Y-56651D02*
X334399D01*
X337398Y-54652D02*
X338398Y-53652D01*
X340397D01*
X341397Y-54652D01*
Y-55651D01*
X340397Y-56651D01*
X341397Y-57651D01*
Y-58650D01*
X340397Y-59650D01*
X338398D01*
X337398Y-58650D01*
Y-57651D01*
X338398Y-56651D01*
X337398Y-55651D01*
Y-54652D01*
X338398Y-56651D02*
X340397D01*
X343396Y-58650D02*
X344396Y-59650D01*
X346395D01*
X347395Y-58650D01*
Y-54652D01*
X346395Y-53652D01*
X344396D01*
X343396Y-54652D01*
Y-55651D01*
X344396Y-56651D01*
X347395D01*
X349394Y-59650D02*
Y-55651D01*
X350394D01*
X351394Y-56651D01*
Y-59650D01*
Y-56651D01*
X352393Y-55651D01*
X353393Y-56651D01*
Y-59650D01*
X355392D02*
Y-55651D01*
X356392D01*
X357392Y-56651D01*
Y-59650D01*
Y-56651D01*
X358391Y-55651D01*
X359391Y-56651D01*
Y-59650D01*
X361390D02*
X363390Y-57651D01*
Y-55651D01*
X361390Y-53652D01*
X264422Y-69652D02*
X265421Y-68652D01*
X267421D01*
X268420Y-69652D01*
Y-70651D01*
X267421Y-71651D01*
X266421D01*
X267421D01*
X268420Y-72651D01*
Y-73650D01*
X267421Y-74650D01*
X265421D01*
X264422Y-73650D01*
X274418Y-68652D02*
X270420D01*
Y-71651D01*
X272419Y-70651D01*
X273419D01*
X274418Y-71651D01*
Y-73650D01*
X273419Y-74650D01*
X271420D01*
X270420Y-73650D01*
X276418Y-74650D02*
Y-73650D01*
X277417D01*
Y-74650D01*
X276418D01*
X284415D02*
Y-68652D01*
X281416Y-71651D01*
X285415D01*
X287414Y-69652D02*
X288414Y-68652D01*
X290413D01*
X291413Y-69652D01*
Y-70651D01*
X290413Y-71651D01*
X289414D01*
X290413D01*
X291413Y-72651D01*
Y-73650D01*
X290413Y-74650D01*
X288414D01*
X287414Y-73650D01*
X293412Y-74650D02*
Y-70651D01*
X294412D01*
X295412Y-71651D01*
Y-74650D01*
Y-71651D01*
X296411Y-70651D01*
X297411Y-71651D01*
Y-74650D01*
X299410D02*
X301410D01*
X300410D01*
Y-70651D01*
X299410D01*
X304409Y-74650D02*
X306408D01*
X305409D01*
Y-68652D01*
X304409D01*
X317405Y-74650D02*
X315405Y-72651D01*
Y-70651D01*
X317405Y-68652D01*
X320404Y-69652D02*
X321403Y-68652D01*
X323403D01*
X324402Y-69652D01*
Y-73650D01*
X323403Y-74650D01*
X321403D01*
X320404Y-73650D01*
Y-69652D01*
X326402Y-74650D02*
Y-73650D01*
X327401D01*
Y-74650D01*
X326402D01*
X331400Y-73650D02*
X332400Y-74650D01*
X334399D01*
X335399Y-73650D01*
Y-69652D01*
X334399Y-68652D01*
X332400D01*
X331400Y-69652D01*
Y-70651D01*
X332400Y-71651D01*
X335399D01*
X337398Y-69652D02*
X338398Y-68652D01*
X340397D01*
X341397Y-69652D01*
Y-73650D01*
X340397Y-74650D01*
X338398D01*
X337398Y-73650D01*
Y-69652D01*
X343396D02*
X344396Y-68652D01*
X346395D01*
X347395Y-69652D01*
Y-73650D01*
X346395Y-74650D01*
X344396D01*
X343396Y-73650D01*
Y-69652D01*
X349394Y-74650D02*
Y-70651D01*
X350394D01*
X351394Y-71651D01*
Y-74650D01*
Y-71651D01*
X352393Y-70651D01*
X353393Y-71651D01*
Y-74650D01*
X355392D02*
Y-70651D01*
X356392D01*
X357392Y-71651D01*
Y-74650D01*
Y-71651D01*
X358391Y-70651D01*
X359391Y-71651D01*
Y-74650D01*
X361390D02*
X363390Y-72651D01*
Y-70651D01*
X361390Y-68652D01*
X264422Y-89650D02*
X266421D01*
X265421D01*
Y-83652D01*
X264422Y-84652D01*
X269420Y-88650D02*
X270420Y-89650D01*
X272419D01*
X273419Y-88650D01*
Y-84652D01*
X272419Y-83652D01*
X270420D01*
X269420Y-84652D01*
Y-85651D01*
X270420Y-86651D01*
X273419D01*
X275418Y-89650D02*
Y-88650D01*
X276418D01*
Y-89650D01*
X275418D01*
X284415Y-83652D02*
X282416Y-84652D01*
X280416Y-86651D01*
Y-88650D01*
X281416Y-89650D01*
X283416D01*
X284415Y-88650D01*
Y-87651D01*
X283416Y-86651D01*
X280416D01*
X286415Y-88650D02*
X287414Y-89650D01*
X289414D01*
X290413Y-88650D01*
Y-84652D01*
X289414Y-83652D01*
X287414D01*
X286415Y-84652D01*
Y-85651D01*
X287414Y-86651D01*
X290413D01*
X292413Y-89650D02*
Y-85651D01*
X293412D01*
X294412Y-86651D01*
Y-89650D01*
Y-86651D01*
X295412Y-85651D01*
X296411Y-86651D01*
Y-89650D01*
X298411D02*
X300410D01*
X299410D01*
Y-85651D01*
X298411D01*
X303409Y-89650D02*
X305408D01*
X304409D01*
Y-83652D01*
X303409D01*
X316405Y-89650D02*
X314405Y-87651D01*
Y-85651D01*
X316405Y-83652D01*
X319404Y-84652D02*
X320404Y-83652D01*
X322403D01*
X323403Y-84652D01*
Y-88650D01*
X322403Y-89650D01*
X320404D01*
X319404Y-88650D01*
Y-84652D01*
X325402Y-89650D02*
Y-88650D01*
X326402D01*
Y-89650D01*
X325402D01*
X334399Y-83652D02*
X330400D01*
Y-86651D01*
X332400Y-85651D01*
X333399D01*
X334399Y-86651D01*
Y-88650D01*
X333399Y-89650D01*
X331400D01*
X330400Y-88650D01*
X336398Y-84652D02*
X337398Y-83652D01*
X339397D01*
X340397Y-84652D01*
Y-88650D01*
X339397Y-89650D01*
X337398D01*
X336398Y-88650D01*
Y-84652D01*
X342396D02*
X343396Y-83652D01*
X345395D01*
X346395Y-84652D01*
Y-88650D01*
X345395Y-89650D01*
X343396D01*
X342396Y-88650D01*
Y-84652D01*
X348394Y-89650D02*
Y-85651D01*
X349394D01*
X350394Y-86651D01*
Y-89650D01*
Y-86651D01*
X351394Y-85651D01*
X352393Y-86651D01*
Y-89650D01*
X354393D02*
Y-85651D01*
X355392D01*
X356392Y-86651D01*
Y-89650D01*
Y-86651D01*
X357392Y-85651D01*
X358391Y-86651D01*
Y-89650D01*
X360391D02*
X362390Y-87651D01*
Y-85651D01*
X360391Y-83652D01*
X264422Y-104650D02*
X266421D01*
X265421D01*
Y-98652D01*
X264422Y-99652D01*
X269420Y-104650D02*
X271420D01*
X270420D01*
Y-98652D01*
X269420Y-99652D01*
X274418Y-104650D02*
Y-103650D01*
X275418D01*
Y-104650D01*
X274418D01*
X279417Y-99652D02*
X280416Y-98652D01*
X282416D01*
X283416Y-99652D01*
Y-100651D01*
X282416Y-101651D01*
X283416Y-102651D01*
Y-103650D01*
X282416Y-104650D01*
X280416D01*
X279417Y-103650D01*
Y-102651D01*
X280416Y-101651D01*
X279417Y-100651D01*
Y-99652D01*
X280416Y-101651D02*
X282416D01*
X285415Y-104650D02*
X287414D01*
X286415D01*
Y-98652D01*
X285415Y-99652D01*
X290413Y-104650D02*
Y-100651D01*
X291413D01*
X292413Y-101651D01*
Y-104650D01*
Y-101651D01*
X293412Y-100651D01*
X294412Y-101651D01*
Y-104650D01*
X296411D02*
X298411D01*
X297411D01*
Y-100651D01*
X296411D01*
X301410Y-104650D02*
X303409D01*
X302409D01*
Y-98652D01*
X301410D01*
X314405Y-104650D02*
X312406Y-102651D01*
Y-100651D01*
X314405Y-98652D01*
X317405Y-99652D02*
X318404Y-98652D01*
X320404D01*
X321403Y-99652D01*
Y-103650D01*
X320404Y-104650D01*
X318404D01*
X317405Y-103650D01*
Y-99652D01*
X323403Y-104650D02*
Y-103650D01*
X324402D01*
Y-104650D01*
X323403D01*
X328401Y-99652D02*
X329401Y-98652D01*
X331400D01*
X332400Y-99652D01*
Y-100651D01*
X331400Y-101651D01*
X330400D01*
X331400D01*
X332400Y-102651D01*
Y-103650D01*
X331400Y-104650D01*
X329401D01*
X328401Y-103650D01*
X334399Y-99652D02*
X335399Y-98652D01*
X337398D01*
X338398Y-99652D01*
Y-103650D01*
X337398Y-104650D01*
X335399D01*
X334399Y-103650D01*
Y-99652D01*
X340397D02*
X341397Y-98652D01*
X343396D01*
X344396Y-99652D01*
Y-103650D01*
X343396Y-104650D01*
X341397D01*
X340397Y-103650D01*
Y-99652D01*
X346395Y-104650D02*
Y-100651D01*
X347395D01*
X348394Y-101651D01*
Y-104650D01*
Y-101651D01*
X349394Y-100651D01*
X350394Y-101651D01*
Y-104650D01*
X352393D02*
Y-100651D01*
X353393D01*
X354393Y-101651D01*
Y-104650D01*
Y-101651D01*
X355392Y-100651D01*
X356392Y-101651D01*
Y-104650D01*
X358391D02*
X360391Y-102651D01*
Y-100651D01*
X358391Y-98652D01*
X208436Y-119650D02*
X204438D01*
X208436Y-115651D01*
Y-114652D01*
X207437Y-113652D01*
X205437D01*
X204438Y-114652D01*
X214434Y-119650D02*
X210436D01*
X214434Y-115651D01*
Y-114652D01*
X213435Y-113652D01*
X211435D01*
X210436Y-114652D01*
X216434D02*
X217433Y-113652D01*
X219433D01*
X220432Y-114652D01*
Y-115651D01*
X219433Y-116651D01*
X218433D01*
X219433D01*
X220432Y-117651D01*
Y-118650D01*
X219433Y-119650D01*
X217433D01*
X216434Y-118650D01*
X228430Y-113652D02*
X232429D01*
X230429D01*
Y-119650D01*
X235428D02*
X237427D01*
X238427Y-118650D01*
Y-116651D01*
X237427Y-115651D01*
X235428D01*
X234428Y-116651D01*
Y-118650D01*
X235428Y-119650D01*
X241426Y-114652D02*
Y-115651D01*
X240426D01*
X242425D01*
X241426D01*
Y-118650D01*
X242425Y-119650D01*
X246424Y-115651D02*
X248423D01*
X249423Y-116651D01*
Y-119650D01*
X246424D01*
X245424Y-118650D01*
X246424Y-117651D01*
X249423D01*
X251422Y-119650D02*
X253422D01*
X252422D01*
Y-113652D01*
X251422D01*
X204438Y-39652D02*
X205437Y-38652D01*
X207437D01*
X208436Y-39652D01*
Y-40651D01*
X207437Y-41651D01*
X206437D01*
X207437D01*
X208436Y-42651D01*
Y-43650D01*
X207437Y-44650D01*
X205437D01*
X204438Y-43650D01*
X207437Y-59650D02*
Y-53652D01*
X204438Y-56651D01*
X208436D01*
X207437Y-74650D02*
Y-68652D01*
X204438Y-71651D01*
X208436D01*
Y-83652D02*
X204438D01*
Y-86651D01*
X206437Y-85651D01*
X207437D01*
X208436Y-86651D01*
Y-88650D01*
X207437Y-89650D01*
X205437D01*
X204438Y-88650D01*
X210436Y-84652D02*
X211435Y-83652D01*
X213435D01*
X214434Y-84652D01*
Y-88650D01*
X213435Y-89650D01*
X211435D01*
X210436Y-88650D01*
Y-84652D01*
X204438Y-104650D02*
X206437D01*
X205437D01*
Y-98652D01*
X204438Y-99652D01*
X213435Y-98652D02*
X211435Y-99652D01*
X209436Y-101651D01*
Y-103650D01*
X210436Y-104650D01*
X212435D01*
X213435Y-103650D01*
Y-102651D01*
X212435Y-101651D01*
X209436D01*
X219433Y-104650D02*
X215434D01*
X219433Y-100651D01*
Y-99652D01*
X218433Y-98652D01*
X216434D01*
X215434Y-99652D01*
D14*
X1295530Y-29650D02*
Y-22452D01*
X1299129D01*
X1300329Y-23652D01*
Y-26051D01*
X1299129Y-27251D01*
X1295530D01*
X1297929D02*
X1300329Y-29650D01*
X1303928D02*
X1306327D01*
X1307526Y-28450D01*
Y-26051D01*
X1306327Y-24852D01*
X1303928D01*
X1302728Y-26051D01*
Y-28450D01*
X1303928Y-29650D01*
X1309926Y-24852D02*
Y-28450D01*
X1311125Y-29650D01*
X1314724D01*
Y-24852D01*
X1318323Y-23652D02*
Y-24852D01*
X1317123D01*
X1319522D01*
X1318323D01*
Y-28450D01*
X1319522Y-29650D01*
X1326720D02*
X1324321D01*
X1323121Y-28450D01*
Y-26051D01*
X1324321Y-24852D01*
X1326720D01*
X1327920Y-26051D01*
Y-27251D01*
X1323121D01*
X1335118Y-22452D02*
Y-29650D01*
X1331519D01*
X1330319Y-28450D01*
Y-26051D01*
X1331519Y-24852D01*
X1335118D01*
X1344714Y-29650D02*
Y-22452D01*
X1348313D01*
X1349513Y-23652D01*
Y-26051D01*
X1348313Y-27251D01*
X1344714D01*
X1353112Y-24852D02*
X1355511D01*
X1356711Y-26051D01*
Y-29650D01*
X1353112D01*
X1351912Y-28450D01*
X1353112Y-27251D01*
X1356711D01*
X1360309Y-23652D02*
Y-24852D01*
X1359110D01*
X1361509D01*
X1360309D01*
Y-28450D01*
X1361509Y-29650D01*
X1365108Y-22452D02*
Y-29650D01*
Y-26051D01*
X1366307Y-24852D01*
X1368707D01*
X1369906Y-26051D01*
Y-29650D01*
X1379503Y-22452D02*
Y-29650D01*
X1384302D01*
X1390300D02*
X1387900D01*
X1386701Y-28450D01*
Y-26051D01*
X1387900Y-24852D01*
X1390300D01*
X1391499Y-26051D01*
Y-27251D01*
X1386701D01*
X1393898Y-29650D02*
Y-24852D01*
X1397497D01*
X1398697Y-26051D01*
Y-29650D01*
X1403495Y-32049D02*
X1404695D01*
X1405895Y-30850D01*
Y-24852D01*
X1402296D01*
X1401096Y-26051D01*
Y-28450D01*
X1402296Y-29650D01*
X1405895D01*
X1409493Y-23652D02*
Y-24852D01*
X1408294D01*
X1410693D01*
X1409493D01*
Y-28450D01*
X1410693Y-29650D01*
X1414292Y-22452D02*
Y-29650D01*
Y-26051D01*
X1415491Y-24852D01*
X1417891D01*
X1419090Y-26051D01*
Y-29650D01*
X1208954Y-22452D02*
Y-29650D01*
Y-26051D01*
X1213753D01*
Y-22452D01*
Y-29650D01*
X1217352D02*
X1219751D01*
X1220951Y-28450D01*
Y-26051D01*
X1219751Y-24852D01*
X1217352D01*
X1216152Y-26051D01*
Y-28450D01*
X1217352Y-29650D01*
X1223350D02*
X1225749D01*
X1224549D01*
Y-22452D01*
X1223350D01*
X1232947Y-29650D02*
X1230547D01*
X1229348Y-28450D01*
Y-26051D01*
X1230547Y-24852D01*
X1232947D01*
X1234146Y-26051D01*
Y-27251D01*
X1229348D01*
X1243743Y-22452D02*
Y-29650D01*
X1248542D01*
X1254540D02*
X1252140D01*
X1250941Y-28450D01*
Y-26051D01*
X1252140Y-24852D01*
X1254540D01*
X1255739Y-26051D01*
Y-27251D01*
X1250941D01*
X1258138Y-29650D02*
Y-24852D01*
X1261737D01*
X1262937Y-26051D01*
Y-29650D01*
X1267735Y-32049D02*
X1268935D01*
X1270135Y-30850D01*
Y-24852D01*
X1266536D01*
X1265336Y-26051D01*
Y-28450D01*
X1266536Y-29650D01*
X1270135D01*
X1273733Y-23652D02*
Y-24852D01*
X1272534D01*
X1274933D01*
X1273733D01*
Y-28450D01*
X1274933Y-29650D01*
X1278532Y-22452D02*
Y-29650D01*
Y-26051D01*
X1279731Y-24852D01*
X1282131D01*
X1283330Y-26051D01*
Y-29650D01*
X1075594Y-22452D02*
Y-29650D01*
Y-26051D01*
X1080392D01*
Y-22452D01*
Y-29650D01*
X1083991D02*
X1086390D01*
X1087590Y-28450D01*
Y-26051D01*
X1086390Y-24852D01*
X1083991D01*
X1082791Y-26051D01*
Y-28450D01*
X1083991Y-29650D01*
X1089989D02*
X1092388D01*
X1091189D01*
Y-22452D01*
X1089989D01*
X1099586Y-29650D02*
X1097187D01*
X1095987Y-28450D01*
Y-26051D01*
X1097187Y-24852D01*
X1099586D01*
X1100785Y-26051D01*
Y-27251D01*
X1095987D01*
X1110382Y-22452D02*
X1115181D01*
X1112782D01*
Y-29650D01*
X1118780D02*
X1121179D01*
X1122379Y-28450D01*
Y-26051D01*
X1121179Y-24852D01*
X1118780D01*
X1117580Y-26051D01*
Y-28450D01*
X1118780Y-29650D01*
X1124778D02*
X1127177D01*
X1125977D01*
Y-22452D01*
X1124778D01*
X1134375Y-29650D02*
X1131975D01*
X1130776Y-28450D01*
Y-26051D01*
X1131975Y-24852D01*
X1134375D01*
X1135574Y-26051D01*
Y-27251D01*
X1130776D01*
X1137973Y-24852D02*
Y-29650D01*
Y-27251D01*
X1139173Y-26051D01*
X1140373Y-24852D01*
X1141572D01*
X1146371D02*
X1148770D01*
X1149969Y-26051D01*
Y-29650D01*
X1146371D01*
X1145171Y-28450D01*
X1146371Y-27251D01*
X1149969D01*
X1152369Y-29650D02*
Y-24852D01*
X1155968D01*
X1157167Y-26051D01*
Y-29650D01*
X1164365Y-24852D02*
X1160766D01*
X1159566Y-26051D01*
Y-28450D01*
X1160766Y-29650D01*
X1164365D01*
X1170363D02*
X1167964D01*
X1166764Y-28450D01*
Y-26051D01*
X1167964Y-24852D01*
X1170363D01*
X1171562Y-26051D01*
Y-27251D01*
X1166764D01*
X1183559Y-29650D02*
X1181159Y-27251D01*
Y-24852D01*
X1183559Y-22452D01*
X1187158Y-26051D02*
X1191956D01*
X1194355Y-29650D02*
X1196754Y-27251D01*
Y-24852D01*
X1194355Y-22452D01*
X942233D02*
Y-29650D01*
Y-26051D01*
X947031D01*
Y-22452D01*
Y-29650D01*
X950630D02*
X953029D01*
X954229Y-28450D01*
Y-26051D01*
X953029Y-24852D01*
X950630D01*
X949430Y-26051D01*
Y-28450D01*
X950630Y-29650D01*
X956628D02*
X959027D01*
X957828D01*
Y-22452D01*
X956628D01*
X966225Y-29650D02*
X963826D01*
X962626Y-28450D01*
Y-26051D01*
X963826Y-24852D01*
X966225D01*
X967425Y-26051D01*
Y-27251D01*
X962626D01*
X977022Y-22452D02*
X981820D01*
X979421D01*
Y-29650D01*
X985419D02*
X987818D01*
X989018Y-28450D01*
Y-26051D01*
X987818Y-24852D01*
X985419D01*
X984219Y-26051D01*
Y-28450D01*
X985419Y-29650D01*
X991417D02*
X993816D01*
X992616D01*
Y-22452D01*
X991417D01*
X1001014Y-29650D02*
X998615D01*
X997415Y-28450D01*
Y-26051D01*
X998615Y-24852D01*
X1001014D01*
X1002213Y-26051D01*
Y-27251D01*
X997415D01*
X1004613Y-24852D02*
Y-29650D01*
Y-27251D01*
X1005812Y-26051D01*
X1007012Y-24852D01*
X1008212D01*
X1013010D02*
X1015409D01*
X1016609Y-26051D01*
Y-29650D01*
X1013010D01*
X1011810Y-28450D01*
X1013010Y-27251D01*
X1016609D01*
X1019008Y-29650D02*
Y-24852D01*
X1022607D01*
X1023806Y-26051D01*
Y-29650D01*
X1031004Y-24852D02*
X1027405D01*
X1026206Y-26051D01*
Y-28450D01*
X1027405Y-29650D01*
X1031004D01*
X1037002D02*
X1034603D01*
X1033403Y-28450D01*
Y-26051D01*
X1034603Y-24852D01*
X1037002D01*
X1038202Y-26051D01*
Y-27251D01*
X1033403D01*
X1050198Y-29650D02*
X1047799Y-27251D01*
Y-24852D01*
X1050198Y-22452D01*
X1053797Y-26051D02*
X1058595D01*
X1056196Y-23652D02*
Y-28450D01*
X1060994Y-29650D02*
X1063394Y-27251D01*
Y-24852D01*
X1060994Y-22452D01*
X856857D02*
Y-29650D01*
X860455D01*
X861655Y-28450D01*
Y-23652D01*
X860455Y-22452D01*
X856857D01*
X867653Y-29650D02*
X865254D01*
X864054Y-28450D01*
Y-26051D01*
X865254Y-24852D01*
X867653D01*
X868853Y-26051D01*
Y-27251D01*
X864054D01*
X871252Y-29650D02*
X874851D01*
X876050Y-28450D01*
X874851Y-27251D01*
X872451D01*
X871252Y-26051D01*
X872451Y-24852D01*
X876050D01*
X883248D02*
X879649D01*
X878450Y-26051D01*
Y-28450D01*
X879649Y-29650D01*
X883248D01*
X885647Y-24852D02*
Y-29650D01*
Y-27251D01*
X886847Y-26051D01*
X888046Y-24852D01*
X889246D01*
X892845Y-29650D02*
X895244D01*
X894044D01*
Y-24852D01*
X892845D01*
X898843Y-32049D02*
Y-24852D01*
X902442D01*
X903641Y-26051D01*
Y-28450D01*
X902442Y-29650D01*
X898843D01*
X907240Y-23652D02*
Y-24852D01*
X906041D01*
X908440D01*
X907240D01*
Y-28450D01*
X908440Y-29650D01*
X912039D02*
X914438D01*
X913238D01*
Y-24852D01*
X912039D01*
X919236Y-29650D02*
X921636D01*
X922835Y-28450D01*
Y-26051D01*
X921636Y-24852D01*
X919236D01*
X918037Y-26051D01*
Y-28450D01*
X919236Y-29650D01*
X925234D02*
Y-24852D01*
X928833D01*
X930033Y-26051D01*
Y-29650D01*
X781877Y-22452D02*
X786676D01*
X784276D01*
Y-29650D01*
X792674D02*
X790274D01*
X789075Y-28450D01*
Y-26051D01*
X790274Y-24852D01*
X792674D01*
X793873Y-26051D01*
Y-27251D01*
X789075D01*
X796273Y-29650D02*
Y-24852D01*
X797472D01*
X798672Y-26051D01*
Y-29650D01*
Y-26051D01*
X799871Y-24852D01*
X801071Y-26051D01*
Y-29650D01*
X803470Y-32049D02*
Y-24852D01*
X807069D01*
X808269Y-26051D01*
Y-28450D01*
X807069Y-29650D01*
X803470D01*
X810668D02*
X813067D01*
X811868D01*
Y-22452D01*
X810668D01*
X817865Y-24852D02*
X820265D01*
X821464Y-26051D01*
Y-29650D01*
X817865D01*
X816666Y-28450D01*
X817865Y-27251D01*
X821464D01*
X825063Y-23652D02*
Y-24852D01*
X823864D01*
X826263D01*
X825063D01*
Y-28450D01*
X826263Y-29650D01*
X833461D02*
X831061D01*
X829862Y-28450D01*
Y-26051D01*
X831061Y-24852D01*
X833461D01*
X834660Y-26051D01*
Y-27251D01*
X829862D01*
X707297Y-29650D02*
Y-22452D01*
X710896D01*
X712096Y-23652D01*
Y-26051D01*
X710896Y-27251D01*
X707297D01*
X715695Y-24852D02*
X718094D01*
X719293Y-26051D01*
Y-29650D01*
X715695D01*
X714495Y-28450D01*
X715695Y-27251D01*
X719293D01*
X726491Y-22452D02*
Y-29650D01*
X722892D01*
X721693Y-28450D01*
Y-26051D01*
X722892Y-24852D01*
X726491D01*
X740886Y-23652D02*
X739687Y-22452D01*
X737288D01*
X736088Y-23652D01*
Y-24852D01*
X737288Y-26051D01*
X739687D01*
X740886Y-27251D01*
Y-28450D01*
X739687Y-29650D01*
X737288D01*
X736088Y-28450D01*
X743286Y-22452D02*
Y-29650D01*
Y-26051D01*
X744485Y-24852D01*
X746885D01*
X748084Y-26051D01*
Y-29650D01*
X751683Y-24852D02*
X754082D01*
X755282Y-26051D01*
Y-29650D01*
X751683D01*
X750483Y-28450D01*
X751683Y-27251D01*
X755282D01*
X757681Y-32049D02*
Y-24852D01*
X761280D01*
X762479Y-26051D01*
Y-28450D01*
X761280Y-29650D01*
X757681D01*
X768478D02*
X766078D01*
X764879Y-28450D01*
Y-26051D01*
X766078Y-24852D01*
X768478D01*
X769677Y-26051D01*
Y-27251D01*
X764879D01*
X648313Y-22452D02*
Y-27251D01*
X650712Y-29650D01*
X653111Y-27251D01*
Y-22452D01*
X655510Y-29650D02*
X657909D01*
X656710D01*
Y-24852D01*
X655510D01*
X662708D02*
X665107D01*
X666307Y-26051D01*
Y-29650D01*
X662708D01*
X661508Y-28450D01*
X662708Y-27251D01*
X666307D01*
X668706Y-29650D02*
X673504Y-24852D01*
X675904Y-29650D02*
Y-22452D01*
X679502D01*
X680702Y-23652D01*
Y-26051D01*
X679502Y-27251D01*
X675904D01*
X684301Y-24852D02*
X686700D01*
X687900Y-26051D01*
Y-29650D01*
X684301D01*
X683101Y-28450D01*
X684301Y-27251D01*
X687900D01*
X695097Y-22452D02*
Y-29650D01*
X691499D01*
X690299Y-28450D01*
Y-26051D01*
X691499Y-24852D01*
X695097D01*
X498357Y-22452D02*
Y-29650D01*
X501956D01*
X503156Y-28450D01*
Y-23652D01*
X501956Y-22452D01*
X498357D01*
X505555Y-24852D02*
Y-29650D01*
Y-27251D01*
X506755Y-26051D01*
X507954Y-24852D01*
X509154D01*
X512753Y-29650D02*
X515152D01*
X513952D01*
Y-24852D01*
X512753D01*
X518751Y-29650D02*
X521150D01*
X519950D01*
Y-22452D01*
X518751D01*
X524749Y-29650D02*
X527148D01*
X525948D01*
Y-22452D01*
X524749D01*
X537945D02*
Y-29650D01*
X542743D01*
X546342Y-24852D02*
X548741D01*
X549941Y-26051D01*
Y-29650D01*
X546342D01*
X545142Y-28450D01*
X546342Y-27251D01*
X549941D01*
X552340Y-24852D02*
Y-28450D01*
X553540Y-29650D01*
X557138D01*
Y-30850D01*
X555939Y-32049D01*
X554739D01*
X557138Y-29650D02*
Y-24852D01*
X563136Y-29650D02*
X560737D01*
X559538Y-28450D01*
Y-26051D01*
X560737Y-24852D01*
X563136D01*
X564336Y-26051D01*
Y-27251D01*
X559538D01*
X566735Y-24852D02*
Y-29650D01*
Y-27251D01*
X567935Y-26051D01*
X569135Y-24852D01*
X570334D01*
X581131Y-29650D02*
Y-22452D01*
X584729D01*
X585929Y-23652D01*
Y-26051D01*
X584729Y-27251D01*
X581131D01*
X589528Y-24852D02*
X591927D01*
X593127Y-26051D01*
Y-29650D01*
X589528D01*
X588328Y-28450D01*
X589528Y-27251D01*
X593127D01*
X595526Y-29650D02*
X597925D01*
X596726D01*
Y-24852D01*
X595526D01*
X601524D02*
Y-29650D01*
Y-27251D01*
X602724Y-26051D01*
X603923Y-24852D01*
X605123D01*
X424977Y-22452D02*
Y-29650D01*
Y-26051D01*
X429776D01*
Y-22452D01*
Y-29650D01*
X433375D02*
X435774D01*
X436973Y-28450D01*
Y-26051D01*
X435774Y-24852D01*
X433375D01*
X432175Y-26051D01*
Y-28450D01*
X433375Y-29650D01*
X439373D02*
X441772D01*
X440572D01*
Y-22452D01*
X439373D01*
X448970Y-29650D02*
X446570D01*
X445371Y-28450D01*
Y-26051D01*
X446570Y-24852D01*
X448970D01*
X450169Y-26051D01*
Y-27251D01*
X445371D01*
X459766Y-22452D02*
X464565D01*
X462165D01*
Y-29650D01*
X466964Y-24852D02*
Y-28450D01*
X468163Y-29650D01*
X471762D01*
Y-30850D01*
X470563Y-32049D01*
X469363D01*
X471762Y-29650D02*
Y-24852D01*
X474161Y-32049D02*
Y-24852D01*
X477760D01*
X478960Y-26051D01*
Y-28450D01*
X477760Y-29650D01*
X474161D01*
X484958D02*
X482559D01*
X481359Y-28450D01*
Y-26051D01*
X482559Y-24852D01*
X484958D01*
X486158Y-26051D01*
Y-27251D01*
X481359D01*
X374390Y-29650D02*
Y-22452D01*
X377989D01*
X379188Y-23652D01*
Y-26051D01*
X377989Y-27251D01*
X374390D01*
X381587Y-29650D02*
X383987D01*
X382787D01*
Y-22452D01*
X381587D01*
X388785Y-24852D02*
X391184D01*
X392384Y-26051D01*
Y-29650D01*
X388785D01*
X387585Y-28450D01*
X388785Y-27251D01*
X392384D01*
X395983Y-23652D02*
Y-24852D01*
X394783D01*
X397182D01*
X395983D01*
Y-28450D01*
X397182Y-29650D01*
X404380D02*
X401981D01*
X400781Y-28450D01*
Y-26051D01*
X401981Y-24852D01*
X404380D01*
X405580Y-26051D01*
Y-27251D01*
X400781D01*
X412777Y-22452D02*
Y-29650D01*
X409178D01*
X407979Y-28450D01*
Y-26051D01*
X409178Y-24852D01*
X412777D01*
X264422Y-22452D02*
Y-29650D01*
Y-26051D01*
X269220D01*
Y-22452D01*
Y-29650D01*
X272819D02*
X275218D01*
X276418Y-28450D01*
Y-26051D01*
X275218Y-24852D01*
X272819D01*
X271619Y-26051D01*
Y-28450D01*
X272819Y-29650D01*
X278817D02*
X281216D01*
X280017D01*
Y-22452D01*
X278817D01*
X288414Y-29650D02*
X286015D01*
X284815Y-28450D01*
Y-26051D01*
X286015Y-24852D01*
X288414D01*
X289614Y-26051D01*
Y-27251D01*
X284815D01*
X304009Y-23652D02*
X302809Y-22452D01*
X300410D01*
X299211Y-23652D01*
Y-24852D01*
X300410Y-26051D01*
X302809D01*
X304009Y-27251D01*
Y-28450D01*
X302809Y-29650D01*
X300410D01*
X299211Y-28450D01*
X306408Y-29650D02*
X308807D01*
X307608D01*
Y-24852D01*
X306408D01*
X312406D02*
X317205D01*
X312406Y-29650D01*
X317205D01*
X323203D02*
X320803D01*
X319604Y-28450D01*
Y-26051D01*
X320803Y-24852D01*
X323203D01*
X324402Y-26051D01*
Y-27251D01*
X319604D01*
X209236Y-23652D02*
X208036Y-22452D01*
X205637D01*
X204438Y-23652D01*
Y-28450D01*
X205637Y-29650D01*
X208036D01*
X209236Y-28450D01*
X212835Y-29650D02*
X215234D01*
X216434Y-28450D01*
Y-26051D01*
X215234Y-24852D01*
X212835D01*
X211635Y-26051D01*
Y-28450D01*
X212835Y-29650D01*
X218833Y-24852D02*
Y-28450D01*
X220033Y-29650D01*
X223631D01*
Y-24852D01*
X226031Y-29650D02*
Y-24852D01*
X229629D01*
X230829Y-26051D01*
Y-29650D01*
X234428Y-23652D02*
Y-24852D01*
X233228D01*
X235628D01*
X234428D01*
Y-28450D01*
X235628Y-29650D01*
X158649Y-23652D02*
X157449Y-22452D01*
X155050D01*
X153850Y-23652D01*
Y-24852D01*
X155050Y-26051D01*
X157449D01*
X158649Y-27251D01*
Y-28450D01*
X157449Y-29650D01*
X155050D01*
X153850Y-28450D01*
X161048Y-24852D02*
Y-28450D01*
X162247Y-29650D01*
X165846D01*
Y-30850D01*
X164646Y-32049D01*
X163447D01*
X165846Y-29650D02*
Y-24852D01*
X168245Y-29650D02*
Y-24852D01*
X169445D01*
X170645Y-26051D01*
Y-29650D01*
Y-26051D01*
X171844Y-24852D01*
X173044Y-26051D01*
Y-29650D01*
X175443Y-22452D02*
Y-29650D01*
X179042D01*
X180242Y-28450D01*
Y-27251D01*
Y-26051D01*
X179042Y-24852D01*
X175443D01*
X183840Y-29650D02*
X186240D01*
X187439Y-28450D01*
Y-26051D01*
X186240Y-24852D01*
X183840D01*
X182641Y-26051D01*
Y-28450D01*
X183840Y-29650D01*
X189838D02*
X192238D01*
X191038D01*
Y-22452D01*
X189838D01*
D90*
X144850Y-34150D02*
X1431290D01*
X144850Y-109150D02*
X1431290D01*
X144850Y-124150D02*
X1431290D01*
Y-19150D01*
X144850D02*
X1431290D01*
X144850Y-124150D02*
Y-19150D01*
X1291030Y-124150D02*
Y-19150D01*
X1204454Y-124150D02*
Y-19150D01*
X1071094Y-124150D02*
Y-19150D01*
X937733Y-124150D02*
Y-19150D01*
X852357Y-124150D02*
Y-19150D01*
X777377Y-124150D02*
Y-19150D01*
X702797Y-124150D02*
Y-19150D01*
X643813Y-124150D02*
Y-19150D01*
X493857Y-124150D02*
Y-19150D01*
X420477Y-124150D02*
Y-19150D01*
X369890Y-124150D02*
Y-19150D01*
X259922Y-124150D02*
Y-19150D01*
X199938Y-124150D02*
Y-19150D01*
D161*
X-14000Y110900D02*
G03*
X-14000Y110900I-1000J0D01*
G01*
X-4000D02*
G03*
X-4000Y110900I-1000J0D01*
G01*
X6000D02*
G03*
X6000Y110900I-1000J0D01*
G01*
X16000D02*
G03*
X16000Y110900I-1000J0D01*
G01*
X44600Y-21000D02*
X45100Y-21500D01*
X44100Y-21000D02*
X44600D01*
X44100D02*
X44600Y-20500D01*
X44100Y-20000D02*
X44600Y-20500D01*
X44100Y-20000D02*
X44600D01*
X45100Y-19500D01*
X45600Y-20000D01*
X46100D01*
X45600Y-20500D02*
X46100Y-20000D01*
X45600Y-20500D02*
X46100Y-21000D01*
X45600D02*
X46100D01*
X45100Y-21500D02*
X45600Y-21000D01*
X53300Y-47600D02*
X53800Y-48100D01*
X52800Y-47600D02*
X53300D01*
X52800D02*
X53300Y-47100D01*
X52800Y-46600D02*
X53300Y-47100D01*
X52800Y-46600D02*
X53300D01*
X53800Y-46100D01*
X54300Y-46600D01*
X54800D01*
X54300Y-47100D02*
X54800Y-46600D01*
X54300Y-47100D02*
X54800Y-47600D01*
X54300D02*
X54800D01*
X53800Y-48100D02*
X54300Y-47600D01*
X53247Y-26244D02*
X53747Y-26744D01*
X52747Y-26244D02*
X53247D01*
X52747D02*
X53247Y-25744D01*
X52747Y-25244D02*
X53247Y-25744D01*
X52747Y-25244D02*
X53247D01*
X53747Y-24744D01*
X54247Y-25244D01*
X54747D01*
X54247Y-25744D02*
X54747Y-25244D01*
X54247Y-25744D02*
X54747Y-26244D01*
X54247D02*
X54747D01*
X53747Y-26744D02*
X54247Y-26244D01*
X41700Y-87000D02*
X42200Y-87500D01*
X41200Y-87000D02*
X41700D01*
X41200D02*
X41700Y-86500D01*
X41200Y-86000D02*
X41700Y-86500D01*
X41200Y-86000D02*
X41700D01*
X42200Y-85500D01*
X42700Y-86000D01*
X43200D01*
X42700Y-86500D02*
X43200Y-86000D01*
X42700Y-86500D02*
X43200Y-87000D01*
X42700D02*
X43200D01*
X42200Y-87500D02*
X42700Y-87000D01*
X41700Y-89569D02*
X42200Y-90069D01*
X41200Y-89569D02*
X41700D01*
X41200D02*
X41700Y-89069D01*
X41200Y-88569D02*
X41700Y-89069D01*
X41200Y-88569D02*
X41700D01*
X42200Y-88068D01*
X42700Y-88569D01*
X43200D01*
X42700Y-89069D02*
X43200Y-88569D01*
X42700Y-89069D02*
X43200Y-89569D01*
X42700D02*
X43200D01*
X42200Y-90069D02*
X42700Y-89569D01*
X41700Y-92137D02*
X42200Y-92637D01*
X41200Y-92137D02*
X41700D01*
X41200D02*
X41700Y-91637D01*
X41200Y-91137D02*
X41700Y-91637D01*
X41200Y-91137D02*
X41700D01*
X42200Y-90637D01*
X42700Y-91137D01*
X43200D01*
X42700Y-91637D02*
X43200Y-91137D01*
X42700Y-91637D02*
X43200Y-92137D01*
X42700D02*
X43200D01*
X42200Y-92637D02*
X42700Y-92137D01*
X30500Y-87900D02*
X31000Y-88400D01*
X30000Y-87900D02*
X30500D01*
X30000D02*
X30500Y-87400D01*
X30000Y-86900D02*
X30500Y-87400D01*
X30000Y-86900D02*
X30500D01*
X31000Y-86400D01*
X31500Y-86900D01*
X32000D01*
X31500Y-87400D02*
X32000Y-86900D01*
X31500Y-87400D02*
X32000Y-87900D01*
X31500D02*
X32000D01*
X31000Y-88400D02*
X31500Y-87900D01*
X28684Y-89716D02*
X29184Y-90216D01*
X28184Y-89716D02*
X28684D01*
X28184D02*
X28684Y-89216D01*
X28184Y-88716D02*
X28684Y-89216D01*
X28184Y-88716D02*
X28684D01*
X29184Y-88216D01*
X29684Y-88716D01*
X30184D01*
X29684Y-89216D02*
X30184Y-88716D01*
X29684Y-89216D02*
X30184Y-89716D01*
X29684D02*
X30184D01*
X29184Y-90216D02*
X29684Y-89716D01*
X26868Y-91532D02*
X27368Y-92032D01*
X26368Y-91532D02*
X26868D01*
X26368D02*
X26868Y-91032D01*
X26368Y-90532D02*
X26868Y-91032D01*
X26368Y-90532D02*
X26868D01*
X27368Y-90032D01*
X27868Y-90532D01*
X28368D01*
X27868Y-91032D02*
X28368Y-90532D01*
X27868Y-91032D02*
X28368Y-91532D01*
X27868D02*
X28368D01*
X27368Y-92032D02*
X27868Y-91532D01*
X62600Y-41000D02*
X63100Y-41500D01*
X62100Y-41000D02*
X62600D01*
X62100D02*
X62600Y-40500D01*
X62100Y-40000D02*
X62600Y-40500D01*
X62100Y-40000D02*
X62600D01*
X63100Y-39500D01*
X63600Y-40000D01*
X64100D01*
X63600Y-40500D02*
X64100Y-40000D01*
X63600Y-40500D02*
X64100Y-41000D01*
X63600D02*
X64100D01*
X63100Y-41500D02*
X63600Y-41000D01*
X34800Y-49500D02*
X35300Y-50000D01*
X34300Y-49500D02*
X34800D01*
X34300D02*
X34800Y-49000D01*
X34300Y-48500D02*
X34800Y-49000D01*
X34300Y-48500D02*
X34800D01*
X35300Y-48000D01*
X35800Y-48500D01*
X36300D01*
X35800Y-49000D02*
X36300Y-48500D01*
X35800Y-49000D02*
X36300Y-49500D01*
X35800D02*
X36300D01*
X35300Y-50000D02*
X35800Y-49500D01*
X69800Y-32400D02*
X70300Y-32900D01*
X69300Y-32400D02*
X69800D01*
X69300D02*
X69800Y-31900D01*
X69300Y-31400D02*
X69800Y-31900D01*
X69300Y-31400D02*
X69800D01*
X70300Y-30900D01*
X70800Y-31400D01*
X71300D01*
X70800Y-31900D02*
X71300Y-31400D01*
X70800Y-31900D02*
X71300Y-32400D01*
X70800D02*
X71300D01*
X70300Y-32900D02*
X70800Y-32400D01*
X72900Y-32100D02*
X73400Y-32600D01*
X72400Y-32100D02*
X72900D01*
X72400D02*
X72900Y-31600D01*
X72400Y-31100D02*
X72900Y-31600D01*
X72400Y-31100D02*
X72900D01*
X73400Y-30600D01*
X73900Y-31100D01*
X74400D01*
X73900Y-31600D02*
X74400Y-31100D01*
X73900Y-31600D02*
X74400Y-32100D01*
X73900D02*
X74400D01*
X73400Y-32600D02*
X73900Y-32100D01*
X75500Y-31900D02*
X76000Y-32400D01*
X75000Y-31900D02*
X75500D01*
X75000D02*
X75500Y-31400D01*
X75000Y-30900D02*
X75500Y-31400D01*
X75000Y-30900D02*
X75500D01*
X76000Y-30400D01*
X76500Y-30900D01*
X77000D01*
X76500Y-31400D02*
X77000Y-30900D01*
X76500Y-31400D02*
X77000Y-31900D01*
X76500D02*
X77000D01*
X76000Y-32400D02*
X76500Y-31900D01*
X78100Y-31800D02*
X78600Y-32300D01*
X77600Y-31800D02*
X78100D01*
X77600D02*
X78100Y-31300D01*
X77600Y-30800D02*
X78100Y-31300D01*
X77600Y-30800D02*
X78100D01*
X78600Y-30300D01*
X79100Y-30800D01*
X79600D01*
X79100Y-31300D02*
X79600Y-30800D01*
X79100Y-31300D02*
X79600Y-31800D01*
X79100D02*
X79600D01*
X78600Y-32300D02*
X79100Y-31800D01*
X14600Y62400D02*
X15100Y61900D01*
X14100Y62400D02*
X14600D01*
X14100D02*
X14600Y62900D01*
X14100Y63400D02*
X14600Y62900D01*
X14100Y63400D02*
X14600D01*
X15100Y63900D01*
X15600Y63400D01*
X16100D01*
X15600Y62900D02*
X16100Y63400D01*
X15600Y62900D02*
X16100Y62400D01*
X15600D02*
X16100D01*
X15100Y61900D02*
X15600Y62400D01*
X-82000Y-53900D02*
X-81500Y-54400D01*
X-82500Y-53900D02*
X-82000D01*
X-82500D02*
X-82000Y-53400D01*
X-82500Y-52900D02*
X-82000Y-53400D01*
X-82500Y-52900D02*
X-82000D01*
X-81500Y-52400D01*
X-81000Y-52900D01*
X-80500D01*
X-81000Y-53400D02*
X-80500Y-52900D01*
X-81000Y-53400D02*
X-80500Y-53900D01*
X-81000D02*
X-80500D01*
X-81500Y-54400D02*
X-81000Y-53900D01*
X-100700Y-44600D02*
X-100200Y-45100D01*
X-101200Y-44600D02*
X-100700D01*
X-101200D02*
X-100700Y-44100D01*
X-101200Y-43600D02*
X-100700Y-44100D01*
X-101200Y-43600D02*
X-100700D01*
X-100200Y-43100D01*
X-99700Y-43600D01*
X-99200D01*
X-99700Y-44100D02*
X-99200Y-43600D01*
X-99700Y-44100D02*
X-99200Y-44600D01*
X-99700D02*
X-99200D01*
X-100200Y-45100D02*
X-99700Y-44600D01*
X-123200Y38800D02*
X-122700Y38300D01*
X-123700Y38800D02*
X-123200D01*
X-123700D02*
X-123200Y39300D01*
X-123700Y39800D02*
X-123200Y39300D01*
X-123700Y39800D02*
X-123200D01*
X-122700Y40300D01*
X-122200Y39800D01*
X-121700D01*
X-122200Y39300D02*
X-121700Y39800D01*
X-122200Y39300D02*
X-121700Y38800D01*
X-122200D02*
X-121700D01*
X-122700Y38300D02*
X-122200Y38800D01*
X-118700Y36600D02*
X-118200Y36100D01*
X-119200Y36600D02*
X-118700D01*
X-119200D02*
X-118700Y37100D01*
X-119200Y37600D02*
X-118700Y37100D01*
X-119200Y37600D02*
X-118700D01*
X-118200Y38100D01*
X-117700Y37600D01*
X-117200D01*
X-117700Y37100D02*
X-117200Y37600D01*
X-117700Y37100D02*
X-117200Y36600D01*
X-117700D02*
X-117200D01*
X-118200Y36100D02*
X-117700Y36600D01*
X-92500Y-42700D02*
X-92000Y-43200D01*
X-93000Y-42700D02*
X-92500D01*
X-93000D02*
X-92500Y-42200D01*
X-93000Y-41700D02*
X-92500Y-42200D01*
X-93000Y-41700D02*
X-92500D01*
X-92000Y-41200D01*
X-91500Y-41700D01*
X-91000D01*
X-91500Y-42200D02*
X-91000Y-41700D01*
X-91500Y-42200D02*
X-91000Y-42700D01*
X-91500D02*
X-91000D01*
X-92000Y-43200D02*
X-91500Y-42700D01*
X-119600Y-38700D02*
X-119100Y-39200D01*
X-120100Y-38700D02*
X-119600D01*
X-120100D02*
X-119600Y-38200D01*
X-120100Y-37700D02*
X-119600Y-38200D01*
X-120100Y-37700D02*
X-119600D01*
X-119100Y-37200D01*
X-118600Y-37700D01*
X-118100D01*
X-118600Y-38200D02*
X-118100Y-37700D01*
X-118600Y-38200D02*
X-118100Y-38700D01*
X-118600D02*
X-118100D01*
X-119100Y-39200D02*
X-118600Y-38700D01*
X-121982Y23080D02*
X-121482Y22580D01*
X-122482Y23080D02*
X-121982D01*
X-122482D02*
X-121982Y23580D01*
X-122482Y24080D02*
X-121982Y23580D01*
X-122482Y24080D02*
X-121982D01*
X-121482Y24580D01*
X-120982Y24080D01*
X-120482D01*
X-120982Y23580D02*
X-120482Y24080D01*
X-120982Y23580D02*
X-120482Y23080D01*
X-120982D02*
X-120482D01*
X-121482Y22580D02*
X-120982Y23080D01*
X-118900Y-26885D02*
X-118400Y-27385D01*
X-119400Y-26885D02*
X-118900D01*
X-119400D02*
X-118900Y-26385D01*
X-119400Y-25885D02*
X-118900Y-26385D01*
X-119400Y-25885D02*
X-118900D01*
X-118400Y-25385D01*
X-117900Y-25885D01*
X-117400D01*
X-117900Y-26385D02*
X-117400Y-25885D01*
X-117900Y-26385D02*
X-117400Y-26885D01*
X-117900D02*
X-117400D01*
X-118400Y-27385D02*
X-117900Y-26885D01*
X-113300Y11700D02*
X-112300Y12200D01*
X-111300Y11700D01*
X-111800Y12700D02*
X-111300Y11700D01*
X-111800Y12700D02*
X-111300Y13700D01*
X-112300Y13200D02*
X-111300Y13700D01*
X-113300D02*
X-112300Y13200D01*
X-113300Y13700D02*
X-112800Y12700D01*
X-113300Y11700D02*
X-112800Y12700D01*
X-113300Y7700D02*
X-112300Y8200D01*
X-111300Y7700D01*
X-111800Y8700D02*
X-111300Y7700D01*
X-111800Y8700D02*
X-111300Y9700D01*
X-112300Y9200D02*
X-111300Y9700D01*
X-113300D02*
X-112300Y9200D01*
X-113300Y9700D02*
X-112800Y8700D01*
X-113300Y7700D02*
X-112800Y8700D01*
X-113500Y-10500D02*
X-112500Y-10000D01*
X-111500Y-10500D01*
X-112000Y-9500D02*
X-111500Y-10500D01*
X-112000Y-9500D02*
X-111500Y-8500D01*
X-112500Y-9000D02*
X-111500Y-8500D01*
X-113500D02*
X-112500Y-9000D01*
X-113500Y-8500D02*
X-113000Y-9500D01*
X-113500Y-10500D02*
X-113000Y-9500D01*
X-113500Y-6800D02*
X-112500Y-6300D01*
X-111500Y-6800D01*
X-112000Y-5800D02*
X-111500Y-6800D01*
X-112000Y-5800D02*
X-111500Y-4800D01*
X-112500Y-5300D02*
X-111500Y-4800D01*
X-113500D02*
X-112500Y-5300D01*
X-113500Y-4800D02*
X-113000Y-5800D01*
X-113500Y-6800D02*
X-113000Y-5800D01*
X-116400Y9800D02*
X-115400Y10300D01*
X-114400Y9800D01*
X-114900Y10800D02*
X-114400Y9800D01*
X-114900Y10800D02*
X-114400Y11800D01*
X-115400Y11300D02*
X-114400Y11800D01*
X-116400D02*
X-115400Y11300D01*
X-116400Y11800D02*
X-115900Y10800D01*
X-116400Y9800D02*
X-115900Y10800D01*
X-116500Y-8700D02*
X-115500Y-8200D01*
X-114500Y-8700D01*
X-115000Y-7700D02*
X-114500Y-8700D01*
X-115000Y-7700D02*
X-114500Y-6700D01*
X-115500Y-7200D02*
X-114500Y-6700D01*
X-116500D02*
X-115500Y-7200D01*
X-116500Y-6700D02*
X-116000Y-7700D01*
X-116500Y-8700D02*
X-116000Y-7700D01*
X-60200Y102800D02*
X-59200Y103300D01*
X-58200Y102800D01*
X-58700Y103800D02*
X-58200Y102800D01*
X-58700Y103800D02*
X-58200Y104800D01*
X-59200Y104300D02*
X-58200Y104800D01*
X-60200D02*
X-59200Y104300D01*
X-60200Y104800D02*
X-59700Y103800D01*
X-60200Y102800D02*
X-59700Y103800D01*
X-60200Y95700D02*
X-59200Y96200D01*
X-58200Y95700D01*
X-58700Y96700D02*
X-58200Y95700D01*
X-58700Y96700D02*
X-58200Y97700D01*
X-59200Y97200D02*
X-58200Y97700D01*
X-60200D02*
X-59200Y97200D01*
X-60200Y97700D02*
X-59700Y96700D01*
X-60200Y95700D02*
X-59700Y96700D01*
X-60200Y99200D02*
X-59200Y99700D01*
X-58200Y99200D01*
X-58700Y100200D02*
X-58200Y99200D01*
X-58700Y100200D02*
X-58200Y101200D01*
X-59200Y100700D02*
X-58200Y101200D01*
X-60200D02*
X-59200Y100700D01*
X-60200Y101200D02*
X-59700Y100200D01*
X-60200Y99200D02*
X-59700Y100200D01*
X-49400Y102700D02*
X-48400Y103200D01*
X-47400Y102700D01*
X-47900Y103700D02*
X-47400Y102700D01*
X-47900Y103700D02*
X-47400Y104700D01*
X-48400Y104200D02*
X-47400Y104700D01*
X-49400D02*
X-48400Y104200D01*
X-49400Y104700D02*
X-48900Y103700D01*
X-49400Y102700D02*
X-48900Y103700D01*
X-49400Y99200D02*
X-48400Y99700D01*
X-47400Y99200D01*
X-47900Y100200D02*
X-47400Y99200D01*
X-47900Y100200D02*
X-47400Y101200D01*
X-48400Y100700D02*
X-47400Y101200D01*
X-49400D02*
X-48400Y100700D01*
X-49400Y101200D02*
X-48900Y100200D01*
X-49400Y99200D02*
X-48900Y100200D01*
X-49400Y95600D02*
X-48400Y96100D01*
X-47400Y95600D01*
X-47900Y96600D02*
X-47400Y95600D01*
X-47900Y96600D02*
X-47400Y97600D01*
X-48400Y97100D02*
X-47400Y97600D01*
X-49400D02*
X-48400Y97100D01*
X-49400Y97600D02*
X-48900Y96600D01*
X-49400Y95600D02*
X-48900Y96600D01*
X-107500Y-24200D02*
X-107000Y-24700D01*
X-108000Y-24200D02*
X-107500D01*
X-108000D02*
X-107500Y-23700D01*
X-108000Y-23200D02*
X-107500Y-23700D01*
X-108000Y-23200D02*
X-107500D01*
X-107000Y-22700D01*
X-106500Y-23200D01*
X-106000D01*
X-106500Y-23700D02*
X-106000Y-23200D01*
X-106500Y-23700D02*
X-106000Y-24200D01*
X-106500D02*
X-106000D01*
X-107000Y-24700D02*
X-106500Y-24200D01*
X-113216Y-34854D02*
X-112716Y-35354D01*
X-113716Y-34854D02*
X-113216D01*
X-113716D02*
X-113216Y-34354D01*
X-113716Y-33854D02*
X-113216Y-34354D01*
X-113716Y-33854D02*
X-113216D01*
X-112716Y-33354D01*
X-112216Y-33854D01*
X-111716D01*
X-112216Y-34354D02*
X-111716Y-33854D01*
X-112216Y-34354D02*
X-111716Y-34854D01*
X-112216D02*
X-111716D01*
X-112716Y-35354D02*
X-112216Y-34854D01*
X-78400Y-39300D02*
X-77900Y-39800D01*
X-78900Y-39300D02*
X-78400D01*
X-78900D02*
X-78400Y-38800D01*
X-78900Y-38300D02*
X-78400Y-38800D01*
X-78900Y-38300D02*
X-78400D01*
X-77900Y-37800D01*
X-77400Y-38300D01*
X-76900D01*
X-77400Y-38800D02*
X-76900Y-38300D01*
X-77400Y-38800D02*
X-76900Y-39300D01*
X-77400D02*
X-76900D01*
X-77900Y-39800D02*
X-77400Y-39300D01*
X-82600Y-56600D02*
X-82100Y-57100D01*
X-83100Y-56600D02*
X-82600D01*
X-83100D02*
X-82600Y-56100D01*
X-83100Y-55600D02*
X-82600Y-56100D01*
X-83100Y-55600D02*
X-82600D01*
X-82100Y-55100D01*
X-81600Y-55600D01*
X-81100D01*
X-81600Y-56100D02*
X-81100Y-55600D01*
X-81600Y-56100D02*
X-81100Y-56600D01*
X-81600D02*
X-81100D01*
X-82100Y-57100D02*
X-81600Y-56600D01*
X-85300Y-45700D02*
X-84800Y-46200D01*
X-85800Y-45700D02*
X-85300D01*
X-85800D02*
X-85300Y-45200D01*
X-85800Y-44700D02*
X-85300Y-45200D01*
X-85800Y-44700D02*
X-85300D01*
X-84800Y-44200D01*
X-84300Y-44700D01*
X-83800D01*
X-84300Y-45200D02*
X-83800Y-44700D01*
X-84300Y-45200D02*
X-83800Y-45700D01*
X-84300D02*
X-83800D01*
X-84800Y-46200D02*
X-84300Y-45700D01*
X-84489Y-61666D02*
X-83989Y-62166D01*
X-84989Y-61666D02*
X-84489D01*
X-84989D02*
X-84489Y-61166D01*
X-84989Y-60666D02*
X-84489Y-61166D01*
X-84989Y-60666D02*
X-84489D01*
X-83989Y-60166D01*
X-83489Y-60666D01*
X-82989D01*
X-83489Y-61166D02*
X-82989Y-60666D01*
X-83489Y-61166D02*
X-82989Y-61666D01*
X-83489D02*
X-82989D01*
X-83989Y-62166D02*
X-83489Y-61666D01*
X-87600Y-63400D02*
X-87100Y-63900D01*
X-88100Y-63400D02*
X-87600D01*
X-88100D02*
X-87600Y-62900D01*
X-88100Y-62400D02*
X-87600Y-62900D01*
X-88100Y-62400D02*
X-87600D01*
X-87100Y-61900D01*
X-86600Y-62400D01*
X-86100D01*
X-86600Y-62900D02*
X-86100Y-62400D01*
X-86600Y-62900D02*
X-86100Y-63400D01*
X-86600D02*
X-86100D01*
X-87100Y-63900D02*
X-86600Y-63400D01*
X-104400Y-49800D02*
X-103900Y-50300D01*
X-104900Y-49800D02*
X-104400D01*
X-104900D02*
X-104400Y-49300D01*
X-104900Y-48800D02*
X-104400Y-49300D01*
X-104900Y-48800D02*
X-104400D01*
X-103900Y-48300D01*
X-103400Y-48800D01*
X-102900D01*
X-103400Y-49300D02*
X-102900Y-48800D01*
X-103400Y-49300D02*
X-102900Y-49800D01*
X-103400D02*
X-102900D01*
X-103900Y-50300D02*
X-103400Y-49800D01*
X-99400Y-80900D02*
X-98900Y-81400D01*
X-99900Y-80900D02*
X-99400D01*
X-99900D02*
X-99400Y-80400D01*
X-99900Y-79900D02*
X-99400Y-80400D01*
X-99900Y-79900D02*
X-99400D01*
X-98900Y-79400D01*
X-98400Y-79900D01*
X-97900D01*
X-98400Y-80400D02*
X-97900Y-79900D01*
X-98400Y-80400D02*
X-97900Y-80900D01*
X-98400D02*
X-97900D01*
X-98900Y-81400D02*
X-98400Y-80900D01*
X-86875Y-43025D02*
X-86375Y-43525D01*
X-87375Y-43025D02*
X-86875D01*
X-87375D02*
X-86875Y-42525D01*
X-87375Y-42025D02*
X-86875Y-42525D01*
X-87375Y-42025D02*
X-86875D01*
X-86375Y-41525D01*
X-85875Y-42025D01*
X-85375D01*
X-85875Y-42525D02*
X-85375Y-42025D01*
X-85875Y-42525D02*
X-85375Y-43025D01*
X-85875D02*
X-85375D01*
X-86375Y-43525D02*
X-85875Y-43025D01*
X-95400Y-86000D02*
X-94900Y-86500D01*
X-95900Y-86000D02*
X-95400D01*
X-95900D02*
X-95400Y-85500D01*
X-95900Y-85000D02*
X-95400Y-85500D01*
X-95900Y-85000D02*
X-95400D01*
X-94900Y-84500D01*
X-94400Y-85000D01*
X-93900D01*
X-94400Y-85500D02*
X-93900Y-85000D01*
X-94400Y-85500D02*
X-93900Y-86000D01*
X-94400D02*
X-93900D01*
X-94900Y-86500D02*
X-94400Y-86000D01*
X-90500Y-63600D02*
X-90000Y-64100D01*
X-91000Y-63600D02*
X-90500D01*
X-91000D02*
X-90500Y-63100D01*
X-91000Y-62600D02*
X-90500Y-63100D01*
X-91000Y-62600D02*
X-90500D01*
X-90000Y-62100D01*
X-89500Y-62600D01*
X-89000D01*
X-89500Y-63100D02*
X-89000Y-62600D01*
X-89500Y-63100D02*
X-89000Y-63600D01*
X-89500D02*
X-89000D01*
X-90000Y-64100D02*
X-89500Y-63600D01*
X-92516Y-66500D02*
X-92016Y-67000D01*
X-93016Y-66500D02*
X-92516D01*
X-93016D02*
X-92516Y-66000D01*
X-93016Y-65500D02*
X-92516Y-66000D01*
X-93016Y-65500D02*
X-92516D01*
X-92016Y-65000D01*
X-91516Y-65500D01*
X-91016D01*
X-91516Y-66000D02*
X-91016Y-65500D01*
X-91516Y-66000D02*
X-91016Y-66500D01*
X-91516D02*
X-91016D01*
X-92016Y-67000D02*
X-91516Y-66500D01*
X-98400Y-64000D02*
X-97900Y-64500D01*
X-98900Y-64000D02*
X-98400D01*
X-98900D02*
X-98400Y-63500D01*
X-98900Y-63000D02*
X-98400Y-63500D01*
X-98900Y-63000D02*
X-98400D01*
X-97900Y-62500D01*
X-97400Y-63000D01*
X-96900D01*
X-97400Y-63500D02*
X-96900Y-63000D01*
X-97400Y-63500D02*
X-96900Y-64000D01*
X-97400D02*
X-96900D01*
X-97900Y-64500D02*
X-97400Y-64000D01*
X-69900Y-104500D02*
X-69400Y-105000D01*
X-70400Y-104500D02*
X-69900D01*
X-70400D02*
X-69900Y-104000D01*
X-70400Y-103500D02*
X-69900Y-104000D01*
X-70400Y-103500D02*
X-69900D01*
X-69400Y-103000D01*
X-68900Y-103500D01*
X-68400D01*
X-68900Y-104000D02*
X-68400Y-103500D01*
X-68900Y-104000D02*
X-68400Y-104500D01*
X-68900D02*
X-68400D01*
X-69400Y-105000D02*
X-68900Y-104500D01*
X-57000Y-97100D02*
X-56000Y-96600D01*
X-55000Y-97100D01*
X-55500Y-96100D02*
X-55000Y-97100D01*
X-55500Y-96100D02*
X-55000Y-95100D01*
X-56000Y-95600D02*
X-55000Y-95100D01*
X-57000D02*
X-56000Y-95600D01*
X-57000Y-95100D02*
X-56500Y-96100D01*
X-57000Y-97100D02*
X-56500Y-96100D01*
X-69600Y-90400D02*
X-68600Y-89900D01*
X-67600Y-90400D01*
X-68100Y-89400D02*
X-67600Y-90400D01*
X-68100Y-89400D02*
X-67600Y-88400D01*
X-68600Y-88900D02*
X-67600Y-88400D01*
X-69600D02*
X-68600Y-88900D01*
X-69600Y-88400D02*
X-69100Y-89400D01*
X-69600Y-90400D02*
X-69100Y-89400D01*
X-69400Y-100800D02*
X-68400Y-100300D01*
X-67400Y-100800D01*
X-67900Y-99800D02*
X-67400Y-100800D01*
X-67900Y-99800D02*
X-67400Y-98800D01*
X-68400Y-99300D02*
X-67400Y-98800D01*
X-69400D02*
X-68400Y-99300D01*
X-69400Y-98800D02*
X-68900Y-99800D01*
X-69400Y-100800D02*
X-68900Y-99800D01*
X-63300Y-90400D02*
X-62300Y-89900D01*
X-61300Y-90400D01*
X-61800Y-89400D02*
X-61300Y-90400D01*
X-61800Y-89400D02*
X-61300Y-88400D01*
X-62300Y-88900D02*
X-61300Y-88400D01*
X-63300D02*
X-62300Y-88900D01*
X-63300Y-88400D02*
X-62800Y-89400D01*
X-63300Y-90400D02*
X-62800Y-89400D01*
X-61700Y-101100D02*
X-60700Y-100600D01*
X-59700Y-101100D01*
X-60200Y-100100D02*
X-59700Y-101100D01*
X-60200Y-100100D02*
X-59700Y-99100D01*
X-60700Y-99600D02*
X-59700Y-99100D01*
X-61700D02*
X-60700Y-99600D01*
X-61700Y-99100D02*
X-61200Y-100100D01*
X-61700Y-101100D02*
X-61200Y-100100D01*
X-60400Y-97900D02*
X-59400Y-97400D01*
X-58400Y-97900D01*
X-58900Y-96900D02*
X-58400Y-97900D01*
X-58900Y-96900D02*
X-58400Y-95900D01*
X-59400Y-96400D02*
X-58400Y-95900D01*
X-60400D02*
X-59400Y-96400D01*
X-60400Y-95900D02*
X-59900Y-96900D01*
X-60400Y-97900D02*
X-59900Y-96900D01*
X-96760Y-49788D02*
X-96260Y-50288D01*
X-97260Y-49788D02*
X-96760D01*
X-97260D02*
X-96760Y-49288D01*
X-97260Y-48788D02*
X-96760Y-49288D01*
X-97260Y-48788D02*
X-96760D01*
X-96260Y-48288D01*
X-95761Y-48788D01*
X-95261D01*
X-95761Y-49288D02*
X-95261Y-48788D01*
X-95761Y-49288D02*
X-95261Y-49788D01*
X-95761D02*
X-95261D01*
X-96260Y-50288D02*
X-95761Y-49788D01*
X-93877Y-49835D02*
X-93377Y-50335D01*
X-94377Y-49835D02*
X-93877D01*
X-94377D02*
X-93877Y-49335D01*
X-94377Y-48835D02*
X-93877Y-49335D01*
X-94377Y-48835D02*
X-93877D01*
X-93377Y-48335D01*
X-92877Y-48835D01*
X-92377D01*
X-92877Y-49335D02*
X-92377Y-48835D01*
X-92877Y-49335D02*
X-92377Y-49835D01*
X-92877D02*
X-92377D01*
X-93377Y-50335D02*
X-92877Y-49835D01*
X-91012D02*
X-90512Y-50335D01*
X-91512Y-49835D02*
X-91012D01*
X-91512D02*
X-91012Y-49335D01*
X-91512Y-48835D02*
X-91012Y-49335D01*
X-91512Y-48835D02*
X-91012D01*
X-90512Y-48335D01*
X-90012Y-48835D01*
X-89512D01*
X-90012Y-49335D02*
X-89512Y-48835D01*
X-90012Y-49335D02*
X-89512Y-49835D01*
X-90012D02*
X-89512D01*
X-90512Y-50335D02*
X-90012Y-49835D01*
X-96868Y-52788D02*
X-96368Y-53288D01*
X-97369Y-52788D02*
X-96868D01*
X-97369D02*
X-96868Y-52288D01*
X-97369Y-51788D02*
X-96868Y-52288D01*
X-97369Y-51788D02*
X-96868D01*
X-96368Y-51288D01*
X-95868Y-51788D01*
X-95368D01*
X-95868Y-52288D02*
X-95368Y-51788D01*
X-95868Y-52288D02*
X-95368Y-52788D01*
X-95868D02*
X-95368D01*
X-96368Y-53288D02*
X-95868Y-52788D01*
X-93912D02*
X-93412Y-53288D01*
X-94412Y-52788D02*
X-93912D01*
X-94412D02*
X-93912Y-52288D01*
X-94412Y-51788D02*
X-93912Y-52288D01*
X-94412Y-51788D02*
X-93912D01*
X-93412Y-51288D01*
X-92912Y-51788D01*
X-92412D01*
X-92912Y-52288D02*
X-92412Y-51788D01*
X-92912Y-52288D02*
X-92412Y-52788D01*
X-92912D02*
X-92412D01*
X-93412Y-53288D02*
X-92912Y-52788D01*
X-96957Y-55741D02*
X-96457Y-56241D01*
X-97457Y-55741D02*
X-96957D01*
X-97457D02*
X-96957Y-55241D01*
X-97457Y-54741D02*
X-96957Y-55241D01*
X-97457Y-54741D02*
X-96957D01*
X-96457Y-54241D01*
X-95957Y-54741D01*
X-95457D01*
X-95957Y-55241D02*
X-95457Y-54741D01*
X-95957Y-55241D02*
X-95457Y-55741D01*
X-95957D02*
X-95457D01*
X-96457Y-56241D02*
X-95957Y-55741D01*
X-101100Y-61400D02*
X-100600Y-61900D01*
X-101600Y-61400D02*
X-101100D01*
X-101600D02*
X-101100Y-60900D01*
X-101600Y-60400D02*
X-101100Y-60900D01*
X-101600Y-60400D02*
X-101100D01*
X-100600Y-59900D01*
X-100100Y-60400D01*
X-99600D01*
X-100100Y-60900D02*
X-99600Y-60400D01*
X-100100Y-60900D02*
X-99600Y-61400D01*
X-100100D02*
X-99600D01*
X-100600Y-61900D02*
X-100100Y-61400D01*
X-31700Y81700D02*
X-31200Y81200D01*
X-32200Y81700D02*
X-31700D01*
X-32200D02*
X-31700Y82200D01*
X-32200Y82700D02*
X-31700Y82200D01*
X-32200Y82700D02*
X-31700D01*
X-31200Y83200D01*
X-30700Y82700D01*
X-30200D01*
X-30700Y82200D02*
X-30200Y82700D01*
X-30700Y82200D02*
X-30200Y81700D01*
X-30700D02*
X-30200D01*
X-31200Y81200D02*
X-30700Y81700D01*
X-28200D02*
X-27700Y81200D01*
X-28700Y81700D02*
X-28200D01*
X-28700D02*
X-28200Y82200D01*
X-28700Y82700D02*
X-28200Y82200D01*
X-28700Y82700D02*
X-28200D01*
X-27700Y83200D01*
X-27200Y82700D01*
X-26700D01*
X-27200Y82200D02*
X-26700Y82700D01*
X-27200Y82200D02*
X-26700Y81700D01*
X-27200D02*
X-26700D01*
X-27700Y81200D02*
X-27200Y81700D01*
X37600Y-55300D02*
X38100Y-55800D01*
X37100Y-55300D02*
X37600D01*
X37100D02*
X37600Y-54800D01*
X37100Y-54300D02*
X37600Y-54800D01*
X37100Y-54300D02*
X37600D01*
X38100Y-53800D01*
X38600Y-54300D01*
X39100D01*
X38600Y-54800D02*
X39100Y-54300D01*
X38600Y-54800D02*
X39100Y-55300D01*
X38600D02*
X39100D01*
X38100Y-55800D02*
X38600Y-55300D01*
X115600Y-25400D02*
X116100Y-25900D01*
X115100Y-25400D02*
X115600D01*
X115100D02*
X115600Y-24900D01*
X115100Y-24400D02*
X115600Y-24900D01*
X115100Y-24400D02*
X115600D01*
X116100Y-23900D01*
X116600Y-24400D01*
X117100D01*
X116600Y-24900D02*
X117100Y-24400D01*
X116600Y-24900D02*
X117100Y-25400D01*
X116600D02*
X117100D01*
X116100Y-25900D02*
X116600Y-25400D01*
X117800Y-29700D02*
X118300Y-30200D01*
X117300Y-29700D02*
X117800D01*
X117300D02*
X117800Y-29200D01*
X117300Y-28700D02*
X117800Y-29200D01*
X117300Y-28700D02*
X117800D01*
X118300Y-28200D01*
X118800Y-28700D01*
X119300D01*
X118800Y-29200D02*
X119300Y-28700D01*
X118800Y-29200D02*
X119300Y-29700D01*
X118800D02*
X119300D01*
X118300Y-30200D02*
X118800Y-29700D01*
X111200Y-25700D02*
X111700Y-26200D01*
X110700Y-25700D02*
X111200D01*
X110700D02*
X111200Y-25200D01*
X110700Y-24700D02*
X111200Y-25200D01*
X110700Y-24700D02*
X111200D01*
X111700Y-24200D01*
X112200Y-24700D01*
X112700D01*
X112200Y-25200D02*
X112700Y-24700D01*
X112200Y-25200D02*
X112700Y-25700D01*
X112200D02*
X112700D01*
X111700Y-26200D02*
X112200Y-25700D01*
X48100Y-400D02*
X48600Y-900D01*
X47600Y-400D02*
X48100D01*
X47600D02*
X48100Y100D01*
X47600Y600D02*
X48100Y100D01*
X47600Y600D02*
X48100D01*
X48600Y1100D01*
X49100Y600D01*
X49600D01*
X49100Y100D02*
X49600Y600D01*
X49100Y100D02*
X49600Y-400D01*
X49100D02*
X49600D01*
X48600Y-900D02*
X49100Y-400D01*
X44500Y109900D02*
X45500Y110400D01*
X46500Y109900D01*
X46000Y110900D02*
X46500Y109900D01*
X46000Y110900D02*
X46500Y111900D01*
X45500Y111400D02*
X46500Y111900D01*
X44500D02*
X45500Y111400D01*
X44500Y111900D02*
X45000Y110900D01*
X44500Y109900D02*
X45000Y110900D01*
X44500Y104900D02*
X45500Y105400D01*
X46500Y104900D01*
X46000Y105900D02*
X46500Y104900D01*
X46000Y105900D02*
X46500Y106900D01*
X45500Y106400D02*
X46500Y106900D01*
X44500D02*
X45500Y106400D01*
X44500Y106900D02*
X45000Y105900D01*
X44500Y104900D02*
X45000Y105900D01*
X61220Y-9331D02*
X62220Y-8832D01*
X63220Y-9331D01*
X62720Y-8331D02*
X63220Y-9331D01*
X62720Y-8331D02*
X63220Y-7332D01*
X62220Y-7831D02*
X63220Y-7332D01*
X61220D02*
X62220Y-7831D01*
X61220Y-7332D02*
X61720Y-8331D01*
X61220Y-9331D02*
X61720Y-8331D01*
X93600Y-31300D02*
X94100Y-31800D01*
X93100Y-31300D02*
X93600D01*
X93100D02*
X93600Y-30800D01*
X93100Y-30300D02*
X93600Y-30800D01*
X93100Y-30300D02*
X93600D01*
X94100Y-29800D01*
X94600Y-30300D01*
X95100D01*
X94600Y-30800D02*
X95100Y-30300D01*
X94600Y-30800D02*
X95100Y-31300D01*
X94600D02*
X95100D01*
X94100Y-31800D02*
X94600Y-31300D01*
X94100Y-76800D02*
X94600Y-77300D01*
X93600Y-76800D02*
X94100D01*
X93600D02*
X94100Y-76300D01*
X93600Y-75800D02*
X94100Y-76300D01*
X93600Y-75800D02*
X94100D01*
X94600Y-75300D01*
X95100Y-75800D01*
X95600D01*
X95100Y-76300D02*
X95600Y-75800D01*
X95100Y-76300D02*
X95600Y-76800D01*
X95100D02*
X95600D01*
X94600Y-77300D02*
X95100Y-76800D01*
X64983Y-76910D02*
X65483Y-77409D01*
X64483Y-76910D02*
X64983D01*
X64483D02*
X64983Y-76410D01*
X64483Y-75910D02*
X64983Y-76410D01*
X64483Y-75910D02*
X64983D01*
X65483Y-75410D01*
X65983Y-75910D01*
X66483D01*
X65983Y-76410D02*
X66483Y-75910D01*
X65983Y-76410D02*
X66483Y-76910D01*
X65983D02*
X66483D01*
X65483Y-77409D02*
X65983Y-76910D01*
X56700Y-73300D02*
X57200Y-73800D01*
X56200Y-73300D02*
X56700D01*
X56200D02*
X56700Y-72800D01*
X56200Y-72300D02*
X56700Y-72800D01*
X56200Y-72300D02*
X56700D01*
X57200Y-71800D01*
X57700Y-72300D01*
X58200D01*
X57700Y-72800D02*
X58200Y-72300D01*
X57700Y-72800D02*
X58200Y-73300D01*
X57700D02*
X58200D01*
X57200Y-73800D02*
X57700Y-73300D01*
X37209Y-63700D02*
X37709Y-64200D01*
X36709Y-63700D02*
X37209D01*
X36709D02*
X37209Y-63200D01*
X36709Y-62700D02*
X37209Y-63200D01*
X36709Y-62700D02*
X37209D01*
X37709Y-62200D01*
X38209Y-62700D01*
X38709D01*
X38209Y-63200D02*
X38709Y-62700D01*
X38209Y-63200D02*
X38709Y-63700D01*
X38209D02*
X38709D01*
X37709Y-64200D02*
X38209Y-63700D01*
X-18300Y-65100D02*
X-17800Y-65600D01*
X-18800Y-65100D02*
X-18300D01*
X-18800D02*
X-18300Y-64600D01*
X-18800Y-64100D02*
X-18300Y-64600D01*
X-18800Y-64100D02*
X-18300D01*
X-17800Y-63600D01*
X-17300Y-64100D01*
X-16800D01*
X-17300Y-64600D02*
X-16800Y-64100D01*
X-17300Y-64600D02*
X-16800Y-65100D01*
X-17300D02*
X-16800D01*
X-17800Y-65600D02*
X-17300Y-65100D01*
X3609Y-65191D02*
X4109Y-65691D01*
X3109Y-65191D02*
X3609D01*
X3109D02*
X3609Y-64691D01*
X3109Y-64191D02*
X3609Y-64691D01*
X3109Y-64191D02*
X3609D01*
X4109Y-63691D01*
X4609Y-64191D01*
X5109D01*
X4609Y-64691D02*
X5109Y-64191D01*
X4609Y-64691D02*
X5109Y-65191D01*
X4609D02*
X5109D01*
X4109Y-65691D02*
X4609Y-65191D01*
X110000Y-61000D02*
X110500Y-61500D01*
X109500Y-61000D02*
X110000D01*
X109500D02*
X110000Y-60500D01*
X109500Y-60000D02*
X110000Y-60500D01*
X109500Y-60000D02*
X110000D01*
X110500Y-59500D01*
X111000Y-60000D01*
X111500D01*
X111000Y-60500D02*
X111500Y-60000D01*
X111000Y-60500D02*
X111500Y-61000D01*
X111000D02*
X111500D01*
X110500Y-61500D02*
X111000Y-61000D01*
X-71600Y105200D02*
X-71100Y104700D01*
X-72100Y105200D02*
X-71600D01*
X-72100D02*
X-71600Y105700D01*
X-72100Y106200D02*
X-71600Y105700D01*
X-72100Y106200D02*
X-71600D01*
X-71100Y106700D01*
X-70600Y106200D01*
X-70100D01*
X-70600Y105700D02*
X-70100Y106200D01*
X-70600Y105700D02*
X-70100Y105200D01*
X-70600D02*
X-70100D01*
X-71100Y104700D02*
X-70600Y105200D01*
X29500Y-47600D02*
X30000Y-48100D01*
X29000Y-47600D02*
X29500D01*
X29000D02*
X29500Y-47100D01*
X29000Y-46600D02*
X29500Y-47100D01*
X29000Y-46600D02*
X29500D01*
X30000Y-46100D01*
X30500Y-46600D01*
X31000D01*
X30500Y-47100D02*
X31000Y-46600D01*
X30500Y-47100D02*
X31000Y-47600D01*
X30500D02*
X31000D01*
X30000Y-48100D02*
X30500Y-47600D01*
X29009Y-52250D02*
X29509Y-52750D01*
X28509Y-52250D02*
X29009D01*
X28509D02*
X29009Y-51750D01*
X28509Y-51250D02*
X29009Y-51750D01*
X28509Y-51250D02*
X29009D01*
X29509Y-50750D01*
X30009Y-51250D01*
X30509D01*
X30009Y-51750D02*
X30509Y-51250D01*
X30009Y-51750D02*
X30509Y-52250D01*
X30009D02*
X30509D01*
X29509Y-52750D02*
X30009Y-52250D01*
X-58100Y-86700D02*
X-57100Y-86200D01*
X-56100Y-86700D01*
X-56600Y-85700D02*
X-56100Y-86700D01*
X-56600Y-85700D02*
X-56100Y-84700D01*
X-57100Y-85200D02*
X-56100Y-84700D01*
X-58100D02*
X-57100Y-85200D01*
X-58100Y-84700D02*
X-57600Y-85700D01*
X-58100Y-86700D02*
X-57600Y-85700D01*
X-51900Y-79200D02*
X-50900Y-78700D01*
X-49900Y-79200D01*
X-50400Y-78200D02*
X-49900Y-79200D01*
X-50400Y-78200D02*
X-49900Y-77200D01*
X-50900Y-77700D02*
X-49900Y-77200D01*
X-51900D02*
X-50900Y-77700D01*
X-51900Y-77200D02*
X-51400Y-78200D01*
X-51900Y-79200D02*
X-51400Y-78200D01*
X-51900Y-82800D02*
X-50900Y-82300D01*
X-49900Y-82800D01*
X-50400Y-81800D02*
X-49900Y-82800D01*
X-50400Y-81800D02*
X-49900Y-80800D01*
X-50900Y-81300D02*
X-49900Y-80800D01*
X-51900D02*
X-50900Y-81300D01*
X-51900Y-80800D02*
X-51400Y-81800D01*
X-51900Y-82800D02*
X-51400Y-81800D01*
X-58600Y-90500D02*
X-57600Y-90000D01*
X-56600Y-90500D01*
X-57100Y-89500D02*
X-56600Y-90500D01*
X-57100Y-89500D02*
X-56600Y-88500D01*
X-57600Y-89000D02*
X-56600Y-88500D01*
X-58600D02*
X-57600Y-89000D01*
X-58600Y-88500D02*
X-58100Y-89500D01*
X-58600Y-90500D02*
X-58100Y-89500D01*
X-82880Y14074D02*
X-81880Y14573D01*
X-80880Y14074D01*
X-81380Y15074D02*
X-80880Y14074D01*
X-81380Y15074D02*
X-80880Y16073D01*
X-81880Y15574D02*
X-80880Y16073D01*
X-82880D02*
X-81880Y15574D01*
X-82880Y16073D02*
X-82380Y15074D01*
X-82880Y14074D02*
X-82380Y15074D01*
X-82200Y9200D02*
X-81200Y9700D01*
X-80200Y9200D01*
X-80700Y10200D02*
X-80200Y9200D01*
X-80700Y10200D02*
X-80200Y11200D01*
X-81200Y10700D02*
X-80200Y11200D01*
X-82200D02*
X-81200Y10700D01*
X-82200Y11200D02*
X-81700Y10200D01*
X-82200Y9200D02*
X-81700Y10200D01*
X-86900Y900D02*
X-85900Y1400D01*
X-84900Y900D01*
X-85400Y1900D02*
X-84900Y900D01*
X-85400Y1900D02*
X-84900Y2900D01*
X-85900Y2400D02*
X-84900Y2900D01*
X-86900D02*
X-85900Y2400D01*
X-86900Y2900D02*
X-86400Y1900D01*
X-86900Y900D02*
X-86400Y1900D01*
X-92800Y-3700D02*
X-91800Y-3200D01*
X-90800Y-3700D01*
X-91300Y-2700D02*
X-90800Y-3700D01*
X-91300Y-2700D02*
X-90800Y-1700D01*
X-91800Y-2200D02*
X-90800Y-1700D01*
X-92800D02*
X-91800Y-2200D01*
X-92800Y-1700D02*
X-92300Y-2700D01*
X-92800Y-3700D02*
X-92300Y-2700D01*
X-78373Y9570D02*
X-77373Y10070D01*
X-76373Y9570D01*
X-76873Y10570D02*
X-76373Y9570D01*
X-76873Y10570D02*
X-76373Y11570D01*
X-77373Y11070D02*
X-76373Y11570D01*
X-78373D02*
X-77373Y11070D01*
X-78373Y11570D02*
X-77873Y10570D01*
X-78373Y9570D02*
X-77873Y10570D01*
X-116700Y-34000D02*
X-115700Y-33500D01*
X-114700Y-34000D01*
X-115200Y-33000D02*
X-114700Y-34000D01*
X-115200Y-33000D02*
X-114700Y-32000D01*
X-115700Y-32500D02*
X-114700Y-32000D01*
X-116700D02*
X-115700Y-32500D01*
X-116700Y-32000D02*
X-116200Y-33000D01*
X-116700Y-34000D02*
X-116200Y-33000D01*
X-108100Y-21100D02*
X-107100Y-20600D01*
X-106100Y-21100D01*
X-106600Y-20100D02*
X-106100Y-21100D01*
X-106600Y-20100D02*
X-106100Y-19100D01*
X-107100Y-19600D02*
X-106100Y-19100D01*
X-108100D02*
X-107100Y-19600D01*
X-108100Y-19100D02*
X-107600Y-20100D01*
X-108100Y-21100D02*
X-107600Y-20100D01*
X2331Y100521D02*
X3331Y101021D01*
X4331Y100521D01*
X3831Y101521D02*
X4331Y100521D01*
X3831Y101521D02*
X4331Y102521D01*
X3331Y102021D02*
X4331Y102521D01*
X2331D02*
X3331Y102021D01*
X2331Y102521D02*
X2831Y101521D01*
X2331Y100521D02*
X2831Y101521D01*
X2331Y95591D02*
X3331Y96092D01*
X4331Y95591D01*
X3831Y96592D02*
X4331Y95591D01*
X3831Y96592D02*
X4331Y97592D01*
X3331Y97092D02*
X4331Y97592D01*
X2331D02*
X3331Y97092D01*
X2331Y97592D02*
X2831Y96592D01*
X2331Y95591D02*
X2831Y96592D01*
X2331Y90713D02*
X3331Y91213D01*
X4331Y90713D01*
X3831Y91713D02*
X4331Y90713D01*
X3831Y91713D02*
X4331Y92713D01*
X3331Y92213D02*
X4331Y92713D01*
X2331D02*
X3331Y92213D01*
X2331Y92713D02*
X2831Y91713D01*
X2331Y90713D02*
X2831Y91713D01*
X7400Y100592D02*
X8400Y101092D01*
X9400Y100592D01*
X8900Y101592D02*
X9400Y100592D01*
X8900Y101592D02*
X9400Y102592D01*
X8400Y102092D02*
X9400Y102592D01*
X7400D02*
X8400Y102092D01*
X7400Y102592D02*
X7900Y101592D01*
X7400Y100592D02*
X7900Y101592D01*
X7400Y95591D02*
X8400Y96092D01*
X9400Y95591D01*
X8900Y96592D02*
X9400Y95591D01*
X8900Y96592D02*
X9400Y97592D01*
X8400Y97092D02*
X9400Y97592D01*
X7400D02*
X8400Y97092D01*
X7400Y97592D02*
X7900Y96592D01*
X7400Y95591D02*
X7900Y96592D01*
X7400Y90713D02*
X8400Y91213D01*
X9400Y90713D01*
X8900Y91713D02*
X9400Y90713D01*
X8900Y91713D02*
X9400Y92713D01*
X8400Y92213D02*
X9400Y92713D01*
X7400D02*
X8400Y92213D01*
X7400Y92713D02*
X7900Y91713D01*
X7400Y90713D02*
X7900Y91713D01*
X-22300Y80500D02*
X-21300Y81000D01*
X-20300Y80500D01*
X-20800Y81500D02*
X-20300Y80500D01*
X-20800Y81500D02*
X-20300Y82500D01*
X-21300Y82000D02*
X-20300Y82500D01*
X-22300D02*
X-21300Y82000D01*
X-22300Y82500D02*
X-21800Y81500D01*
X-22300Y80500D02*
X-21800Y81500D01*
X-24806Y76941D02*
X-23806Y77441D01*
X-22806Y76941D01*
X-23306Y77941D02*
X-22806Y76941D01*
X-23306Y77941D02*
X-22806Y78941D01*
X-23806Y78441D02*
X-22806Y78941D01*
X-24806D02*
X-23806Y78441D01*
X-24806Y78941D02*
X-24306Y77941D01*
X-24806Y76941D02*
X-24306Y77941D01*
X-26000Y94300D02*
X-25000Y94800D01*
X-24000Y94300D01*
X-24500Y95300D02*
X-24000Y94300D01*
X-24500Y95300D02*
X-24000Y96300D01*
X-25000Y95800D02*
X-24000Y96300D01*
X-26000D02*
X-25000Y95800D01*
X-26000Y96300D02*
X-25500Y95300D01*
X-26000Y94300D02*
X-25500Y95300D01*
X-22500Y101900D02*
X-21500Y102400D01*
X-20500Y101900D01*
X-21000Y102900D02*
X-20500Y101900D01*
X-21000Y102900D02*
X-20500Y103900D01*
X-21500Y103400D02*
X-20500Y103900D01*
X-22500D02*
X-21500Y103400D01*
X-22500Y103900D02*
X-22000Y102900D01*
X-22500Y101900D02*
X-22000Y102900D01*
X-8800Y59600D02*
X-7800Y60100D01*
X-6800Y59600D01*
X-7300Y60600D02*
X-6800Y59600D01*
X-7300Y60600D02*
X-6800Y61600D01*
X-7800Y61100D02*
X-6800Y61600D01*
X-8800D02*
X-7800Y61100D01*
X-8800Y61600D02*
X-8300Y60600D01*
X-8800Y59600D02*
X-8300Y60600D01*
X-8800Y65500D02*
X-7800Y66000D01*
X-6800Y65500D01*
X-7300Y66500D02*
X-6800Y65500D01*
X-7300Y66500D02*
X-6800Y67500D01*
X-7800Y67000D02*
X-6800Y67500D01*
X-8800D02*
X-7800Y67000D01*
X-8800Y67500D02*
X-8300Y66500D01*
X-8800Y65500D02*
X-8300Y66500D01*
X38300Y62600D02*
X39300Y63100D01*
X40300Y62600D01*
X39800Y63600D02*
X40300Y62600D01*
X39800Y63600D02*
X40300Y64600D01*
X39300Y64100D02*
X40300Y64600D01*
X38300D02*
X39300Y64100D01*
X38300Y64600D02*
X38800Y63600D01*
X38300Y62600D02*
X38800Y63600D01*
X29100Y57100D02*
X30100Y57600D01*
X31100Y57100D01*
X30600Y58100D02*
X31100Y57100D01*
X30600Y58100D02*
X31100Y59100D01*
X30100Y58600D02*
X31100Y59100D01*
X29100D02*
X30100Y58600D01*
X29100Y59100D02*
X29600Y58100D01*
X29100Y57100D02*
X29600Y58100D01*
X22413Y62100D02*
X23413Y62600D01*
X24413Y62100D01*
X23913Y63100D02*
X24413Y62100D01*
X23913Y63100D02*
X24413Y64100D01*
X23413Y63600D02*
X24413Y64100D01*
X22413D02*
X23413Y63600D01*
X22413Y64100D02*
X22913Y63100D01*
X22413Y62100D02*
X22913Y63100D01*
X-9000Y103200D02*
X-8000Y103700D01*
X-7000Y103200D01*
X-7500Y104200D02*
X-7000Y103200D01*
X-7500Y104200D02*
X-7000Y105200D01*
X-8000Y104700D02*
X-7000Y105200D01*
X-9000D02*
X-8000Y104700D01*
X-9000Y105200D02*
X-8500Y104200D01*
X-9000Y103200D02*
X-8500Y104200D01*
X62800Y83600D02*
X63800Y84100D01*
X64800Y83600D01*
X64300Y84600D02*
X64800Y83600D01*
X64300Y84600D02*
X64800Y85600D01*
X63800Y85100D02*
X64800Y85600D01*
X62800D02*
X63800Y85100D01*
X62800Y85600D02*
X63300Y84600D01*
X62800Y83600D02*
X63300Y84600D01*
X12209Y-69468D02*
X12709Y-69968D01*
X11709Y-69468D02*
X12209D01*
X11709D02*
X12209Y-68968D01*
X11709Y-68468D02*
X12209Y-68968D01*
X11709Y-68468D02*
X12209D01*
X12709Y-67968D01*
X13209Y-68468D01*
X13709D01*
X13209Y-68968D02*
X13709Y-68468D01*
X13209Y-68968D02*
X13709Y-69468D01*
X13209D02*
X13709D01*
X12709Y-69968D02*
X13209Y-69468D01*
X91558Y-65817D02*
X92058Y-66317D01*
X91058Y-65817D02*
X91558D01*
X91058D02*
X91558Y-65317D01*
X91058Y-64817D02*
X91558Y-65317D01*
X91058Y-64817D02*
X91558D01*
X92058Y-64317D01*
X92558Y-64817D01*
X93058D01*
X92558Y-65317D02*
X93058Y-64817D01*
X92558Y-65317D02*
X93058Y-65817D01*
X92558D02*
X93058D01*
X92058Y-66317D02*
X92558Y-65817D01*
X87500Y-83300D02*
X88000Y-83800D01*
X87000Y-83300D02*
X87500D01*
X87000D02*
X87500Y-82800D01*
X87000Y-82300D02*
X87500Y-82800D01*
X87000Y-82300D02*
X87500D01*
X88000Y-81800D01*
X88500Y-82300D01*
X89000D01*
X88500Y-82800D02*
X89000Y-82300D01*
X88500Y-82800D02*
X89000Y-83300D01*
X88500D02*
X89000D01*
X88000Y-83800D02*
X88500Y-83300D01*
X51818Y-62404D02*
X52318Y-62904D01*
X51318Y-62404D02*
X51818D01*
X51318D02*
X51818Y-61904D01*
X51318Y-61404D02*
X51818Y-61904D01*
X51318Y-61404D02*
X51818D01*
X52318Y-60904D01*
X52818Y-61404D01*
X53318D01*
X52818Y-61904D02*
X53318Y-61404D01*
X52818Y-61904D02*
X53318Y-62404D01*
X52818D02*
X53318D01*
X52318Y-62904D02*
X52818Y-62404D01*
X59653Y-63258D02*
X60153Y-63758D01*
X59153Y-63258D02*
X59653D01*
X59153D02*
X59653Y-62758D01*
X59153Y-62258D02*
X59653Y-62758D01*
X59153Y-62258D02*
X59653D01*
X60153Y-61758D01*
X60653Y-62258D01*
X61153D01*
X60653Y-62758D02*
X61153Y-62258D01*
X60653Y-62758D02*
X61153Y-63258D01*
X60653D02*
X61153D01*
X60153Y-63758D02*
X60653Y-63258D01*
X70600Y-59912D02*
X71100Y-60412D01*
X70100Y-59912D02*
X70600D01*
X70100D02*
X70600Y-59412D01*
X70100Y-58912D02*
X70600Y-59412D01*
X70100Y-58912D02*
X70600D01*
X71100Y-58412D01*
X71600Y-58912D01*
X72100D01*
X71600Y-59412D02*
X72100Y-58912D01*
X71600Y-59412D02*
X72100Y-59912D01*
X71600D02*
X72100D01*
X71100Y-60412D02*
X71600Y-59912D01*
X79157Y-59321D02*
X79657Y-59821D01*
X78657Y-59321D02*
X79157D01*
X78657D02*
X79157Y-58821D01*
X78657Y-58321D02*
X79157Y-58821D01*
X78657Y-58321D02*
X79157D01*
X79657Y-57821D01*
X80157Y-58321D01*
X80657D01*
X80157Y-58821D02*
X80657Y-58321D01*
X80157Y-58821D02*
X80657Y-59321D01*
X80157D02*
X80657D01*
X79657Y-59821D02*
X80157Y-59321D01*
X88212Y-59350D02*
X88712Y-59850D01*
X87712Y-59350D02*
X88212D01*
X87712D02*
X88212Y-58850D01*
X87712Y-58350D02*
X88212Y-58850D01*
X87712Y-58350D02*
X88212D01*
X88712Y-57850D01*
X89212Y-58350D01*
X89712D01*
X89212Y-58850D02*
X89712Y-58350D01*
X89212Y-58850D02*
X89712Y-59350D01*
X89212D02*
X89712D01*
X88712Y-59850D02*
X89212Y-59350D01*
X88999Y-52038D02*
X89499Y-52538D01*
X88499Y-52038D02*
X88999D01*
X88499D02*
X88999Y-51538D01*
X88499Y-51038D02*
X88999Y-51538D01*
X88499Y-51038D02*
X88999D01*
X89499Y-50538D01*
X89999Y-51038D01*
X90499D01*
X89999Y-51538D02*
X90499Y-51038D01*
X89999Y-51538D02*
X90499Y-52038D01*
X89999D02*
X90499D01*
X89499Y-52538D02*
X89999Y-52038D01*
X80731Y-50069D02*
X81231Y-50569D01*
X80231Y-50069D02*
X80731D01*
X80231D02*
X80731Y-49569D01*
X80231Y-49069D02*
X80731Y-49569D01*
X80231Y-49069D02*
X80731D01*
X81231Y-48569D01*
X81731Y-49069D01*
X82231D01*
X81731Y-49569D02*
X82231Y-49069D01*
X81731Y-49569D02*
X82231Y-50069D01*
X81731D02*
X82231D01*
X81231Y-50569D02*
X81731Y-50069D01*
X62600Y-30000D02*
X63100Y-30500D01*
X62100Y-30000D02*
X62600D01*
X62100D02*
X62600Y-29500D01*
X62100Y-29000D02*
X62600Y-29500D01*
X62100Y-29000D02*
X62600D01*
X63100Y-28500D01*
X63600Y-29000D01*
X64100D01*
X63600Y-29500D02*
X64100Y-29000D01*
X63600Y-29500D02*
X64100Y-30000D01*
X63600D02*
X64100D01*
X63100Y-30500D02*
X63600Y-30000D01*
X68700Y-20767D02*
X69200Y-21267D01*
X68200Y-20767D02*
X68700D01*
X68200D02*
X68700Y-20267D01*
X68200Y-19767D02*
X68700Y-20267D01*
X68200Y-19767D02*
X68700D01*
X69200Y-19267D01*
X69700Y-19767D01*
X70200D01*
X69700Y-20267D02*
X70200Y-19767D01*
X69700Y-20267D02*
X70200Y-20767D01*
X69700D02*
X70200D01*
X69200Y-21267D02*
X69700Y-20767D01*
X44600Y-45729D02*
X45100Y-46229D01*
X44100Y-45729D02*
X44600D01*
X44100D02*
X44600Y-45229D01*
X44100Y-44729D02*
X44600Y-45229D01*
X44100Y-44729D02*
X44600D01*
X45100Y-44229D01*
X45600Y-44729D01*
X46100D01*
X45600Y-45229D02*
X46100Y-44729D01*
X45600Y-45229D02*
X46100Y-45729D01*
X45600D02*
X46100D01*
X45100Y-46229D02*
X45600Y-45729D01*
X104200Y7400D02*
X104700Y6900D01*
X103700Y7400D02*
X104200D01*
X103700D02*
X104200Y7900D01*
X103700Y8400D02*
X104200Y7900D01*
X103700Y8400D02*
X104200D01*
X104700Y8900D01*
X105200Y8400D01*
X105700D01*
X105200Y7900D02*
X105700Y8400D01*
X105200Y7900D02*
X105700Y7400D01*
X105200D02*
X105700D01*
X104700Y6900D02*
X105200Y7400D01*
X85653Y-4400D02*
X86153Y-4900D01*
X85153Y-4400D02*
X85653D01*
X85153D02*
X85653Y-3900D01*
X85153Y-3400D02*
X85653Y-3900D01*
X85153Y-3400D02*
X85653D01*
X86153Y-2900D01*
X86653Y-3400D01*
X87153D01*
X86653Y-3900D02*
X87153Y-3400D01*
X86653Y-3900D02*
X87153Y-4400D01*
X86653D02*
X87153D01*
X86153Y-4900D02*
X86653Y-4400D01*
X101262Y-15328D02*
X101762Y-15828D01*
X100762Y-15328D02*
X101262D01*
X100762D02*
X101262Y-14828D01*
X100762Y-14328D02*
X101262Y-14828D01*
X100762Y-14328D02*
X101262D01*
X101762Y-13828D01*
X102262Y-14328D01*
X102762D01*
X102262Y-14828D02*
X102762Y-14328D01*
X102262Y-14828D02*
X102762Y-15328D01*
X102262D02*
X102762D01*
X101762Y-15828D02*
X102262Y-15328D01*
X73100Y-7500D02*
X73600Y-8000D01*
X72600Y-7500D02*
X73100D01*
X72600D02*
X73100Y-7000D01*
X72600Y-6500D02*
X73100Y-7000D01*
X72600Y-6500D02*
X73100D01*
X73600Y-6000D01*
X74100Y-6500D01*
X74600D01*
X74100Y-7000D02*
X74600Y-6500D01*
X74100Y-7000D02*
X74600Y-7500D01*
X74100D02*
X74600D01*
X73600Y-8000D02*
X74100Y-7500D01*
X105300Y-33731D02*
X105800Y-34231D01*
X104800Y-33731D02*
X105300D01*
X104800D02*
X105300Y-33231D01*
X104800Y-32731D02*
X105300Y-33231D01*
X104800Y-32731D02*
X105300D01*
X105800Y-32231D01*
X106300Y-32731D01*
X106800D01*
X106300Y-33231D02*
X106800Y-32731D01*
X106300Y-33231D02*
X106800Y-33731D01*
X106300D02*
X106800D01*
X105800Y-34231D02*
X106300Y-33731D01*
X112300Y-46132D02*
X112800Y-46632D01*
X111800Y-46132D02*
X112300D01*
X111800D02*
X112300Y-45632D01*
X111800Y-45132D02*
X112300Y-45632D01*
X111800Y-45132D02*
X112300D01*
X112800Y-44632D01*
X113300Y-45132D01*
X113800D01*
X113300Y-45632D02*
X113800Y-45132D01*
X113300Y-45632D02*
X113800Y-46132D01*
X113300D02*
X113800D01*
X112800Y-46632D02*
X113300Y-46132D01*
X94708Y-44361D02*
X95208Y-44861D01*
X94208Y-44361D02*
X94708D01*
X94208D02*
X94708Y-43861D01*
X94208Y-43361D02*
X94708Y-43861D01*
X94208Y-43361D02*
X94708D01*
X95208Y-42861D01*
X95708Y-43361D01*
X96208D01*
X95708Y-43861D02*
X96208Y-43361D01*
X95708Y-43861D02*
X96208Y-44361D01*
X95708D02*
X96208D01*
X95208Y-44861D02*
X95708Y-44361D01*
X105400Y-45500D02*
X105900Y-46000D01*
X104900Y-45500D02*
X105400D01*
X104900D02*
X105400Y-45000D01*
X104900Y-44500D02*
X105400Y-45000D01*
X104900Y-44500D02*
X105400D01*
X105900Y-44000D01*
X106400Y-44500D01*
X106900D01*
X106400Y-45000D02*
X106900Y-44500D01*
X106400Y-45000D02*
X106900Y-45500D01*
X106400D02*
X106900D01*
X105900Y-46000D02*
X106400Y-45500D01*
X-47900Y-113800D02*
X-47400Y-114300D01*
X-48400Y-113800D02*
X-47900D01*
X-48400D02*
X-47900Y-113300D01*
X-48400Y-112800D02*
X-47900Y-113300D01*
X-48400Y-112800D02*
X-47900D01*
X-47400Y-112300D01*
X-46900Y-112800D01*
X-46400D01*
X-46900Y-113300D02*
X-46400Y-112800D01*
X-46900Y-113300D02*
X-46400Y-113800D01*
X-46900D02*
X-46400D01*
X-47400Y-114300D02*
X-46900Y-113800D01*
X37900Y-103600D02*
X38400Y-104100D01*
X37400Y-103600D02*
X37900D01*
X37400D02*
X37900Y-103100D01*
X37400Y-102600D02*
X37900Y-103100D01*
X37400Y-102600D02*
X37900D01*
X38400Y-102100D01*
X38900Y-102600D01*
X39400D01*
X38900Y-103100D02*
X39400Y-102600D01*
X38900Y-103100D02*
X39400Y-103600D01*
X38900D02*
X39400D01*
X38400Y-104100D02*
X38900Y-103600D01*
X48900Y-103100D02*
X49400Y-103600D01*
X48400Y-103100D02*
X48900D01*
X48400D02*
X48900Y-102600D01*
X48400Y-102100D02*
X48900Y-102600D01*
X48400Y-102100D02*
X48900D01*
X49400Y-101600D01*
X49900Y-102100D01*
X50400D01*
X49900Y-102600D02*
X50400Y-102100D01*
X49900Y-102600D02*
X50400Y-103100D01*
X49900D02*
X50400D01*
X49400Y-103600D02*
X49900Y-103100D01*
X58752D02*
X59252Y-103600D01*
X58252Y-103100D02*
X58752D01*
X58252D02*
X58752Y-102600D01*
X58252Y-102100D02*
X58752Y-102600D01*
X58252Y-102100D02*
X58752D01*
X59252Y-101600D01*
X59752Y-102100D01*
X60252D01*
X59752Y-102600D02*
X60252Y-102100D01*
X59752Y-102600D02*
X60252Y-103100D01*
X59752D02*
X60252D01*
X59252Y-103600D02*
X59752Y-103100D01*
X28649Y-103600D02*
X29149Y-104100D01*
X28149Y-103600D02*
X28649D01*
X28149D02*
X28649Y-103100D01*
X28149Y-102600D02*
X28649Y-103100D01*
X28149Y-102600D02*
X28649D01*
X29149Y-102100D01*
X29649Y-102600D01*
X30149D01*
X29649Y-103100D02*
X30149Y-102600D01*
X29649Y-103100D02*
X30149Y-103600D01*
X29649D02*
X30149D01*
X29149Y-104100D02*
X29649Y-103600D01*
X60309Y-82900D02*
X60809Y-83400D01*
X59809Y-82900D02*
X60309D01*
X59809D02*
X60309Y-82400D01*
X59809Y-81900D02*
X60309Y-82400D01*
X59809Y-81900D02*
X60309D01*
X60809Y-81400D01*
X61309Y-81900D01*
X61809D01*
X61309Y-82400D02*
X61809Y-81900D01*
X61309Y-82400D02*
X61809Y-82900D01*
X61309D02*
X61809D01*
X60809Y-83400D02*
X61309Y-82900D01*
X42700Y-70800D02*
X43200Y-71300D01*
X42200Y-70800D02*
X42700D01*
X42200D02*
X42700Y-70300D01*
X42200Y-69800D02*
X42700Y-70300D01*
X42200Y-69800D02*
X42700D01*
X43200Y-69300D01*
X43700Y-69800D01*
X44200D01*
X43700Y-70300D02*
X44200Y-69800D01*
X43700Y-70300D02*
X44200Y-70800D01*
X43700D02*
X44200D01*
X43200Y-71300D02*
X43700Y-70800D01*
X46200Y-79800D02*
X46700Y-80300D01*
X45700Y-79800D02*
X46200D01*
X45700D02*
X46200Y-79300D01*
X45700Y-78800D02*
X46200Y-79300D01*
X45700Y-78800D02*
X46200D01*
X46700Y-78300D01*
X47200Y-78800D01*
X47700D01*
X47200Y-79300D02*
X47700Y-78800D01*
X47200Y-79300D02*
X47700Y-79800D01*
X47200D02*
X47700D01*
X46700Y-80300D02*
X47200Y-79800D01*
X6509Y-59323D02*
X7009Y-59823D01*
X6009Y-59323D02*
X6509D01*
X6009D02*
X6509Y-58823D01*
X6009Y-58323D02*
X6509Y-58823D01*
X6009Y-58323D02*
X6509D01*
X7009Y-57823D01*
X7509Y-58323D01*
X8009D01*
X7509Y-58823D02*
X8009Y-58323D01*
X7509Y-58823D02*
X8009Y-59323D01*
X7509D02*
X8009D01*
X7009Y-59823D02*
X7509Y-59323D01*
X13610Y-58504D02*
X14110Y-59004D01*
X13110Y-58504D02*
X13610D01*
X13110D02*
X13610Y-58004D01*
X13110Y-57504D02*
X13610Y-58004D01*
X13110Y-57504D02*
X13610D01*
X14110Y-57004D01*
X14610Y-57504D01*
X15110D01*
X14610Y-58004D02*
X15110Y-57504D01*
X14610Y-58004D02*
X15110Y-58504D01*
X14610D02*
X15110D01*
X14110Y-59004D02*
X14610Y-58504D01*
X-12500Y-50600D02*
X-12000Y-51100D01*
X-13000Y-50600D02*
X-12500D01*
X-13000D02*
X-12500Y-50100D01*
X-13000Y-49600D02*
X-12500Y-50100D01*
X-13000Y-49600D02*
X-12500D01*
X-12000Y-49100D01*
X-11500Y-49600D01*
X-11000D01*
X-11500Y-50100D02*
X-11000Y-49600D01*
X-11500Y-50100D02*
X-11000Y-50600D01*
X-11500D02*
X-11000D01*
X-12000Y-51100D02*
X-11500Y-50600D01*
X-21778Y-48500D02*
X-21278Y-49000D01*
X-22278Y-48500D02*
X-21778D01*
X-22278D02*
X-21778Y-48000D01*
X-22278Y-47500D02*
X-21778Y-48000D01*
X-22278Y-47500D02*
X-21778D01*
X-21278Y-47000D01*
X-20778Y-47500D01*
X-20278D01*
X-20778Y-48000D02*
X-20278Y-47500D01*
X-20778Y-48000D02*
X-20278Y-48500D01*
X-20778D02*
X-20278D01*
X-21278Y-49000D02*
X-20778Y-48500D01*
X-26100Y-61100D02*
X-25600Y-61600D01*
X-26600Y-61100D02*
X-26100D01*
X-26600D02*
X-26100Y-60600D01*
X-26600Y-60100D02*
X-26100Y-60600D01*
X-26600Y-60100D02*
X-26100D01*
X-25600Y-59600D01*
X-25100Y-60100D01*
X-24600D01*
X-25100Y-60600D02*
X-24600Y-60100D01*
X-25100Y-60600D02*
X-24600Y-61100D01*
X-25100D02*
X-24600D01*
X-25600Y-61600D02*
X-25100Y-61100D01*
X-27300Y-66100D02*
X-26800Y-66600D01*
X-27800Y-66100D02*
X-27300D01*
X-27800D02*
X-27300Y-65600D01*
X-27800Y-65100D02*
X-27300Y-65600D01*
X-27800Y-65100D02*
X-27300D01*
X-26800Y-64600D01*
X-26300Y-65100D01*
X-25800D01*
X-26300Y-65600D02*
X-25800Y-65100D01*
X-26300Y-65600D02*
X-25800Y-66100D01*
X-26300D02*
X-25800D01*
X-26800Y-66600D02*
X-26300Y-66100D01*
X-66511Y-58213D02*
X-66011Y-58713D01*
X-67011Y-58213D02*
X-66511D01*
X-67011D02*
X-66511Y-57713D01*
X-67011Y-57213D02*
X-66511Y-57713D01*
X-67011Y-57213D02*
X-66511D01*
X-66011Y-56713D01*
X-65511Y-57213D01*
X-65011D01*
X-65511Y-57713D02*
X-65011Y-57213D01*
X-65511Y-57713D02*
X-65011Y-58213D01*
X-65511D02*
X-65011D01*
X-66011Y-58713D02*
X-65511Y-58213D01*
X-60999D02*
X-60499Y-58713D01*
X-61499Y-58213D02*
X-60999D01*
X-61499D02*
X-60999Y-57713D01*
X-61499Y-57213D02*
X-60999Y-57713D01*
X-61499Y-57213D02*
X-60999D01*
X-60499Y-56713D01*
X-59999Y-57213D01*
X-59499D01*
X-59999Y-57713D02*
X-59499Y-57213D01*
X-59999Y-57713D02*
X-59499Y-58213D01*
X-59999D02*
X-59499D01*
X-60499Y-58713D02*
X-59999Y-58213D01*
X-60100Y-48200D02*
X-59600Y-48700D01*
X-60600Y-48200D02*
X-60100D01*
X-60600D02*
X-60100Y-47700D01*
X-60600Y-47200D02*
X-60100Y-47700D01*
X-60600Y-47200D02*
X-60100D01*
X-59600Y-46700D01*
X-59100Y-47200D01*
X-58600D01*
X-59100Y-47700D02*
X-58600Y-47200D01*
X-59100Y-47700D02*
X-58600Y-48200D01*
X-59100D02*
X-58600D01*
X-59600Y-48700D02*
X-59100Y-48200D01*
X-69741Y-49847D02*
X-69241Y-50347D01*
X-70241Y-49847D02*
X-69741D01*
X-70241D02*
X-69741Y-49347D01*
X-70241Y-48847D02*
X-69741Y-49347D01*
X-70241Y-48847D02*
X-69741D01*
X-69241Y-48347D01*
X-68741Y-48847D01*
X-68241D01*
X-68741Y-49347D02*
X-68241Y-48847D01*
X-68741Y-49347D02*
X-68241Y-49847D01*
X-68741D02*
X-68241D01*
X-69241Y-50347D02*
X-68741Y-49847D01*
X-121982Y12200D02*
X-121482Y11700D01*
X-122482Y12200D02*
X-121982D01*
X-122482D02*
X-121982Y12700D01*
X-122482Y13200D02*
X-121982Y12700D01*
X-122482Y13200D02*
X-121982D01*
X-121482Y13700D01*
X-120982Y13200D01*
X-120482D01*
X-120982Y12700D02*
X-120482Y13200D01*
X-120982Y12700D02*
X-120482Y12200D01*
X-120982D02*
X-120482D01*
X-121482Y11700D02*
X-120982Y12200D01*
X-122300Y-2759D02*
X-121800Y-3259D01*
X-122800Y-2759D02*
X-122300D01*
X-122800D02*
X-122300Y-2259D01*
X-122800Y-1759D02*
X-122300Y-2259D01*
X-122800Y-1759D02*
X-122300D01*
X-121800Y-1259D01*
X-121300Y-1759D01*
X-120800D01*
X-121300Y-2259D02*
X-120800Y-1759D01*
X-121300Y-2259D02*
X-120800Y-2759D01*
X-121300D02*
X-120800D01*
X-121800Y-3259D02*
X-121300Y-2759D01*
X-74000Y4300D02*
X-73500Y3800D01*
X-74500Y4300D02*
X-74000D01*
X-74500D02*
X-74000Y4800D01*
X-74500Y5300D02*
X-74000Y4800D01*
X-74500Y5300D02*
X-74000D01*
X-73500Y5800D01*
X-73000Y5300D01*
X-72500D01*
X-73000Y4800D02*
X-72500Y5300D01*
X-73000Y4800D02*
X-72500Y4300D01*
X-73000D02*
X-72500D01*
X-73500Y3800D02*
X-73000Y4300D01*
X-45100Y57568D02*
X-44600Y57068D01*
X-45600Y57568D02*
X-45100D01*
X-45600D02*
X-45100Y58068D01*
X-45600Y58568D02*
X-45100Y58068D01*
X-45600Y58568D02*
X-45100D01*
X-44600Y59068D01*
X-44100Y58568D01*
X-43600D01*
X-44100Y58068D02*
X-43600Y58568D01*
X-44100Y58068D02*
X-43600Y57568D01*
X-44100D02*
X-43600D01*
X-44600Y57068D02*
X-44100Y57568D01*
X-36100Y71300D02*
X-35600Y70800D01*
X-36600Y71300D02*
X-36100D01*
X-36600D02*
X-36100Y71800D01*
X-36600Y72300D02*
X-36100Y71800D01*
X-36600Y72300D02*
X-36100D01*
X-35600Y72800D01*
X-35100Y72300D01*
X-34600D01*
X-35100Y71800D02*
X-34600Y72300D01*
X-35100Y71800D02*
X-34600Y71300D01*
X-35100D02*
X-34600D01*
X-35600Y70800D02*
X-35100Y71300D01*
X-36200Y77441D02*
X-35700Y76941D01*
X-36700Y77441D02*
X-36200D01*
X-36700D02*
X-36200Y77941D01*
X-36700Y78441D02*
X-36200Y77941D01*
X-36700Y78441D02*
X-36200D01*
X-35700Y78941D01*
X-35200Y78441D01*
X-34700D01*
X-35200Y77941D02*
X-34700Y78441D01*
X-35200Y77941D02*
X-34700Y77441D01*
X-35200D02*
X-34700D01*
X-35700Y76941D02*
X-35200Y77441D01*
X-24500Y71300D02*
X-24000Y70800D01*
X-25000Y71300D02*
X-24500D01*
X-25000D02*
X-24500Y71800D01*
X-25000Y72300D02*
X-24500Y71800D01*
X-25000Y72300D02*
X-24500D01*
X-24000Y72800D01*
X-23500Y72300D01*
X-23000D01*
X-23500Y71800D02*
X-23000Y72300D01*
X-23500Y71800D02*
X-23000Y71300D01*
X-23500D02*
X-23000D01*
X-24000Y70800D02*
X-23500Y71300D01*
X-44000Y78100D02*
X-43500Y77600D01*
X-44500Y78100D02*
X-44000D01*
X-44500D02*
X-44000Y78600D01*
X-44500Y79100D02*
X-44000Y78600D01*
X-44500Y79100D02*
X-44000D01*
X-43500Y79600D01*
X-43000Y79100D01*
X-42500D01*
X-43000Y78600D02*
X-42500Y79100D01*
X-43000Y78600D02*
X-42500Y78100D01*
X-43000D02*
X-42500D01*
X-43500Y77600D02*
X-43000Y78100D01*
X-39800Y83900D02*
X-39300Y83400D01*
X-40300Y83900D02*
X-39800D01*
X-40300D02*
X-39800Y84400D01*
X-40300Y84900D02*
X-39800Y84400D01*
X-40300Y84900D02*
X-39800D01*
X-39300Y85400D01*
X-38800Y84900D01*
X-38300D01*
X-38800Y84400D02*
X-38300Y84900D01*
X-38800Y84400D02*
X-38300Y83900D01*
X-38800D02*
X-38300D01*
X-39300Y83400D02*
X-38800Y83900D01*
X-60100Y108900D02*
X-59600Y108400D01*
X-60600Y108900D02*
X-60100D01*
X-60600D02*
X-60100Y109400D01*
X-60600Y109900D02*
X-60100Y109400D01*
X-60600Y109900D02*
X-60100D01*
X-59600Y110400D01*
X-59100Y109900D01*
X-58600D01*
X-59100Y109400D02*
X-58600Y109900D01*
X-59100Y109400D02*
X-58600Y108900D01*
X-59100D02*
X-58600D01*
X-59600Y108400D02*
X-59100Y108900D01*
X16813Y85630D02*
X17313Y85130D01*
X16313Y85630D02*
X16813D01*
X16313D02*
X16813Y86130D01*
X16313Y86630D02*
X16813Y86130D01*
X16313Y86630D02*
X16813D01*
X17313Y87130D01*
X17813Y86630D01*
X18313D01*
X17813Y86130D02*
X18313Y86630D01*
X17813Y86130D02*
X18313Y85630D01*
X17813D02*
X18313D01*
X17313Y85130D02*
X17813Y85630D01*
X16813Y91213D02*
X17313Y90713D01*
X16313Y91213D02*
X16813D01*
X16313D02*
X16813Y91713D01*
X16313Y92213D02*
X16813Y91713D01*
X16313Y92213D02*
X16813D01*
X17313Y92713D01*
X17813Y92213D01*
X18313D01*
X17813Y91713D02*
X18313Y92213D01*
X17813Y91713D02*
X18313Y91213D01*
X17813D02*
X18313D01*
X17313Y90713D02*
X17813Y91213D01*
X16813Y98013D02*
X17313Y97513D01*
X16313Y98013D02*
X16813D01*
X16313D02*
X16813Y98513D01*
X16313Y99013D02*
X16813Y98513D01*
X16313Y99013D02*
X16813D01*
X17313Y99513D01*
X17813Y99013D01*
X18313D01*
X17813Y98513D02*
X18313Y99013D01*
X17813Y98513D02*
X18313Y98013D01*
X17813D02*
X18313D01*
X17313Y97513D02*
X17813Y98013D01*
X3800Y61300D02*
X4300Y60800D01*
X3300Y61300D02*
X3800D01*
X3300D02*
X3800Y61800D01*
X3300Y62300D02*
X3800Y61800D01*
X3300Y62300D02*
X3800D01*
X4300Y62800D01*
X4800Y62300D01*
X5300D01*
X4800Y61800D02*
X5300Y62300D01*
X4800Y61800D02*
X5300Y61300D01*
X4800D02*
X5300D01*
X4300Y60800D02*
X4800Y61300D01*
X1945Y72192D02*
X2445Y71692D01*
X1445Y72192D02*
X1945D01*
X1445D02*
X1945Y72692D01*
X1445Y73191D02*
X1945Y72692D01*
X1445Y73191D02*
X1945D01*
X2445Y73691D01*
X2945Y73191D01*
X3445D01*
X2945Y72692D02*
X3445Y73191D01*
X2945Y72692D02*
X3445Y72192D01*
X2945D02*
X3445D01*
X2445Y71692D02*
X2945Y72192D01*
X-5732Y71700D02*
X-5232Y71200D01*
X-6232Y71700D02*
X-5732D01*
X-6232D02*
X-5732Y72200D01*
X-6232Y72700D02*
X-5732Y72200D01*
X-6232Y72700D02*
X-5732D01*
X-5232Y73200D01*
X-4732Y72700D01*
X-4232D01*
X-4732Y72200D02*
X-4232Y72700D01*
X-4732Y72200D02*
X-4232Y71700D01*
X-4732D02*
X-4232D01*
X-5232Y71200D02*
X-4732Y71700D01*
X37900Y58700D02*
X38400Y58200D01*
X37400Y58700D02*
X37900D01*
X37400D02*
X37900Y59200D01*
X37400Y59700D02*
X37900Y59200D01*
X37400Y59700D02*
X37900D01*
X38400Y60200D01*
X38900Y59700D01*
X39400D01*
X38900Y59200D02*
X39400Y59700D01*
X38900Y59200D02*
X39400Y58700D01*
X38900D02*
X39400D01*
X38400Y58200D02*
X38900Y58700D01*
X49700Y66843D02*
X50200Y66343D01*
X49200Y66843D02*
X49700D01*
X49200D02*
X49700Y67343D01*
X49200Y67843D02*
X49700Y67343D01*
X49200Y67843D02*
X49700D01*
X50200Y68343D01*
X50700Y67843D01*
X51200D01*
X50700Y67343D02*
X51200Y67843D01*
X50700Y67343D02*
X51200Y66843D01*
X50700D02*
X51200D01*
X50200Y66343D02*
X50700Y66843D01*
X39553Y78188D02*
X40053Y77688D01*
X39053Y78188D02*
X39553D01*
X39053D02*
X39553Y78688D01*
X39053Y79188D02*
X39553Y78688D01*
X39053Y79188D02*
X39553D01*
X40053Y79688D01*
X40553Y79188D01*
X41053D01*
X40553Y78688D02*
X41053Y79188D01*
X40553Y78688D02*
X41053Y78188D01*
X40553D02*
X41053D01*
X40053Y77688D02*
X40553Y78188D01*
X39553Y82107D02*
X40053Y81607D01*
X39053Y82107D02*
X39553D01*
X39053D02*
X39553Y82607D01*
X39053Y83106D02*
X39553Y82607D01*
X39053Y83106D02*
X39553D01*
X40053Y83606D01*
X40553Y83106D01*
X41053D01*
X40553Y82607D02*
X41053Y83106D01*
X40553Y82607D02*
X41053Y82107D01*
X40553D02*
X41053D01*
X40053Y81607D02*
X40553Y82107D01*
X42300Y65491D02*
X42800Y64991D01*
X41800Y65491D02*
X42300D01*
X41800D02*
X42300Y65991D01*
X41800Y66492D02*
X42300Y65991D01*
X41800Y66492D02*
X42300D01*
X42800Y66992D01*
X43300Y66492D01*
X43800D01*
X43300Y65991D02*
X43800Y66492D01*
X43300Y65991D02*
X43800Y65491D01*
X43300D02*
X43800D01*
X42800Y64991D02*
X43300Y65491D01*
X35153Y94263D02*
X35653Y93763D01*
X34653Y94263D02*
X35153D01*
X34653D02*
X35153Y94763D01*
X34653Y95263D02*
X35153Y94763D01*
X34653Y95263D02*
X35153D01*
X35653Y95763D01*
X36153Y95263D01*
X36653D01*
X36153Y94763D02*
X36653Y95263D01*
X36153Y94763D02*
X36653Y94263D01*
X36153D02*
X36653D01*
X35653Y93763D02*
X36153Y94263D01*
X35153Y97092D02*
X35653Y96592D01*
X34653Y97092D02*
X35153D01*
X34653D02*
X35153Y97592D01*
X34653Y98092D02*
X35153Y97592D01*
X34653Y98092D02*
X35153D01*
X35653Y98592D01*
X36153Y98092D01*
X36653D01*
X36153Y97592D02*
X36653Y98092D01*
X36153Y97592D02*
X36653Y97092D01*
X36153D02*
X36653D01*
X35653Y96592D02*
X36153Y97092D01*
X59900Y7400D02*
X60400Y6900D01*
X59400Y7400D02*
X59900D01*
X59400D02*
X59900Y7900D01*
X59400Y8400D02*
X59900Y7900D01*
X59400Y8400D02*
X59900D01*
X60400Y8900D01*
X60900Y8400D01*
X61400D01*
X60900Y7900D02*
X61400Y8400D01*
X60900Y7900D02*
X61400Y7400D01*
X60900D02*
X61400D01*
X60400Y6900D02*
X60900Y7400D01*
X39059Y29300D02*
X39559Y28800D01*
X38559Y29300D02*
X39059D01*
X38559D02*
X39059Y29800D01*
X38559Y30300D02*
X39059Y29800D01*
X38559Y30300D02*
X39059D01*
X39559Y30800D01*
X40059Y30300D01*
X40559D01*
X40059Y29800D02*
X40559Y30300D01*
X40059Y29800D02*
X40559Y29300D01*
X40059D02*
X40559D01*
X39559Y28800D02*
X40059Y29300D01*
X57500Y27100D02*
X58000Y26600D01*
X57000Y27100D02*
X57500D01*
X57000D02*
X57500Y27600D01*
X57000Y28100D02*
X57500Y27600D01*
X57000Y28100D02*
X57500D01*
X58000Y28600D01*
X58500Y28100D01*
X59000D01*
X58500Y27600D02*
X59000Y28100D01*
X58500Y27600D02*
X59000Y27100D01*
X58500D02*
X59000D01*
X58000Y26600D02*
X58500Y27100D01*
X120300Y12700D02*
X120800Y12200D01*
X119800Y12700D02*
X120300D01*
X119800D02*
X120300Y13200D01*
X119800Y13700D02*
X120300Y13200D01*
X119800Y13700D02*
X120300D01*
X120800Y14200D01*
X121300Y13700D01*
X121800D01*
X121300Y13200D02*
X121800Y13700D01*
X121300Y13200D02*
X121800Y12700D01*
X121300D02*
X121800D01*
X120800Y12200D02*
X121300Y12700D01*
X120300Y-2965D02*
X120800Y-3465D01*
X119800Y-2965D02*
X120300D01*
X119800D02*
X120300Y-2465D01*
X119800Y-1965D02*
X120300Y-2465D01*
X119800Y-1965D02*
X120300D01*
X120800Y-1465D01*
X121300Y-1965D01*
X121800D01*
X121300Y-2465D02*
X121800Y-1965D01*
X121300Y-2465D02*
X121800Y-2965D01*
X121300D02*
X121800D01*
X120800Y-3465D02*
X121300Y-2965D01*
X91558Y-22965D02*
X92058Y-23465D01*
X91058Y-22965D02*
X91558D01*
X91058D02*
X91558Y-22465D01*
X91058Y-21965D02*
X91558Y-22465D01*
X91058Y-21965D02*
X91558D01*
X92058Y-21465D01*
X92558Y-21965D01*
X93058D01*
X92558Y-22465D02*
X93058Y-21965D01*
X92558Y-22465D02*
X93058Y-22965D01*
X92558D02*
X93058D01*
X92058Y-23465D02*
X92558Y-22965D01*
X99362Y-22165D02*
X99862Y-22665D01*
X98862Y-22165D02*
X99362D01*
X98862D02*
X99362Y-21665D01*
X98862Y-21165D02*
X99362Y-21665D01*
X98862Y-21165D02*
X99362D01*
X99862Y-20665D01*
X100362Y-21165D01*
X100862D01*
X100362Y-21665D02*
X100862Y-21165D01*
X100362Y-21665D02*
X100862Y-22165D01*
X100362D02*
X100862D01*
X99862Y-22665D02*
X100362Y-22165D01*
X-35222Y-54350D02*
X-34722Y-54850D01*
X-35722Y-54350D02*
X-35222D01*
X-35722D02*
X-35222Y-53850D01*
X-35722Y-53350D02*
X-35222Y-53850D01*
X-35722Y-53350D02*
X-35222D01*
X-34722Y-52850D01*
X-34222Y-53350D01*
X-33722D01*
X-34222Y-53850D02*
X-33722Y-53350D01*
X-34222Y-53850D02*
X-33722Y-54350D01*
X-34222D02*
X-33722D01*
X-34722Y-54850D02*
X-34222Y-54350D01*
X-41300Y34768D02*
X-40800Y34268D01*
X-41800Y34768D02*
X-41300D01*
X-41800D02*
X-41300Y35268D01*
X-41800Y35768D02*
X-41300Y35268D01*
X-41800Y35768D02*
X-41300D01*
X-40800Y36268D01*
X-40300Y35768D01*
X-39800D01*
X-40300Y35268D02*
X-39800Y35768D01*
X-40300Y35268D02*
X-39800Y34768D01*
X-40300D02*
X-39800D01*
X-40800Y34268D02*
X-40300Y34768D01*
X-52600Y17400D02*
X-52100Y16900D01*
X-53100Y17400D02*
X-52600D01*
X-53100D02*
X-52600Y17900D01*
X-53100Y18400D02*
X-52600Y17900D01*
X-53100Y18400D02*
X-52600D01*
X-52100Y18900D01*
X-51600Y18400D01*
X-51100D01*
X-51600Y17900D02*
X-51100Y18400D01*
X-51600Y17900D02*
X-51100Y17400D01*
X-51600D02*
X-51100D01*
X-52100Y16900D02*
X-51600Y17400D01*
X-54400Y-5800D02*
X-53900Y-6300D01*
X-54900Y-5800D02*
X-54400D01*
X-54900D02*
X-54400Y-5300D01*
X-54900Y-4800D02*
X-54400Y-5300D01*
X-54900Y-4800D02*
X-54400D01*
X-53900Y-4300D01*
X-53400Y-4800D01*
X-52900D01*
X-53400Y-5300D02*
X-52900Y-4800D01*
X-53400Y-5300D02*
X-52900Y-5800D01*
X-53400D02*
X-52900D01*
X-53900Y-6300D02*
X-53400Y-5800D01*
X-52800Y49300D02*
X-52300Y48800D01*
X-53300Y49300D02*
X-52800D01*
X-53300D02*
X-52800Y49800D01*
X-53300Y50300D02*
X-52800Y49800D01*
X-53300Y50300D02*
X-52800D01*
X-52300Y50800D01*
X-51800Y50300D01*
X-51300D01*
X-51800Y49800D02*
X-51300Y50300D01*
X-51800Y49800D02*
X-51300Y49300D01*
X-51800D02*
X-51300D01*
X-52300Y48800D02*
X-51800Y49300D01*
X-70238Y19300D02*
X-69738Y18800D01*
X-70738Y19300D02*
X-70238D01*
X-70738D02*
X-70238Y19800D01*
X-70738Y20300D02*
X-70238Y19800D01*
X-70738Y20300D02*
X-70238D01*
X-69738Y20800D01*
X-69238Y20300D01*
X-68738D01*
X-69238Y19800D02*
X-68738Y20300D01*
X-69238Y19800D02*
X-68738Y19300D01*
X-69238D02*
X-68738D01*
X-69738Y18800D02*
X-69238Y19300D01*
X-37900Y-86200D02*
X-37400Y-86700D01*
X-38400Y-86200D02*
X-37900D01*
X-38400D02*
X-37900Y-85700D01*
X-38400Y-85200D02*
X-37900Y-85700D01*
X-38400Y-85200D02*
X-37900D01*
X-37400Y-84700D01*
X-36900Y-85200D01*
X-36400D01*
X-36900Y-85700D02*
X-36400Y-85200D01*
X-36900Y-85700D02*
X-36400Y-86200D01*
X-36900D02*
X-36400D01*
X-37400Y-86700D02*
X-36900Y-86200D01*
X-38000Y-103215D02*
X-37500Y-103715D01*
X-38500Y-103215D02*
X-38000D01*
X-38500D02*
X-38000Y-102715D01*
X-38500Y-102215D02*
X-38000Y-102715D01*
X-38500Y-102215D02*
X-38000D01*
X-37500Y-101715D01*
X-37000Y-102215D01*
X-36500D01*
X-37000Y-102715D02*
X-36500Y-102215D01*
X-37000Y-102715D02*
X-36500Y-103215D01*
X-37000D02*
X-36500D01*
X-37500Y-103715D02*
X-37000Y-103215D01*
X-75841Y-94295D02*
X-75341Y-94795D01*
X-76341Y-94295D02*
X-75841D01*
X-76341D02*
X-75841Y-93795D01*
X-76341Y-93295D02*
X-75841Y-93795D01*
X-76341Y-93295D02*
X-75841D01*
X-75341Y-92795D01*
X-74841Y-93295D01*
X-74341D01*
X-74841Y-93795D02*
X-74341Y-93295D01*
X-74841Y-93795D02*
X-74341Y-94295D01*
X-74841D02*
X-74341D01*
X-75341Y-94795D02*
X-74841Y-94295D01*
X-87600Y-74120D02*
X-87100Y-74620D01*
X-88100Y-74120D02*
X-87600D01*
X-88100D02*
X-87600Y-73620D01*
X-88100Y-73120D02*
X-87600Y-73620D01*
X-88100Y-73120D02*
X-87600D01*
X-87100Y-72620D01*
X-86600Y-73120D01*
X-86100D01*
X-86600Y-73620D02*
X-86100Y-73120D01*
X-86600Y-73620D02*
X-86100Y-74120D01*
X-86600D02*
X-86100D01*
X-87100Y-74620D02*
X-86600Y-74120D01*
X106400Y-66700D02*
X106900Y-67200D01*
X105900Y-66700D02*
X106400D01*
X105900D02*
X106400Y-66200D01*
X105900Y-65700D02*
X106400Y-66200D01*
X105900Y-65700D02*
X106400D01*
X106900Y-65200D01*
X107400Y-65700D01*
X107900D01*
X107400Y-66200D02*
X107900Y-65700D01*
X107400Y-66200D02*
X107900Y-66700D01*
X107400D02*
X107900D01*
X106900Y-67200D02*
X107400Y-66700D01*
X61237Y96013D02*
X61737Y95513D01*
X60737Y96013D02*
X61237D01*
X60737D02*
X61237Y96513D01*
X60737Y97013D02*
X61237Y96513D01*
X60737Y97013D02*
X61237D01*
X61737Y97513D01*
X62237Y97013D01*
X62737D01*
X62237Y96513D02*
X62737Y97013D01*
X62237Y96513D02*
X62737Y96013D01*
X62237D02*
X62737D01*
X61737Y95513D02*
X62237Y96013D01*
X76200Y91600D02*
X76700Y91100D01*
X75700Y91600D02*
X76200D01*
X75700D02*
X76200Y92100D01*
X75700Y92600D02*
X76200Y92100D01*
X75700Y92600D02*
X76200D01*
X76700Y93100D01*
X77200Y92600D01*
X77700D01*
X77200Y92100D02*
X77700Y92600D01*
X77200Y92100D02*
X77700Y91600D01*
X77200D02*
X77700D01*
X76700Y91100D02*
X77200Y91600D01*
Y82100D02*
X77700Y81600D01*
X76700Y82100D02*
X77200D01*
X76700D02*
X77200Y82600D01*
X76700Y83100D02*
X77200Y82600D01*
X76700Y83100D02*
X77200D01*
X77700Y83600D01*
X78200Y83100D01*
X78700D01*
X78200Y82600D02*
X78700Y83100D01*
X78200Y82600D02*
X78700Y82100D01*
X78200D02*
X78700D01*
X77700Y81600D02*
X78200Y82100D01*
X39700Y50700D02*
X40200Y50200D01*
X39200Y50700D02*
X39700D01*
X39200D02*
X39700Y51200D01*
X39200Y51700D02*
X39700Y51200D01*
X39200Y51700D02*
X39700D01*
X40200Y52200D01*
X40700Y51700D01*
X41200D01*
X40700Y51200D02*
X41200Y51700D01*
X40700Y51200D02*
X41200Y50700D01*
X40700D02*
X41200D01*
X40200Y50200D02*
X40700Y50700D01*
X56200Y39300D02*
X56700Y38800D01*
X55700Y39300D02*
X56200D01*
X55700D02*
X56200Y39800D01*
X55700Y40300D02*
X56200Y39800D01*
X55700Y40300D02*
X56200D01*
X56700Y40800D01*
X57200Y40300D01*
X57700D01*
X57200Y39800D02*
X57700Y40300D01*
X57200Y39800D02*
X57700Y39300D01*
X57200D02*
X57700D01*
X56700Y38800D02*
X57200Y39300D01*
X-20900Y47800D02*
X-20400Y47300D01*
X-21400Y47800D02*
X-20900D01*
X-21400D02*
X-20900Y48300D01*
X-21400Y48800D02*
X-20900Y48300D01*
X-21400Y48800D02*
X-20900D01*
X-20400Y49300D01*
X-19900Y48800D01*
X-19400D01*
X-19900Y48300D02*
X-19400Y48800D01*
X-19900Y48300D02*
X-19400Y47800D01*
X-19900D02*
X-19400D01*
X-20400Y47300D02*
X-19900Y47800D01*
X-74500Y9200D02*
X-73500Y9700D01*
X-72500Y9200D01*
X-73000Y10200D02*
X-72500Y9200D01*
X-73000Y10200D02*
X-72500Y11200D01*
X-73500Y10700D02*
X-72500Y11200D01*
X-74500D02*
X-73500Y10700D01*
X-74500Y11200D02*
X-74000Y10200D01*
X-74500Y9200D02*
X-74000Y10200D01*
X48075Y-25300D02*
X48575Y-25800D01*
X47575Y-25300D02*
X48075D01*
X47575D02*
X48075Y-24800D01*
X47575Y-24300D02*
X48075Y-24800D01*
X47575Y-24300D02*
X48075D01*
X48575Y-23800D01*
X49075Y-24300D01*
X49575D01*
X49075Y-24800D02*
X49575Y-24300D01*
X49075Y-24800D02*
X49575Y-25300D01*
X49075D02*
X49575D01*
X48575Y-25800D02*
X49075Y-25300D01*
X17700Y-76200D02*
X18200Y-76700D01*
X17200Y-76200D02*
X17700D01*
X17200D02*
X17700Y-75700D01*
X17200Y-75200D02*
X17700Y-75700D01*
X17200Y-75200D02*
X17700D01*
X18200Y-74700D01*
X18700Y-75200D01*
X19200D01*
X18700Y-75700D02*
X19200Y-75200D01*
X18700Y-75700D02*
X19200Y-76200D01*
X18700D02*
X19200D01*
X18200Y-76700D02*
X18700Y-76200D01*
X-92500Y11100D02*
X-92000Y10600D01*
X-93000Y11100D02*
X-92500D01*
X-93000D02*
X-92500Y11600D01*
X-93000Y12100D02*
X-92500Y11600D01*
X-93000Y12100D02*
X-92500D01*
X-92000Y12600D01*
X-91500Y12100D01*
X-91000D01*
X-91500Y11600D02*
X-91000Y12100D01*
X-91500Y11600D02*
X-91000Y11100D01*
X-91500D02*
X-91000D01*
X-92000Y10600D02*
X-91500Y11100D01*
X-49300Y-72600D02*
X-48800Y-73100D01*
X-49800Y-72600D02*
X-49300D01*
X-49800D02*
X-49300Y-72100D01*
X-49800Y-71600D02*
X-49300Y-72100D01*
X-49800Y-71600D02*
X-49300D01*
X-48800Y-71100D01*
X-48300Y-71600D01*
X-47800D01*
X-48300Y-72100D02*
X-47800Y-71600D01*
X-48300Y-72100D02*
X-47800Y-72600D01*
X-48300D02*
X-47800D01*
X-48800Y-73100D02*
X-48300Y-72600D01*
X-49800Y-69800D02*
X-49300Y-70300D01*
X-50300Y-69800D02*
X-49800D01*
X-50300D02*
X-49800Y-69300D01*
X-50300Y-68800D02*
X-49800Y-69300D01*
X-50300Y-68800D02*
X-49800D01*
X-49300Y-68300D01*
X-48800Y-68800D01*
X-48300D01*
X-48800Y-69300D02*
X-48300Y-68800D01*
X-48800Y-69300D02*
X-48300Y-69800D01*
X-48800D02*
X-48300D01*
X-49300Y-70300D02*
X-48800Y-69800D01*
X-87300Y10400D02*
X-86800Y9900D01*
X-87800Y10400D02*
X-87300D01*
X-87800D02*
X-87300Y10900D01*
X-87800Y11400D02*
X-87300Y10900D01*
X-87800Y11400D02*
X-87300D01*
X-86800Y11900D01*
X-86300Y11400D01*
X-85800D01*
X-86300Y10900D02*
X-85800Y11400D01*
X-86300Y10900D02*
X-85800Y10400D01*
X-86300D02*
X-85800D01*
X-86800Y9900D02*
X-86300Y10400D01*
X49579Y-48888D02*
X50079Y-49388D01*
X49079Y-48888D02*
X49579D01*
X49079D02*
X49579Y-48388D01*
X49079Y-47888D02*
X49579Y-48388D01*
X49079Y-47888D02*
X49579D01*
X50079Y-47388D01*
X50579Y-47888D01*
X51079D01*
X50579Y-48388D02*
X51079Y-47888D01*
X50579Y-48388D02*
X51079Y-48888D01*
X50579D02*
X51079D01*
X50079Y-49388D02*
X50579Y-48888D01*
X59400Y-53900D02*
X59900Y-54400D01*
X58900Y-53900D02*
X59400D01*
X58900D02*
X59400Y-53400D01*
X58900Y-52900D02*
X59400Y-53400D01*
X58900Y-52900D02*
X59400D01*
X59900Y-52400D01*
X60400Y-52900D01*
X60900D01*
X60400Y-53400D02*
X60900Y-52900D01*
X60400Y-53400D02*
X60900Y-53900D01*
X60400D02*
X60900D01*
X59900Y-54400D02*
X60400Y-53900D01*
X52000Y-68800D02*
X52500Y-69300D01*
X51500Y-68800D02*
X52000D01*
X51500D02*
X52000Y-68300D01*
X51500Y-67800D02*
X52000Y-68300D01*
X51500Y-67800D02*
X52000D01*
X52500Y-67300D01*
X53000Y-67800D01*
X53500D01*
X53000Y-68300D02*
X53500Y-67800D01*
X53000Y-68300D02*
X53500Y-68800D01*
X53000D02*
X53500D01*
X52500Y-69300D02*
X53000Y-68800D01*
X52000Y-84500D02*
X52500Y-85000D01*
X51500Y-84500D02*
X52000D01*
X51500D02*
X52000Y-84000D01*
X51500Y-83500D02*
X52000Y-84000D01*
X51500Y-83500D02*
X52000D01*
X52500Y-83000D01*
X53000Y-83500D01*
X53500D01*
X53000Y-84000D02*
X53500Y-83500D01*
X53000Y-84000D02*
X53500Y-84500D01*
X53000D02*
X53500D01*
X52500Y-85000D02*
X53000Y-84500D01*
X-40400Y-109600D02*
X-39900Y-110100D01*
X-40900Y-109600D02*
X-40400D01*
X-40900D02*
X-40400Y-109100D01*
X-40900Y-108600D02*
X-40400Y-109100D01*
X-40900Y-108600D02*
X-40400D01*
X-39900Y-108100D01*
X-39400Y-108600D01*
X-38900D01*
X-39400Y-109100D02*
X-38900Y-108600D01*
X-39400Y-109100D02*
X-38900Y-109600D01*
X-39400D02*
X-38900D01*
X-39900Y-110100D02*
X-39400Y-109600D01*
X-81500Y90300D02*
X-81000Y89800D01*
X-82000Y90300D02*
X-81500D01*
X-82000D02*
X-81500Y90800D01*
X-82000Y91300D02*
X-81500Y90800D01*
X-82000Y91300D02*
X-81500D01*
X-81000Y91800D01*
X-80500Y91300D01*
X-80000D01*
X-80500Y90800D02*
X-80000Y91300D01*
X-80500Y90800D02*
X-80000Y90300D01*
X-80500D02*
X-80000D01*
X-81000Y89800D02*
X-80500Y90300D01*
X-78264Y69469D02*
X-77264Y71469D01*
X-79264D02*
X-77264D01*
X-79264D02*
X-78264Y69469D01*
X-21896Y-104014D02*
X-20896Y-102014D01*
X-22896D02*
X-20896D01*
X-22896D02*
X-21896Y-104014D01*
X100161Y31544D02*
X101161Y33544D01*
X99160D02*
X101161D01*
X99160D02*
X100161Y31544D01*
X79247Y-95205D02*
X81247D01*
Y-93205D01*
X79247D02*
X81247D01*
X79247Y-95205D02*
Y-93205D01*
X73680Y-100773D02*
X75679D01*
Y-98773D01*
X73680D02*
X75679D01*
X73680Y-100773D02*
Y-98773D01*
X68112Y-106341D02*
X70112D01*
Y-104341D01*
X68112D02*
X70112D01*
X68112Y-106341D02*
Y-104341D01*
X84815Y-89638D02*
X86815D01*
Y-87638D01*
X84815D02*
X86815D01*
X84815Y-89638D02*
Y-87638D01*
M02*
