G04*
G04 #@! TF.GenerationSoftware,Altium Limited,Altium Designer,19.1.5 (86)*
G04*
G04 Layer_Color=16711935*
%FSLAX25Y25*%
%MOIN*%
G70*
G01*
G75*
%ADD15C,0.00500*%
D15*
X-47638Y-88648D02*
G03*
X-47638Y-88648I-3543J0D01*
G01*
X-98819Y0D02*
G03*
X-98819Y0I-3543J0D01*
G01*
X-47638Y88648D02*
G03*
X-47638Y88648I-3543J0D01*
G01*
X-122279Y44030D02*
G03*
X-125220Y41410I796J-3856D01*
G01*
X125483Y40607D02*
G03*
X121737Y43332I-3746J-1212D01*
G01*
X99270Y83881D02*
G03*
X98473Y87739I-3737J1238D01*
G01*
X-97908Y88368D02*
G03*
X-98395Y83762I2923J-2638D01*
G01*
X-78609Y51181D02*
G03*
X-78609Y51181I-10039J0D01*
G01*
X89632Y41142D02*
G03*
X89632Y61221I0J10039D01*
G01*
X87664D02*
G03*
X87664Y41142I0J-10039D01*
G01*
X10039Y-102362D02*
G03*
X-10039Y-102362I-10039J0D01*
G01*
X98059Y80224D02*
G03*
X98906Y70847I11212J-3714D01*
G01*
X110580Y49480D02*
G03*
X120945Y43332I10365J5663D01*
G01*
X-118506Y44809D02*
G03*
X-110808Y50231I-2389J11567D01*
G01*
X-98141Y71025D02*
G03*
X-97999Y83075I-10087J6145D01*
G01*
X41339Y0D02*
G03*
X41339Y0I-41339J0D01*
G01*
X-125220Y41410D02*
G03*
X-59252Y-117831I125220J-41410D01*
G01*
X59252D02*
G03*
X125483Y40607I-59252J117831D01*
G01*
X98473Y87739D02*
G03*
X57081Y118898I-98473J-87739D01*
G01*
X-57081D02*
G03*
X-97908Y88368I57081J-118898D01*
G01*
X98906Y70847D02*
X110580Y49480D01*
X-59252Y-117831D02*
X-10039D01*
X10039D02*
X59252D01*
X98059Y80224D02*
X99270Y83881D01*
X10039Y-117831D02*
Y-102362D01*
X-10039Y-117831D02*
Y-102362D01*
X87664Y41142D02*
X89632D01*
X120945Y43332D02*
X121737D01*
X-98395Y83762D02*
X-97999Y83075D01*
X-122279Y44030D02*
X-118506Y44809D01*
X87664Y61221D02*
X89632D01*
X-110808Y50231D02*
X-98141Y71025D01*
X-57081Y118898D02*
X57081D01*
M02*
